<svg width="140" height="48" viewBox="0 0 140 48" fill="none" xmlns="http://www.w3.org/2000/svg">
<g clip-path="url(#clip0_3624_98626)">
<path d="M135.011 0.078125H4.93944C2.21146 0.078125 0 2.28959 0 5.01756V42.8866C0 45.6146 2.21146 47.826 4.93944 47.826H135.011C137.739 47.826 139.951 45.6146 139.951 42.8866V5.01756C139.951 2.28959 137.739 0.078125 135.011 0.078125Z" fill="black"/>
<path fill-rule="evenodd" clip-rule="evenodd" d="M26.8075 14.143C27.7747 12.9731 28.2525 11.4748 28.1412 9.96094C26.6569 10.119 25.2854 10.8267 24.2966 11.9449C23.3255 13.0526 22.834 14.5006 22.9301 15.9706C23.6721 15.9768 24.4061 15.8157 25.0774 15.4993C25.7487 15.1829 26.34 14.7193 26.8075 14.143ZM30.1005 23.8325C30.1197 22.8395 30.3875 21.8672 30.8793 21.0043C31.3712 20.1415 32.0714 19.4156 32.916 18.8931C32.3747 18.1199 31.6605 17.4836 30.8302 17.0349C29.9999 16.5861 29.0763 16.3373 28.1329 16.3081C26.9483 16.2748 25.7732 16.529 24.7083 17.049C24.2154 17.2866 23.6871 17.4423 23.1441 17.51C22.5721 17.4507 22.015 17.2919 21.4976 17.0408C20.6533 16.6331 19.7342 16.4034 18.7974 16.3657C17.6968 16.4047 16.6251 16.7286 15.6871 17.3058C14.7492 17.883 13.9771 18.6937 13.4463 19.6587C11.1248 23.6761 12.8536 29.5376 15.0928 32.8305C16.2042 34.4194 17.4967 36.1976 19.209 36.1235C19.864 36.0797 20.5043 35.9092 21.0942 35.6213C21.8444 35.2598 22.6653 35.0686 23.4981 35.0615C24.2918 35.0706 25.0736 35.2562 25.7867 35.6049C26.4123 35.9198 27.1032 36.0834 27.8036 36.0823C29.5818 36.0823 30.7097 34.4853 31.7799 32.8882C32.5762 31.756 33.1901 30.5059 33.5993 29.1836C32.5483 28.7404 31.6526 27.9954 31.0253 27.0429C30.3981 26.0903 30.0676 24.973 30.0758 23.8325H30.1005ZM45.1905 10.8418H42.8113V17.9793H45.2069C47.3309 17.9793 48.5822 16.6621 48.5822 14.4064C48.5822 12.1508 47.3144 10.8418 45.1905 10.8418ZM43.6839 11.665V17.2054H45.1328C46.7793 17.2054 47.652 16.2176 47.652 14.4476C47.652 12.6776 46.7546 11.6074 45.1328 11.6074L43.6839 11.665ZM49.6195 15.4355C49.6195 17.082 50.5827 18.0945 52.0069 18.0945C53.4311 18.0945 54.3861 17.0737 54.3861 15.4355C54.3861 13.7972 53.4229 12.7682 52.0069 12.7682C50.5909 12.7682 49.6195 13.7643 49.6195 15.4108V15.4355ZM52.0069 17.3372C52.9125 17.3372 53.5052 16.6456 53.5052 15.4355C53.5052 14.2253 52.9125 13.5256 52.0069 13.5256C51.1013 13.5256 50.4921 14.2253 50.4921 15.4355C50.4921 16.6456 51.0931 17.3125 52.0069 17.3125V17.3372ZM59.8277 18.004H60.7003L62.1327 12.8587H61.3095L60.2805 17.049L59.1197 12.8587H58.2964L57.1274 17.049L56.0984 12.8587H55.1599L56.6006 18.004H57.4732L58.634 14.0195L59.8277 18.004ZM63.1783 12.8587H64.0015V13.682C64.1566 13.3854 64.3952 13.1408 64.6879 12.9784C64.9805 12.816 65.3143 12.7429 65.648 12.7682C65.8959 12.7542 66.1439 12.7949 66.3744 12.8874C66.6049 12.9798 66.8123 13.1217 66.9819 13.3031C67.1515 13.4845 67.2792 13.7009 67.356 13.9371C67.4327 14.1733 67.4567 14.4234 67.4262 14.6699V17.9628H66.6029V14.7934C66.6029 13.9701 66.2078 13.5091 65.4175 13.5091C65.2315 13.5048 65.0468 13.5399 64.8754 13.6121C64.704 13.6844 64.5499 13.7921 64.4231 13.9282C64.2963 14.0643 64.1998 14.2257 64.1399 14.4018C64.08 14.5778 64.0581 14.7646 64.0756 14.9498V17.9793H63.2523L63.1783 12.8587ZM68.9409 10.8665V18.004H69.7642V10.8418L68.9409 10.8665ZM73.4358 18.0945C72.0116 18.0945 71.0484 17.0737 71.0484 15.4355C71.0484 13.7972 72.0116 12.7682 73.4358 12.7682C74.86 12.7682 75.7409 13.7643 75.7409 15.4108C75.7409 17.0573 74.8106 18.0699 73.3947 18.0699L73.4358 18.0945ZM74.9177 15.4108C74.9177 16.6209 74.3249 17.3125 73.4194 17.3125C72.5138 17.3125 71.9046 16.6209 71.9046 15.4108C71.9046 14.2006 72.4479 13.5009 73.3947 13.5009C74.3414 13.5009 74.9177 14.2006 74.9177 15.4108ZM78.507 18.0699C78.2903 18.0979 78.07 18.0795 77.861 18.0158C77.6519 17.9522 77.4588 17.8447 77.2945 17.7007C77.1302 17.5566 76.9984 17.3792 76.908 17.1802C76.8175 16.9813 76.7705 16.7654 76.77 16.5469C76.77 15.666 77.445 15.1062 78.6305 15.0403L80.1041 14.958V14.5217C80.1041 13.896 79.6925 13.5173 78.9762 13.5173C78.7118 13.4838 78.4444 13.5494 78.2255 13.7014C78.0066 13.8534 77.8517 14.0811 77.7908 14.3406H76.9675C76.9948 14.0986 77.0704 13.8645 77.1898 13.6522C77.3093 13.44 77.4701 13.2538 77.6628 13.1049C77.8555 12.956 78.0762 12.8472 78.3117 12.7851C78.5472 12.7231 78.7928 12.7089 79.0339 12.7435C80.2358 12.7435 81.0014 13.4021 81.0014 14.39V17.9464H80.1782V17.0984C80.0127 17.4011 79.7667 17.652 79.4673 17.8235C79.168 17.995 78.8271 18.0802 78.4823 18.0699H78.507ZM80.1535 16.0282C80.1532 16.2165 80.1136 16.4026 80.0372 16.5746C79.9607 16.7467 79.8491 16.9008 79.7096 17.0272C79.5701 17.1536 79.4056 17.2493 79.2269 17.3084C79.0481 17.3674 78.859 17.3885 78.6716 17.3701C78.0542 17.3701 77.6426 17.049 77.6426 16.5469C77.6426 16.0447 78.0377 15.7236 78.7293 15.7236L80.1041 15.6413L80.1535 16.0282ZM84.4014 18.0699C83.0842 18.0699 82.1951 17.0243 82.1951 15.4108C82.1951 13.7972 83.0842 12.7435 84.3767 12.7435C84.7105 12.7299 85.0415 12.8098 85.3324 12.9742C85.6233 13.1385 85.8625 13.3808 86.0232 13.6737V10.8418H86.8464V17.9793H86.0232V17.1561C85.8541 17.446 85.6092 17.6844 85.3147 17.8454C85.0202 18.0064 84.6873 18.084 84.352 18.0699H84.4014ZM83.076 15.4108C83.076 14.25 83.6522 13.5009 84.566 13.5009C85.4798 13.5009 86.0396 14.2583 86.0396 15.4108C86.0396 16.5633 85.4469 17.3125 84.566 17.3125C83.6852 17.3125 83.0266 16.5469 83.0266 15.4108H83.076ZM92.9548 18.0699C91.5306 18.0699 90.5675 17.049 90.5675 15.4108C90.5675 13.7725 91.5306 12.7435 92.9548 12.7435C94.3791 12.7435 95.334 13.7643 95.334 15.4108C95.334 17.0573 94.3214 18.0699 92.8972 18.0699H92.9548ZM94.4614 15.4108C94.4614 16.6209 93.8686 17.3125 92.9548 17.3125C92.0411 17.3125 91.3825 16.6209 91.3825 15.4108C91.3825 14.2006 91.9834 13.5009 92.889 13.5009C93.7946 13.5009 94.4037 14.2006 94.4037 15.4108H94.4614ZM96.5359 12.834H97.3592V13.6573C97.5143 13.3607 97.7529 13.1161 98.0455 12.9537C98.3382 12.7913 98.6719 12.7182 99.0057 12.7435C99.2536 12.7295 99.5016 12.7702 99.7321 12.8627C99.9626 12.9551 100.17 13.097 100.34 13.2784C100.509 13.4598 100.637 13.6762 100.714 13.9124C100.79 14.1486 100.814 14.3987 100.784 14.6452V17.9381H99.9606V14.7934C99.9606 13.9701 99.5655 13.5091 98.7752 13.5091C98.5888 13.5035 98.4035 13.5377 98.2315 13.6094C98.0594 13.6812 97.9047 13.7889 97.7777 13.9253C97.6507 14.0617 97.5542 14.2237 97.4948 14.4003C97.4354 14.577 97.4144 14.7643 97.4333 14.9498V17.9793H96.61L96.5359 12.834ZM105.715 11.6074H104.892V12.8505H104.126V13.5585H104.892V16.6621C104.892 17.65 105.262 18.0369 106.209 18.0369C106.391 18.0392 106.573 18.0254 106.752 17.9958V17.2795H106.39C105.954 17.2795 105.756 17.0655 105.756 16.5963V13.542H106.752V12.834H105.756L105.715 11.6074ZM108.012 17.9958V10.8418H108.835V13.6573C108.989 13.3593 109.227 13.1135 109.52 12.9509C109.813 12.7882 110.148 12.7161 110.482 12.7435C110.731 12.7316 110.98 12.7736 111.212 12.8668C111.444 12.9599 111.653 13.102 111.825 13.2833C111.997 13.4646 112.128 13.6809 112.208 13.9173C112.289 14.1537 112.318 14.4048 112.293 14.6534V17.9464H111.47V14.8181C111.495 14.6481 111.481 14.4747 111.43 14.3107C111.379 14.1467 111.292 13.9962 111.175 13.8705C111.058 13.7448 110.914 13.647 110.754 13.5844C110.594 13.5219 110.422 13.4961 110.251 13.5091C110.059 13.5011 109.868 13.5344 109.69 13.6068C109.512 13.6791 109.351 13.7889 109.219 13.9286C109.088 14.0683 108.987 14.2347 108.925 14.4166C108.863 14.5984 108.841 14.7915 108.86 14.9827V17.9793L108.012 17.9958ZM118.031 16.5469H117.207C117.116 16.8058 116.941 17.027 116.71 17.176C116.479 17.3249 116.205 17.3932 115.931 17.3701C115.72 17.3765 115.51 17.337 115.315 17.2544C115.12 17.1718 114.946 17.0481 114.803 16.8917C114.661 16.7352 114.554 16.5498 114.49 16.3482C114.426 16.1466 114.407 15.9335 114.433 15.7236V15.6413H118.13V15.312C118.13 13.7561 117.306 12.7435 115.882 12.7435C114.458 12.7435 113.544 13.8302 113.544 15.4272C113.544 17.0243 114.441 18.0699 115.915 18.0699C116.39 18.1041 116.862 17.9703 117.249 17.692C117.636 17.4137 117.912 17.0084 118.031 16.5469ZM115.833 13.5338C115.459 13.5445 115.104 13.6998 114.843 13.9671C114.582 14.2343 114.435 14.5926 114.433 14.9662H117.224C117.238 14.7762 117.212 14.5853 117.148 14.4058C117.084 14.2263 116.983 14.0621 116.852 13.9235C116.722 13.7849 116.563 13.6751 116.388 13.6009C116.212 13.5267 116.023 13.4899 115.833 13.4926V13.5338ZM49.8829 31.8015L51.1343 35.4814H53.3735L48.434 21.8485H46.1619L41.2389 35.4814H43.4452L44.6883 31.7933L49.8829 31.8015ZM47.2568 24.1207L45.2316 30.1056H49.3478L47.3144 24.1207H47.2568ZM64.446 30.5419C64.446 27.3972 62.7996 25.4132 60.264 25.4132C59.6176 25.3903 58.978 25.5505 58.4187 25.8753C57.8594 26.2001 57.4032 26.6763 57.1027 27.249V25.5449H55.127V38.7743H57.1686V33.8349H57.218C57.5168 34.3995 57.9689 34.8683 58.5223 35.1872C59.0758 35.5062 59.708 35.6623 60.3463 35.6378C62.7996 35.6543 64.446 33.662 64.446 30.5419ZM59.7289 33.9501C61.3754 33.9501 62.355 32.633 62.355 30.5419C62.355 28.4509 61.3424 27.1337 59.7289 27.1337C58.1153 27.1337 57.1192 28.4674 57.1192 30.5419C57.1192 32.6165 58.1565 33.9255 59.7289 33.9255V33.9501ZM75.8397 30.5419C75.8397 27.3972 74.1932 25.4132 71.6576 25.4132C71.0103 25.3907 70.3696 25.551 69.8091 25.8756C69.2486 26.2003 68.7908 26.6762 68.4882 27.249V25.5449H66.5124V38.7743H68.554V33.8349H68.6034C68.9 34.3995 69.3505 34.8685 69.9027 35.1876C70.4549 35.5066 71.0862 35.6627 71.7235 35.6378C74.185 35.6543 75.8397 33.662 75.8397 30.5419ZM71.1143 33.9501C72.7608 33.9501 73.7404 32.633 73.7404 30.5419C73.7404 28.4509 72.7361 27.1337 71.1143 27.1337C69.4925 27.1337 68.5129 28.4674 68.5129 30.5419C68.5129 32.6165 69.5501 33.9255 71.1143 33.9255V33.9501ZM83.9733 31.6862H81.8905C82.0222 34.156 84.0639 35.7119 87.0851 35.7119C90.3205 35.7119 92.3539 34.1148 92.3539 31.5957C92.3539 29.6034 91.1849 28.4838 88.3941 27.817L86.8876 27.4548C85.1341 27.0185 84.4178 26.4504 84.4178 25.4872C84.4178 24.2771 85.5375 23.4456 87.1839 23.4456C88.8304 23.4456 89.95 24.2688 90.0735 25.6272H92.1316C92.0657 23.2727 90.09 21.6592 87.1922 21.6592C84.2944 21.6592 82.2527 23.3057 82.2527 25.6272C82.2527 27.5289 83.4135 28.6979 85.9161 29.3071L87.6861 29.7269C89.4478 30.1632 90.1558 30.7971 90.1558 31.8509C90.1558 33.0693 88.921 33.9584 87.2004 33.9584C85.4798 33.9584 84.1297 33.0117 83.9733 31.6862ZM95.0541 23.1986H97.1451V25.5449H99.0304V27.1913H97.1451V32.6659C97.1451 33.5303 97.5238 33.9172 98.3553 33.9172C98.5784 33.9158 98.8012 33.8993 99.0221 33.8678V35.5143C98.6478 35.5861 98.2671 35.6192 97.8861 35.6131C95.8773 35.6131 95.0953 34.8475 95.0953 32.9293V27.1667H93.6464V25.5202H95.0953L95.0541 23.1986ZM100.438 30.5419C100.438 33.7443 102.315 35.7036 105.155 35.7036C107.995 35.7036 109.872 33.7443 109.872 30.5419C109.872 27.3395 107.987 25.3967 105.155 25.3967C102.323 25.3967 100.438 27.3231 100.438 30.5419ZM105.155 34.016C106.802 34.016 107.79 32.7565 107.79 30.5419C107.79 28.3274 106.752 27.0761 105.155 27.0761C103.558 27.0761 102.521 28.3439 102.521 30.5419C102.521 32.74 103.566 33.9913 105.163 33.9913L105.155 34.016ZM113.857 25.5696H111.906V35.4814H113.947V29.5376C113.912 29.242 113.942 28.9423 114.035 28.6594C114.127 28.3764 114.28 28.1171 114.483 27.8993C114.686 27.6815 114.934 27.5105 115.21 27.3982C115.485 27.2859 115.782 27.235 116.08 27.249C116.391 27.2384 116.702 27.2773 117.002 27.3642V25.4625C116.771 25.4184 116.537 25.3936 116.302 25.3885C115.752 25.376 115.214 25.5534 114.779 25.8907C114.345 26.228 114.039 26.7048 113.915 27.2407H113.865L113.857 25.5696ZM125.3 32.5918H127.243C126.955 34.4029 125.234 35.7036 122.962 35.7036C120.039 35.7036 118.278 33.7279 118.278 30.5913C118.278 27.4548 120.072 25.3967 122.871 25.3967C125.67 25.3967 127.35 27.3395 127.35 30.3361V31.0359H120.336V31.1594C120.297 31.5287 120.337 31.9021 120.455 32.2545C120.572 32.6069 120.764 32.93 121.016 33.2022C121.269 33.4744 121.577 33.6893 121.92 33.8325C122.262 33.9758 122.632 34.0439 123.003 34.0325C123.495 34.0753 123.987 33.955 124.404 33.6901C124.82 33.4253 125.138 33.0306 125.308 32.5671L125.3 32.5918ZM120.36 29.6281C120.356 29.2919 120.418 28.9581 120.543 28.6458C120.667 28.3335 120.852 28.0489 121.087 27.808C121.322 27.5672 121.602 27.375 121.911 27.2424C122.22 27.1097 122.552 27.0392 122.888 27.0349C123.223 27.0345 123.554 27.1022 123.862 27.234C124.17 27.3658 124.448 27.5588 124.679 27.8014C124.91 28.044 125.09 28.331 125.206 28.6451C125.323 28.9591 125.374 29.2936 125.358 29.6281H120.36Z" fill="#F8F8F8"/>
</g>
<defs>
<clipPath id="clip0_3624_98626">
<rect width="139.951" height="47.7479" fill="white" transform="translate(0 0.078125)"/>
</clipPath>
</defs>
</svg>
