<svg width="141" height="48" viewBox="0 0 141 48" fill="none" xmlns="http://www.w3.org/2000/svg">
<g clip-path="url(#clip0_3624_98630)">
<path d="M135.062 0.078125H4.99022C2.26224 0.078125 0.0507812 2.28959 0.0507812 5.01756V42.8866C0.0507812 45.6146 2.26224 47.826 4.99022 47.826H135.062C137.79 47.826 140.002 45.6146 140.002 42.8866V5.01756C140.002 2.28959 137.79 0.078125 135.062 0.078125Z" fill="black"/>
<path fill-rule="evenodd" clip-rule="evenodd" d="M43.0732 12.8032H40.2083V13.6265H42.2417C42.1937 14.1196 41.9534 14.5741 41.5729 14.8914C41.1923 15.2088 40.7021 15.3636 40.2083 15.3223C39.8369 15.3252 39.4704 15.237 39.1409 15.0653C38.8115 14.8937 38.5291 14.6439 38.3186 14.3378C38.1081 14.0317 37.9759 13.6787 37.9335 13.3097C37.8911 12.9406 37.9398 12.5668 38.0754 12.221C38.211 11.8751 38.4293 11.5678 38.7112 11.3259C38.9931 11.084 39.33 10.9149 39.6925 10.8334C40.0549 10.752 40.4318 10.7606 40.7901 10.8586C41.1484 10.9566 41.4772 11.1409 41.7478 11.3955L42.3405 10.778C41.7579 10.2305 40.9829 9.93468 40.1836 9.95481C39.7599 9.93305 39.3361 9.99772 38.9381 10.1449C38.5401 10.2921 38.1763 10.5187 37.8686 10.8109C37.561 11.1032 37.316 11.455 37.1486 11.8449C36.9812 12.2348 36.8949 12.6547 36.8949 13.079C36.8949 13.5033 36.9812 13.9232 37.1486 14.3131C37.316 14.703 37.561 15.0548 37.8686 15.3471C38.1763 15.6393 38.5401 15.8659 38.9381 16.0131C39.3361 16.1603 39.7599 16.225 40.1836 16.2032C40.5647 16.224 40.946 16.1652 41.3032 16.0306C41.6603 15.896 41.9855 15.6885 42.2581 15.4214C42.5307 15.1542 42.7447 14.8332 42.8864 14.4788C43.0282 14.1245 43.0946 13.7445 43.0814 13.363C43.0852 13.1725 43.0686 12.982 43.032 12.795L43.0732 12.8032ZM43.6083 26.5102H49.9061C49.9929 26.9158 50.0316 27.3303 50.0214 27.745C50.0497 28.5806 49.9044 29.4129 49.5945 30.1894C49.2847 30.9659 48.8171 31.6697 48.2213 32.2562C47.6255 32.8427 46.9145 33.2992 46.1332 33.5968C45.3519 33.8944 44.5174 34.0267 43.6824 33.9852C42.762 34.023 41.8433 33.8752 40.9812 33.5506C40.1191 33.226 39.3311 32.7312 38.6642 32.0958C37.9973 31.4603 37.4651 30.6971 37.0992 29.8516C36.7334 29.0062 36.5415 28.0957 36.5349 27.1746C36.5282 26.2534 36.707 25.3403 37.0606 24.4897C37.4143 23.639 37.9354 22.8682 38.5931 22.2232C39.2508 21.5782 40.0316 21.0722 40.889 20.7352C41.7463 20.3982 42.6627 20.2372 43.5836 20.2618C44.458 20.2462 45.327 20.4033 46.1406 20.724C46.9543 21.0446 47.6967 21.5226 48.3255 22.1305L46.9754 23.4889C46.0695 22.6209 44.8629 22.137 43.6083 22.1388C42.2852 22.1388 41.0163 22.6644 40.0807 23.6C39.1451 24.5355 38.6195 25.8045 38.6195 27.1276C38.6195 28.4507 39.1451 29.7196 40.0807 30.6552C41.0163 31.5908 42.2852 32.1164 43.6083 32.1164C45.6664 32.1164 47.848 30.9968 48.0703 28.3789H43.6083V26.5102ZM50.8281 29.5315C50.8314 28.6576 51.0931 27.8042 51.5803 27.0788C52.0675 26.3533 52.7584 25.7882 53.5661 25.4545C54.3738 25.1209 55.2621 25.0336 56.1192 25.2037C56.9764 25.3738 57.7641 25.7937 58.3831 26.4105C59.0022 27.0272 59.425 27.8134 59.5982 28.6699C59.7715 29.5264 59.6875 30.415 59.3568 31.2239C59.0262 32.0328 58.4636 32.7258 57.74 33.2157C57.0163 33.7056 56.1639 33.9704 55.2901 33.9769C54.7012 33.9927 54.1153 33.8886 53.5679 33.671C53.0205 33.4534 52.5231 33.1268 52.1058 32.7111C51.6885 32.2953 51.36 31.7991 51.1404 31.2525C50.9208 30.7059 50.8145 30.1204 50.8281 29.5315ZM65.0126 25.16C64.1405 25.1617 63.2885 25.4216 62.5642 25.9071C61.8398 26.3926 61.2755 27.0818 60.9425 27.8878C60.6096 28.6938 60.5229 29.5803 60.6934 30.4355C60.8639 31.2907 61.284 32.0761 61.9006 32.6928C62.5172 33.3094 63.3027 33.7295 64.1579 33.9C65.0131 34.0705 65.8996 33.9838 66.7056 33.6509C67.5116 33.3179 68.2008 32.7536 68.6863 32.0292C69.1718 31.3048 69.4317 30.4529 69.4333 29.5808C69.4492 28.996 69.3457 28.414 69.1292 27.8705C68.9126 27.3269 68.5876 26.8332 68.1739 26.4195C67.7602 26.0058 67.2665 25.6808 66.7229 25.4642C66.1794 25.2477 65.5974 25.1442 65.0126 25.16ZM57.7598 29.5726C57.7798 29.2329 57.7312 28.8926 57.6169 28.572C57.5025 28.2514 57.3249 27.9571 57.0944 27.7067C56.8639 27.4563 56.5854 27.2548 56.2754 27.1143C55.9654 26.9738 55.6303 26.8971 55.2901 26.8889C54.7522 26.8458 54.2139 26.9659 53.7454 27.2334C53.2768 27.501 52.8997 27.9035 52.6634 28.3886C52.4271 28.8736 52.3425 29.4187 52.4206 29.9525C52.4987 30.4864 52.7359 30.9844 53.1012 31.3814C53.4666 31.7784 53.9432 32.0561 54.4687 32.1782C54.9943 32.3003 55.5444 32.2612 56.0474 32.0659C56.5504 31.8706 56.9828 31.5282 57.2883 31.0834C57.5938 30.6387 57.7581 30.1122 57.7598 29.5726ZM65.0372 26.8889C65.5743 26.8575 66.1084 26.9883 66.5702 27.2642C67.032 27.5402 67.4002 27.9485 67.6271 28.4363C67.854 28.9241 67.929 29.4688 67.8424 29.9998C67.7559 30.5308 67.5118 31.0235 67.1418 31.414C66.7717 31.8045 66.2929 32.0748 65.7674 32.1898C65.2418 32.3048 64.6939 32.2592 64.1946 32.0589C63.6953 31.8587 63.2677 31.5129 62.9673 31.0667C62.6669 30.6204 62.5075 30.0941 62.5099 29.5561C62.4921 29.2129 62.5441 28.8697 62.663 28.5473C62.7819 28.2248 62.9651 27.9299 63.2015 27.6804C63.4379 27.431 63.7225 27.2322 64.0381 27.0961C64.3536 26.96 64.6936 26.8895 65.0372 26.8889ZM70.3224 29.5726C70.3112 28.4286 70.7488 27.3258 71.5415 26.5008C72.3341 25.6758 73.4186 25.1945 74.5621 25.16C75.0079 25.15 75.4507 25.2352 75.8609 25.4098C76.2712 25.5844 76.6395 25.8444 76.9413 26.1726V25.4235H78.7854V33.3513C78.7854 36.4714 76.9907 37.9532 74.6692 37.9532C73.8238 37.9647 72.9942 37.7231 72.2872 37.2595C71.5801 36.796 71.0278 36.1316 70.7011 35.3518L72.3641 34.6602C72.5419 35.1164 72.8512 35.5094 73.2529 35.7894C73.6545 36.0693 74.1303 36.2236 74.6198 36.2326C74.9422 36.2504 75.2647 36.1975 75.5645 36.0776C75.8643 35.9576 76.1343 35.7735 76.3555 35.5382C76.5767 35.3029 76.7437 35.0221 76.8449 34.7154C76.9461 34.4087 76.979 34.0836 76.9413 33.7629V32.915C76.6497 33.2702 76.2788 33.552 75.8584 33.7379C75.4381 33.9238 74.98 34.0085 74.521 33.9852C73.3833 33.9444 72.3067 33.4597 71.522 32.635C70.7372 31.8102 70.3067 30.7109 70.3224 29.5726ZM74.735 26.8889C75.0691 26.9031 75.3969 26.985 75.6984 27.1297C75.9999 27.2743 76.2688 27.4787 76.489 27.7304C76.7091 27.9821 76.8759 28.2759 76.9791 28.594C77.0823 28.9121 77.1199 29.2478 77.0895 29.5808C77.1164 29.9146 77.0752 30.2503 76.9684 30.5676C76.8615 30.8849 76.6913 31.1772 76.468 31.4267C76.2447 31.6761 75.973 31.8776 75.6694 32.0188C75.3659 32.16 75.0367 32.2381 74.7021 32.2481C74.3619 32.2491 74.0253 32.1797 73.7132 32.0444C73.4011 31.9091 73.1203 31.7108 72.8884 31.462C72.6566 31.2131 72.4786 30.919 72.3657 30.5981C72.2528 30.2773 72.2074 29.9365 72.2324 29.5973C72.21 29.2531 72.2579 28.9079 72.3731 28.5828C72.4883 28.2577 72.6684 27.9594 72.9025 27.706C73.1366 27.4527 73.4198 27.2496 73.7348 27.1091C74.0498 26.9687 74.3901 26.8937 74.735 26.8889ZM83.2885 29.5561C83.2573 28.9938 83.3403 28.4309 83.5325 27.9015C83.7246 27.372 84.0219 26.8869 84.4065 26.4754C84.7911 26.0639 85.255 25.7345 85.7702 25.507C86.2855 25.2796 86.8415 25.1587 87.4047 25.1518C88.2042 25.1653 88.9811 25.4191 89.6345 25.8801C90.2878 26.3411 90.7873 26.9881 91.0681 27.7368L91.3727 28.453L85.4618 30.9227C85.6473 31.3371 85.9528 31.6864 86.3387 31.9256C86.7246 32.1648 87.1733 32.2829 87.6269 32.2646C88.0635 32.2678 88.4932 32.1552 88.872 31.9383C89.2509 31.7213 89.5656 31.4079 89.7838 31.0297L91.3151 32.0506C90.9017 32.6483 90.3493 33.1366 89.7054 33.4736C89.0616 33.8106 88.3455 33.9862 87.6187 33.9852C87.0391 33.9946 86.4636 33.8857 85.9274 33.6651C85.3913 33.4446 84.9057 33.1171 84.5005 32.7025C84.0952 32.288 83.7787 31.7952 83.5703 31.2542C83.3619 30.7132 83.266 30.1354 83.2885 29.5561ZM87.4788 26.8477C87.8141 26.831 88.1472 26.9104 88.4389 27.0767C88.7307 27.2429 88.9688 27.4891 89.1252 27.7862L85.1737 29.4327C85.14 28.7815 85.3651 28.1434 85.8 27.6576C86.2349 27.1718 86.8443 26.8777 87.4952 26.8395L87.4788 26.8477ZM82.2183 33.7217H80.2672V20.7146H82.2183V33.7217ZM106.323 33.7217H108.266V20.7146H106.323V33.7217ZM97.9586 33.7217H96.0158V20.7146H100.716C101.816 20.7146 102.87 21.1513 103.647 21.9286C104.425 22.7059 104.861 23.7602 104.861 24.8596C104.861 25.9589 104.425 27.0132 103.647 27.7905C102.87 28.5679 101.816 29.0046 100.716 29.0046H97.9586V33.7217ZM97.9586 27.0617V22.6574H100.716C101.017 22.639 101.318 22.6823 101.601 22.7847C101.884 22.887 102.144 23.0463 102.363 23.2526C102.582 23.4589 102.757 23.7079 102.876 23.9842C102.996 24.2606 103.057 24.5585 103.057 24.8596C103.057 25.1606 102.996 25.4585 102.876 25.7349C102.757 26.0113 102.582 26.2603 102.363 26.4666C102.144 26.6729 101.884 26.8321 101.601 26.9344C101.318 27.0368 101.017 27.0801 100.716 27.0617H97.9586ZM122.615 37.9532L128.237 25.1518H126.113L123.57 30.9145L121.026 25.1518H118.902L122.508 33.3842L120.491 37.9532H122.615ZM116.218 33.7217H118.161V29.0457C118.466 24.2216 112.349 23.0855 110.036 26.576L111.6 27.6215C112.728 25.6458 115.963 26.0985 116.169 28.2143C115.205 27.9297 114.2 27.8128 113.197 27.8685C112.467 27.8987 111.77 28.1823 111.226 28.6705C110.682 29.1588 110.325 29.8212 110.217 30.544C110.147 30.9859 110.171 31.4374 110.285 31.8697C110.4 32.3021 110.604 32.7057 110.883 33.0549C111.367 33.4978 111.96 33.8031 112.601 33.9392C113.243 34.0752 113.909 34.0371 114.53 33.8288C115.199 33.6377 115.79 33.24 116.218 32.6927V33.7217ZM114.069 32.0753C114.591 31.9494 115.067 31.6822 115.446 31.3031C115.825 30.924 116.092 30.4477 116.218 29.9266C115.683 29.7465 115.131 29.617 114.572 29.5397C111.262 29.0704 111.822 32.7256 114.069 32.1082V32.0753ZM55.6688 16.0879H54.7797V10.1688H55.6688V16.0879ZM49.832 16.0879H50.7129V11.0579H52.17V10.1688H48.3749V11.0579H49.832V16.0879ZM47.4446 16.0879H44.0529V10.1688H47.4446V11.0579H44.9749V12.7044H47.1812V13.5853H44.942V15.2318H47.4117L47.4446 16.0879ZM58.723 16.0879V11.0579H60.1472V10.1688H56.3603V11.0579H57.8092V16.0879H58.723ZM62.4523 13.0749C62.4506 12.4526 62.6337 11.8437 62.9783 11.3255C63.3228 10.8073 63.8134 10.4029 64.3879 10.1636C64.9624 9.92434 65.5949 9.86089 66.2055 9.9813C66.8161 10.1017 67.3772 10.4006 67.8178 10.84C68.2584 11.2795 68.5588 11.8399 68.6808 12.4501C68.8028 13.0604 68.741 13.6931 68.5032 14.2682C68.2654 14.8433 67.8624 15.3349 67.3451 15.6809C66.8277 16.0268 66.2194 16.2114 65.5971 16.2114C64.7664 16.205 63.9715 15.8727 63.3834 15.2861C62.7952 14.6995 62.4609 13.9055 62.4523 13.0749ZM65.5971 15.3553C65.145 15.3667 64.6999 15.2431 64.3185 15.0001C63.9372 14.7571 63.637 14.4059 63.4564 13.9914C63.2758 13.5769 63.223 13.1179 63.3047 12.6732C63.3864 12.2285 63.599 11.8183 63.9152 11.495C64.2313 11.1718 64.6368 10.9502 65.0796 10.8587C65.5224 10.7672 65.9824 10.8099 66.4008 10.9813C66.8192 11.1527 67.177 11.4451 67.4283 11.821C67.6796 12.1969 67.8131 12.6392 67.8116 13.0914C67.8159 13.3857 67.762 13.678 67.6528 13.9514C67.5437 14.2248 67.3815 14.4739 67.1757 14.6844C66.9698 14.8948 66.7243 15.0625 66.4534 15.1776C66.1825 15.2927 65.8914 15.3531 65.5971 15.3553ZM70.5365 16.0879H69.6309V10.1688H70.5118L73.319 14.4826V10.1688H74.1999V16.0879H73.319L70.5118 11.7742L70.5365 16.0879ZM12.8932 17.3722L22.8791 27.3169L12.9344 37.3852C12.7794 37.2541 12.6581 37.0878 12.5807 36.9001C12.5034 36.7124 12.4722 36.5089 12.4898 36.3067L12.3993 18.4259C12.3807 18.2223 12.4167 18.0173 12.5035 17.8321C12.5903 17.647 12.7248 17.4882 12.8932 17.3722ZM14.0458 17.3722L26.1721 23.9581L23.2908 26.8806L13.6012 17.224C13.7572 17.2459 13.9079 17.2961 14.0458 17.3722ZM26.7154 30.3218L23.7106 27.3169L26.7154 24.2792L30.8316 26.5349C31.8524 27.0864 31.3256 27.7862 30.8316 28.0578L26.7154 30.3218ZM14.0458 37.2617C13.9577 37.3081 13.867 37.3493 13.7741 37.3852L23.299 27.7368L26.1803 30.6099L14.0458 37.2617Z" fill="#F8F8F8"/>
</g>
<defs>
<clipPath id="clip0_3624_98630">
<rect width="139.951" height="47.7479" fill="white" transform="translate(0.0507812 0.078125)"/>
</clipPath>
</defs>
</svg>
