<svg width="176" height="40" viewBox="0 0 176 40" fill="none" xmlns="http://www.w3.org/2000/svg">
<path d="M120.654 32.5475C119.994 30.2574 119.331 28.0854 118.67 26.0333H108.012C107.35 28.0854 106.689 30.2574 106.028 32.5475H102.059C105.218 22.0964 108.318 13.7447 111.356 7.49219H115.326C118.56 14.2209 121.66 22.5726 124.624 32.5475H120.654ZM113.342 11.3945C112.092 14.0918 110.66 17.8978 109.042 22.8126H117.642C116.024 17.896 114.591 14.09 113.342 11.3945Z" fill="#0054A5"/>
<path d="M149.725 7.49219H153.731V32.5475H150.129V18.0523C150.129 16.6928 150.19 15.2969 150.312 13.8646C148.204 18.5413 145.485 23.4087 142.152 28.4689H139.028C135.818 23.625 133.061 18.7448 130.758 13.8301C130.906 15.0951 130.979 16.5037 130.979 18.0541V32.5493H127.414V7.49219H131.384C133.711 13.0758 136.787 18.8266 140.609 24.7446C144.285 18.9938 147.324 13.243 149.725 7.49219Z" fill="#0054A5"/>
<path d="M169.533 32.9757C165.735 32.9757 162.813 31.8361 160.767 29.5569C158.722 27.2794 157.699 24.1823 157.699 20.269C157.699 16.2849 158.711 13.0878 160.732 10.6777C162.753 8.26756 165.687 7.0625 169.533 7.0625C171.616 7.0625 173.699 7.48055 175.782 8.31481L174.899 11.5356C172.743 10.7722 170.967 10.3905 169.571 10.3905C166.876 10.3905 164.884 11.2793 163.599 13.0569C162.313 14.8345 161.669 17.2264 161.669 20.2327C161.669 23.2153 162.331 25.5291 163.653 27.1758C164.976 28.8226 166.984 29.6459 169.679 29.6459C171.517 29.6459 173.367 29.1933 175.229 28.2864L176 31.5435C174.089 32.4977 171.933 32.9757 169.533 32.9757Z" fill="#0054A5"/>
<path d="M86.9044 32.72C83.6794 32.72 80.656 32.6491 78.3008 32.5237V7.51377C79.1201 7.4447 81.6601 7.39018 85.2508 7.30475C87.5016 7.25022 89.6553 7.33564 91.3405 7.59556C95.1552 8.18445 96.5456 9.95842 97.1446 10.9345C97.7213 11.8741 98.1039 12.9211 98.0125 14.2806C97.9042 15.8746 97.3761 17.1833 95.7001 18.4701L95.4053 18.6973L95.7412 18.8627C96.9002 19.4316 97.6411 20.335 98.1487 21.222C98.7571 22.2907 99.0669 23.5103 99.0669 24.8444C99.0669 27.5417 98.0722 29.581 96.051 30.946C94.2612 32.1583 91.7642 32.72 86.9044 32.72ZM84.3345 27.5635C85.6259 27.6416 87.0201 27.6962 88.4216 27.6471C89.5097 27.6107 90.9505 27.5271 91.9713 26.5093C92.8858 25.5987 93.0519 24.2355 92.3688 23.1104C91.7362 22.0671 90.4727 21.5564 87.412 21.5909C85.8667 21.5909 84.3737 21.7509 84.3195 21.7581L84.3345 27.5635ZM87.216 12.0323C86.6599 12.0323 85.1967 12.0123 84.3289 12.1668V17.0724L84.5491 17.0924C84.5603 17.0942 85.7529 17.1906 87.1302 17.1906C89.3604 17.1906 90.6556 17.027 91.4394 16.3545C92.2289 15.6783 92.4323 14.5642 91.9415 13.6063C91.1669 12.1032 88.7557 12.0323 87.216 12.0323Z" fill="#0054A5"/>
<path d="M72.4335 7.50391H66.4708C65.9351 8.57264 62.2194 16.0465 60.5192 20.3106L60.4035 20.6032H60.2038L60.0862 20.3106C58.3842 16.0483 54.6684 8.57446 54.1346 7.50391H48.17C46.8822 16.5373 46.244 30.5126 46.1562 32.5138H52.0948C52.1508 30.8398 52.5054 20.296 52.7517 17.9277L52.8133 17.3297H52.9589L53.1959 17.8568C55.176 22.2572 57.7272 28.3043 58.149 29.304H62.4545C62.8763 28.3043 65.4275 22.2572 67.4076 17.8568L67.6447 17.3297H67.7902L67.8518 17.9277C68.0982 20.296 68.4546 30.8398 68.5106 32.5138H74.4473C74.3614 30.5126 73.7231 16.5391 72.4335 7.50391Z" fill="#0054A5"/>
<path d="M8.69049 12.1616C8.70543 12.1689 16.0511 15.2751 16.0679 15.2806C16.5028 15.4659 16.9843 15.5568 17.4863 15.4787C18.8132 15.2751 19.7184 14.061 19.5093 12.7687C19.3488 11.7854 18.5911 11.0365 17.6524 10.8311C17.6356 10.8275 9.7804 9.12805 9.76361 9.12442C9.55085 9.07171 9.32503 9.05898 9.09548 9.09352C8.1922 9.23347 7.57632 10.0586 7.72003 10.9384C7.80961 11.5 8.19406 11.9362 8.69049 12.1616Z" fill="#EC1A3B"/>
<path d="M17.7062 7.04562C17.4281 7.49274 17.3217 8.03802 17.499 8.5742C17.8125 9.51389 18.8502 10.0283 19.8169 9.72473C20.1361 9.62294 20.4067 9.44482 20.6157 9.21581C20.6269 9.2049 25.2161 4.01753 25.2273 4.00299C25.7928 3.3632 26.0615 2.49258 25.7778 1.63832C25.3617 0.393277 23.9899 -0.288315 22.7115 0.117006C22.1404 0.298764 21.6776 0.662281 21.3939 1.1294C21.3118 1.25845 17.7155 7.03108 17.7062 7.04562Z" fill="#EC1A3B"/>
<path d="M30.951 15.651C30.4284 15.5329 29.861 15.6038 29.3963 15.9346C28.5752 16.518 28.396 17.6377 28.9932 18.4374C29.1911 18.7009 29.4505 18.8954 29.736 19.019C29.7509 19.0263 36.24 21.6618 36.2568 21.669C37.0574 21.9944 37.9887 21.9744 38.7352 21.4437C39.8214 20.673 40.0603 19.1899 39.2671 18.132C38.9125 17.6595 38.4142 17.345 37.8693 17.2251C37.72 17.1924 30.9678 15.6547 30.951 15.651Z" fill="#EC1A3B"/>
<path d="M26.6545 30.5517C26.6079 30.0319 26.3653 29.5284 25.8987 29.1976C25.0775 28.616 23.926 28.7941 23.3288 29.5938C23.131 29.8592 23.0227 30.1573 22.9892 30.4608C22.9854 30.4772 22.4069 37.3022 22.4069 37.3185C22.3341 38.1601 22.642 39.018 23.3885 39.5469C24.4766 40.3157 25.9976 40.0813 26.787 39.0216C27.1398 38.5472 27.2928 37.9892 27.2424 37.4476C27.2331 37.2985 26.6564 30.5681 26.6545 30.5517Z" fill="#EC1A3B"/>
<path d="M10.7505 31.2031C11.2451 30.9995 11.6613 30.6196 11.8404 30.0871C12.1559 29.1474 11.6277 28.135 10.6628 27.8297C10.3437 27.7279 10.0152 27.7188 9.70915 27.7824C9.69236 27.786 2.84869 29.3492 2.83003 29.3528C1.98647 29.5455 1.24182 30.0944 0.956279 30.9504C0.540098 32.1937 1.23809 33.5314 2.51463 33.9385C3.08758 34.1185 3.68105 34.0894 4.19242 33.8749C4.33612 33.8149 10.7337 31.2104 10.7505 31.2031Z" fill="#EC1A3B"/>
<path d="M5.22186 16.6617C5.57272 17.0561 6.07289 17.3251 6.64957 17.3233C7.66483 17.3233 8.48786 16.5217 8.48786 15.533C8.48786 15.2058 8.39641 14.9004 8.23778 14.6369C8.23031 14.6205 4.57986 8.76976 4.57053 8.75522C4.12076 8.03364 3.35558 7.51562 2.43177 7.51562C1.08618 7.51744 0 8.57709 0 9.88575C0 10.471 0.212756 11.0108 0.580414 11.4198C0.681194 11.5343 5.21066 16.6471 5.22186 16.6617Z" fill="#EC1A3B"/>
<path d="M23.1779 8.8723C23.176 8.88866 22.409 16.6515 22.4071 16.6679C22.3605 17.1277 22.422 17.6021 22.6516 18.0438C23.2619 19.2107 24.7269 19.6742 25.9251 19.0798C26.8358 18.6291 27.3341 17.6948 27.2445 16.7624C27.2427 16.7461 26.4775 8.945 26.4756 8.92865C26.4625 8.71599 26.4047 8.50152 26.3002 8.29977C25.8859 7.50548 24.8893 7.18922 24.0756 7.59454C23.5511 7.85082 23.2413 8.34339 23.1779 8.8723Z" fill="#EC1A3B"/>
<path d="M30.8644 21.2649C30.8476 21.2685 23.0316 22.9643 23.013 22.968C22.5501 23.0679 22.1059 23.2715 21.7476 23.6205C20.7977 24.5456 20.7977 26.0469 21.7476 26.9721C22.4717 27.6755 23.5355 27.8482 24.4201 27.4756C24.4351 27.4683 31.8143 24.342 31.8311 24.3366C32.0346 24.2566 32.2268 24.1385 32.391 23.9785C33.0368 23.3478 33.0368 22.3282 32.391 21.6993C31.9748 21.294 31.4 21.1595 30.8644 21.2649Z" fill="#EC1A3B"/>
<path d="M21.1364 32.2222C21.127 32.2077 17.0623 25.4881 17.0529 25.4736C16.814 25.0737 16.4781 24.7247 16.0246 24.5012C14.8264 23.9068 13.3633 24.3703 12.7511 25.5354C12.2864 26.4223 12.4488 27.462 13.0833 28.1654C13.0945 28.1781 18.4228 34.0507 18.434 34.0653C18.5739 34.2307 18.7494 34.3688 18.9565 34.4742C19.7702 34.8777 20.7668 34.5633 21.1811 33.769C21.4499 33.2619 21.4032 32.6875 21.1364 32.2222Z" fill="#EC1A3B"/>
<path d="M7.43022 26.5976C7.44328 26.5849 12.7491 20.745 12.7603 20.7323C13.0757 20.387 13.3127 19.9689 13.393 19.48C13.6039 18.1877 12.7006 16.9736 11.3737 16.7682C10.364 16.6119 9.39728 17.0808 8.90645 17.8878C8.89712 17.9023 4.80622 24.6492 4.79689 24.6656C4.67932 24.8455 4.5972 25.0509 4.55987 25.2744C4.41617 26.1542 5.03204 26.9812 5.93346 27.1193C6.51201 27.2084 7.05883 26.9884 7.43022 26.5976Z" fill="#EC1A3B"/>
</svg>
