<svg width="132" height="30" viewBox="0 0 132 30" fill="none" xmlns="http://www.w3.org/2000/svg">
<path d="M90.4897 24.4087C89.9942 22.6911 89.4973 21.0621 89.0018 19.523H81.0081C80.5112 21.0621 80.0157 22.6911 79.5202 24.4087H76.543C78.9127 16.5704 81.2376 10.3065 83.5163 5.61719H86.4935C88.9193 10.6637 91.2442 16.9275 93.4669 24.4087H90.4897ZM85.0056 8.54394C84.0678 10.5669 82.9943 13.4214 81.7807 17.1075H88.2306C87.017 13.42 85.9421 10.5655 85.0056 8.54394Z" fill="#0054A5"/>
<path d="M112.292 5.61719H115.296V24.4087H112.595V13.5373C112.595 12.5176 112.641 11.4707 112.732 10.3965C111.151 13.904 109.112 17.5546 106.612 21.3497H104.269C101.862 17.7168 99.7941 14.0567 98.0669 10.3706C98.1775 11.3194 98.2321 12.3759 98.2321 13.5387V24.41H95.5586V5.61719H98.5358C100.281 9.80489 102.588 14.118 105.455 18.5565C108.212 14.2434 110.491 9.9303 112.292 5.61719Z" fill="#0054A5"/>
<path d="M127.149 24.7298C124.301 24.7298 122.109 23.8751 120.575 22.1657C119.04 20.4576 118.273 18.1348 118.273 15.1998C118.273 12.2117 119.032 9.81388 120.548 8.0063C122.064 6.19872 124.264 5.29492 127.149 5.29492C128.711 5.29492 130.273 5.60846 131.835 6.23416L131.173 8.64972C129.557 8.07718 128.224 7.79091 127.177 7.79091C125.156 7.79091 123.662 8.45751 122.698 9.79071C121.734 11.1239 121.251 12.9178 121.251 15.1726C121.251 17.4095 121.748 19.1449 122.739 20.3799C123.731 21.615 125.237 22.2325 127.258 22.2325C128.637 22.2325 130.024 21.8931 131.421 21.2128L131.999 23.6557C130.566 24.3713 128.949 24.7298 127.149 24.7298Z" fill="#0054A5"/>
<path d="M65.1773 24.5419C62.7586 24.5419 60.491 24.4888 58.7246 24.3947V5.63728C59.3391 5.58548 61.2441 5.54459 63.9371 5.48052C65.6252 5.43962 67.2405 5.50369 68.5044 5.69862C71.3654 6.14029 72.4082 7.47076 72.8575 8.20279C73.29 8.90756 73.577 9.69275 73.5084 10.7124C73.4272 11.9079 73.0311 12.8894 71.7741 13.8546L71.553 14.025L71.8049 14.149C72.6742 14.5757 73.2298 15.2532 73.6106 15.9184C74.0669 16.72 74.2992 17.6347 74.2992 18.6352C74.2992 20.6582 73.5532 22.1877 72.0373 23.2115C70.695 24.1207 68.8221 24.5419 65.1773 24.5419ZM63.2499 20.6746C64.2185 20.7332 65.2641 20.7741 66.3153 20.7373C67.1313 20.71 68.2119 20.6473 68.9775 19.8839C69.6634 19.201 69.7879 18.1786 69.2757 17.3348C68.8011 16.5523 67.8535 16.1692 65.558 16.1951C64.399 16.1951 63.2793 16.3151 63.2387 16.3206L63.2499 20.6746ZM65.411 9.02615C64.9939 9.02615 63.8965 9.01116 63.2457 9.12703V12.8063L63.4109 12.8213C63.4193 12.8226 64.3137 12.8949 65.3467 12.8949C67.0193 12.8949 67.9907 12.7722 68.5786 12.2678C69.1707 11.7607 69.3232 10.9251 68.9551 10.2067C68.3742 9.07932 66.5658 9.02615 65.411 9.02615Z" fill="#0054A5"/>
<path d="M54.3252 5.62695H49.8531C49.4514 6.42851 46.6645 12.0339 45.3894 15.2319L45.3026 15.4514H45.1528L45.0647 15.2319C43.7881 12.0353 41.0013 6.42987 40.601 5.62695H36.1275C35.1617 12.402 34.683 22.8835 34.6172 24.3844H39.0711C39.1131 23.1289 39.379 15.221 39.5638 13.4448L39.61 12.9963H39.7191L39.8969 13.3916C41.382 16.6919 43.2954 21.2272 43.6118 21.977H46.8409C47.1572 21.2272 49.0706 16.6919 50.5557 13.3916L50.7335 12.9963H50.8427L50.8889 13.4448C51.0736 15.221 51.341 23.1289 51.383 24.3844H55.8355C55.7711 22.8835 55.2924 12.4033 54.3252 5.62695Z" fill="#0054A5"/>
<path d="M6.51885 9.12217C6.53005 9.12762 12.0393 11.4573 12.0519 11.4614C12.378 11.6004 12.7392 11.6686 13.1157 11.61C14.1109 11.4573 14.7898 10.5467 14.633 9.57747C14.5126 8.83999 13.9443 8.27836 13.2403 8.12432C13.2277 8.12159 7.33628 6.84702 7.32368 6.84429C7.16412 6.80476 6.99475 6.79521 6.82259 6.82111C6.14512 6.92608 5.68322 7.54496 5.791 8.20474C5.85818 8.62597 6.14652 8.95313 6.51885 9.12217Z" fill="#EC1A3B"/>
<path d="M13.2811 5.28421C13.0725 5.61956 12.9927 6.02851 13.1257 6.43065C13.3609 7.13542 14.1391 7.5212 14.8642 7.29355C15.1035 7.21721 15.3065 7.08362 15.4632 6.91186C15.4716 6.90368 18.9135 3.01315 18.9219 3.00224C19.346 2.5224 19.5476 1.86944 19.3348 1.22874C19.0227 0.294958 17.9939 -0.216236 17.0351 0.0877542C16.6068 0.224073 16.2597 0.49671 16.0469 0.847049C15.9853 0.943835 13.2881 5.27331 13.2811 5.28421Z" fill="#EC1A3B"/>
<path d="M23.2132 11.7373C22.8213 11.6487 22.3958 11.7019 22.0473 11.95C21.4314 12.3875 21.297 13.2273 21.7449 13.8271C21.8933 14.0247 22.0878 14.1706 22.302 14.2633C22.3132 14.2687 27.18 16.2454 27.1926 16.2508C27.7931 16.4948 28.4915 16.4798 29.0514 16.0818C29.8661 15.5038 30.0452 14.3914 29.4503 13.5981C29.1844 13.2436 28.8107 13.0078 28.402 12.9178C28.29 12.8933 23.2258 11.74 23.2132 11.7373Z" fill="#EC1A3B"/>
<path d="M19.9904 22.9147C19.9554 22.5249 19.7735 22.1473 19.4235 21.8992C18.8077 21.463 17.944 21.5965 17.4961 22.1963C17.3478 22.3954 17.2666 22.6189 17.2414 22.8466C17.2386 22.8589 16.8047 27.9776 16.8047 27.9899C16.7501 28.621 16.981 29.2645 17.5409 29.6611C18.3569 30.2378 19.4977 30.0619 20.0898 29.2672C20.3543 28.9114 20.4691 28.4929 20.4313 28.0867C20.4243 27.9749 19.9918 22.927 19.9904 22.9147Z" fill="#EC1A3B"/>
<path d="M8.06291 23.4043C8.43383 23.2516 8.74597 22.9667 8.88034 22.5673C9.11689 21.8625 8.72077 21.1032 7.99712 20.8742C7.75777 20.7979 7.51142 20.791 7.28187 20.8387C7.26927 20.8415 2.13652 22.0138 2.12252 22.0165C1.48985 22.161 0.931366 22.5727 0.717209 23.2148C0.405073 24.1472 0.928566 25.1505 1.88597 25.4559C2.31568 25.5908 2.76079 25.569 3.14431 25.4081C3.25209 25.3632 8.05031 23.4097 8.06291 23.4043Z" fill="#EC1A3B"/>
<path d="M3.9164 12.4963C4.17954 12.7921 4.55467 12.9938 4.98718 12.9925C5.74862 12.9925 6.3659 12.3913 6.3659 11.6497C6.3659 11.4044 6.29731 11.1753 6.17834 10.9777C6.17274 10.9654 3.4349 6.57732 3.4279 6.56641C3.09057 6.02523 2.51668 5.63672 1.82383 5.63672C0.814633 5.63808 0 6.43282 0 7.41431C0 7.85326 0.159567 8.25812 0.435311 8.56484C0.510896 8.65072 3.908 12.4854 3.9164 12.4963Z" fill="#EC1A3B"/>
<path d="M17.3839 6.65325C17.3825 6.66552 16.8072 12.4877 16.8058 12.4999C16.7708 12.8448 16.817 13.2006 16.9892 13.5319C17.4469 14.407 18.5457 14.7547 19.4443 14.3089C20.1273 13.9708 20.5011 13.2701 20.4339 12.5708C20.4325 12.5586 19.8586 6.70778 19.8572 6.69551C19.8474 6.53602 19.804 6.37516 19.7256 6.22385C19.4149 5.62814 18.6674 5.39094 18.0572 5.69493C17.6638 5.88714 17.4315 6.25656 17.3839 6.65325Z" fill="#EC1A3B"/>
<path d="M23.1473 15.9496C23.1347 15.9524 17.2727 17.2242 17.2587 17.2269C16.9116 17.3019 16.5785 17.4546 16.3097 17.7163C15.5973 18.4102 15.5973 19.5362 16.3097 20.23C16.8528 20.7576 17.6507 20.8871 18.3141 20.6076C18.3253 20.6022 23.8598 18.2575 23.8724 18.2534C24.025 18.1934 24.1691 18.1048 24.2923 17.9849C24.7766 17.5119 24.7766 16.7471 24.2923 16.2754C23.9802 15.9715 23.549 15.8706 23.1473 15.9496Z" fill="#EC1A3B"/>
<path d="M15.8523 24.1647C15.8453 24.1538 12.7967 19.1141 12.7897 19.1032C12.6105 18.8033 12.3586 18.5416 12.0185 18.3739C11.1198 17.9282 10.0225 18.2758 9.56335 19.1496C9.21482 19.8148 9.3366 20.5945 9.8125 21.1221C9.8209 21.1316 13.8171 25.5361 13.8255 25.547C13.9305 25.671 14.062 25.7746 14.2174 25.8537C14.8277 26.1563 15.5751 25.9205 15.8859 25.3248C16.0874 24.9445 16.0524 24.5137 15.8523 24.1647Z" fill="#EC1A3B"/>
<path d="M5.57266 19.9473C5.58246 19.9377 9.56185 15.5578 9.57025 15.5483C9.8068 15.2893 9.98456 14.9757 10.0448 14.609C10.2029 13.6398 9.52546 12.7292 8.53026 12.5752C7.77302 12.4579 7.04796 12.8096 6.67984 13.4149C6.67284 13.4258 3.60467 18.4859 3.59767 18.4982C3.50949 18.6331 3.4479 18.7872 3.4199 18.9549C3.31213 19.6146 3.77403 20.2349 4.45009 20.3385C4.88401 20.4053 5.29412 20.2403 5.57266 19.9473Z" fill="#EC1A3B"/>
</svg>
