<svg width="97" height="25" viewBox="0 0 97 25" fill="none" xmlns="http://www.w3.org/2000/svg">
<path fill-rule="evenodd" clip-rule="evenodd" d="M12.4547 3.78079C13.2649 2.80072 13.6652 1.54553 13.5719 0.277344C12.3285 0.409743 11.1796 1.00264 10.3512 1.93941C9.53769 2.86737 9.12591 4.08038 9.20639 5.31183C9.82806 5.31703 10.4429 5.18209 11.0053 4.91704C11.5676 4.65198 12.063 4.26361 12.4547 3.78079ZM15.2133 11.898C15.2294 11.0662 15.4537 10.2516 15.8658 9.52876C16.2778 8.80592 16.8644 8.19785 17.5719 7.7601C17.1185 7.11236 16.5202 6.57934 15.8246 6.20341C15.129 5.82748 14.3553 5.61901 13.565 5.59458C12.5726 5.56667 11.5882 5.77965 10.696 6.21527C10.2831 6.41431 9.84056 6.54475 9.3857 6.60148C8.90656 6.55173 8.43978 6.4187 8.00639 6.20838C7.29909 5.86685 6.52913 5.67437 5.74432 5.64286C4.82229 5.67547 3.92449 5.94681 3.13874 6.43034C2.35299 6.91388 1.70618 7.59307 1.26156 8.40148C-0.683263 11.767 0.765013 16.6773 2.64088 19.436C3.57191 20.767 4.65467 22.2566 6.08915 22.1946C6.63785 22.1579 7.17422 22.015 7.66846 21.7739C8.29694 21.471 8.98462 21.3109 9.68225 21.3049C10.3472 21.3126 11.0021 21.4681 11.5995 21.7601C12.1236 22.024 12.7024 22.161 13.2892 22.1601C14.7788 22.1601 15.7236 20.8222 16.6202 19.4842C17.2873 18.5357 17.8016 17.4886 18.1443 16.3808C17.2639 16.0096 16.5135 15.3854 15.9881 14.5874C15.4626 13.7894 15.1858 12.8535 15.1926 11.898H15.2133ZM27.8547 1.01527H25.8616V6.99458H27.8685C29.6478 6.99458 30.696 5.89114 30.696 4.00148C30.696 2.11183 29.634 1.01527 27.8547 1.01527ZM26.5926 1.70493V6.34631H27.8064C29.1857 6.34631 29.9167 5.51872 29.9167 4.03596C29.9167 2.55321 29.165 1.65665 27.8064 1.65665L26.5926 1.70493ZM31.565 4.86355C31.565 6.24286 32.3719 7.09114 33.565 7.09114C34.7581 7.09114 35.5581 6.23596 35.5581 4.86355C35.5581 3.49114 34.7512 2.62907 33.565 2.62907C32.3788 2.62907 31.565 3.46355 31.565 4.84286V4.86355ZM33.565 6.45665C34.3236 6.45665 34.8202 5.87734 34.8202 4.86355C34.8202 3.84976 34.3236 3.26355 33.565 3.26355C32.8064 3.26355 32.296 3.84976 32.296 4.86355C32.296 5.87734 32.7995 6.43596 33.565 6.43596V6.45665ZM40.1167 7.01527H40.8478L42.0478 2.70493H41.3581L40.496 6.21527L39.5236 2.70493H38.834L37.8547 6.21527L36.9926 2.70493H36.2064L37.4133 7.01527H38.1443L39.1167 3.67734L40.1167 7.01527ZM42.9236 2.70493H43.6133V3.39458C43.7432 3.14616 43.9431 2.94125 44.1883 2.8052C44.4334 2.66915 44.713 2.60792 44.9926 2.62907C45.2003 2.61739 45.4081 2.65147 45.6011 2.72891C45.7942 2.80634 45.968 2.92524 46.1101 3.0772C46.2521 3.22915 46.3591 3.41046 46.4234 3.60831C46.4878 3.80615 46.5078 4.01571 46.4823 4.22217V6.98079H45.7926V4.32562C45.7926 3.63596 45.4616 3.24976 44.7995 3.24976C44.6437 3.24615 44.489 3.27556 44.3454 3.33607C44.2018 3.39658 44.0727 3.48681 43.9665 3.60083C43.8603 3.71484 43.7794 3.85005 43.7293 3.99756C43.6791 4.14507 43.6607 4.30153 43.6754 4.45665V6.99458H42.9857L42.9236 2.70493ZM47.7512 1.03596V7.01527H48.4409V1.01527L47.7512 1.03596ZM51.5167 7.09114C50.3236 7.09114 49.5167 6.23596 49.5167 4.86355C49.5167 3.49114 50.3236 2.62907 51.5167 2.62907C52.7098 2.62907 53.4478 3.46355 53.4478 4.84286C53.4478 6.22217 52.6685 7.07045 51.4823 7.07045L51.5167 7.09114ZM52.7581 4.84286C52.7581 5.85665 52.2616 6.43596 51.5029 6.43596C50.7443 6.43596 50.234 5.85665 50.234 4.84286C50.234 3.82907 50.6892 3.24286 51.4823 3.24286C52.2754 3.24286 52.7581 3.82907 52.7581 4.84286ZM55.765 7.07045C55.5835 7.09394 55.399 7.07851 55.2238 7.02519C55.0487 6.97186 54.8869 6.88186 54.7493 6.76117C54.6116 6.64047 54.5012 6.49186 54.4255 6.3252C54.3497 6.15854 54.3103 5.97766 54.3098 5.79458C54.3098 5.05665 54.8754 4.58769 55.8685 4.53252L57.103 4.46355V4.09803C57.103 3.5739 56.7581 3.25665 56.1581 3.25665C55.9366 3.22858 55.7126 3.28352 55.5292 3.41087C55.3458 3.53822 55.2161 3.72896 55.165 3.94631H54.4754C54.4982 3.74356 54.5616 3.54746 54.6616 3.36965C54.7617 3.19183 54.8964 3.03591 55.0578 2.91114C55.2193 2.78637 55.4041 2.69528 55.6014 2.64327C55.7987 2.59126 56.0044 2.5794 56.2064 2.60838C57.2133 2.60838 57.8547 3.1601 57.8547 3.98769V6.967H57.165V6.25665C57.0264 6.51021 56.8203 6.72044 56.5695 6.86407C56.3188 7.00771 56.0332 7.07914 55.7443 7.07045H55.765ZM57.1443 5.3601C57.1441 5.51781 57.1109 5.67373 57.0469 5.81785C56.9829 5.96197 56.8894 6.09111 56.7725 6.19697C56.6556 6.30283 56.5178 6.38307 56.3681 6.43254C56.2183 6.48202 56.0599 6.49963 55.9029 6.48424C55.3857 6.48424 55.0409 6.21527 55.0409 5.79458C55.0409 5.37389 55.3719 5.10493 55.9512 5.10493L57.103 5.03596L57.1443 5.3601ZM60.7029 7.07045C59.5995 7.07045 58.8547 6.19458 58.8547 4.84286C58.8547 3.49114 59.5995 2.60838 60.6823 2.60838C60.9619 2.59701 61.2392 2.66393 61.4829 2.80162C61.7266 2.9393 61.927 3.14227 62.0616 3.38769V1.01527H62.7512V6.99458H62.0616V6.30493C61.92 6.54786 61.7148 6.74753 61.4681 6.88243C61.2213 7.01733 60.9425 7.08234 60.6616 7.07045H60.7029ZM59.5926 4.84286C59.5926 3.87045 60.0754 3.24286 60.8409 3.24286C61.6064 3.24286 62.0754 3.87734 62.0754 4.84286C62.0754 5.80838 61.5788 6.43596 60.8409 6.43596C60.1029 6.43596 59.5512 5.79458 59.5512 4.84286H59.5926ZM67.8685 7.07045C66.6754 7.07045 65.8685 6.21527 65.8685 4.84286C65.8685 3.47045 66.6754 2.60838 67.8685 2.60838C69.0616 2.60838 69.8616 3.46355 69.8616 4.84286C69.8616 6.22217 69.0133 7.07045 67.8202 7.07045H67.8685ZM69.1305 4.84286C69.1305 5.85665 68.634 6.43596 67.8685 6.43596C67.103 6.43596 66.5512 5.85665 66.5512 4.84286C66.5512 3.82907 67.0547 3.24286 67.8133 3.24286C68.5719 3.24286 69.0823 3.82907 69.0823 4.84286H69.1305ZM70.8685 2.68424H71.5581V3.37389C71.6881 3.12547 71.888 2.92056 72.1331 2.78451C72.3782 2.64846 72.6579 2.58723 72.9374 2.60838C73.1451 2.5967 73.3529 2.63078 73.546 2.70822C73.7391 2.78565 73.9128 2.90455 74.0549 3.05651C74.197 3.20846 74.3039 3.38977 74.3683 3.58762C74.4326 3.78546 74.4527 3.99502 74.4271 4.20148V6.9601H73.7374V4.32562C73.7374 3.63596 73.4064 3.24976 72.7443 3.24976C72.5882 3.24503 72.433 3.27369 72.2889 3.33382C72.1448 3.39395 72.0151 3.48416 71.9087 3.59843C71.8023 3.71269 71.7215 3.84836 71.6717 3.99637C71.622 4.14438 71.6044 4.3013 71.6202 4.45665V6.99458H70.9305L70.8685 2.68424ZM78.5581 1.65665H77.8685V2.69803H77.2271V3.29114H77.8685V5.89114C77.8685 6.71872 78.1788 7.04286 78.9719 7.04286C79.1244 7.04473 79.2767 7.03319 79.4271 7.00838V6.40838H79.1236C78.7581 6.40838 78.5926 6.22907 78.5926 5.83596V3.27734H79.4271V2.68424H78.5926L78.5581 1.65665ZM80.4823 7.00838V1.01527H81.1719V3.37389C81.3004 3.12428 81.5001 2.91835 81.7456 2.7821C81.9911 2.64586 82.2714 2.5854 82.5512 2.60838C82.7603 2.59839 82.9691 2.63361 83.1633 2.71166C83.3575 2.7897 83.5326 2.90872 83.6766 3.0606C83.8206 3.21248 83.9302 3.39364 83.9978 3.59172C84.0654 3.7898 84.0895 4.00013 84.0685 4.20838V6.967H83.3788V4.34631C83.3999 4.20397 83.3887 4.05871 83.346 3.92129C83.3034 3.78387 83.2303 3.65782 83.1323 3.5525C83.0342 3.44717 82.9137 3.36526 82.7797 3.31286C82.6457 3.26045 82.5016 3.23888 82.3581 3.24976C82.1973 3.24304 82.0369 3.27094 81.8878 3.33157C81.7387 3.3922 81.6043 3.48415 81.4938 3.60119C81.3833 3.71823 81.2992 3.85764 81.2473 4.00999C81.1953 4.16234 81.1767 4.32407 81.1926 4.48424V6.99458L80.4823 7.00838ZM88.8754 5.79458H88.1857C88.1088 6.01151 87.9622 6.19683 87.7688 6.32161C87.5754 6.44638 87.3461 6.50357 87.1167 6.48424C86.9396 6.48959 86.7635 6.45654 86.6003 6.38735C86.4372 6.31816 86.291 6.21448 86.1717 6.08343C86.0525 5.95238 85.963 5.79706 85.9095 5.62816C85.8559 5.45925 85.8396 5.28075 85.8616 5.10493V5.03596H88.9581V4.7601C88.9581 3.45665 88.2685 2.60838 87.0754 2.60838C85.8823 2.60838 85.1167 3.51872 85.1167 4.85665C85.1167 6.19458 85.8685 7.07045 87.103 7.07045C87.5011 7.09912 87.8966 6.98709 88.2205 6.75391C88.5444 6.52073 88.7762 6.1812 88.8754 5.79458ZM87.034 3.27045C86.7211 3.27939 86.4239 3.40954 86.2052 3.63343C85.9864 3.85732 85.8632 4.15744 85.8616 4.47045H88.1995C88.211 4.31122 88.1893 4.15134 88.1357 4.00096C88.0821 3.85058 87.9978 3.71298 87.8882 3.5969C87.7786 3.48082 87.6461 3.38879 87.499 3.32666C87.352 3.26452 87.1936 3.23364 87.034 3.23596V3.27045ZM31.7857 18.5739L32.834 21.6567H34.7098L30.5719 10.236H28.6685L24.5443 21.6567H26.3926L27.434 18.567L31.7857 18.5739ZM29.5857 12.1394L27.8892 17.1532H31.3374L29.634 12.1394H29.5857ZM43.9857 17.5187C43.9857 14.8842 42.6064 13.2222 40.4823 13.2222C39.9408 13.203 39.4049 13.3372 38.9364 13.6093C38.4678 13.8814 38.0857 14.2803 37.834 14.7601V13.3325H36.1788V24.4153H37.8892V20.2773H37.9305C38.1808 20.7503 38.5596 21.143 39.0232 21.4102C39.4868 21.6774 40.0165 21.8083 40.5512 21.7877C42.6064 21.8015 43.9857 20.1325 43.9857 17.5187ZM40.034 20.3739C41.4133 20.3739 42.234 19.2704 42.234 17.5187C42.234 15.767 41.3857 14.6635 40.034 14.6635C38.6823 14.6635 37.8478 15.7808 37.8478 17.5187C37.8478 19.2567 38.7167 20.3532 40.034 20.3532V20.3739ZM53.5305 17.5187C53.5305 14.8842 52.1512 13.2222 50.0271 13.2222C49.4848 13.2033 48.9481 13.3376 48.4785 13.6096C48.0089 13.8816 47.6254 14.2803 47.3719 14.7601V13.3325H45.7167V24.4153H47.4271V20.2773H47.4685C47.7169 20.7503 48.0943 21.1432 48.5569 21.4105C49.0195 21.6778 49.5484 21.8086 50.0823 21.7877C52.1443 21.8015 53.5305 20.1325 53.5305 17.5187ZM49.5719 20.3739C50.9512 20.3739 51.7719 19.2704 51.7719 17.5187C51.7719 15.767 50.9305 14.6635 49.5719 14.6635C48.2133 14.6635 47.3926 15.7808 47.3926 17.5187C47.3926 19.2567 48.2616 20.3532 49.5719 20.3532V20.3739ZM60.3443 18.4773H58.5995C58.7098 20.5463 60.4202 21.8498 62.9512 21.8498C65.6616 21.8498 67.365 20.5118 67.365 18.4015C67.365 16.7325 66.3857 15.7946 64.0478 15.236L62.7857 14.9325C61.3167 14.567 60.7167 14.0911 60.7167 13.2842C60.7167 12.2704 61.6547 11.5739 63.034 11.5739C64.4133 11.5739 65.3512 12.2635 65.4547 13.4015H67.1788C67.1236 11.4291 65.4685 10.0773 63.0409 10.0773C60.6133 10.0773 58.903 11.4567 58.903 13.4015C58.903 14.9946 59.8754 15.9739 61.9719 16.4842L63.4547 16.836C64.9305 17.2015 65.5236 17.7325 65.5236 18.6153C65.5236 19.636 64.4892 20.3808 63.0478 20.3808C61.6064 20.3808 60.4754 19.5877 60.3443 18.4773ZM69.6271 11.367H71.3788V13.3325H72.9581V14.7118H71.3788V19.298C71.3788 20.0222 71.6961 20.3463 72.3926 20.3463C72.5795 20.3451 72.7662 20.3313 72.9512 20.3049V21.6842C72.6377 21.7444 72.3187 21.7721 71.9995 21.767C70.3167 21.767 69.6616 21.1256 69.6616 19.5187V14.6911H68.4478V13.3118H69.6616L69.6271 11.367ZM74.1374 17.5187C74.1374 20.2015 75.7098 21.8429 78.0892 21.8429C80.4685 21.8429 82.0409 20.2015 82.0409 17.5187C82.0409 14.836 80.4616 13.2084 78.0892 13.2084C75.7167 13.2084 74.1374 14.8222 74.1374 17.5187ZM78.0892 20.4291C79.4685 20.4291 80.296 19.3739 80.296 17.5187C80.296 15.6635 79.4271 14.6153 78.0892 14.6153C76.7512 14.6153 75.8823 15.6773 75.8823 17.5187C75.8823 19.3601 76.7581 20.4084 78.096 20.4084L78.0892 20.4291ZM85.3788 13.3532H83.7443V21.6567H85.4547V16.6773C85.4254 16.4297 85.4503 16.1786 85.5278 15.9416C85.6054 15.7046 85.7336 15.4873 85.9036 15.3049C86.0735 15.1224 86.2812 14.9792 86.5122 14.8851C86.7431 14.791 86.9918 14.7484 87.2409 14.7601C87.5018 14.7512 87.7625 14.7838 88.0133 14.8567V13.2635C87.82 13.2266 87.6239 13.2058 87.4271 13.2015C86.9662 13.1911 86.5158 13.3397 86.1516 13.6222C85.7874 13.9048 85.5315 14.3042 85.4271 14.7532H85.3857L85.3788 13.3532ZM94.965 19.236H96.5926C96.3512 20.7532 94.9098 21.8429 93.0064 21.8429C90.5581 21.8429 89.0823 20.1877 89.0823 17.5601C89.0823 14.9325 90.5857 13.2084 92.9305 13.2084C95.2754 13.2084 96.6823 14.836 96.6823 17.3463V17.9325H90.8064V18.036C90.7738 18.3454 90.8077 18.6582 90.9061 18.9534C91.0044 19.2486 91.1648 19.5193 91.3765 19.7473C91.5882 19.9753 91.8463 20.1554 92.1334 20.2754C92.4204 20.3953 92.7299 20.4525 93.0409 20.4429C93.4529 20.4787 93.8653 20.378 94.2143 20.1561C94.5633 19.9342 94.8296 19.6036 94.9719 19.2153L94.965 19.236ZM90.8271 16.7532C90.8234 16.4715 90.8753 16.1919 90.9797 15.9303C91.0842 15.6687 91.2391 15.4302 91.4357 15.2284C91.6323 15.0267 91.8668 14.8657 92.1256 14.7546C92.3844 14.6434 92.6627 14.5844 92.9443 14.5808C93.225 14.5804 93.5027 14.6372 93.7607 14.7476C94.0187 14.8579 94.2516 15.0197 94.4451 15.2229C94.6387 15.4261 94.7888 15.6666 94.8865 15.9296C94.9842 16.1927 95.0273 16.4729 95.0133 16.7532H90.8271Z" fill="#F8F8F8"/>
</svg>
