<svg width="1440" height="1070" viewBox="0 0 1440 1070" fill="none" xmlns="http://www.w3.org/2000/svg">
<g clip-path="url(#clip0_3491_99682)">
<rect width="1440" height="1070" fill="#F8F9FE"/>
<g opacity="0.4">
<g clip-path="url(#clip1_3491_99682)">
<path d="M115.516 -66.45H-82.2617L212.5 402.273L311.418 244.991C311.51 244.845 311.67 244.757 311.841 244.757C312.013 244.757 312.173 244.845 312.265 244.991L361.272 323.006C361.374 323.168 361.374 323.375 361.272 323.538L212.923 559.434C212.832 559.58 212.672 559.668 212.5 559.668C212.328 559.668 212.168 559.58 212.077 559.434L-231.423 -145.736C-231.52 -145.89 -231.526 -146.084 -231.438 -146.244C-231.35 -146.403 -231.182 -146.502 -231 -146.502H65.7719C65.9438 -146.502 66.1036 -146.414 66.1951 -146.268L115.94 -67.2163C116.037 -67.0623 116.042 -66.8677 115.954 -66.7083C115.866 -66.549 115.698 -66.45 115.516 -66.45Z" stroke="#CECECE" stroke-linejoin="round"/>
<path d="M376.749 304.274C376.657 304.419 376.497 304.508 376.325 304.508C376.154 304.508 375.994 304.42 375.902 304.274L92.8375 -145.737C92.7406 -145.891 92.7351 -146.085 92.8231 -146.245C92.9111 -146.404 93.0787 -146.503 93.2607 -146.503H195.845C196.017 -146.503 196.177 -146.415 196.268 -146.269L427.967 222.171C428.069 222.333 428.069 222.54 427.967 222.703L376.749 304.274Z" stroke="#CECECE" stroke-linejoin="round"/>
<path d="M479.26 304.274C479.169 304.42 479.009 304.508 478.837 304.508C478.665 304.508 478.505 304.419 478.414 304.274L427.122 222.703C427.019 222.54 427.019 222.333 427.122 222.171L658.894 -146.269C658.986 -146.415 659.146 -146.503 659.317 -146.503H761.828C762.01 -146.503 762.178 -146.404 762.266 -146.245C762.354 -146.085 762.348 -145.891 762.251 -145.737L479.26 304.274Z" stroke="#CECECE" stroke-linejoin="round"/>
<path d="M245.608 -145.737C245.511 -145.891 245.506 -146.085 245.594 -146.245C245.682 -146.404 245.849 -146.503 246.031 -146.503H609.055C609.237 -146.503 609.405 -146.404 609.493 -146.245C609.581 -146.085 609.576 -145.891 609.479 -145.737L427.967 142.837C427.875 142.982 427.715 143.07 427.543 143.07C427.371 143.07 427.212 142.982 427.12 142.837L245.608 -145.737Z" stroke="#CECECE" stroke-linejoin="round"/>
</g>
</g>
<g opacity="0.4">
<g clip-path="url(#clip2_3491_99682)">
<path d="M1509.17 1174.86H1706.95L1412.19 706.141L1313.27 863.423C1313.18 863.569 1313.02 863.657 1312.85 863.657C1312.67 863.657 1312.51 863.569 1312.42 863.423L1263.41 785.408C1263.31 785.246 1263.31 785.039 1263.41 784.876L1411.76 548.98C1411.86 548.834 1412.01 548.746 1412.19 548.746C1412.36 548.746 1412.52 548.834 1412.61 548.98L1856.11 1254.15C1856.21 1254.3 1856.21 1254.5 1856.12 1254.66C1856.04 1254.82 1855.87 1254.92 1855.69 1254.92H1558.91C1558.74 1254.92 1558.58 1254.83 1558.49 1254.68L1508.75 1175.63C1508.65 1175.48 1508.64 1175.28 1508.73 1175.12C1508.82 1174.96 1508.99 1174.86 1509.17 1174.86Z" stroke="#CECECE" stroke-linejoin="round"/>
<path d="M1247.94 804.14C1248.03 803.995 1248.19 803.906 1248.36 803.906C1248.53 803.906 1248.69 803.994 1248.78 804.14L1531.85 1254.15C1531.95 1254.3 1531.95 1254.5 1531.86 1254.66C1531.78 1254.82 1531.61 1254.92 1531.43 1254.92H1428.84C1428.67 1254.92 1428.51 1254.83 1428.42 1254.68L1196.72 886.243C1196.62 886.081 1196.62 885.874 1196.72 885.711L1247.94 804.14Z" stroke="#CECECE" stroke-linejoin="round"/>
<path d="M1145.43 804.14C1145.52 803.995 1145.68 803.906 1145.85 803.906C1146.02 803.906 1146.18 803.995 1146.27 804.14L1197.56 885.711C1197.67 885.874 1197.67 886.081 1197.56 886.243L965.792 1254.68C965.701 1254.83 965.541 1254.92 965.369 1254.92H862.858C862.676 1254.92 862.509 1254.82 862.421 1254.66C862.333 1254.5 862.338 1254.3 862.435 1254.15L1145.43 804.14Z" stroke="#CECECE" stroke-linejoin="round"/>
<path d="M1379.08 1254.15C1379.17 1254.3 1379.18 1254.5 1379.09 1254.66C1379 1254.82 1378.84 1254.92 1378.65 1254.92H1015.63C1015.45 1254.92 1015.28 1254.82 1015.19 1254.66C1015.1 1254.5 1015.11 1254.3 1015.21 1254.15L1196.72 965.578C1196.81 965.432 1196.97 965.344 1197.14 965.344C1197.31 965.344 1197.47 965.432 1197.57 965.578L1379.08 1254.15Z" stroke="#CECECE" stroke-linejoin="round"/>
</g>
</g>
</g>
<defs>
<clipPath id="clip0_3491_99682">
<rect width="1440" height="1070" fill="white"/>
</clipPath>
<clipPath id="clip1_3491_99682">
<rect width="1041.69" height="831.416" fill="white" transform="matrix(1 0 0 -1 -231 685.414)"/>
</clipPath>
<clipPath id="clip2_3491_99682">
<rect width="1041.69" height="831.416" fill="white" transform="matrix(-1 0 0 1 1855.69 423)"/>
</clipPath>
</defs>
</svg>
