<svg width="368" height="329" viewBox="0 0 368 329" fill="none" xmlns="http://www.w3.org/2000/svg">
<path d="M360.127 137.485H254.658C254.658 137.485 265.121 107.246 281.218 107.246C297.315 107.246 302.354 128.116 302.354 128.116C302.354 128.116 313.22 116.782 322.14 116.782C331.061 116.782 338.789 131.762 338.789 131.762C338.789 131.762 351.425 123.673 360.127 137.485Z" fill="#D5EBFF"/>
<path d="M238.299 16.9096H189C189 16.9096 200.015 0 208.699 0C217.383 0 219.941 11.2792 219.941 11.2792C219.941 11.2792 226.075 6.02919 231.736 6.96603C237.397 7.90288 238.299 16.9096 238.299 16.9096Z" fill="#D5EBFF"/>
<path d="M201.308 106.9H152C152 106.9 163.015 90 171.69 90C180.365 90 182.906 101.27 182.906 101.27C182.906 101.27 189.04 96.0106 194.701 96.9475C200.362 97.8843 201.308 106.9 201.308 106.9Z" fill="#EBEBEB"/>
<path d="M335.299 47.9003H286C286 47.9003 297.015 31 305.69 31C314.365 31 316.932 42.2699 316.932 42.2699C316.932 42.2699 323.066 37.0106 328.736 37.9475C334.405 38.8843 335.299 47.9003 335.299 47.9003Z" fill="#D5EBFF"/>
<path d="M57.1401 135.88H7.86719C7.86719 135.88 18.8557 119.035 27.5308 119.035C36.2059 119.035 38.7821 130.296 38.7821 130.296C38.7821 130.296 44.916 125.037 50.5768 125.983C56.2375 126.929 57.1401 135.88 57.1401 135.88Z" fill="#D5EBFF"/>
<path d="M137 61H41C41 61 54.1399 19.7305 68.2083 17.1434C82.2768 14.5564 88.9956 47.8184 88.9956 47.8184C88.9956 47.8184 98.0709 36.0658 105.201 36.0658C112.332 36.0658 117.807 51.5388 117.807 51.5388C117.807 51.5388 132.103 40.9566 137 61Z" fill="#D5EBFF"/>
<path d="M290.231 160.406H261.174V321.664H290.231V160.406Z" fill="#8FACFF" fill-opacity="0.42"/>
<path d="M271.328 165.648H265.676V171.808H271.328V165.648Z" fill="#EBEBEB"/>
<path d="M278.554 165.648H272.902V171.808H278.554V165.648Z" fill="#EBEBEB"/>
<path d="M271.328 176.09H265.676V182.249H271.328V176.09Z" fill="#EBEBEB"/>
<path d="M278.554 176.09H272.902V182.249H278.554V176.09Z" fill="#EBEBEB"/>
<path d="M271.328 186.547H265.676V192.706H271.328V186.547Z" fill="#EBEBEB"/>
<path d="M278.554 186.547H272.902V192.706H278.554V186.547Z" fill="#EBEBEB"/>
<path d="M271.328 197H265.676V203.159H271.328V197Z" fill="#EBEBEB"/>
<path d="M278.554 197H272.902V203.159H278.554V197Z" fill="#EBEBEB"/>
<path d="M271.328 207.453H265.676V213.612H271.328V207.453Z" fill="#EBEBEB"/>
<path d="M278.554 207.453H272.902V213.612H278.554V207.453Z" fill="#EBEBEB"/>
<path d="M271.328 217.906H265.676V224.065H271.328V217.906Z" fill="#EBEBEB"/>
<path d="M278.554 217.906H272.902V224.065H278.554V217.906Z" fill="#EBEBEB"/>
<path d="M271.328 228.359H265.676V234.518H271.328V228.359Z" fill="#EBEBEB"/>
<path d="M278.554 228.359H272.902V234.518H278.554V228.359Z" fill="#EBEBEB"/>
<path d="M271.328 238.812H265.676V244.972H271.328V238.812Z" fill="#EBEBEB"/>
<path d="M278.554 238.812H272.902V244.972H278.554V238.812Z" fill="#EBEBEB"/>
<path d="M271.328 249.266H265.676V255.425H271.328V249.266Z" fill="#EBEBEB"/>
<path d="M278.554 249.266H272.902V255.425H278.554V249.266Z" fill="#EBEBEB"/>
<path d="M271.328 259.723H265.676V265.882H271.328V259.723Z" fill="#EBEBEB"/>
<path d="M278.554 259.723H272.902V265.882H278.554V259.723Z" fill="#EBEBEB"/>
<path d="M271.328 270.176H265.676V276.335H271.328V270.176Z" fill="#EBEBEB"/>
<path d="M278.554 270.176H272.902V276.335H278.554V270.176Z" fill="#EBEBEB"/>
<path d="M271.328 280.629H265.676V286.788H271.328V280.629Z" fill="#EBEBEB"/>
<path d="M278.554 280.629H272.902V286.788H278.554V280.629Z" fill="#EBEBEB"/>
<path d="M271.328 291.082H265.676V297.241H271.328V291.082Z" fill="#EBEBEB"/>
<path d="M278.554 291.082H272.902V297.241H278.554V291.082Z" fill="#EBEBEB"/>
<path d="M271.328 301.535H265.676V307.694H271.328V301.535Z" fill="#EBEBEB"/>
<path d="M280.063 307.691H285.715V301.532H280.063V307.691Z" fill="#EBEBEB"/>
<path d="M280.063 297.234H285.715V291.075H280.063V297.234Z" fill="#EBEBEB"/>
<path d="M280.063 286.785H285.715V280.626H280.063V286.785Z" fill="#EBEBEB"/>
<path d="M280.063 276.336H285.715V270.177H280.063V276.336Z" fill="#EBEBEB"/>
<path d="M280.063 265.879H285.715V259.72H280.063V265.879Z" fill="#EBEBEB"/>
<path d="M280.063 255.434H285.715V249.275H280.063V255.434Z" fill="#EBEBEB"/>
<path d="M280.063 244.98H285.715V238.821H280.063V244.98Z" fill="#EBEBEB"/>
<path d="M280.063 234.527H285.715V228.368H280.063V234.527Z" fill="#EBEBEB"/>
<path d="M280.063 224.074H285.715V217.915H280.063V224.074Z" fill="#EBEBEB"/>
<path d="M280.063 213.617H285.715V207.458H280.063V213.617Z" fill="#EBEBEB"/>
<path d="M280.063 203.168H285.715V197.009H280.063V203.168Z" fill="#EBEBEB"/>
<path d="M280.063 192.711H285.715V186.552H280.063V192.711Z" fill="#EBEBEB"/>
<path d="M280.063 182.254H285.715V176.095H280.063V182.254Z" fill="#EBEBEB"/>
<path d="M280.063 171.793H285.715V165.634H280.063V171.793Z" fill="#EBEBEB"/>
<path d="M278.554 301.535H272.902V307.694H278.554V301.535Z" fill="#EBEBEB"/>
<path d="M313.143 160.406H290.229V321.664H313.143V160.406Z" fill="#AEC0D0"/>
<path d="M306.118 307.691H310.779V301.532H306.118V307.691Z" fill="#0054A5"/>
<path d="M300.147 307.691H304.809V301.532H300.147V307.691Z" fill="#0054A5"/>
<path d="M306.118 297.234H310.779V291.075H306.118V297.234Z" fill="#0054A5"/>
<path d="M300.147 297.234H304.809V291.075H300.147V297.234Z" fill="#0054A5"/>
<path d="M306.118 286.785H310.779V280.626H306.118V286.785Z" fill="#0054A5"/>
<path d="M300.147 286.785H304.809V280.626H300.147V286.785Z" fill="#0054A5"/>
<path d="M306.118 276.336H310.779V270.177H306.118V276.336Z" fill="#0054A5"/>
<path d="M300.147 276.336H304.809V270.177H300.147V276.336Z" fill="#0054A5"/>
<path d="M306.118 265.879H310.779V259.72H306.118V265.879Z" fill="#0054A5"/>
<path d="M300.147 265.879H304.809V259.72H300.147V265.879Z" fill="#0054A5"/>
<path d="M306.118 255.434H310.779V249.275H306.118V255.434Z" fill="#0054A5"/>
<path d="M300.147 255.434H304.809V249.275H300.147V255.434Z" fill="#0054A5"/>
<path d="M306.118 244.98H310.779V238.821H306.118V244.98Z" fill="#0054A5"/>
<path d="M300.147 244.98H304.809V238.821H300.147V244.98Z" fill="#0054A5"/>
<path d="M306.118 234.527H310.779V228.368H306.118V234.527Z" fill="#0054A5"/>
<path d="M300.147 234.527H304.809V228.368H300.147V234.527Z" fill="#0054A5"/>
<path d="M306.118 224.074H310.779V217.915H306.118V224.074Z" fill="#0054A5"/>
<path d="M300.147 224.074H304.809V217.915H300.147V224.074Z" fill="#0054A5"/>
<path d="M306.118 213.617H310.779V207.458H306.118V213.617Z" fill="#0054A5"/>
<path d="M300.147 213.617H304.809V207.458H300.147V213.617Z" fill="#0054A5"/>
<path d="M306.118 203.168H310.779V197.009H306.118V203.168Z" fill="#0054A5"/>
<path d="M300.147 203.168H304.809V197.009H300.147V203.168Z" fill="#0054A5"/>
<path d="M306.118 192.711H310.779V186.552H306.118V192.711Z" fill="#0054A5"/>
<path d="M300.147 192.711H304.809V186.552H300.147V192.711Z" fill="#0054A5"/>
<path d="M306.118 182.254H310.779V176.095H306.118V182.254Z" fill="#0054A5"/>
<path d="M300.147 182.254H304.809V176.095H300.147V182.254Z" fill="#0054A5"/>
<path d="M306.118 171.793H310.779V165.634H306.118V171.793Z" fill="#0054A5"/>
<path d="M298.896 165.648H294.234V171.808H298.896V165.648Z" fill="#0054A5"/>
<path d="M298.896 176.09H294.234V182.249H298.896V176.09Z" fill="#0054A5"/>
<path d="M298.896 186.547H294.234V192.706H298.896V186.547Z" fill="#0054A5"/>
<path d="M298.896 197H294.234V203.159H298.896V197Z" fill="#0054A5"/>
<path d="M298.896 207.453H294.234V213.612H298.896V207.453Z" fill="#0054A5"/>
<path d="M298.896 217.906H294.234V224.065H298.896V217.906Z" fill="#0054A5"/>
<path d="M298.896 228.359H294.234V234.518H298.896V228.359Z" fill="#0054A5"/>
<path d="M298.896 238.812H294.234V244.972H298.896V238.812Z" fill="#0054A5"/>
<path d="M298.896 249.266H294.234V255.425H298.896V249.266Z" fill="#0054A5"/>
<path d="M298.896 259.723H294.234V265.882H298.896V259.723Z" fill="#0054A5"/>
<path d="M298.896 270.176H294.234V276.335H298.896V270.176Z" fill="#0054A5"/>
<path d="M298.896 280.629H294.234V286.788H298.896V280.629Z" fill="#0054A5"/>
<path d="M298.896 291.082H294.234V297.241H298.896V291.082Z" fill="#0054A5"/>
<path d="M298.896 301.535H294.234V307.694H298.896V301.535Z" fill="#0054A5"/>
<path d="M300.147 171.793H304.809V165.634H300.147V171.793Z" fill="#0054A5"/>
<path d="M83.8918 151.707H49.5156V321.656H83.8918V151.707Z" fill="#EBEBEB"/>
<path d="M83.8942 147.984H48.6855V151.704H83.8942V147.984Z" fill="#0054A5"/>
<path d="M56.0979 157.195H52.6191V321.662H56.0979V157.195Z" fill="#AEC0D0"/>
<path d="M62.2757 157.195H58.7969V321.662H62.2757V157.195Z" fill="#AEC0D0"/>
<path d="M68.4456 157.195H64.9668V321.662H68.4456V157.195Z" fill="#AEC0D0"/>
<path d="M74.6204 157.195H71.1328V321.662H74.6204V157.195Z" fill="#AEC0D0"/>
<path d="M80.7835 157.195H77.3047V321.662H80.7835V157.195Z" fill="#AEC0D0"/>
<path d="M56.0979 161.902H52.6191V169.249H56.0979V161.902Z" fill="#EBEBEB"/>
<path d="M62.2757 161.902H58.7969V169.249H62.2757V161.902Z" fill="#EBEBEB"/>
<path d="M68.4456 161.902H64.9668V169.249H68.4456V161.902Z" fill="#EBEBEB"/>
<path d="M74.6204 161.902H71.1328V169.249H74.6204V161.902Z" fill="#EBEBEB"/>
<path d="M80.7835 161.902H77.3047V169.249H80.7835V161.902Z" fill="#EBEBEB"/>
<path d="M56.0979 173.82H52.6191V181.167H56.0979V173.82Z" fill="#EBEBEB"/>
<path d="M62.2757 173.82H58.7969V181.167H62.2757V173.82Z" fill="#EBEBEB"/>
<path d="M68.4456 173.82H64.9668V181.167H68.4456V173.82Z" fill="#EBEBEB"/>
<path d="M74.6204 173.82H71.1328V181.167H74.6204V173.82Z" fill="#EBEBEB"/>
<path d="M80.7835 173.82H77.3047V181.167H80.7835V173.82Z" fill="#EBEBEB"/>
<path d="M56.0979 185.766H52.6191V193.112H56.0979V185.766Z" fill="#EBEBEB"/>
<path d="M62.2757 185.766H58.7969V193.112H62.2757V185.766Z" fill="#EBEBEB"/>
<path d="M68.4456 185.766H64.9668V193.112H68.4456V185.766Z" fill="#EBEBEB"/>
<path d="M74.6204 185.766H71.1328V193.112H74.6204V185.766Z" fill="#EBEBEB"/>
<path d="M80.7835 185.766H77.3047V193.112H80.7835V185.766Z" fill="#EBEBEB"/>
<path d="M56.0979 197.703H52.6191V205.049H56.0979V197.703Z" fill="#EBEBEB"/>
<path d="M62.2757 197.703H58.7969V205.049H62.2757V197.703Z" fill="#EBEBEB"/>
<path d="M68.4456 197.703H64.9668V205.049H68.4456V197.703Z" fill="#EBEBEB"/>
<path d="M74.6204 197.703H71.1328V205.049H74.6204V197.703Z" fill="#EBEBEB"/>
<path d="M80.7835 197.703H77.3047V205.049H80.7835V197.703Z" fill="#EBEBEB"/>
<path d="M56.0979 209.641H52.6191V216.987H56.0979V209.641Z" fill="#EBEBEB"/>
<path d="M62.2757 209.641H58.7969V216.987H62.2757V209.641Z" fill="#EBEBEB"/>
<path d="M68.4456 209.641H64.9668V216.987H68.4456V209.641Z" fill="#EBEBEB"/>
<path d="M74.6204 209.641H71.1328V216.987H74.6204V209.641Z" fill="#EBEBEB"/>
<path d="M80.7835 209.641H77.3047V216.987H80.7835V209.641Z" fill="#EBEBEB"/>
<path d="M56.0979 221.578H52.6191V228.924H56.0979V221.578Z" fill="#EBEBEB"/>
<path d="M62.2757 221.578H58.7969V228.924H62.2757V221.578Z" fill="#EBEBEB"/>
<path d="M68.4456 221.578H64.9668V228.924H68.4456V221.578Z" fill="#EBEBEB"/>
<path d="M74.6204 221.578H71.1328V228.924H74.6204V221.578Z" fill="#EBEBEB"/>
<path d="M80.7835 221.578H77.3047V228.924H80.7835V221.578Z" fill="#EBEBEB"/>
<path d="M56.0979 233.52H52.6191V240.866H56.0979V233.52Z" fill="#EBEBEB"/>
<path d="M62.2757 233.52H58.7969V240.866H62.2757V233.52Z" fill="#EBEBEB"/>
<path d="M68.4456 233.52H64.9668V240.866H68.4456V233.52Z" fill="#EBEBEB"/>
<path d="M74.6204 233.52H71.1328V240.866H74.6204V233.52Z" fill="#EBEBEB"/>
<path d="M80.7835 233.52H77.3047V240.866H80.7835V233.52Z" fill="#EBEBEB"/>
<path d="M56.0979 245.453H52.6191V252.799H56.0979V245.453Z" fill="#EBEBEB"/>
<path d="M62.2757 245.453H58.7969V252.799H62.2757V245.453Z" fill="#EBEBEB"/>
<path d="M68.4456 245.453H64.9668V252.799H68.4456V245.453Z" fill="#EBEBEB"/>
<path d="M74.6204 245.453H71.1328V252.799H74.6204V245.453Z" fill="#EBEBEB"/>
<path d="M80.7835 245.453H77.3047V252.799H80.7835V245.453Z" fill="#EBEBEB"/>
<path d="M56.0979 257.391H52.6191V264.737H56.0979V257.391Z" fill="#EBEBEB"/>
<path d="M62.2757 257.391H58.7969V264.737H62.2757V257.391Z" fill="#EBEBEB"/>
<path d="M68.4456 257.391H64.9668V264.737H68.4456V257.391Z" fill="#EBEBEB"/>
<path d="M74.6204 257.391H71.1328V264.737H74.6204V257.391Z" fill="#EBEBEB"/>
<path d="M80.7835 257.391H77.3047V264.737H80.7835V257.391Z" fill="#EBEBEB"/>
<path d="M56.0979 269.332H52.6191V276.678H56.0979V269.332Z" fill="#EBEBEB"/>
<path d="M62.2757 269.332H58.7969V276.678H62.2757V269.332Z" fill="#EBEBEB"/>
<path d="M68.4456 269.332H64.9668V276.678H68.4456V269.332Z" fill="#EBEBEB"/>
<path d="M74.6204 269.332H71.1328V276.678H74.6204V269.332Z" fill="#EBEBEB"/>
<path d="M80.7835 269.332H77.3047V276.678H80.7835V269.332Z" fill="#EBEBEB"/>
<path d="M56.0979 281.266H52.6191V288.612H56.0979V281.266Z" fill="#EBEBEB"/>
<path d="M62.2757 281.266H58.7969V288.612H62.2757V281.266Z" fill="#EBEBEB"/>
<path d="M68.4456 281.266H64.9668V288.612H68.4456V281.266Z" fill="#EBEBEB"/>
<path d="M74.6204 281.266H71.1328V288.612H74.6204V281.266Z" fill="#EBEBEB"/>
<path d="M80.7835 281.266H77.3047V288.612H80.7835V281.266Z" fill="#EBEBEB"/>
<path d="M56.0979 293.207H52.6191V300.553H56.0979V293.207Z" fill="#EBEBEB"/>
<path d="M62.2757 293.207H58.7969V300.553H62.2757V293.207Z" fill="#EBEBEB"/>
<path d="M68.4456 293.207H64.9668V300.553H68.4456V293.207Z" fill="#EBEBEB"/>
<path d="M74.6204 293.207H71.1328V300.553H74.6204V293.207Z" fill="#EBEBEB"/>
<path d="M80.7835 293.207H77.3047V300.553H80.7835V293.207Z" fill="#EBEBEB"/>
<path d="M56.0979 305.145H52.6191V312.491H56.0979V305.145Z" fill="#EBEBEB"/>
<path d="M62.2757 305.145H58.7969V312.491H62.2757V305.145Z" fill="#EBEBEB"/>
<path d="M68.4456 305.145H64.9668V312.491H68.4456V305.145Z" fill="#EBEBEB"/>
<path d="M74.6204 305.145H71.1328V312.491H74.6204V305.145Z" fill="#EBEBEB"/>
<path d="M80.7835 305.145H77.3047V312.491H80.7835V305.145Z" fill="#EBEBEB"/>
<path d="M56.0979 317.078H52.6191V321.66H56.0979V317.078Z" fill="#EBEBEB"/>
<path d="M62.2757 317.078H58.7969V321.66H62.2757V317.078Z" fill="#EBEBEB"/>
<path d="M68.4456 317.078H64.9668V321.66H68.4456V317.078Z" fill="#EBEBEB"/>
<path d="M74.6204 317.078H71.1328V321.66H74.6204V317.078Z" fill="#EBEBEB"/>
<path d="M80.7835 317.078H77.3047V321.66H80.7835V317.078Z" fill="#EBEBEB"/>
<path d="M105.966 151.707H83.8926V321.656H105.966V151.707Z" fill="#8FACFF" fill-opacity="0.42"/>
<path d="M106.921 147.984H83.8926V151.704H106.921V147.984Z" fill="#0054A5"/>
<path d="M90.4915 157.195H87.0039V321.662H90.4915V157.195Z" fill="#0054A5"/>
<path d="M96.6507 157.195H93.1719V321.662H96.6507V157.195Z" fill="#0054A5"/>
<path d="M102.823 157.195H99.3438V321.662H102.823V157.195Z" fill="#0054A5"/>
<path d="M90.4915 161.902H87.0039V169.249H90.4915V161.902Z" fill="#8FACFF" fill-opacity="0.42"/>
<path d="M96.6507 161.902H93.1719V169.249H96.6507V161.902Z" fill="#8FACFF" fill-opacity="0.42"/>
<path d="M102.823 161.902H99.3438V169.249H102.823V161.902Z" fill="#8FACFF" fill-opacity="0.42"/>
<path d="M90.4915 173.82H87.0039V181.167H90.4915V173.82Z" fill="#8FACFF" fill-opacity="0.42"/>
<path d="M96.6507 173.82H93.1719V181.167H96.6507V173.82Z" fill="#8FACFF" fill-opacity="0.42"/>
<path d="M102.823 173.82H99.3438V181.167H102.823V173.82Z" fill="#8FACFF" fill-opacity="0.42"/>
<path d="M90.4915 185.766H87.0039V193.112H90.4915V185.766Z" fill="#8FACFF" fill-opacity="0.42"/>
<path d="M96.6507 185.766H93.1719V193.112H96.6507V185.766Z" fill="#8FACFF" fill-opacity="0.42"/>
<path d="M102.823 185.766H99.3438V193.112H102.823V185.766Z" fill="#8FACFF" fill-opacity="0.42"/>
<path d="M90.4915 197.703H87.0039V205.049H90.4915V197.703Z" fill="#8FACFF" fill-opacity="0.42"/>
<path d="M96.6507 197.703H93.1719V205.049H96.6507V197.703Z" fill="#8FACFF" fill-opacity="0.42"/>
<path d="M102.823 197.703H99.3438V205.049H102.823V197.703Z" fill="#8FACFF" fill-opacity="0.42"/>
<path d="M90.4915 209.641H87.0039V216.987H90.4915V209.641Z" fill="#8FACFF" fill-opacity="0.42"/>
<path d="M96.6507 209.641H93.1719V216.987H96.6507V209.641Z" fill="#8FACFF" fill-opacity="0.42"/>
<path d="M102.823 209.641H99.3438V216.987H102.823V209.641Z" fill="#8FACFF" fill-opacity="0.42"/>
<path d="M90.4915 221.578H87.0039V228.924H90.4915V221.578Z" fill="#8FACFF" fill-opacity="0.42"/>
<path d="M96.6507 221.578H93.1719V228.924H96.6507V221.578Z" fill="#8FACFF" fill-opacity="0.42"/>
<path d="M102.823 221.578H99.3438V228.924H102.823V221.578Z" fill="#8FACFF" fill-opacity="0.42"/>
<path d="M90.4915 233.52H87.0039V240.866H90.4915V233.52Z" fill="#8FACFF" fill-opacity="0.42"/>
<path d="M96.6507 233.52H93.1719V240.866H96.6507V233.52Z" fill="#8FACFF" fill-opacity="0.42"/>
<path d="M102.823 233.52H99.3438V240.866H102.823V233.52Z" fill="#8FACFF" fill-opacity="0.42"/>
<path d="M90.4915 245.453H87.0039V252.799H90.4915V245.453Z" fill="#8FACFF" fill-opacity="0.42"/>
<path d="M96.6507 245.453H93.1719V252.799H96.6507V245.453Z" fill="#8FACFF" fill-opacity="0.42"/>
<path d="M102.823 245.453H99.3438V252.799H102.823V245.453Z" fill="#8FACFF" fill-opacity="0.42"/>
<path d="M90.4915 257.391H87.0039V264.737H90.4915V257.391Z" fill="#8FACFF" fill-opacity="0.42"/>
<path d="M96.6507 257.391H93.1719V264.737H96.6507V257.391Z" fill="#8FACFF" fill-opacity="0.42"/>
<path d="M102.823 257.391H99.3438V264.737H102.823V257.391Z" fill="#8FACFF" fill-opacity="0.42"/>
<path d="M90.4915 269.332H87.0039V276.678H90.4915V269.332Z" fill="#8FACFF" fill-opacity="0.42"/>
<path d="M96.6507 269.332H93.1719V276.678H96.6507V269.332Z" fill="#8FACFF" fill-opacity="0.42"/>
<path d="M102.823 269.332H99.3438V276.678H102.823V269.332Z" fill="#8FACFF" fill-opacity="0.42"/>
<path d="M90.4915 281.266H87.0039V288.612H90.4915V281.266Z" fill="#8FACFF" fill-opacity="0.42"/>
<path d="M96.6507 281.266H93.1719V288.612H96.6507V281.266Z" fill="#8FACFF" fill-opacity="0.42"/>
<path d="M102.823 281.266H99.3438V288.612H102.823V281.266Z" fill="#8FACFF" fill-opacity="0.42"/>
<path d="M90.4915 293.207H87.0039V300.553H90.4915V293.207Z" fill="#8FACFF" fill-opacity="0.42"/>
<path d="M96.6507 293.207H93.1719V300.553H96.6507V293.207Z" fill="#8FACFF" fill-opacity="0.42"/>
<path d="M102.823 293.207H99.3438V300.553H102.823V293.207Z" fill="#8FACFF" fill-opacity="0.42"/>
<path d="M90.4915 305.145H87.0039V312.491H90.4915V305.145Z" fill="#8FACFF" fill-opacity="0.42"/>
<path d="M96.6507 305.145H93.1719V312.491H96.6507V305.145Z" fill="#8FACFF" fill-opacity="0.42"/>
<path d="M102.823 305.145H99.3438V312.491H102.823V305.145Z" fill="#8FACFF" fill-opacity="0.42"/>
<path d="M90.4915 317.078H87.0039V321.66H90.4915V317.078Z" fill="#8FACFF" fill-opacity="0.42"/>
<path d="M96.6507 317.078H93.1719V321.66H96.6507V317.078Z" fill="#8FACFF" fill-opacity="0.42"/>
<path d="M102.823 317.078H99.3438V321.66H102.823V317.078Z" fill="#8FACFF" fill-opacity="0.42"/>
<path d="M40.5876 214.168H6.35156V321.664H40.5876V214.168Z" fill="#EBEBEB"/>
<path d="M40.5885 205.051H11.2246V214.169H40.5885V205.051Z" fill="#EC1A3B"/>
<path d="M36.8357 218.922H10.1094V321.659H36.8357V218.922Z" fill="#8FACFF" fill-opacity="0.42"/>
<path d="M36.8357 228.73H10.1094V231.161H36.8357V228.73Z" fill="#AEC0D0"/>
<path d="M36.8357 238.781H10.1094V241.211H36.8357V238.781Z" fill="#AEC0D0"/>
<path d="M36.8357 248.844H10.1094V251.274H36.8357V248.844Z" fill="#AEC0D0"/>
<path d="M36.8357 258.895H10.1094V261.325H36.8357V258.895Z" fill="#AEC0D0"/>
<path d="M36.8357 268.945H10.1094V271.376H36.8357V268.945Z" fill="#AEC0D0"/>
<path d="M36.8357 279.008H10.1094V281.438H36.8357V279.008Z" fill="#AEC0D0"/>
<path d="M36.8357 289.062H10.1094V291.493H36.8357V289.062Z" fill="#AEC0D0"/>
<path d="M36.8357 299.117H10.1094V301.547H36.8357V299.117Z" fill="#AEC0D0"/>
<path d="M36.8357 309.18H10.1094V311.61H36.8357V309.18Z" fill="#AEC0D0"/>
<path d="M36.8357 319.234H10.1094V321.665H36.8357V319.234Z" fill="#AEC0D0"/>
<path d="M62.0303 214.168H40.5879V321.664H62.0303V214.168Z" fill="#8FACFF" fill-opacity="0.42"/>
<path d="M58.8144 205.051H40.5879V214.169H58.8144V205.051Z" fill="#EC1A3B" fill-opacity="0.84"/>
<path d="M60.0237 218.922H43.541V321.659H60.0237V218.922Z" fill="#0054A5"/>
<path d="M60.0237 228.73H43.541V231.161H60.0237V228.73Z" fill="#AEC0D0"/>
<path d="M60.0237 238.781H43.541V241.211H60.0237V238.781Z" fill="#AEC0D0"/>
<path d="M60.0237 248.844H43.541V251.274H60.0237V248.844Z" fill="#AEC0D0"/>
<path d="M60.0237 258.895H43.541V261.325H60.0237V258.895Z" fill="#AEC0D0"/>
<path d="M60.0237 268.945H43.541V271.376H60.0237V268.945Z" fill="#AEC0D0"/>
<path d="M60.0237 279.008H43.541V281.438H60.0237V279.008Z" fill="#AEC0D0"/>
<path d="M60.0237 289.062H43.541V291.493H60.0237V289.062Z" fill="#AEC0D0"/>
<path d="M60.0237 299.117H43.541V301.547H60.0237V299.117Z" fill="#AEC0D0"/>
<path d="M60.0237 309.18H43.541V311.61H60.0237V309.18Z" fill="#AEC0D0"/>
<path d="M60.0237 319.234H43.541V321.665H60.0237V319.234Z" fill="#AEC0D0"/>
<path d="M136.53 258.73H110.066V321.657H136.53V258.73Z" fill="#8FACFF" fill-opacity="0.42"/>
<path d="M118.908 264.168H114.229V268.027H118.908V264.168Z" fill="#0054A5"/>
<path d="M118.908 272.41H114.229V276.269H118.908V272.41Z" fill="#0054A5"/>
<path d="M118.908 280.641H114.229V284.499H118.908V280.641Z" fill="#0054A5"/>
<path d="M118.908 288.887H114.229V292.745H118.908V288.887Z" fill="#0054A5"/>
<path d="M118.908 297.117H114.229V300.976H118.908V297.117Z" fill="#0054A5"/>
<path d="M118.908 305.344H114.229V309.202H118.908V305.344Z" fill="#0054A5"/>
<path d="M118.908 313.582H114.229V317.441H118.908V313.582Z" fill="#0054A5"/>
<path d="M125.646 264.168H120.967V268.027H125.646V264.168Z" fill="#0054A5"/>
<path d="M125.646 272.41H120.967V276.269H125.646V272.41Z" fill="#0054A5"/>
<path d="M125.646 280.641H120.967V284.499H125.646V280.641Z" fill="#0054A5"/>
<path d="M125.646 288.887H120.967V292.745H125.646V288.887Z" fill="#0054A5"/>
<path d="M125.646 297.117H120.967V300.976H125.646V297.117Z" fill="#0054A5"/>
<path d="M125.646 305.344H120.967V309.202H125.646V305.344Z" fill="#0054A5"/>
<path d="M125.646 313.582H120.967V317.441H125.646V313.582Z" fill="#0054A5"/>
<path d="M132.367 264.168H127.688V268.027H132.367V264.168Z" fill="#0054A5"/>
<path d="M132.367 272.41H127.688V276.269H132.367V272.41Z" fill="#0054A5"/>
<path d="M132.367 280.641H127.688V284.499H132.367V280.641Z" fill="#0054A5"/>
<path d="M132.367 288.887H127.688V292.745H132.367V288.887Z" fill="#0054A5"/>
<path d="M132.367 297.117H127.688V300.976H132.367V297.117Z" fill="#0054A5"/>
<path d="M132.367 305.344H127.688V309.202H132.367V305.344Z" fill="#0054A5"/>
<path d="M132.367 313.582H127.688V317.441H132.367V313.582Z" fill="#0054A5"/>
<path d="M155.098 258.73H136.529V321.657H155.098V258.73Z" fill="#AEC0D0"/>
<path d="M149.387 316.82H153.199V312.962H149.387V316.82Z" fill="#0054A5"/>
<path d="M149.387 308.598H153.199V304.739H149.387V308.598Z" fill="#0054A5"/>
<path d="M149.387 300.355H153.199V296.497H149.387V300.355Z" fill="#0054A5"/>
<path d="M149.387 292.125H153.199V288.266H149.387V292.125Z" fill="#0054A5"/>
<path d="M149.387 283.883H153.199V280.024H149.387V283.883Z" fill="#0054A5"/>
<path d="M149.387 275.641H153.199V271.782H149.387V275.641Z" fill="#0054A5"/>
<path d="M149.387 267.422H153.199V263.563H149.387V267.422Z" fill="#0054A5"/>
<path d="M143.899 316.82H147.711V312.962H143.899V316.82Z" fill="#0054A5"/>
<path d="M143.899 308.598H147.711V304.739H143.899V308.598Z" fill="#0054A5"/>
<path d="M143.899 300.355H147.711V296.497H143.899V300.355Z" fill="#0054A5"/>
<path d="M143.899 292.125H147.711V288.266H143.899V292.125Z" fill="#0054A5"/>
<path d="M143.899 283.883H147.711V280.024H143.899V283.883Z" fill="#0054A5"/>
<path d="M143.899 275.641H147.711V271.782H143.899V275.641Z" fill="#0054A5"/>
<path d="M143.899 267.422H147.711V263.563H143.899V267.422Z" fill="#0054A5"/>
<path d="M138.434 316.82H142.246V312.962H138.434V316.82Z" fill="#0054A5"/>
<path d="M138.434 308.598H142.246V304.739H138.434V308.598Z" fill="#0054A5"/>
<path d="M138.434 300.355H142.246V296.497H138.434V300.355Z" fill="#0054A5"/>
<path d="M138.434 292.125H142.246V288.266H138.434V292.125Z" fill="#0054A5"/>
<path d="M138.434 283.883H142.246V280.024H138.434V283.883Z" fill="#0054A5"/>
<path d="M138.434 275.641H142.246V271.782H138.434V275.641Z" fill="#0054A5"/>
<path d="M138.434 267.422H142.246V263.563H138.434V267.422Z" fill="#0054A5"/>
<path d="M333.414 186.547H315.135V209.411H333.414V186.547Z" fill="#8FACFF" fill-opacity="0.42"/>
<path d="M345.013 186.547H333.42V210.246H345.013V186.547Z" fill="#0054A5"/>
<path d="M345.783 196.645H334.277V210.252H345.783V196.645Z" fill="#8FACFF" fill-opacity="0.42"/>
<path d="M352.962 196.645H345.785V210.252H352.962V196.645Z" fill="#0054A5"/>
<path d="M337.687 207.922H308.121V321.651H337.687V207.922Z" fill="#EBEBEB"/>
<path d="M320.801 212.816H311.504V216.833H320.801V212.816Z" fill="#AEC0D0"/>
<path d="M332.694 212.816H323.396V216.833H332.694V212.816Z" fill="#AEC0D0"/>
<path d="M320.801 219.637H311.504V223.653H320.801V219.637Z" fill="#AEC0D0"/>
<path d="M332.694 219.637H323.396V223.653H332.694V219.637Z" fill="#AEC0D0"/>
<path d="M320.801 226.469H311.504V230.485H320.801V226.469Z" fill="#AEC0D0"/>
<path d="M332.694 226.469H323.396V230.485H332.694V226.469Z" fill="#AEC0D0"/>
<path d="M320.801 233.297H311.504V237.313H320.801V233.297Z" fill="#AEC0D0"/>
<path d="M332.694 233.297H323.396V237.313H332.694V233.297Z" fill="#AEC0D0"/>
<path d="M320.801 240.121H311.504V244.137H320.801V240.121Z" fill="#AEC0D0"/>
<path d="M332.694 240.121H323.396V244.137H332.694V240.121Z" fill="#AEC0D0"/>
<path d="M320.801 246.945H311.504V250.962H320.801V246.945Z" fill="#AEC0D0"/>
<path d="M332.694 246.945H323.396V250.962H332.694V246.945Z" fill="#AEC0D0"/>
<path d="M320.801 253.773H311.504V257.79H320.801V253.773Z" fill="#AEC0D0"/>
<path d="M332.694 253.773H323.396V257.79H332.694V253.773Z" fill="#AEC0D0"/>
<path d="M320.801 260.598H311.504V264.614H320.801V260.598Z" fill="#AEC0D0"/>
<path d="M332.694 260.598H323.396V264.614H332.694V260.598Z" fill="#AEC0D0"/>
<path d="M320.801 267.426H311.504V271.442H320.801V267.426Z" fill="#AEC0D0"/>
<path d="M332.694 267.426H323.396V271.442H332.694V267.426Z" fill="#AEC0D0"/>
<path d="M320.801 274.246H311.504V278.262H320.801V274.246Z" fill="#AEC0D0"/>
<path d="M332.694 274.246H323.396V278.262H332.694V274.246Z" fill="#AEC0D0"/>
<path d="M320.801 281.078H311.504V285.094H320.801V281.078Z" fill="#AEC0D0"/>
<path d="M332.694 281.078H323.396V285.094H332.694V281.078Z" fill="#AEC0D0"/>
<path d="M320.801 287.906H311.504V291.932H320.801V287.906Z" fill="#AEC0D0"/>
<path d="M332.694 287.906H323.396V291.932H332.694V287.906Z" fill="#AEC0D0"/>
<path d="M320.801 294.73H311.504V298.747H320.801V294.73Z" fill="#AEC0D0"/>
<path d="M332.694 294.73H323.396V298.747H332.694V294.73Z" fill="#AEC0D0"/>
<path d="M320.801 301.562H311.504V305.579H320.801V301.562Z" fill="#AEC0D0"/>
<path d="M332.694 301.562H323.396V305.579H332.694V301.562Z" fill="#AEC0D0"/>
<path d="M361.645 207.922H337.688V321.651H361.645V207.922Z" fill="#0054A5"/>
<path d="M351.616 305.578H359.248V301.562H351.616V305.578Z" fill="#EBEBEB"/>
<path d="M341.84 305.578H349.473V301.562H341.84V305.578Z" fill="#EBEBEB"/>
<path d="M351.616 298.75H359.248V294.734H351.616V298.75Z" fill="#EBEBEB"/>
<path d="M341.84 298.75H349.473V294.734H341.84V298.75Z" fill="#EBEBEB"/>
<path d="M351.616 291.926H359.248V287.9H351.616V291.926Z" fill="#EBEBEB"/>
<path d="M341.84 291.926H349.473V287.9H341.84V291.926Z" fill="#EBEBEB"/>
<path d="M351.616 285.098H359.248V281.081H351.616V285.098Z" fill="#EBEBEB"/>
<path d="M341.84 285.098H349.473V281.081H341.84V285.098Z" fill="#EBEBEB"/>
<path d="M351.616 278.27H359.248V274.253H351.616V278.27Z" fill="#EBEBEB"/>
<path d="M341.84 278.27H349.473V274.253H341.84V278.27Z" fill="#EBEBEB"/>
<path d="M351.616 271.441H359.248V267.425H351.616V271.441Z" fill="#EBEBEB"/>
<path d="M341.84 271.441H349.473V267.425H341.84V271.441Z" fill="#EBEBEB"/>
<path d="M351.616 264.613H359.248V260.597H351.616V264.613Z" fill="#EBEBEB"/>
<path d="M341.84 264.613H349.473V260.597H341.84V264.613Z" fill="#EBEBEB"/>
<path d="M351.616 257.785H359.248V253.769H351.616V257.785Z" fill="#EBEBEB"/>
<path d="M341.84 257.785H349.473V253.769H341.84V257.785Z" fill="#EBEBEB"/>
<path d="M351.616 250.965H359.248V246.948H351.616V250.965Z" fill="#EBEBEB"/>
<path d="M341.84 250.965H349.473V246.948H341.84V250.965Z" fill="#EBEBEB"/>
<path d="M351.616 244.133H359.248V240.116H351.616V244.133Z" fill="#EBEBEB"/>
<path d="M341.84 244.133H349.473V240.116H341.84V244.133Z" fill="#EBEBEB"/>
<path d="M351.616 237.316H359.248V233.3H351.616V237.316Z" fill="#EBEBEB"/>
<path d="M341.84 237.316H349.473V233.3H341.84V237.316Z" fill="#EBEBEB"/>
<path d="M351.616 230.48H359.248V226.464H351.616V230.48Z" fill="#EBEBEB"/>
<path d="M341.84 230.48H349.473V226.464H341.84V230.48Z" fill="#EBEBEB"/>
<path d="M351.616 223.652H359.248V219.636H351.616V223.652Z" fill="#EBEBEB"/>
<path d="M341.84 223.652H349.473V219.636H341.84V223.652Z" fill="#EBEBEB"/>
<path d="M351.616 216.836H359.248V212.82H351.616V216.836Z" fill="#EBEBEB"/>
<path d="M341.84 216.836H349.473V212.82H341.84V216.836Z" fill="#EBEBEB"/>
<path d="M212.599 247.547H177.732V321.66H212.599V247.547Z" fill="#0054A5"/>
<path d="M189.386 253.957H183.217V258.493H189.386V253.957Z" fill="#8FACFF" fill-opacity="0.42"/>
<path d="M189.386 263.656H183.217V268.201H189.386V263.656Z" fill="#8FACFF" fill-opacity="0.42"/>
<path d="M189.386 273.352H183.217V277.897H189.386V273.352Z" fill="#8FACFF" fill-opacity="0.42"/>
<path d="M189.386 283.059H183.217V287.604H189.386V283.059Z" fill="#8FACFF" fill-opacity="0.42"/>
<path d="M189.386 292.746H183.217V297.291H189.386V292.746Z" fill="#8FACFF" fill-opacity="0.42"/>
<path d="M189.386 302.457H183.217V307.002H189.386V302.457Z" fill="#8FACFF" fill-opacity="0.42"/>
<path d="M189.386 312.148H183.217V316.694H189.386V312.148Z" fill="#8FACFF" fill-opacity="0.42"/>
<path d="M198.267 253.957H192.098V258.493H198.267V253.957Z" fill="#8FACFF" fill-opacity="0.42"/>
<path d="M198.267 263.656H192.098V268.201H198.267V263.656Z" fill="#8FACFF" fill-opacity="0.42"/>
<path d="M198.267 273.352H192.098V277.897H198.267V273.352Z" fill="#8FACFF" fill-opacity="0.42"/>
<path d="M198.267 283.059H192.098V287.604H198.267V283.059Z" fill="#8FACFF" fill-opacity="0.42"/>
<path d="M198.267 292.746H192.098V297.291H198.267V292.746Z" fill="#8FACFF" fill-opacity="0.42"/>
<path d="M198.267 302.457H192.098V307.002H198.267V302.457Z" fill="#8FACFF" fill-opacity="0.42"/>
<path d="M198.267 312.148H192.098V316.694H198.267V312.148Z" fill="#8FACFF" fill-opacity="0.42"/>
<path d="M207.114 253.957H200.945V258.493H207.114V253.957Z" fill="#8FACFF" fill-opacity="0.42"/>
<path d="M207.114 263.656H200.945V268.201H207.114V263.656Z" fill="#8FACFF" fill-opacity="0.42"/>
<path d="M207.114 273.352H200.945V277.897H207.114V273.352Z" fill="#8FACFF" fill-opacity="0.42"/>
<path d="M207.114 283.059H200.945V287.604H207.114V283.059Z" fill="#8FACFF" fill-opacity="0.42"/>
<path d="M207.114 292.746H200.945V297.291H207.114V292.746Z" fill="#8FACFF" fill-opacity="0.42"/>
<path d="M207.114 302.457H200.945V307.002H207.114V302.457Z" fill="#8FACFF" fill-opacity="0.42"/>
<path d="M207.114 312.148H200.945V316.694H207.114V312.148Z" fill="#8FACFF" fill-opacity="0.42"/>
<path d="M212.599 239.82H189.387V247.538H212.599V239.82Z" fill="#8FACFF" fill-opacity="0.42"/>
<path d="M212.608 235.043H197.887V239.82H212.608V235.043Z" fill="#EC1A3B"/>
<path d="M237.065 247.547H212.6V321.66H237.065V247.547Z" fill="#AEC0D0"/>
<path d="M229.545 315.965H234.566V311.42H229.545V315.965Z" fill="#0054A5"/>
<path d="M229.545 306.266H234.566V301.721H229.545V306.266Z" fill="#0054A5"/>
<path d="M229.545 296.566H234.566V292.021H229.545V296.566Z" fill="#0054A5"/>
<path d="M229.545 286.867H234.566V282.322H229.545V286.867Z" fill="#0054A5"/>
<path d="M229.545 277.18H234.566V272.635H229.545V277.18Z" fill="#0054A5"/>
<path d="M229.545 267.469H234.566V262.924H229.545V267.469Z" fill="#0054A5"/>
<path d="M229.545 257.777H234.566V253.232H229.545V257.777Z" fill="#0054A5"/>
<path d="M222.317 315.965H227.338V311.42H222.317V315.965Z" fill="#0054A5"/>
<path d="M222.317 306.266H227.338V301.721H222.317V306.266Z" fill="#0054A5"/>
<path d="M222.317 296.566H227.338V292.021H222.317V296.566Z" fill="#0054A5"/>
<path d="M222.317 286.867H227.338V282.322H222.317V286.867Z" fill="#0054A5"/>
<path d="M222.317 277.18H227.338V272.635H222.317V277.18Z" fill="#0054A5"/>
<path d="M222.317 267.469H227.338V262.924H222.317V267.469Z" fill="#0054A5"/>
<path d="M222.317 257.777H227.338V253.232H222.317V257.777Z" fill="#0054A5"/>
<path d="M215.116 315.965H220.137V311.42H215.116V315.965Z" fill="#0054A5"/>
<path d="M215.116 306.266H220.137V301.721H215.116V306.266Z" fill="#0054A5"/>
<path d="M215.116 296.566H220.137V292.021H215.116V296.566Z" fill="#0054A5"/>
<path d="M215.116 286.867H220.137V282.322H215.116V286.867Z" fill="#0054A5"/>
<path d="M215.116 277.18H220.137V272.635H215.116V277.18Z" fill="#0054A5"/>
<path d="M215.116 267.469H220.137V262.924H215.116V267.469Z" fill="#0054A5"/>
<path d="M215.116 257.777H220.137V253.232H215.116V257.777Z" fill="#0054A5"/>
<path d="M233.359 239.82H212.6V247.538H233.359V239.82Z" fill="#0054A5"/>
<path d="M223.851 235.043H212.6V239.82H223.851V235.043Z" fill="#EC1A3B" fill-opacity="0.84"/>
<path d="M368 327.538L322.004 327.761L276 327.844L184 328.002L92 327.844L46.0044 327.761L0 327.538L46.0044 327.306L92 327.232L184 327.074L276 327.232L322.004 327.315L368 327.538Z" fill="#263238"/>
<path d="M368 321.645H0V327.293H368V321.645Z" fill="#0054A5"/>
<path d="M25.7976 321.65C26.1046 322.557 26.2531 323.516 26.2357 324.479C26.2531 325.428 26.1045 326.371 25.7976 327.262C25.2133 325.43 25.2133 323.445 25.7976 321.613V321.65Z" fill="#263238"/>
<path d="M54.5672 321.645C55.1515 323.477 55.1515 325.461 54.5672 327.293C54.2602 326.402 54.1117 325.459 54.129 324.511C54.1074 323.535 54.2559 322.563 54.5672 321.645V321.645Z" fill="#263238"/>
<path d="M83.325 321.65C83.632 322.557 83.7804 323.516 83.7631 324.479C83.7804 325.428 83.6319 326.371 83.325 327.262C82.7406 325.43 82.7406 323.445 83.325 321.613V321.65Z" fill="#263238"/>
<path d="M112.093 321.645C112.677 323.477 112.677 325.461 112.093 327.293C111.786 326.402 111.637 325.459 111.654 324.511C111.633 323.535 111.781 322.563 112.093 321.645V321.645Z" fill="#263238"/>
<path d="M140.85 321.65C141.157 322.557 141.306 323.516 141.288 324.479C141.306 325.428 141.157 326.371 140.85 327.262C140.266 325.43 140.266 323.445 140.85 321.613V321.65Z" fill="#263238"/>
<path d="M169.622 321.645C170.206 323.477 170.206 325.461 169.622 327.293C169.315 326.402 169.166 325.459 169.184 324.511C169.162 323.535 169.311 322.563 169.622 321.645Z" fill="#263238"/>
<path d="M198.38 321.65C198.687 322.557 198.835 323.516 198.818 324.479C198.835 325.428 198.687 326.371 198.38 327.262C197.795 325.43 197.795 323.445 198.38 321.613V321.65Z" fill="#263238"/>
<path d="M227.147 321.645C227.732 323.477 227.732 325.461 227.147 327.293C226.84 326.402 226.692 325.459 226.709 324.511C226.687 323.535 226.836 322.563 227.147 321.645Z" fill="#263238"/>
<path d="M255.907 321.65C256.214 322.557 256.362 323.516 256.345 324.479C256.362 325.428 256.214 326.371 255.907 327.262C255.323 325.43 255.323 323.445 255.907 321.613V321.65Z" fill="#263238"/>
<path d="M284.675 321.645C285.259 323.477 285.259 325.461 284.675 327.293C284.368 326.402 284.219 325.459 284.236 324.511C284.215 323.535 284.363 322.563 284.675 321.645Z" fill="#263238"/>
<path d="M313.432 321.65C313.739 322.557 313.888 323.516 313.871 324.479C313.888 325.428 313.739 326.371 313.432 327.262C312.848 325.43 312.848 323.445 313.432 321.613V321.65Z" fill="#263238"/>
<path d="M342.204 321.645C342.788 323.477 342.788 325.461 342.204 327.293C341.897 326.402 341.748 325.459 341.766 324.511C341.744 323.535 341.893 322.563 342.204 321.645V321.645Z" fill="#263238"/>
<path d="M131.436 319.391H203.049V304.044H131.436V319.391Z" fill="#F2F9FF"/>
<path d="M132.748 304.074C132.748 304.074 133.74 299.395 135.72 298.678C137.7 297.961 138.909 300.075 138.909 300.075C138.909 300.075 139.374 295.606 142.182 294.27C144.991 292.934 147.103 295.666 147.103 295.666C147.103 295.666 149.261 289.996 153.11 289.996C156.959 289.996 158.903 298.292 158.903 298.292C158.903 298.292 161.18 295.82 163.51 297.217C165.839 298.613 165.839 304.088 165.839 304.088L132.748 304.074Z" fill="#21612F"/>
<path d="M171.922 304.09H201.59C201.59 304.09 200.612 299.445 198.643 299.114C196.674 298.783 195.758 300.941 195.758 300.941C195.758 300.941 195.846 294.464 192.172 293.36C188.498 292.256 185.415 297.98 185.415 297.98C185.415 297.98 183.106 294.719 179.966 294.927C176.825 295.136 176.027 300.523 176.027 300.523C176.027 300.523 173.182 298.656 171.922 304.09Z" fill="#21612F"/>
<path d="M163.557 304.086H181.814C181.814 304.086 181.77 300.135 179.975 299.087C179.49 298.774 178.951 298.702 178.437 298.881C177.923 299.06 177.46 299.48 177.113 300.081C177.113 300.081 176.381 292.812 173.038 292.812C169.695 292.812 168.09 299.087 168.09 299.087C167.8 298.479 167.4 298.011 166.939 297.738C166.477 297.464 165.974 297.397 165.488 297.545C163.632 297.892 163.557 304.086 163.557 304.086Z" fill="#668C62"/>
<path d="M145.671 319.34H205.549V317.528H145.671V319.34Z" fill="#EC1A3B"/>
<path d="M145.671 317.102H205.549V315.29H145.671V317.102Z" fill="#EC1A3B"/>
<path d="M145.671 314.848H205.549V313.036H145.671V314.848Z" fill="#EC1A3B"/>
<path d="M145.671 312.594H205.549V310.782H145.671V312.594Z" fill="#EC1A3B"/>
<path d="M145.671 310.352H205.549V308.54H145.671V310.352Z" fill="#EC1A3B"/>
<path d="M145.671 308.102H205.549V306.29H145.671V308.102Z" fill="#EC1A3B"/>
<path d="M145.671 305.848H205.549V304.036H145.671V305.848Z" fill="#EC1A3B"/>
<path d="M128.942 319.34H145.67V317.528H128.942V319.34Z" fill="#EC1A3B"/>
<path opacity="0.2" d="M128.942 319.34H145.67V317.528H128.942V319.34Z" fill="#225543"/>
<path d="M128.942 317.102H145.67V315.29H128.942V317.102Z" fill="#EC1A3B"/>
<path opacity="0.2" d="M128.942 317.102H145.67V315.29H128.942V317.102Z" fill="#225543"/>
<path d="M128.942 314.848H145.67V313.036H128.942V314.848Z" fill="#EC1A3B"/>
<path opacity="0.2" d="M128.942 314.848H145.67V313.036H128.942V314.848Z" fill="#225543"/>
<path d="M128.942 312.594H145.67V310.782H128.942V312.594Z" fill="#EC1A3B"/>
<path opacity="0.2" d="M128.942 312.594H145.67V310.782H128.942V312.594Z" fill="#225543"/>
<path d="M128.942 310.352H145.67V308.54H128.942V310.352Z" fill="#EC1A3B"/>
<path opacity="0.2" d="M128.942 310.352H145.67V308.54H128.942V310.352Z" fill="#225543"/>
<path d="M128.942 308.102H145.67V306.29H128.942V308.102Z" fill="#EC1A3B"/>
<path opacity="0.2" d="M128.942 308.102H145.67V306.29H128.942V308.102Z" fill="#225543"/>
<path d="M128.942 305.848H145.67V304.036H128.942V305.848Z" fill="#EC1A3B"/>
<path opacity="0.2" d="M128.942 305.848H145.67V304.036H128.942V305.848Z" fill="#225543"/>
<path d="M234.511 320.195H306.123V304.849H234.511V320.195Z" fill="#F2F9FF"/>
<path d="M235.822 304.879C235.822 304.879 236.814 300.2 238.794 299.483C240.774 298.766 241.983 300.88 241.983 300.88C241.983 300.88 242.449 296.411 245.257 295.074C248.065 293.738 250.178 296.471 250.178 296.471C250.178 296.471 252.335 290.801 256.184 290.801C260.033 290.801 261.977 299.097 261.977 299.097C261.977 299.097 264.254 296.625 266.584 298.021C268.914 299.418 268.914 304.893 268.914 304.893L235.822 304.879Z" fill="#21612F"/>
<path d="M274.996 304.894H304.664C304.664 304.894 303.686 300.249 301.717 299.919C299.748 299.588 298.832 301.745 298.832 301.745C298.832 301.745 298.92 295.269 295.246 294.165C291.572 293.061 288.489 298.784 288.489 298.784C288.489 298.784 286.181 295.523 283.04 295.732C279.899 295.94 279.102 301.328 279.102 301.328C279.102 301.328 276.256 299.461 274.996 304.894Z" fill="#21612F"/>
<path d="M266.631 304.891H284.888C284.888 304.891 284.844 300.939 283.049 299.891C282.564 299.579 282.026 299.507 281.512 299.686C280.998 299.864 280.534 300.284 280.187 300.886C280.187 300.886 279.455 293.617 276.112 293.617C272.77 293.617 271.164 299.891 271.164 299.891C270.874 299.284 270.474 298.816 270.013 298.542C269.552 298.269 269.048 298.202 268.562 298.35C266.706 298.697 266.631 304.891 266.631 304.891Z" fill="#668C62"/>
<path d="M248.745 320.145H308.623V318.333H248.745V320.145Z" fill="#EC1A3B"/>
<path d="M248.745 317.906H308.623V316.094H248.745V317.906Z" fill="#EC1A3B"/>
<path d="M248.745 315.652H308.623V313.841H248.745V315.652Z" fill="#EC1A3B"/>
<path d="M248.745 313.398H308.623V311.587H248.745V313.398Z" fill="#EC1A3B"/>
<path d="M248.745 311.156H308.623V309.344H248.745V311.156Z" fill="#EC1A3B"/>
<path d="M248.745 308.906H308.623V307.094H248.745V308.906Z" fill="#EC1A3B"/>
<path d="M248.745 306.652H308.623V304.841H248.745V306.652Z" fill="#EC1A3B"/>
<path d="M232.017 320.145H248.744V318.333H232.017V320.145Z" fill="#EC1A3B"/>
<path opacity="0.2" d="M232.017 320.145H248.744V318.333H232.017V320.145Z" fill="#225543"/>
<path d="M232.017 317.906H248.744V316.094H232.017V317.906Z" fill="#EC1A3B"/>
<path opacity="0.2" d="M232.017 317.906H248.744V316.094H232.017V317.906Z" fill="#225543"/>
<path d="M232.017 315.652H248.744V313.841H232.017V315.652Z" fill="#EC1A3B"/>
<path opacity="0.2" d="M232.017 315.652H248.744V313.841H232.017V315.652Z" fill="#225543"/>
<path d="M232.017 313.398H248.744V311.587H232.017V313.398Z" fill="#EC1A3B"/>
<path opacity="0.2" d="M232.017 313.398H248.744V311.587H232.017V313.398Z" fill="#225543"/>
<path d="M232.017 311.156H248.744V309.344H232.017V311.156Z" fill="#EC1A3B"/>
<path opacity="0.2" d="M232.017 311.156H248.744V309.344H232.017V311.156Z" fill="#225543"/>
<path d="M232.017 308.906H248.744V307.094H232.017V308.906Z" fill="#EC1A3B"/>
<path opacity="0.2" d="M232.017 308.906H248.744V307.094H232.017V308.906Z" fill="#225543"/>
<path d="M232.017 306.652H248.744V304.841H232.017V306.652Z" fill="#EC1A3B"/>
<path opacity="0.2" d="M232.017 306.652H248.744V304.841H232.017V306.652Z" fill="#225543"/>
</svg>
