<svg width="278" height="278" viewBox="0 0 348 368" fill="none" xmlns="http://www.w3.org/2000/svg">
<g clip-path="url(#clip0_3668_100455)">
<path d="M360.127 167.668H254.658C254.658 167.668 265.121 139.102 281.218 139.102C297.315 139.102 302.354 158.818 302.354 158.818C302.354 158.818 313.22 148.11 322.14 148.11C331.061 148.11 338.789 162.261 338.789 162.261C338.789 162.261 351.425 154.62 360.127 167.668Z" fill="#D5EBFF"/>
<path d="M234.866 18.9979H185.566C185.566 18.9979 196.581 3.02344 205.265 3.02344C213.949 3.02344 216.508 13.6789 216.508 13.6789C216.508 13.6789 222.642 8.71922 228.302 9.60425C233.963 10.4893 234.866 18.9979 234.866 18.9979Z" fill="#D5EBFF"/>
<path d="M328.583 52.329H279.275C279.275 52.329 290.29 36.3633 298.965 36.3633C307.64 36.3633 310.182 47.01 310.182 47.01C310.182 47.01 316.315 42.0415 321.976 42.9266C327.637 43.8116 328.583 52.329 328.583 52.329Z" fill="#EBEBEB"/>
<path d="M259.217 132.091H209.918C209.918 132.091 220.933 116.125 229.608 116.125C238.283 116.125 240.85 126.772 240.85 126.772C240.85 126.772 246.984 121.803 252.654 122.688C258.323 123.573 259.217 132.091 259.217 132.091Z" fill="#D5EBFF"/>
<path d="M57.1401 166.151H7.86719C7.86719 166.151 18.8557 150.238 27.5308 150.238C36.2059 150.238 38.7821 160.876 38.7821 160.876C38.7821 160.876 44.916 155.908 50.5768 156.802C56.2375 157.695 57.1401 166.151 57.1401 166.151Z" fill="#D5EBFF"/>
<path d="M122.58 67.2271H26.5488C26.5488 67.2271 39.6929 37.8719 53.7659 36.0317C67.8388 34.1915 74.5599 57.8509 74.5599 57.8509C74.5599 57.8509 83.6381 49.4913 90.7709 49.4913C97.9038 49.4913 103.381 60.4973 103.381 60.4973C103.381 60.4973 117.681 52.9701 122.58 67.2271Z" fill="#D5EBFF"/>
<path d="M290.231 189.32H261.174V341.661H290.231V189.32Z" fill="#8FACFF" fill-opacity="0.42"/>
<path d="M271.328 194.273H265.676V200.092H271.328V194.273Z" fill="#EBEBEB"/>
<path d="M278.554 194.273H272.902V200.092H278.554V194.273Z" fill="#EBEBEB"/>
<path d="M271.328 204.137H265.676V209.955H271.328V204.137Z" fill="#EBEBEB"/>
<path d="M278.554 204.137H272.902V209.955H278.554V204.137Z" fill="#EBEBEB"/>
<path d="M271.328 214.016H265.676V219.834H271.328V214.016Z" fill="#EBEBEB"/>
<path d="M278.554 214.016H272.902V219.834H278.554V214.016Z" fill="#EBEBEB"/>
<path d="M271.328 223.891H265.676V229.709H271.328V223.891Z" fill="#EBEBEB"/>
<path d="M278.554 223.891H272.902V229.709H278.554V223.891Z" fill="#EBEBEB"/>
<path d="M271.328 233.766H265.676V239.584H271.328V233.766Z" fill="#EBEBEB"/>
<path d="M278.554 233.766H272.902V239.584H278.554V233.766Z" fill="#EBEBEB"/>
<path d="M271.328 243.641H265.676V249.459H271.328V243.641Z" fill="#EBEBEB"/>
<path d="M278.554 243.641H272.902V249.459H278.554V243.641Z" fill="#EBEBEB"/>
<path d="M271.328 253.516H265.676V259.334H271.328V253.516Z" fill="#EBEBEB"/>
<path d="M278.554 253.516H272.902V259.334H278.554V253.516Z" fill="#EBEBEB"/>
<path d="M271.328 263.391H265.676V269.209H271.328V263.391Z" fill="#EBEBEB"/>
<path d="M278.554 263.391H272.902V269.209H278.554V263.391Z" fill="#EBEBEB"/>
<path d="M271.328 273.266H265.676V279.084H271.328V273.266Z" fill="#EBEBEB"/>
<path d="M278.554 273.266H272.902V279.084H278.554V273.266Z" fill="#EBEBEB"/>
<path d="M271.328 283.145H265.676V288.963H271.328V283.145Z" fill="#EBEBEB"/>
<path d="M278.554 283.145H272.902V288.963H278.554V283.145Z" fill="#EBEBEB"/>
<path d="M271.328 293.02H265.676V298.838H271.328V293.02Z" fill="#EBEBEB"/>
<path d="M278.554 293.02H272.902V298.838H278.554V293.02Z" fill="#EBEBEB"/>
<path d="M271.328 302.895H265.676V308.713H271.328V302.895Z" fill="#EBEBEB"/>
<path d="M278.554 302.895H272.902V308.713H278.554V302.895Z" fill="#EBEBEB"/>
<path d="M271.328 312.77H265.676V318.588H271.328V312.77Z" fill="#EBEBEB"/>
<path d="M278.554 312.77H272.902V318.588H278.554V312.77Z" fill="#EBEBEB"/>
<path d="M271.328 322.645H265.676V328.463H271.328V322.645Z" fill="#EBEBEB"/>
<path d="M280.063 328.461H285.715V322.642H280.063V328.461Z" fill="#EBEBEB"/>
<path d="M280.063 318.582H285.715V312.764H280.063V318.582Z" fill="#EBEBEB"/>
<path d="M280.063 308.711H285.715V302.892H280.063V308.711Z" fill="#EBEBEB"/>
<path d="M280.063 298.84H285.715V293.021H280.063V298.84Z" fill="#EBEBEB"/>
<path d="M280.063 288.961H285.715V283.142H280.063V288.961Z" fill="#EBEBEB"/>
<path d="M280.063 279.094H285.715V273.275H280.063V279.094Z" fill="#EBEBEB"/>
<path d="M280.063 269.219H285.715V263.4H280.063V269.219Z" fill="#EBEBEB"/>
<path d="M280.063 259.344H285.715V253.525H280.063V259.344Z" fill="#EBEBEB"/>
<path d="M280.063 249.469H285.715V243.65H280.063V249.469Z" fill="#EBEBEB"/>
<path d="M280.063 239.59H285.715V233.771H280.063V239.59Z" fill="#EBEBEB"/>
<path d="M280.063 229.719H285.715V223.9H280.063V229.719Z" fill="#EBEBEB"/>
<path d="M280.063 219.84H285.715V214.021H280.063V219.84Z" fill="#EBEBEB"/>
<path d="M280.063 209.961H285.715V204.142H280.063V209.961Z" fill="#EBEBEB"/>
<path d="M280.063 200.078H285.715V194.26H280.063V200.078Z" fill="#EBEBEB"/>
<path d="M278.554 322.645H272.902V328.463H278.554V322.645Z" fill="#EBEBEB"/>
<path d="M313.143 189.32H290.229V341.661H313.143V189.32Z" fill="#AEC0D0"/>
<path d="M306.118 328.461H310.779V322.642H306.118V328.461Z" fill="#0054A5"/>
<path d="M300.147 328.461H304.809V322.642H300.147V328.461Z" fill="#0054A5"/>
<path d="M306.118 318.582H310.779V312.764H306.118V318.582Z" fill="#0054A5"/>
<path d="M300.147 318.582H304.809V312.764H300.147V318.582Z" fill="#0054A5"/>
<path d="M306.118 308.711H310.779V302.892H306.118V308.711Z" fill="#0054A5"/>
<path d="M300.147 308.711H304.809V302.892H300.147V308.711Z" fill="#0054A5"/>
<path d="M306.118 298.84H310.779V293.021H306.118V298.84Z" fill="#0054A5"/>
<path d="M300.147 298.84H304.809V293.021H300.147V298.84Z" fill="#0054A5"/>
<path d="M306.118 288.961H310.779V283.142H306.118V288.961Z" fill="#0054A5"/>
<path d="M300.147 288.961H304.809V283.142H300.147V288.961Z" fill="#0054A5"/>
<path d="M306.118 279.094H310.779V273.275H306.118V279.094Z" fill="#0054A5"/>
<path d="M300.147 279.094H304.809V273.275H300.147V279.094Z" fill="#0054A5"/>
<path d="M306.118 269.219H310.779V263.4H306.118V269.219Z" fill="#0054A5"/>
<path d="M300.147 269.219H304.809V263.4H300.147V269.219Z" fill="#0054A5"/>
<path d="M306.118 259.344H310.779V253.525H306.118V259.344Z" fill="#0054A5"/>
<path d="M300.147 259.344H304.809V253.525H300.147V259.344Z" fill="#0054A5"/>
<path d="M306.118 249.469H310.779V243.65H306.118V249.469Z" fill="#0054A5"/>
<path d="M300.147 249.469H304.809V243.65H300.147V249.469Z" fill="#0054A5"/>
<path d="M306.118 239.59H310.779V233.771H306.118V239.59Z" fill="#0054A5"/>
<path d="M300.147 239.59H304.809V233.771H300.147V239.59Z" fill="#0054A5"/>
<path d="M306.118 229.719H310.779V223.9H306.118V229.719Z" fill="#0054A5"/>
<path d="M300.147 229.719H304.809V223.9H300.147V229.719Z" fill="#0054A5"/>
<path d="M306.118 219.84H310.779V214.021H306.118V219.84Z" fill="#0054A5"/>
<path d="M300.147 219.84H304.809V214.021H300.147V219.84Z" fill="#0054A5"/>
<path d="M306.118 209.961H310.779V204.142H306.118V209.961Z" fill="#0054A5"/>
<path d="M300.147 209.961H304.809V204.142H300.147V209.961Z" fill="#0054A5"/>
<path d="M306.118 200.078H310.779V194.26H306.118V200.078Z" fill="#0054A5"/>
<path d="M298.896 194.273H294.234V200.092H298.896V194.273Z" fill="#0054A5"/>
<path d="M298.896 204.137H294.234V209.955H298.896V204.137Z" fill="#0054A5"/>
<path d="M298.896 214.016H294.234V219.834H298.896V214.016Z" fill="#0054A5"/>
<path d="M298.896 223.891H294.234V229.709H298.896V223.891Z" fill="#0054A5"/>
<path d="M298.896 233.766H294.234V239.584H298.896V233.766Z" fill="#0054A5"/>
<path d="M298.896 243.641H294.234V249.459H298.896V243.641Z" fill="#0054A5"/>
<path d="M298.896 253.516H294.234V259.334H298.896V253.516Z" fill="#0054A5"/>
<path d="M298.896 263.391H294.234V269.209H298.896V263.391Z" fill="#0054A5"/>
<path d="M298.896 273.266H294.234V279.084H298.896V273.266Z" fill="#0054A5"/>
<path d="M298.896 283.145H294.234V288.963H298.896V283.145Z" fill="#0054A5"/>
<path d="M298.896 293.02H294.234V298.838H298.896V293.02Z" fill="#0054A5"/>
<path d="M298.896 302.895H294.234V308.713H298.896V302.895Z" fill="#0054A5"/>
<path d="M298.896 312.77H294.234V318.588H298.896V312.77Z" fill="#0054A5"/>
<path d="M298.896 322.645H294.234V328.463H298.896V322.645Z" fill="#0054A5"/>
<path d="M300.147 200.078H304.809V194.26H300.147V200.078Z" fill="#0054A5"/>
<path d="M83.8918 181.102H49.5156V341.652H83.8918V181.102Z" fill="#EBEBEB"/>
<path d="M83.8942 177.586H48.6855V181.1H83.8942V177.586Z" fill="#0054A5"/>
<path d="M56.0979 186.289H52.6191V341.661H56.0979V186.289Z" fill="#AEC0D0"/>
<path d="M62.2757 186.289H58.7969V341.661H62.2757V186.289Z" fill="#AEC0D0"/>
<path d="M68.4456 186.289H64.9668V341.661H68.4456V186.289Z" fill="#AEC0D0"/>
<path d="M74.6204 186.289H71.1328V341.661H74.6204V186.289Z" fill="#AEC0D0"/>
<path d="M80.7835 186.289H77.3047V341.661H80.7835V186.289Z" fill="#AEC0D0"/>
<path d="M56.0979 190.734H52.6191V197.674H56.0979V190.734Z" fill="#EBEBEB"/>
<path d="M62.2757 190.734H58.7969V197.674H62.2757V190.734Z" fill="#EBEBEB"/>
<path d="M68.4456 190.734H64.9668V197.674H68.4456V190.734Z" fill="#EBEBEB"/>
<path d="M74.6204 190.734H71.1328V197.674H74.6204V190.734Z" fill="#EBEBEB"/>
<path d="M80.7835 190.734H77.3047V197.674H80.7835V190.734Z" fill="#EBEBEB"/>
<path d="M56.0979 201.992H52.6191V208.932H56.0979V201.992Z" fill="#EBEBEB"/>
<path d="M62.2757 201.992H58.7969V208.932H62.2757V201.992Z" fill="#EBEBEB"/>
<path d="M68.4456 201.992H64.9668V208.932H68.4456V201.992Z" fill="#EBEBEB"/>
<path d="M74.6204 201.992H71.1328V208.932H74.6204V201.992Z" fill="#EBEBEB"/>
<path d="M80.7835 201.992H77.3047V208.932H80.7835V201.992Z" fill="#EBEBEB"/>
<path d="M56.0979 213.277H52.6191V220.217H56.0979V213.277Z" fill="#EBEBEB"/>
<path d="M62.2757 213.277H58.7969V220.217H62.2757V213.277Z" fill="#EBEBEB"/>
<path d="M68.4456 213.277H64.9668V220.217H68.4456V213.277Z" fill="#EBEBEB"/>
<path d="M74.6204 213.277H71.1328V220.217H74.6204V213.277Z" fill="#EBEBEB"/>
<path d="M80.7835 213.277H77.3047V220.217H80.7835V213.277Z" fill="#EBEBEB"/>
<path d="M56.0979 224.555H52.6191V231.495H56.0979V224.555Z" fill="#EBEBEB"/>
<path d="M62.2757 224.555H58.7969V231.495H62.2757V224.555Z" fill="#EBEBEB"/>
<path d="M68.4456 224.555H64.9668V231.495H68.4456V224.555Z" fill="#EBEBEB"/>
<path d="M74.6204 224.555H71.1328V231.495H74.6204V224.555Z" fill="#EBEBEB"/>
<path d="M80.7835 224.555H77.3047V231.495H80.7835V224.555Z" fill="#EBEBEB"/>
<path d="M56.0979 235.832H52.6191V242.772H56.0979V235.832Z" fill="#EBEBEB"/>
<path d="M62.2757 235.832H58.7969V242.772H62.2757V235.832Z" fill="#EBEBEB"/>
<path d="M68.4456 235.832H64.9668V242.772H68.4456V235.832Z" fill="#EBEBEB"/>
<path d="M74.6204 235.832H71.1328V242.772H74.6204V235.832Z" fill="#EBEBEB"/>
<path d="M80.7835 235.832H77.3047V242.772H80.7835V235.832Z" fill="#EBEBEB"/>
<path d="M56.0979 247.109H52.6191V254.049H56.0979V247.109Z" fill="#EBEBEB"/>
<path d="M62.2757 247.109H58.7969V254.049H62.2757V247.109Z" fill="#EBEBEB"/>
<path d="M68.4456 247.109H64.9668V254.049H68.4456V247.109Z" fill="#EBEBEB"/>
<path d="M74.6204 247.109H71.1328V254.049H74.6204V247.109Z" fill="#EBEBEB"/>
<path d="M80.7835 247.109H77.3047V254.049H80.7835V247.109Z" fill="#EBEBEB"/>
<path d="M56.0979 258.391H52.6191V265.331H56.0979V258.391Z" fill="#EBEBEB"/>
<path d="M62.2757 258.391H58.7969V265.331H62.2757V258.391Z" fill="#EBEBEB"/>
<path d="M68.4456 258.391H64.9668V265.331H68.4456V258.391Z" fill="#EBEBEB"/>
<path d="M74.6204 258.391H71.1328V265.331H74.6204V258.391Z" fill="#EBEBEB"/>
<path d="M80.7835 258.391H77.3047V265.331H80.7835V258.391Z" fill="#EBEBEB"/>
<path d="M56.0979 269.664H52.6191V276.604H56.0979V269.664Z" fill="#EBEBEB"/>
<path d="M62.2757 269.664H58.7969V276.604H62.2757V269.664Z" fill="#EBEBEB"/>
<path d="M68.4456 269.664H64.9668V276.604H68.4456V269.664Z" fill="#EBEBEB"/>
<path d="M74.6204 269.664H71.1328V276.604H74.6204V269.664Z" fill="#EBEBEB"/>
<path d="M80.7835 269.664H77.3047V276.604H80.7835V269.664Z" fill="#EBEBEB"/>
<path d="M56.0979 280.941H52.6191V287.881H56.0979V280.941Z" fill="#EBEBEB"/>
<path d="M62.2757 280.941H58.7969V287.881H62.2757V280.941Z" fill="#EBEBEB"/>
<path d="M68.4456 280.941H64.9668V287.881H68.4456V280.941Z" fill="#EBEBEB"/>
<path d="M74.6204 280.941H71.1328V287.881H74.6204V280.941Z" fill="#EBEBEB"/>
<path d="M80.7835 280.941H77.3047V287.881H80.7835V280.941Z" fill="#EBEBEB"/>
<path d="M56.0979 292.223H52.6191V299.163H56.0979V292.223Z" fill="#EBEBEB"/>
<path d="M62.2757 292.223H58.7969V299.163H62.2757V292.223Z" fill="#EBEBEB"/>
<path d="M68.4456 292.223H64.9668V299.163H68.4456V292.223Z" fill="#EBEBEB"/>
<path d="M74.6204 292.223H71.1328V299.163H74.6204V292.223Z" fill="#EBEBEB"/>
<path d="M80.7835 292.223H77.3047V299.163H80.7835V292.223Z" fill="#EBEBEB"/>
<path d="M56.0979 303.496H52.6191V310.436H56.0979V303.496Z" fill="#EBEBEB"/>
<path d="M62.2757 303.496H58.7969V310.436H62.2757V303.496Z" fill="#EBEBEB"/>
<path d="M68.4456 303.496H64.9668V310.436H68.4456V303.496Z" fill="#EBEBEB"/>
<path d="M74.6204 303.496H71.1328V310.436H74.6204V303.496Z" fill="#EBEBEB"/>
<path d="M80.7835 303.496H77.3047V310.436H80.7835V303.496Z" fill="#EBEBEB"/>
<path d="M56.0979 314.777H52.6191V321.717H56.0979V314.777Z" fill="#EBEBEB"/>
<path d="M62.2757 314.777H58.7969V321.717H62.2757V314.777Z" fill="#EBEBEB"/>
<path d="M68.4456 314.777H64.9668V321.717H68.4456V314.777Z" fill="#EBEBEB"/>
<path d="M74.6204 314.777H71.1328V321.717H74.6204V314.777Z" fill="#EBEBEB"/>
<path d="M80.7835 314.777H77.3047V321.717H80.7835V314.777Z" fill="#EBEBEB"/>
<path d="M56.0979 326.055H52.6191V332.995H56.0979V326.055Z" fill="#EBEBEB"/>
<path d="M62.2757 326.055H58.7969V332.995H62.2757V326.055Z" fill="#EBEBEB"/>
<path d="M68.4456 326.055H64.9668V332.995H68.4456V326.055Z" fill="#EBEBEB"/>
<path d="M74.6204 326.055H71.1328V332.995H74.6204V326.055Z" fill="#EBEBEB"/>
<path d="M80.7835 326.055H77.3047V332.995H80.7835V326.055Z" fill="#EBEBEB"/>
<path d="M56.0979 337.328H52.6191V341.657H56.0979V337.328Z" fill="#EBEBEB"/>
<path d="M62.2757 337.328H58.7969V341.657H62.2757V337.328Z" fill="#EBEBEB"/>
<path d="M68.4456 337.328H64.9668V341.657H68.4456V337.328Z" fill="#EBEBEB"/>
<path d="M74.6204 337.328H71.1328V341.657H74.6204V337.328Z" fill="#EBEBEB"/>
<path d="M80.7835 337.328H77.3047V341.657H80.7835V337.328Z" fill="#EBEBEB"/>
<path d="M105.966 181.102H83.8926V341.652H105.966V181.102Z" fill="#8FACFF" fill-opacity="0.42"/>
<path d="M106.921 177.586H83.8926V181.1H106.921V177.586Z" fill="#0054A5"/>
<path d="M90.4915 186.289H87.0039V341.661H90.4915V186.289Z" fill="#0054A5"/>
<path d="M96.6507 186.289H93.1719V341.661H96.6507V186.289Z" fill="#0054A5"/>
<path d="M102.823 186.289H99.3438V341.661H102.823V186.289Z" fill="#0054A5"/>
<path d="M90.4915 190.734H87.0039V197.674H90.4915V190.734Z" fill="#8FACFF" fill-opacity="0.42"/>
<path d="M96.6507 190.734H93.1719V197.674H96.6507V190.734Z" fill="#8FACFF" fill-opacity="0.42"/>
<path d="M102.823 190.734H99.3438V197.674H102.823V190.734Z" fill="#8FACFF" fill-opacity="0.42"/>
<path d="M90.4915 201.992H87.0039V208.932H90.4915V201.992Z" fill="#8FACFF" fill-opacity="0.42"/>
<path d="M96.6507 201.992H93.1719V208.932H96.6507V201.992Z" fill="#8FACFF" fill-opacity="0.42"/>
<path d="M102.823 201.992H99.3438V208.932H102.823V201.992Z" fill="#8FACFF" fill-opacity="0.42"/>
<path d="M90.4915 213.277H87.0039V220.217H90.4915V213.277Z" fill="#8FACFF" fill-opacity="0.42"/>
<path d="M96.6507 213.277H93.1719V220.217H96.6507V213.277Z" fill="#8FACFF" fill-opacity="0.42"/>
<path d="M102.823 213.277H99.3438V220.217H102.823V213.277Z" fill="#8FACFF" fill-opacity="0.42"/>
<path d="M90.4915 224.555H87.0039V231.495H90.4915V224.555Z" fill="#8FACFF" fill-opacity="0.42"/>
<path d="M96.6507 224.555H93.1719V231.495H96.6507V224.555Z" fill="#8FACFF" fill-opacity="0.42"/>
<path d="M102.823 224.555H99.3438V231.495H102.823V224.555Z" fill="#8FACFF" fill-opacity="0.42"/>
<path d="M90.4915 235.832H87.0039V242.772H90.4915V235.832Z" fill="#8FACFF" fill-opacity="0.42"/>
<path d="M96.6507 235.832H93.1719V242.772H96.6507V235.832Z" fill="#8FACFF" fill-opacity="0.42"/>
<path d="M102.823 235.832H99.3438V242.772H102.823V235.832Z" fill="#8FACFF" fill-opacity="0.42"/>
<path d="M90.4915 247.109H87.0039V254.049H90.4915V247.109Z" fill="#8FACFF" fill-opacity="0.42"/>
<path d="M96.6507 247.109H93.1719V254.049H96.6507V247.109Z" fill="#8FACFF" fill-opacity="0.42"/>
<path d="M102.823 247.109H99.3438V254.049H102.823V247.109Z" fill="#8FACFF" fill-opacity="0.42"/>
<path d="M90.4915 258.391H87.0039V265.331H90.4915V258.391Z" fill="#8FACFF" fill-opacity="0.42"/>
<path d="M96.6507 258.391H93.1719V265.331H96.6507V258.391Z" fill="#8FACFF" fill-opacity="0.42"/>
<path d="M102.823 258.391H99.3438V265.331H102.823V258.391Z" fill="#8FACFF" fill-opacity="0.42"/>
<path d="M90.4915 269.664H87.0039V276.604H90.4915V269.664Z" fill="#8FACFF" fill-opacity="0.42"/>
<path d="M96.6507 269.664H93.1719V276.604H96.6507V269.664Z" fill="#8FACFF" fill-opacity="0.42"/>
<path d="M102.823 269.664H99.3438V276.604H102.823V269.664Z" fill="#8FACFF" fill-opacity="0.42"/>
<path d="M90.4915 280.941H87.0039V287.881H90.4915V280.941Z" fill="#8FACFF" fill-opacity="0.42"/>
<path d="M96.6507 280.941H93.1719V287.881H96.6507V280.941Z" fill="#8FACFF" fill-opacity="0.42"/>
<path d="M102.823 280.941H99.3438V287.881H102.823V280.941Z" fill="#8FACFF" fill-opacity="0.42"/>
<path d="M90.4915 292.223H87.0039V299.163H90.4915V292.223Z" fill="#8FACFF" fill-opacity="0.42"/>
<path d="M96.6507 292.223H93.1719V299.163H96.6507V292.223Z" fill="#8FACFF" fill-opacity="0.42"/>
<path d="M102.823 292.223H99.3438V299.163H102.823V292.223Z" fill="#8FACFF" fill-opacity="0.42"/>
<path d="M90.4915 303.496H87.0039V310.436H90.4915V303.496Z" fill="#8FACFF" fill-opacity="0.42"/>
<path d="M96.6507 303.496H93.1719V310.436H96.6507V303.496Z" fill="#8FACFF" fill-opacity="0.42"/>
<path d="M102.823 303.496H99.3438V310.436H102.823V303.496Z" fill="#8FACFF" fill-opacity="0.42"/>
<path d="M90.4915 314.777H87.0039V321.717H90.4915V314.777Z" fill="#8FACFF" fill-opacity="0.42"/>
<path d="M96.6507 314.777H93.1719V321.717H96.6507V314.777Z" fill="#8FACFF" fill-opacity="0.42"/>
<path d="M102.823 314.777H99.3438V321.717H102.823V314.777Z" fill="#8FACFF" fill-opacity="0.42"/>
<path d="M90.4915 326.055H87.0039V332.995H90.4915V326.055Z" fill="#8FACFF" fill-opacity="0.42"/>
<path d="M96.6507 326.055H93.1719V332.995H96.6507V326.055Z" fill="#8FACFF" fill-opacity="0.42"/>
<path d="M102.823 326.055H99.3438V332.995H102.823V326.055Z" fill="#8FACFF" fill-opacity="0.42"/>
<path d="M90.4915 337.328H87.0039V341.657H90.4915V337.328Z" fill="#8FACFF" fill-opacity="0.42"/>
<path d="M96.6507 337.328H93.1719V341.657H96.6507V337.328Z" fill="#8FACFF" fill-opacity="0.42"/>
<path d="M102.823 337.328H99.3438V341.657H102.823V337.328Z" fill="#8FACFF" fill-opacity="0.42"/>
<path d="M40.5876 240.109H6.35156V341.661H40.5876V240.109Z" fill="#EBEBEB"/>
<path d="M40.5885 231.496H11.2246V240.11H40.5885V231.496Z" fill="#EC1A3B"/>
<path d="M36.8357 244.602H10.1094V341.658H36.8357V244.602Z" fill="#8FACFF" fill-opacity="0.42"/>
<path d="M36.8357 253.867H10.1094V256.163H36.8357V253.867Z" fill="#AEC0D0"/>
<path d="M36.8357 263.363H10.1094V265.659H36.8357V263.363Z" fill="#AEC0D0"/>
<path d="M36.8357 272.867H10.1094V275.163H36.8357V272.867Z" fill="#AEC0D0"/>
<path d="M36.8357 282.363H10.1094V284.659H36.8357V282.363Z" fill="#AEC0D0"/>
<path d="M36.8357 291.859H10.1094V294.155H36.8357V291.859Z" fill="#AEC0D0"/>
<path d="M36.8357 301.363H10.1094V303.659H36.8357V301.363Z" fill="#AEC0D0"/>
<path d="M36.8357 310.863H10.1094V313.159H36.8357V310.863Z" fill="#AEC0D0"/>
<path d="M36.8357 320.363H10.1094V322.659H36.8357V320.363Z" fill="#AEC0D0"/>
<path d="M36.8357 329.867H10.1094V332.163H36.8357V329.867Z" fill="#AEC0D0"/>
<path d="M36.8357 339.367H10.1094V341.663H36.8357V339.367Z" fill="#AEC0D0"/>
<path d="M62.0303 240.109H40.5879V341.661H62.0303V240.109Z" fill="#8FACFF" fill-opacity="0.42"/>
<path d="M58.8144 231.496H40.5879V240.11H58.8144V231.496Z" fill="#EC1A3B" fill-opacity="0.84"/>
<path d="M60.0237 244.602H43.541V341.658H60.0237V244.602Z" fill="#0054A5"/>
<path d="M60.0237 253.867H43.541V256.163H60.0237V253.867Z" fill="#AEC0D0"/>
<path d="M60.0237 263.363H43.541V265.659H60.0237V263.363Z" fill="#AEC0D0"/>
<path d="M60.0237 272.867H43.541V275.163H60.0237V272.867Z" fill="#AEC0D0"/>
<path d="M60.0237 282.363H43.541V284.659H60.0237V282.363Z" fill="#AEC0D0"/>
<path d="M60.0237 291.859H43.541V294.155H60.0237V291.859Z" fill="#AEC0D0"/>
<path d="M60.0237 301.363H43.541V303.659H60.0237V301.363Z" fill="#AEC0D0"/>
<path d="M60.0237 310.863H43.541V313.159H60.0237V310.863Z" fill="#AEC0D0"/>
<path d="M60.0237 320.363H43.541V322.659H60.0237V320.363Z" fill="#AEC0D0"/>
<path d="M60.0237 329.867H43.541V332.163H60.0237V329.867Z" fill="#AEC0D0"/>
<path d="M60.0237 339.367H43.541V341.663H60.0237V339.367Z" fill="#AEC0D0"/>
<path d="M136.53 282.207H110.066V341.653H136.53V282.207Z" fill="#8FACFF" fill-opacity="0.42"/>
<path d="M118.908 287.344H114.229V290.989H118.908V287.344Z" fill="#0054A5"/>
<path d="M118.908 295.133H114.229V298.778H118.908V295.133Z" fill="#0054A5"/>
<path d="M118.908 302.906H114.229V306.552H118.908V302.906Z" fill="#0054A5"/>
<path d="M118.908 310.695H114.229V314.341H118.908V310.695Z" fill="#0054A5"/>
<path d="M118.908 318.473H114.229V322.118H118.908V318.473Z" fill="#0054A5"/>
<path d="M118.908 326.242H114.229V329.887H118.908V326.242Z" fill="#0054A5"/>
<path d="M118.908 334.027H114.229V337.673H118.908V334.027Z" fill="#0054A5"/>
<path d="M125.646 287.344H120.967V290.989H125.646V287.344Z" fill="#0054A5"/>
<path d="M125.646 295.133H120.967V298.778H125.646V295.133Z" fill="#0054A5"/>
<path d="M125.646 302.906H120.967V306.552H125.646V302.906Z" fill="#0054A5"/>
<path d="M125.646 310.695H120.967V314.341H125.646V310.695Z" fill="#0054A5"/>
<path d="M125.646 318.473H120.967V322.118H125.646V318.473Z" fill="#0054A5"/>
<path d="M125.646 326.242H120.967V329.887H125.646V326.242Z" fill="#0054A5"/>
<path d="M125.646 334.027H120.967V337.673H125.646V334.027Z" fill="#0054A5"/>
<path d="M132.367 287.344H127.688V290.989H132.367V287.344Z" fill="#0054A5"/>
<path d="M132.367 295.133H127.688V298.778H132.367V295.133Z" fill="#0054A5"/>
<path d="M132.367 302.906H127.688V306.552H132.367V302.906Z" fill="#0054A5"/>
<path d="M132.367 310.695H127.688V314.341H132.367V310.695Z" fill="#0054A5"/>
<path d="M132.367 318.473H127.688V322.118H132.367V318.473Z" fill="#0054A5"/>
<path d="M132.367 326.242H127.688V329.887H132.367V326.242Z" fill="#0054A5"/>
<path d="M132.367 334.027H127.688V337.673H132.367V334.027Z" fill="#0054A5"/>
<path d="M155.098 282.207H136.529V341.653H155.098V282.207Z" fill="#AEC0D0"/>
<path d="M149.387 337.086H153.199V333.441H149.387V337.086Z" fill="#0054A5"/>
<path d="M149.387 329.316H153.199V325.671H149.387V329.316Z" fill="#0054A5"/>
<path d="M149.387 321.531H153.199V317.886H149.387V321.531Z" fill="#0054A5"/>
<path d="M149.387 313.758H153.199V310.113H149.387V313.758Z" fill="#0054A5"/>
<path d="M149.387 305.969H153.199V302.323H149.387V305.969Z" fill="#0054A5"/>
<path d="M149.387 298.184H153.199V294.538H149.387V298.184Z" fill="#0054A5"/>
<path d="M149.387 290.418H153.199V286.773H149.387V290.418Z" fill="#0054A5"/>
<path d="M143.899 337.086H147.711V333.441H143.899V337.086Z" fill="#0054A5"/>
<path d="M143.899 329.316H147.711V325.671H143.899V329.316Z" fill="#0054A5"/>
<path d="M143.899 321.531H147.711V317.886H143.899V321.531Z" fill="#0054A5"/>
<path d="M143.899 313.758H147.711V310.113H143.899V313.758Z" fill="#0054A5"/>
<path d="M143.899 305.969H147.711V302.323H143.899V305.969Z" fill="#0054A5"/>
<path d="M143.899 298.184H147.711V294.538H143.899V298.184Z" fill="#0054A5"/>
<path d="M143.899 290.418H147.711V286.773H143.899V290.418Z" fill="#0054A5"/>
<path d="M138.434 337.086H142.246V333.441H138.434V337.086Z" fill="#0054A5"/>
<path d="M138.434 329.316H142.246V325.671H138.434V329.316Z" fill="#0054A5"/>
<path d="M138.434 321.531H142.246V317.886H138.434V321.531Z" fill="#0054A5"/>
<path d="M138.434 313.758H142.246V310.113H138.434V313.758Z" fill="#0054A5"/>
<path d="M138.434 305.969H142.246V302.323H138.434V305.969Z" fill="#0054A5"/>
<path d="M138.434 298.184H142.246V294.538H138.434V298.184Z" fill="#0054A5"/>
<path d="M138.434 290.418H142.246V286.773H138.434V290.418Z" fill="#0054A5"/>
<path d="M333.414 214.016H315.135V235.616H333.414V214.016Z" fill="#8FACFF" fill-opacity="0.42"/>
<path d="M345.013 214.016H333.42V236.404H345.013V214.016Z" fill="#0054A5"/>
<path d="M345.783 223.555H334.277V236.41H345.783V223.555Z" fill="#8FACFF" fill-opacity="0.42"/>
<path d="M352.962 223.555H345.785V236.41H352.962V223.555Z" fill="#0054A5"/>
<path d="M337.687 234.211H308.121V341.651H337.687V234.211Z" fill="#EBEBEB"/>
<path d="M320.801 238.832H311.504V242.626H320.801V238.832Z" fill="#AEC0D0"/>
<path d="M332.694 238.832H323.396V242.626H332.694V238.832Z" fill="#AEC0D0"/>
<path d="M320.801 245.277H311.504V249.072H320.801V245.277Z" fill="#AEC0D0"/>
<path d="M332.694 245.277H323.396V249.072H332.694V245.277Z" fill="#AEC0D0"/>
<path d="M320.801 251.73H311.504V255.525H320.801V251.73Z" fill="#AEC0D0"/>
<path d="M332.694 251.73H323.396V255.525H332.694V251.73Z" fill="#AEC0D0"/>
<path d="M320.801 258.18H311.504V261.974H320.801V258.18Z" fill="#AEC0D0"/>
<path d="M332.694 258.18H323.396V261.974H332.694V258.18Z" fill="#AEC0D0"/>
<path d="M320.801 264.629H311.504V268.423H320.801V264.629Z" fill="#AEC0D0"/>
<path d="M332.694 264.629H323.396V268.423H332.694V264.629Z" fill="#AEC0D0"/>
<path d="M320.801 271.074H311.504V274.868H320.801V271.074Z" fill="#AEC0D0"/>
<path d="M332.694 271.074H323.396V274.868H332.694V271.074Z" fill="#AEC0D0"/>
<path d="M320.801 277.523H311.504V281.318H320.801V277.523Z" fill="#AEC0D0"/>
<path d="M332.694 277.523H323.396V281.318H332.694V277.523Z" fill="#AEC0D0"/>
<path d="M320.801 283.973H311.504V287.767H320.801V283.973Z" fill="#AEC0D0"/>
<path d="M332.694 283.973H323.396V287.767H332.694V283.973Z" fill="#AEC0D0"/>
<path d="M320.801 290.422H311.504V294.216H320.801V290.422Z" fill="#AEC0D0"/>
<path d="M332.694 290.422H323.396V294.216H332.694V290.422Z" fill="#AEC0D0"/>
<path d="M320.801 296.867H311.504V300.661H320.801V296.867Z" fill="#AEC0D0"/>
<path d="M332.694 296.867H323.396V300.661H332.694V296.867Z" fill="#AEC0D0"/>
<path d="M320.801 303.32H311.504V307.115H320.801V303.32Z" fill="#AEC0D0"/>
<path d="M332.694 303.32H323.396V307.115H332.694V303.32Z" fill="#AEC0D0"/>
<path d="M320.801 309.77H311.504V313.573H320.801V309.77Z" fill="#AEC0D0"/>
<path d="M332.694 309.77H323.396V313.573H332.694V309.77Z" fill="#AEC0D0"/>
<path d="M320.801 316.219H311.504V320.013H320.801V316.219Z" fill="#AEC0D0"/>
<path d="M332.694 316.219H323.396V320.013H332.694V316.219Z" fill="#AEC0D0"/>
<path d="M320.801 322.672H311.504V326.466H320.801V322.672Z" fill="#AEC0D0"/>
<path d="M332.694 322.672H323.396V326.466H332.694V322.672Z" fill="#AEC0D0"/>
<path d="M361.645 234.211H337.688V341.651H361.645V234.211Z" fill="#0054A5"/>
<path d="M351.616 326.465H359.248V322.671H351.616V326.465Z" fill="#EBEBEB"/>
<path d="M341.84 326.465H349.473V322.671H341.84V326.465Z" fill="#EBEBEB"/>
<path d="M351.616 320.016H359.248V316.221H351.616V320.016Z" fill="#EBEBEB"/>
<path d="M341.84 320.016H349.473V316.221H341.84V320.016Z" fill="#EBEBEB"/>
<path d="M351.616 313.566H359.248V309.763H351.616V313.566Z" fill="#EBEBEB"/>
<path d="M341.84 313.566H349.473V309.763H341.84V313.566Z" fill="#EBEBEB"/>
<path d="M351.616 307.117H359.248V303.323H351.616V307.117Z" fill="#EBEBEB"/>
<path d="M341.84 307.117H349.473V303.323H341.84V307.117Z" fill="#EBEBEB"/>
<path d="M351.616 300.668H359.248V296.874H351.616V300.668Z" fill="#EBEBEB"/>
<path d="M341.84 300.668H349.473V296.874H341.84V300.668Z" fill="#EBEBEB"/>
<path d="M351.616 294.215H359.248V290.421H351.616V294.215Z" fill="#EBEBEB"/>
<path d="M341.84 294.215H349.473V290.421H341.84V294.215Z" fill="#EBEBEB"/>
<path d="M351.616 287.766H359.248V283.971H351.616V287.766Z" fill="#EBEBEB"/>
<path d="M341.84 287.766H349.473V283.971H341.84V287.766Z" fill="#EBEBEB"/>
<path d="M351.616 281.316H359.248V277.522H351.616V281.316Z" fill="#EBEBEB"/>
<path d="M341.84 281.316H349.473V277.522H341.84V281.316Z" fill="#EBEBEB"/>
<path d="M351.616 274.871H359.248V271.077H351.616V274.871Z" fill="#EBEBEB"/>
<path d="M341.84 274.871H349.473V271.077H341.84V274.871Z" fill="#EBEBEB"/>
<path d="M351.616 268.418H359.248V264.624H351.616V268.418Z" fill="#EBEBEB"/>
<path d="M341.84 268.418H349.473V264.624H341.84V268.418Z" fill="#EBEBEB"/>
<path d="M351.616 261.977H359.248V258.182H351.616V261.977Z" fill="#EBEBEB"/>
<path d="M341.84 261.977H349.473V258.182H341.84V261.977Z" fill="#EBEBEB"/>
<path d="M351.616 255.52H359.248V251.725H351.616V255.52Z" fill="#EBEBEB"/>
<path d="M341.84 255.52H349.473V251.725H341.84V255.52Z" fill="#EBEBEB"/>
<path d="M351.616 249.07H359.248V245.276H351.616V249.07Z" fill="#EBEBEB"/>
<path d="M341.84 249.07H349.473V245.276H341.84V249.07Z" fill="#EBEBEB"/>
<path d="M351.616 242.629H359.248V238.835H351.616V242.629Z" fill="#EBEBEB"/>
<path d="M341.84 242.629H349.473V238.835H341.84V242.629Z" fill="#EBEBEB"/>
<path d="M212.599 271.645H177.732V341.659H212.599V271.645Z" fill="#0054A5"/>
<path d="M189.386 277.699H183.217V281.984H189.386V277.699Z" fill="#8FACFF" fill-opacity="0.42"/>
<path d="M189.386 286.863H183.217V291.157H189.386V286.863Z" fill="#8FACFF" fill-opacity="0.42"/>
<path d="M189.386 296.02H183.217V300.313H189.386V296.02Z" fill="#8FACFF" fill-opacity="0.42"/>
<path d="M189.386 305.191H183.217V309.485H189.386V305.191Z" fill="#8FACFF" fill-opacity="0.42"/>
<path d="M189.386 314.344H183.217V318.637H189.386V314.344Z" fill="#8FACFF" fill-opacity="0.42"/>
<path d="M189.386 323.516H183.217V327.809H189.386V323.516Z" fill="#8FACFF" fill-opacity="0.42"/>
<path d="M189.386 332.672H183.217V336.966H189.386V332.672Z" fill="#8FACFF" fill-opacity="0.42"/>
<path d="M198.267 277.699H192.098V281.984H198.267V277.699Z" fill="#8FACFF" fill-opacity="0.42"/>
<path d="M198.267 286.863H192.098V291.157H198.267V286.863Z" fill="#8FACFF" fill-opacity="0.42"/>
<path d="M198.267 296.02H192.098V300.313H198.267V296.02Z" fill="#8FACFF" fill-opacity="0.42"/>
<path d="M198.267 305.191H192.098V309.485H198.267V305.191Z" fill="#8FACFF" fill-opacity="0.42"/>
<path d="M198.267 314.344H192.098V318.637H198.267V314.344Z" fill="#8FACFF" fill-opacity="0.42"/>
<path d="M198.267 323.516H192.098V327.809H198.267V323.516Z" fill="#8FACFF" fill-opacity="0.42"/>
<path d="M198.267 332.672H192.098V336.966H198.267V332.672Z" fill="#8FACFF" fill-opacity="0.42"/>
<path d="M207.114 277.699H200.945V281.984H207.114V277.699Z" fill="#8FACFF" fill-opacity="0.42"/>
<path d="M207.114 286.863H200.945V291.157H207.114V286.863Z" fill="#8FACFF" fill-opacity="0.42"/>
<path d="M207.114 296.02H200.945V300.313H207.114V296.02Z" fill="#8FACFF" fill-opacity="0.42"/>
<path d="M207.114 305.191H200.945V309.485H207.114V305.191Z" fill="#8FACFF" fill-opacity="0.42"/>
<path d="M207.114 314.344H200.945V318.637H207.114V314.344Z" fill="#8FACFF" fill-opacity="0.42"/>
<path d="M207.114 323.516H200.945V327.809H207.114V323.516Z" fill="#8FACFF" fill-opacity="0.42"/>
<path d="M207.114 332.672H200.945V336.966H207.114V332.672Z" fill="#8FACFF" fill-opacity="0.42"/>
<path d="M212.599 264.344H189.387V271.634H212.599V264.344Z" fill="#8FACFF" fill-opacity="0.42"/>
<path d="M212.608 259.832H197.887V264.345H212.608V259.832Z" fill="#EC1A3B"/>
<path d="M237.065 271.645H212.6V341.659H237.065V271.645Z" fill="#AEC0D0"/>
<path d="M229.545 336.277H234.566V331.984H229.545V336.277Z" fill="#0054A5"/>
<path d="M229.545 327.113H234.566V322.82H229.545V327.113Z" fill="#0054A5"/>
<path d="M229.545 317.953H234.566V313.659H229.545V317.953Z" fill="#0054A5"/>
<path d="M229.545 308.789H234.566V304.495H229.545V308.789Z" fill="#0054A5"/>
<path d="M229.545 299.637H234.566V295.343H229.545V299.637Z" fill="#0054A5"/>
<path d="M229.545 290.465H234.566V286.171H229.545V290.465Z" fill="#0054A5"/>
<path d="M229.545 281.309H234.566V277.015H229.545V281.309Z" fill="#0054A5"/>
<path d="M222.317 336.277H227.338V331.984H222.317V336.277Z" fill="#0054A5"/>
<path d="M222.317 327.113H227.338V322.82H222.317V327.113Z" fill="#0054A5"/>
<path d="M222.317 317.953H227.338V313.659H222.317V317.953Z" fill="#0054A5"/>
<path d="M222.317 308.789H227.338V304.495H222.317V308.789Z" fill="#0054A5"/>
<path d="M222.317 299.637H227.338V295.343H222.317V299.637Z" fill="#0054A5"/>
<path d="M222.317 290.465H227.338V286.171H222.317V290.465Z" fill="#0054A5"/>
<path d="M222.317 281.309H227.338V277.015H222.317V281.309Z" fill="#0054A5"/>
<path d="M215.116 336.277H220.137V331.984H215.116V336.277Z" fill="#0054A5"/>
<path d="M215.116 327.113H220.137V322.82H215.116V327.113Z" fill="#0054A5"/>
<path d="M215.116 317.953H220.137V313.659H215.116V317.953Z" fill="#0054A5"/>
<path d="M215.116 308.789H220.137V304.495H215.116V308.789Z" fill="#0054A5"/>
<path d="M215.116 299.637H220.137V295.343H215.116V299.637Z" fill="#0054A5"/>
<path d="M215.116 290.465H220.137V286.171H215.116V290.465Z" fill="#0054A5"/>
<path d="M215.116 281.309H220.137V277.015H215.116V281.309Z" fill="#0054A5"/>
<path d="M233.359 264.344H212.6V271.634H233.359V264.344Z" fill="#0054A5"/>
<path d="M223.851 259.832H212.6V264.345H223.851V259.832Z" fill="#EC1A3B" fill-opacity="0.84"/>
<path d="M368 347.212L322.004 347.422L276 347.501L184 347.65L92 347.501L46.0044 347.422L0 347.212L46.0044 346.993L92 346.922L184 346.773L276 346.922L322.004 347.001L368 347.212Z" fill="#263238"/>
<path d="M368 341.645H0V346.981H368V341.645Z" fill="#0054A5"/>
<path d="M25.7976 341.648C26.1046 342.505 26.2531 343.411 26.2357 344.321C26.2531 345.217 26.1045 346.108 25.7976 346.95C25.2133 345.219 25.2133 343.344 25.7976 341.613V341.648Z" fill="#263238"/>
<path d="M54.5672 341.645C55.1515 343.375 55.1515 345.25 54.5672 346.981C54.2602 346.139 54.1117 345.248 54.129 344.352C54.1074 343.43 54.2559 342.512 54.5672 341.645Z" fill="#263238"/>
<path d="M83.325 341.648C83.632 342.505 83.7804 343.411 83.7631 344.321C83.7804 345.217 83.6319 346.108 83.325 346.95C82.7406 345.219 82.7406 343.344 83.325 341.613V341.648Z" fill="#263238"/>
<path d="M112.093 341.645C112.677 343.375 112.677 345.25 112.093 346.981C111.786 346.139 111.637 345.248 111.654 344.352C111.633 343.43 111.781 342.512 112.093 341.645Z" fill="#263238"/>
<path d="M140.85 341.648C141.157 342.505 141.306 343.411 141.288 344.321C141.306 345.217 141.157 346.108 140.85 346.95C140.266 345.219 140.266 343.344 140.85 341.613V341.648Z" fill="#263238"/>
<path d="M169.622 341.645C170.206 343.375 170.206 345.25 169.622 346.981C169.315 346.139 169.166 345.248 169.184 344.352C169.162 343.43 169.311 342.512 169.622 341.645Z" fill="#263238"/>
<path d="M198.38 341.648C198.687 342.505 198.835 343.411 198.818 344.321C198.835 345.217 198.687 346.108 198.38 346.95C197.795 345.219 197.795 343.344 198.38 341.613V341.648Z" fill="#263238"/>
<path d="M227.147 341.645C227.732 343.375 227.732 345.25 227.147 346.981C226.84 346.139 226.692 345.248 226.709 344.352C226.687 343.43 226.836 342.512 227.147 341.645Z" fill="#263238"/>
<path d="M255.907 341.648C256.214 342.505 256.362 343.411 256.345 344.321C256.362 345.217 256.214 346.108 255.907 346.95C255.323 345.219 255.323 343.344 255.907 341.613V341.648Z" fill="#263238"/>
<path d="M284.675 341.645C285.259 343.375 285.259 345.25 284.675 346.981C284.368 346.139 284.219 345.248 284.236 344.352C284.215 343.43 284.363 342.512 284.675 341.645Z" fill="#263238"/>
<path d="M313.432 341.648C313.739 342.505 313.888 343.411 313.871 344.321C313.888 345.217 313.739 346.108 313.432 346.95C312.848 345.219 312.848 343.344 313.432 341.613V341.648Z" fill="#263238"/>
<path d="M342.204 341.645C342.788 343.375 342.788 345.25 342.204 346.981C341.897 346.139 341.748 345.248 341.766 344.352C341.744 343.43 341.893 342.512 342.204 341.645Z" fill="#263238"/>
<path d="M131.436 339.516H203.049V325.018H131.436V339.516Z" fill="#F2F9FF"/>
<path d="M132.748 325.046C132.748 325.046 133.74 320.626 135.72 319.948C137.7 319.271 138.909 321.268 138.909 321.268C138.909 321.268 139.374 317.046 142.182 315.783C144.991 314.521 147.103 317.103 147.103 317.103C147.103 317.103 149.261 311.746 153.11 311.746C156.959 311.746 158.903 319.583 158.903 319.583C158.903 319.583 161.18 317.248 163.51 318.567C165.839 319.887 165.839 325.059 165.839 325.059L132.748 325.046Z" fill="#21612F"/>
<path d="M171.922 325.059H201.59C201.59 325.059 200.612 320.671 198.643 320.358C196.674 320.046 195.758 322.084 195.758 322.084C195.758 322.084 195.846 315.966 192.172 314.923C188.498 313.88 185.415 319.287 185.415 319.287C185.415 319.287 183.106 316.206 179.966 316.403C176.825 316.6 176.027 321.69 176.027 321.69C176.027 321.69 173.182 319.926 171.922 325.059Z" fill="#21612F"/>
<path d="M163.557 325.056H181.814C181.814 325.056 181.77 321.323 179.975 320.333C179.49 320.038 178.951 319.97 178.437 320.139C177.923 320.308 177.46 320.705 177.113 321.273C177.113 321.273 176.381 314.406 173.038 314.406C169.695 314.406 168.09 320.333 168.09 320.333C167.8 319.76 167.4 319.317 166.939 319.059C166.477 318.801 165.974 318.738 165.488 318.877C163.632 319.205 163.557 325.056 163.557 325.056Z" fill="#668C62"/>
<path d="M145.671 339.469H205.549V337.757H145.671V339.469Z" fill="#EC1A3B"/>
<path d="M145.671 337.352H205.549V335.64H145.671V337.352Z" fill="#EC1A3B"/>
<path d="M145.671 335.223H205.549V333.511H145.671V335.223Z" fill="#EC1A3B"/>
<path d="M145.671 333.094H205.549V331.382H145.671V333.094Z" fill="#EC1A3B"/>
<path d="M145.671 330.977H205.549V329.265H145.671V330.977Z" fill="#EC1A3B"/>
<path d="M145.671 328.852H205.549V327.14H145.671V328.852Z" fill="#EC1A3B"/>
<path d="M145.671 326.723H205.549V325.011H145.671V326.723Z" fill="#EC1A3B"/>
<path d="M128.942 339.469H145.67V337.757H128.942V339.469Z" fill="#EC1A3B"/>
<path opacity="0.2" d="M128.942 339.469H145.67V337.757H128.942V339.469Z" fill="#225543"/>
<path d="M128.942 337.352H145.67V335.64H128.942V337.352Z" fill="#EC1A3B"/>
<path opacity="0.2" d="M128.942 337.352H145.67V335.64H128.942V337.352Z" fill="#225543"/>
<path d="M128.942 335.223H145.67V333.511H128.942V335.223Z" fill="#EC1A3B"/>
<path opacity="0.2" d="M128.942 335.223H145.67V333.511H128.942V335.223Z" fill="#225543"/>
<path d="M128.942 333.094H145.67V331.382H128.942V333.094Z" fill="#EC1A3B"/>
<path opacity="0.2" d="M128.942 333.094H145.67V331.382H128.942V333.094Z" fill="#225543"/>
<path d="M128.942 330.977H145.67V329.265H128.942V330.977Z" fill="#EC1A3B"/>
<path opacity="0.2" d="M128.942 330.977H145.67V329.265H128.942V330.977Z" fill="#225543"/>
<path d="M128.942 328.852H145.67V327.14H128.942V328.852Z" fill="#EC1A3B"/>
<path opacity="0.2" d="M128.942 328.852H145.67V327.14H128.942V328.852Z" fill="#225543"/>
<path d="M128.942 326.723H145.67V325.011H128.942V326.723Z" fill="#EC1A3B"/>
<path opacity="0.2" d="M128.942 326.723H145.67V325.011H128.942V326.723Z" fill="#225543"/>
<path d="M234.511 340.277H306.123V325.779H234.511V340.277Z" fill="#F2F9FF"/>
<path d="M235.822 325.807C235.822 325.807 236.814 321.387 238.794 320.71C240.774 320.033 241.983 322.029 241.983 322.029C241.983 322.029 242.449 317.807 245.257 316.545C248.065 315.283 250.178 317.865 250.178 317.865C250.178 317.865 252.335 312.508 256.184 312.508C260.033 312.508 261.977 320.345 261.977 320.345C261.977 320.345 264.254 318.01 266.584 319.329C268.914 320.648 268.914 325.82 268.914 325.82L235.822 325.807Z" fill="#21612F"/>
<path d="M274.996 325.821H304.664C304.664 325.821 303.686 321.433 301.717 321.12C299.748 320.808 298.832 322.846 298.832 322.846C298.832 322.846 298.92 316.727 295.246 315.684C291.572 314.641 288.489 320.048 288.489 320.048C288.489 320.048 286.181 316.968 283.04 317.165C279.899 317.362 279.102 322.451 279.102 322.451C279.102 322.451 276.256 320.688 274.996 325.821Z" fill="#21612F"/>
<path d="M266.631 325.818H284.888C284.888 325.818 284.844 322.085 283.049 321.095C282.564 320.8 282.026 320.732 281.512 320.901C280.998 321.07 280.534 321.467 280.187 322.035C280.187 322.035 279.455 315.168 276.112 315.168C272.77 315.168 271.164 321.095 271.164 321.095C270.874 320.521 270.474 320.079 270.013 319.821C269.552 319.563 269.048 319.499 268.562 319.639C266.706 319.967 266.631 325.818 266.631 325.818Z" fill="#668C62"/>
<path d="M248.745 340.23H308.623V338.519H248.745V340.23Z" fill="#EC1A3B"/>
<path d="M248.745 338.113H308.623V336.402H248.745V338.113Z" fill="#EC1A3B"/>
<path d="M248.745 335.984H308.623V334.273H248.745V335.984Z" fill="#EC1A3B"/>
<path d="M248.745 333.855H308.623V332.144H248.745V333.855Z" fill="#EC1A3B"/>
<path d="M248.745 331.738H308.623V330.027H248.745V331.738Z" fill="#EC1A3B"/>
<path d="M248.745 329.613H308.623V327.902H248.745V329.613Z" fill="#EC1A3B"/>
<path d="M248.745 327.484H308.623V325.773H248.745V327.484Z" fill="#EC1A3B"/>
<path d="M232.017 340.23H248.744V338.519H232.017V340.23Z" fill="#EC1A3B"/>
<path opacity="0.2" d="M232.017 340.23H248.744V338.519H232.017V340.23Z" fill="#225543"/>
<path d="M232.017 338.113H248.744V336.402H232.017V338.113Z" fill="#EC1A3B"/>
<path opacity="0.2" d="M232.017 338.113H248.744V336.402H232.017V338.113Z" fill="#225543"/>
<path d="M232.017 335.984H248.744V334.273H232.017V335.984Z" fill="#EC1A3B"/>
<path opacity="0.2" d="M232.017 335.984H248.744V334.273H232.017V335.984Z" fill="#225543"/>
<path d="M232.017 333.855H248.744V332.144H232.017V333.855Z" fill="#EC1A3B"/>
<path opacity="0.2" d="M232.017 333.855H248.744V332.144H232.017V333.855Z" fill="#225543"/>
<path d="M232.017 331.738H248.744V330.027H232.017V331.738Z" fill="#EC1A3B"/>
<path opacity="0.2" d="M232.017 331.738H248.744V330.027H232.017V331.738Z" fill="#225543"/>
<path d="M232.017 329.613H248.744V327.902H232.017V329.613Z" fill="#EC1A3B"/>
<path opacity="0.2" d="M232.017 329.613H248.744V327.902H232.017V329.613Z" fill="#225543"/>
<path d="M232.017 327.484H248.744V325.773H232.017V327.484Z" fill="#EC1A3B"/>
<path opacity="0.2" d="M232.017 327.484H248.744V325.773H232.017V327.484Z" fill="#225543"/>
</g>
<defs>
<clipPath id="clip0_3668_100455">
<rect width="368" height="347.65" fill="white"/>
</clipPath>
</defs>
</svg>
