<svg width="120" height="120" viewBox="0 0 120 120" fill="none" xmlns="http://www.w3.org/2000/svg">
<path fill-rule="evenodd" clip-rule="evenodd" d="M24.3608 60.6687C10.6587 61.509 7.29224 67.7307 7.08203 70.2329V76.3906C7.08203 77.081 6.52239 77.6406 5.83203 77.6406C5.14168 77.6406 4.58203 77.081 4.58203 76.3906V70.1846V70.1401L4.58521 70.0956C4.90306 65.6457 10.182 58.5094 26.0777 58.0933L26.0904 58.0742H26.7594H27.5529H29.8624H30.5313L30.6049 58.1846C35.9839 58.5789 40.3676 59.987 43.5652 61.7154C45.4528 62.7358 46.9541 63.8825 48.0013 65.0249C49.0091 66.1244 49.748 67.3885 49.748 68.6332C49.748 69.3235 49.1884 69.8832 48.498 69.8832C47.8077 69.8832 47.248 69.3235 47.248 68.6332C47.248 68.3263 47.0172 67.6511 46.1584 66.7142C45.339 65.8203 44.0766 64.8337 42.3764 63.9147C39.893 62.5723 36.5325 61.4054 32.3993 60.8762L34.0054 63.2853L34.6285 64.2199L33.7656 64.939L29.5642 68.4401V76.3958C29.5642 77.0861 29.0046 77.6458 28.3142 77.6458C27.6239 77.6458 27.0642 77.0861 27.0642 76.3958V68.4457L22.8562 64.939L21.9933 64.2199L22.6163 63.2853L24.3608 60.6687ZM27.4283 60.5744L25.3195 63.7375L28.3109 66.2303L31.3022 63.7375L29.2163 60.6086C28.6727 60.586 28.1181 60.5742 27.5529 60.5742C27.5113 60.5742 27.4697 60.5743 27.4283 60.5744Z" fill="#0054A5"/>
<path fill-rule="evenodd" clip-rule="evenodd" d="M40.6512 57.8628C40.7506 56.4714 41.5087 54.4999 44.2341 52.8271C46.6006 51.3746 50.4739 50.1381 56.6788 49.8038L54.9307 52.4259L54.3077 53.3605L55.1706 54.0796L59.4291 57.6283V60.1062C59.4291 60.7965 59.9887 61.3562 60.6791 61.3562C61.3694 61.3562 61.9291 60.7965 61.9291 60.1062V57.5387L66.08 54.0796L66.9429 53.3605L66.3198 52.4259L64.6902 49.9815C68.9543 50.4926 72.4124 51.6822 74.9528 53.0553C76.653 53.9744 77.9153 54.9609 78.7348 55.8548C79.5936 56.7917 79.8244 57.4669 79.8244 57.7738C79.8244 58.4641 80.384 59.0238 81.0744 59.0238C81.7647 59.0238 82.3244 58.4641 82.3244 57.7738C82.3244 56.5292 81.5855 55.265 80.5777 54.1655C79.5305 53.0232 78.0292 51.8764 76.1416 50.8561C72.8897 49.0983 68.4111 47.6718 62.9065 47.306L62.8457 47.2148H62.1768H60.1293H59.0738H58.4048L58.3909 47.2357C50.8937 47.419 46.0243 48.795 42.9264 50.6964C39.543 52.7731 38.3167 55.456 38.1575 57.6847C38.1083 58.3733 38.6267 58.9714 39.3153 59.0206C40.0039 59.0698 40.602 58.5514 40.6512 57.8628ZM60.1293 49.7148C60.6016 49.7148 61.0665 49.723 61.5239 49.739L63.6166 52.8781L60.6253 55.3709L57.6339 52.8781L59.7421 49.7159C59.8703 49.7152 59.9994 49.7148 60.1293 49.7148Z" fill="#0054A5"/>
<path fill-rule="evenodd" clip-rule="evenodd" d="M78.1501 63.6865C75.4519 65.3426 74.6819 67.2914 74.5703 68.6804V76.7575C74.5703 77.4479 74.0107 78.0075 73.3203 78.0075C72.63 78.0075 72.0703 77.4479 72.0703 76.7575V68.6332V68.5886L72.0735 68.5441C72.2327 66.3154 73.4589 63.6324 76.8423 61.5558C79.9673 59.6377 84.895 58.2544 92.5042 58.0905L92.5151 58.0742H93.1841H94.0452H96.2871H96.956L97.0262 58.1794C102.438 58.5665 106.846 59.9794 110.058 61.7154C111.945 62.7358 113.446 63.8825 114.494 65.0249C115.501 66.1244 116.24 67.3885 116.24 68.6332V76.7575C116.24 77.4479 115.681 78.0075 114.99 78.0075C114.3 78.0075 113.74 77.4479 113.74 76.7575V68.6332C113.74 68.3263 113.51 67.6511 112.651 66.7142C111.831 65.8203 110.569 64.8337 108.869 63.9147C106.371 62.5643 102.985 61.3915 98.8178 60.8668L100.43 63.2853L101.053 64.2199L100.19 64.939L96.0408 68.3968V76.8573C96.0408 77.5477 95.4812 78.1073 94.7908 78.1073C94.1005 78.1073 93.5408 77.5477 93.5408 76.8573V68.489L89.2809 64.939L88.418 64.2199L89.041 63.2853L90.7961 60.6527C84.4734 60.9709 80.542 62.2184 78.1501 63.6865ZM93.8529 60.5745L91.7442 63.7375L94.7356 66.2303L97.7269 63.7375L95.6391 60.6058C95.1177 60.585 94.5864 60.5742 94.0452 60.5742C93.9809 60.5742 93.9168 60.5743 93.8529 60.5745Z" fill="#0054A5"/>
<circle cx="60.9068" cy="30.6275" r="12.4634" stroke="#0054A5" stroke-width="3"/>
<circle cx="95.0376" cy="41.4908" r="12.4634" stroke="#0054A5" stroke-width="3"/>
<circle cx="28.3267" cy="41.4908" r="12.4634" stroke="#0054A5" stroke-width="3"/>
<path d="M14.3809 93.5443C14.3809 92.5317 15.2017 91.7109 16.2142 91.7109H25.1069C26.1194 91.7109 26.9403 92.5317 26.9403 93.5443V103.073H14.3809V93.5443Z" stroke="#0054A5" stroke-width="3"/>
<path d="M5.69922 103.973C7.54726 103.973 79.8777 103.973 115.812 103.973" stroke="#0054A5" stroke-width="3" stroke-linecap="round"/>
<path d="M93.377 96.5365C93.377 95.5239 94.1978 94.7031 95.2103 94.7031H104.103C105.116 94.7031 105.936 95.5239 105.936 96.5365V103.073H93.377V96.5365Z" stroke="#0054A5" stroke-width="3"/>
<path d="M34.7266 74.3958C34.7266 73.3833 35.5474 72.5625 36.5599 72.5625H45.4526C46.4651 72.5625 47.286 73.3833 47.286 74.3958V103.075H34.7266V74.3958Z" stroke="#0054A5" stroke-width="3"/>
<path d="M74.8223 83.9701C74.8223 82.9575 75.6431 82.1367 76.6556 82.1367H85.5483C86.5608 82.1367 87.3817 82.9575 87.3817 83.9701V103.074H74.8223V83.9701Z" stroke="#0054A5" stroke-width="3"/>
<path d="M54.4785 66.6146C54.4785 65.6021 55.2993 64.7812 56.3118 64.7812H65.2046C66.2171 64.7812 67.0379 65.6021 67.0379 66.6146V103.073H54.4785V66.6146Z" stroke="#0054A5" stroke-width="3"/>
</svg>
