<svg width="251" height="83" viewBox="0 0 251 83" fill="none" xmlns="http://www.w3.org/2000/svg">
<path d="M54.9855 50.8771L71.5523 50.7447V56.0102L49.8232 56.0394V28.5047L71.1341 28.375L85.1648 48.7593L98.9599 28.5047H121.332V56.0394H98.9096L98.9308 38.9642H104.225V50.6124H115.609V33.6696H100.519L85.4295 56.1717L69.5457 33.9343H54.9855V38.6995H71.3988V44.2588H54.9855V50.8771Z" fill="#3180E8"/>
<path d="M133.081 33.6696H123.651V28.375H148.43V33.6696H138.413V55.907H133.145L133.081 33.6696Z" fill="#848484"/>
<path d="M183.115 28.375H177.619V55.907H183.223V47.1894L192.645 55.907H199.528L184.439 41.8763L199.793 28.375H192.116L183.115 36.3169V28.375Z" fill="#848484"/>
<path d="M151.082 28.375V55.907H173.73V50.5541L156.377 50.6124V44.2588L173.73 44.2747V38.8927L156.377 38.9642V33.6696H173.849V28.375H151.082Z" fill="#848484"/>
<path d="M250.486 21.1666C247.469 1.65857 188.987 -5.11324 119.855 6.03722C50.7234 17.1877 -2.88186 42.0406 0.125479 61.5486C3.13282 81.0566 61.6118 87.831 130.746 76.6832C199.881 65.5354 253.483 40.6852 250.486 21.1666ZM128.589 71.8493C63.952 78.4119 10.5903 69.7552 9.39634 52.5239C8.20241 35.2926 59.6369 15.9911 124.274 9.41782C188.91 2.84456 242.272 11.5145 243.463 28.7432C244.654 45.9718 193.223 65.2866 128.589 71.8493Z" fill="#3180E8"/>
<path d="M128.589 71.8494C63.9525 78.412 10.5907 69.7554 9.3968 52.524C8.98647 46.5755 14.8264 40.3702 25.3336 34.5462V34.4297C8.35906 43.4305 -1.19771 53.0085 0.120647 61.5593C3.12799 81.0673 61.607 87.8418 130.741 76.6886C170.89 70.2107 205.801 59.1132 227.426 47.1235L226.844 47.0971C206.772 58.0066 170.451 67.6004 128.589 71.8494Z" fill="#848484"/>
</svg>
