<svg id="Layer_1" data-name="Layer 1" xmlns="http://www.w3.org/2000/svg" viewBox="0 0 946.65 355.45"><defs><style>.cls-1{fill:#848484;}.cls-2{fill:#3180e8;}</style></defs><path class="cls-1" d="M363.51,580.7h-9.7v8.75h10.81v2.63h-14V567.82h13.47v2.62H353.81v7.67h9.7Z" transform="translate(-294 -237.02)"/><path class="cls-1" d="M404.31,592.08l-8.14-24.26h3.48l3.89,12c1.07,3.27,2,6.22,2.66,9.07h.07c.71-2.81,1.74-5.87,2.85-9l4.22-12h3.44l-8.91,24.26Z" transform="translate(-294 -237.02)"/><path class="cls-1" d="M464.33,579.69c0,8.36-5.22,12.78-11.59,12.78-6.58,0-11.21-5-11.21-12.31,0-7.7,4.92-12.74,11.58-12.74S464.33,572.49,464.33,579.69Zm-19.36.4c0,5.18,2.89,9.83,8,9.83s8-4.57,8-10.08c0-4.82-2.59-9.86-8-9.86s-8,4.78-8,10.11Z" transform="translate(-294 -237.02)"/><path class="cls-1" d="M492,567.82h3.22v21.63H506v2.63H492Z" transform="translate(-294 -237.02)"/><path class="cls-1" d="M537.17,592.08,529,567.82h3.48l3.89,12c1.07,3.27,2,6.22,2.66,9.07h.07c.71-2.81,1.74-5.87,2.85-9l4.22-12h3.44l-8.91,24.26Z" transform="translate(-294 -237.02)"/><path class="cls-1" d="M588.79,580.7h-9.7v8.75H590v2.63H576V567.82h13.47v2.62H579.09v7.67h9.7Z" transform="translate(-294 -237.02)"/><path class="cls-1" d="M673.16,592.08v-10.3l-9.78-14H668l4.36,6.69c1.2,1.84,2.11,3.31,3.08,5h.09c.87-1.58,1.93-3.16,3.12-5l4.46-6.69h4.55l-10.38,13.93V592Z" transform="translate(-294 -237.02)"/><path class="cls-1" d="M731.35,579.69c0,8.36-6,12.78-13.24,12.78-7.52,0-12.81-5-12.81-12.31,0-7.7,5.62-12.74,13.24-12.74C726.32,567.42,731.35,572.49,731.35,579.69Zm-22.12.4c0,5.18,3.3,9.83,9.1,9.83s9.13-4.57,9.13-10.08c0-4.82-3-9.86-9.09-9.86S709.23,574.76,709.23,580.09Z" transform="translate(-294 -237.02)"/><path class="cls-1" d="M757.67,567.82v14.37c0,5.43,2.83,7.74,6.64,7.74,4.23,0,6.93-2.38,6.93-7.74V567.82H775V582c0,7.45-4.61,10.51-10.79,10.51-5.83,0-10.23-2.84-10.23-10.36V567.82Z" transform="translate(-294 -237.02)"/><path class="cls-1" d="M799.28,568.19a45.05,45.05,0,0,1,7.06-.5c3.93,0,6.47.61,8.25,2a5.62,5.62,0,0,1,2.24,4.6c0,3.21-2.37,5.33-5.37,6.19v.11c2.2.65,3.51,2.38,4.18,4.9.93,3.38,1.61,5.72,2.2,6.66H814a27.76,27.76,0,0,1-1.91-5.8c-.84-3.35-2.36-4.61-5.7-4.71H803v10.51h-3.68Zm3.67,11h3.76c3.93,0,6.43-1.83,6.43-4.61,0-3.13-2.67-4.5-6.56-4.53a16.33,16.33,0,0,0-3.63.29Z" transform="translate(-294 -237.02)"/><path class="cls-1" d="M894,568.19a38.74,38.74,0,0,1,6.55-.5c3.58,0,5.89.54,7.62,1.76a4.87,4.87,0,0,1,2.3,4.28c0,2.34-1.77,4.39-4.69,5.33v.07c2.63.58,5.72,2.49,5.72,6.09a6.2,6.2,0,0,1-2.34,4.85c-1.94,1.55-5.07,2.27-9.6,2.27a49.07,49.07,0,0,1-5.56-.29Zm3.58,9.93h3.26c3.78,0,6-1.72,6-4.06,0-2.85-2.47-4-6.1-4a18.7,18.7,0,0,0-3.17.21Zm0,11.63a21.46,21.46,0,0,0,3,.15c3.71,0,7.12-1.19,7.12-4.72,0-3.31-3.25-4.68-7.16-4.68h-3Z" transform="translate(-294 -237.02)"/><path class="cls-1" d="M937.27,567.82v14.37c0,5.43,2.76,7.74,6.47,7.74,4.12,0,6.75-2.38,6.75-7.74V567.82h3.63V582c0,7.45-4.49,10.51-10.51,10.51-5.68,0-10-2.84-10-10.36V567.82Z" transform="translate(-294 -237.02)"/><path class="cls-1" d="M977.3,588.26a14.05,14.05,0,0,0,6.42,1.59c3.67,0,5.81-1.7,5.81-4.14,0-2.27-1.49-3.57-5.23-4.83-4.53-1.4-7.33-3.45-7.33-6.87,0-3.78,3.58-6.59,9-6.59a13.94,13.94,0,0,1,6.14,1.19l-1,2.55a12.15,12.15,0,0,0-5.27-1.15c-3.79,0-5.23,2-5.23,3.64,0,2.26,1.69,3.38,5.52,4.68,4.69,1.58,7.08,3.56,7.08,7.12,0,3.75-3.17,7-9.72,7a16,16,0,0,1-7.08-1.55Z" transform="translate(-294 -237.02)"/><path class="cls-1" d="M1022.37,567.82v24.26h-3.84V567.82Z" transform="translate(-294 -237.02)"/><path class="cls-1" d="M1047.87,592.08V567.82h4.2l9.56,12.27A65,65,0,0,1,1067,588h.09a88,88,0,0,1-.44-10V567.82h3.63v24.26h-3.9L1057,579.77a74.62,74.62,0,0,1-5.58-8.1h-.13c.22,3.06.31,6,.31,10V592Z" transform="translate(-294 -237.02)"/><path class="cls-1" d="M1101.81,580.7h-11.59v8.75h12.92v2.63h-16.77V567.82h16.11v2.62h-12.26v7.67h11.59Z" transform="translate(-294 -237.02)"/><path class="cls-1" d="M1126.38,588.26a16,16,0,0,0,6.9,1.59c3.94,0,6.24-1.7,6.24-4.14,0-2.27-1.59-3.57-5.62-4.83-4.87-1.4-7.88-3.45-7.88-6.87,0-3.78,3.85-6.59,9.65-6.59a16,16,0,0,1,6.59,1.19l-1.06,2.55a13.82,13.82,0,0,0-5.66-1.15c-4.07,0-5.62,2-5.62,3.64,0,2.26,1.81,3.38,5.93,4.68,5,1.58,7.61,3.56,7.61,7.12,0,3.75-3.41,7-10.44,7a18.42,18.42,0,0,1-7.61-1.55Z" transform="translate(-294 -237.02)"/><path class="cls-1" d="M1167,588.26a16,16,0,0,0,6.91,1.59c3.93,0,6.23-1.7,6.23-4.14,0-2.27-1.59-3.57-5.62-4.83-4.86-1.4-7.87-3.45-7.87-6.87,0-3.78,3.85-6.59,9.64-6.59a16,16,0,0,1,6.6,1.19l-1.06,2.55a14,14,0,0,0-5.67-1.15c-4.07,0-5.62,2-5.62,3.64,0,2.26,1.82,3.38,5.93,4.68,5,1.58,7.61,3.56,7.61,7.12,0,3.75-3.4,7-10.44,7a18.42,18.42,0,0,1-7.61-1.55Z" transform="translate(-294 -237.02)"/><polygon class="cls-2" points="207.7 189.67 270.28 189.17 270.28 209.06 188.2 209.17 188.2 105.16 268.7 104.67 321.7 181.67 373.81 105.16 458.32 105.16 458.32 209.17 373.62 209.17 373.7 144.67 393.7 144.67 393.7 188.67 436.7 188.67 436.7 124.67 379.7 124.67 322.7 209.67 262.7 125.67 207.7 125.67 207.7 143.67 269.7 143.67 269.7 164.67 207.7 164.67 207.7 189.67"/><polygon class="cls-1" points="502.7 124.67 467.08 124.67 467.08 104.67 560.68 104.67 560.68 124.67 522.84 124.67 522.84 208.67 502.94 208.67 502.7 124.67"/><polygon class="cls-1" points="691.7 104.67 670.94 104.67 670.94 208.67 692.11 208.67 692.11 175.74 727.7 208.67 753.7 208.67 696.7 155.67 754.7 104.67 725.7 104.67 691.7 134.67 691.7 104.67"/><polygon class="cls-1" points="570.7 104.67 570.7 208.67 656.25 208.67 656.25 188.45 590.7 188.67 590.7 164.67 656.25 164.73 656.25 144.4 590.7 144.67 590.7 124.67 656.7 124.67 656.7 104.67 570.7 104.67"/><path class="cls-2" d="M1240.19,314.46c-11.4-73.69-232.31-99.27-493.45-57.15S283.11,393.31,294.47,467s232.26,99.28,493.41,57.17S1251.51,388.19,1240.19,314.46ZM779.73,505.91C535.57,530.7,334,498,329.49,432.91s189.78-138,433.94-162.83,445.73,7.92,450.23,73S1023.88,481.12,779.73,505.91Z" transform="translate(-294 -237.02)"/><path class="cls-1" d="M779.73,505.91C535.57,530.7,334,498,329.49,432.91,327.94,410.44,350,387,389.69,365v-.44c-64.12,34-100.22,70.18-95.24,102.48,11.36,73.69,232.26,99.28,493.41,57.15,151.66-24.47,283.53-66.39,365.22-111.68l-2.2-.1C1075.06,453.62,937.86,489.86,779.73,505.91Z" transform="translate(-294 -237.02)"/></svg>