<svg width="98" height="24" viewBox="0 0 98 24" fill="none" xmlns="http://www.w3.org/2000/svg">
<path fill-rule="evenodd" clip-rule="evenodd" d="M26.2845 2.65598H23.8845V3.34564H25.588C25.5477 3.75879 25.3464 4.13949 25.0276 4.40536C24.7088 4.67124 24.2982 4.80091 23.8845 4.76633C23.5733 4.76873 23.2663 4.6948 22.9903 4.55102C22.7143 4.40723 22.4778 4.19796 22.3015 3.94155C22.1251 3.68514 22.0143 3.38941 21.9788 3.08025C21.9433 2.77109 21.9841 2.45793 22.0977 2.1682C22.2113 1.87847 22.3941 1.62101 22.6303 1.41836C22.8665 1.21572 23.1487 1.07407 23.4524 1.00582C23.756 0.937577 24.0717 0.944813 24.3719 1.0269C24.6721 1.10899 24.9475 1.26342 25.1742 1.47667L25.6707 0.95943C25.1827 0.500715 24.5334 0.252914 23.8638 0.269775C23.5088 0.251545 23.1538 0.305728 22.8204 0.429026C22.487 0.552325 22.1822 0.742161 21.9245 0.986987C21.6668 1.23181 21.4615 1.52651 21.3213 1.85315C21.1811 2.17979 21.1087 2.53155 21.1087 2.88702C21.1087 3.24249 21.1811 3.59424 21.3213 3.92088C21.4615 4.24752 21.6668 4.54222 21.9245 4.78705C22.1822 5.03187 22.487 5.22171 22.8204 5.34501C23.1538 5.4683 23.5088 5.52249 23.8638 5.50426C24.1831 5.52168 24.5025 5.47244 24.8017 5.35968C25.1009 5.24691 25.3733 5.0731 25.6017 4.84929C25.83 4.62548 26.0093 4.35658 26.128 4.05971C26.2468 3.76284 26.3024 3.4445 26.2914 3.12495C26.2946 2.96531 26.2807 2.80579 26.25 2.64908L26.2845 2.65598ZM26.7328 14.1387H32.0087C32.0814 14.4786 32.1138 14.8258 32.1052 15.1732C32.129 15.8732 32.0072 16.5705 31.7477 17.221C31.4881 17.8715 31.0964 18.4611 30.5973 18.9524C30.0981 19.4437 29.5025 19.8262 28.848 20.0755C28.1935 20.3248 27.4944 20.4356 26.7949 20.4008C26.0238 20.4325 25.2542 20.3087 24.532 20.0368C23.8098 19.7648 23.1497 19.3503 22.591 18.818C22.0323 18.2856 21.5864 17.6463 21.2799 16.938C20.9735 16.2297 20.8127 15.467 20.8071 14.6953C20.8016 13.9236 20.9514 13.1587 21.2476 12.4461C21.5438 11.7335 21.9804 11.0878 22.5314 10.5474C23.0824 10.0071 23.7365 9.58314 24.4547 9.30084C25.173 9.01855 25.9407 8.88367 26.7121 8.90426C27.4447 8.89124 28.1726 9.02282 28.8542 9.29145C29.5358 9.56008 30.1578 9.96049 30.6845 10.4698L29.5535 11.6077C28.7946 10.8805 27.7838 10.4752 26.7328 10.4767C25.6244 10.4767 24.5613 10.917 23.7776 11.7008C22.9938 12.4845 22.5535 13.5476 22.5535 14.656C22.5535 15.7644 22.9938 16.8274 23.7776 17.6112C24.5613 18.395 25.6244 18.8353 26.7328 18.8353C28.4569 18.8353 30.2845 17.8974 30.4707 15.7043H26.7328V14.1387ZM32.7811 16.6698C32.7838 15.9377 33.0031 15.2228 33.4112 14.6151C33.8193 14.0073 34.3981 13.5339 35.0748 13.2544C35.7514 12.9749 36.4955 12.9018 37.2136 13.0443C37.9317 13.1868 38.5915 13.5385 39.1101 14.0552C39.6287 14.5719 39.9829 15.2305 40.1281 15.948C40.2732 16.6655 40.2029 17.41 39.9259 18.0876C39.6489 18.7653 39.1776 19.3458 38.5714 19.7562C37.9651 20.1666 37.251 20.3885 36.519 20.3939C36.0257 20.4071 35.5349 20.3199 35.0763 20.1376C34.6177 19.9553 34.201 19.6817 33.8514 19.3334C33.5018 18.9851 33.2267 18.5694 33.0427 18.1115C32.8587 17.6536 32.7697 17.1631 32.7811 16.6698ZM44.6638 13.0077C43.9333 13.0091 43.2196 13.2269 42.6127 13.6336C42.0059 14.0403 41.5332 14.6177 41.2542 15.2928C40.9753 15.968 40.9027 16.7107 41.0455 17.4271C41.1884 18.1435 41.5403 18.8016 42.0569 19.3181C42.5734 19.8347 43.2315 20.1866 43.9479 20.3294C44.6643 20.4723 45.407 20.3997 46.0822 20.1207C46.7573 19.8418 47.3347 19.3691 47.7414 18.7622C48.1481 18.1554 48.3659 17.4417 48.3673 16.7112C48.3806 16.2212 48.2939 15.7337 48.1125 15.2783C47.9311 14.823 47.6588 14.4094 47.3122 14.0628C46.9656 13.7162 46.552 13.4439 46.0967 13.2625C45.6413 13.0811 45.1538 12.9944 44.6638 13.0077ZM38.588 16.7043C38.6047 16.4196 38.564 16.1345 38.4682 15.866C38.3724 15.5974 38.2236 15.3509 38.0305 15.1411C37.8375 14.9313 37.6041 14.7625 37.3444 14.6448C37.0848 14.5271 36.804 14.4629 36.519 14.456C36.0684 14.4199 35.6175 14.5205 35.2249 14.7447C34.8324 14.9688 34.5165 15.306 34.3186 15.7124C34.1206 16.1187 34.0497 16.5753 34.1151 17.0225C34.1805 17.4698 34.3793 17.8869 34.6853 18.2195C34.9914 18.5521 35.3906 18.7848 35.8309 18.887C36.2712 18.9893 36.7321 18.9565 37.1535 18.7929C37.5748 18.6293 37.9371 18.3425 38.193 17.9699C38.4489 17.5973 38.5865 17.1563 38.588 16.7043ZM44.6845 14.456C45.1344 14.4297 45.5818 14.5393 45.9687 14.7704C46.3556 15.0016 46.6641 15.3437 46.8541 15.7523C47.0442 16.161 47.107 16.6173 47.0345 17.0621C46.962 17.5069 46.7575 17.9197 46.4475 18.2468C46.1376 18.574 45.7364 18.8004 45.2962 18.8967C44.8559 18.9931 44.3969 18.9549 43.9786 18.7871C43.5603 18.6193 43.2021 18.3297 42.9504 17.9559C42.6988 17.582 42.5653 17.1411 42.5673 16.6905C42.5523 16.403 42.596 16.1154 42.6956 15.8453C42.7952 15.5752 42.9486 15.3281 43.1467 15.1191C43.3447 14.9101 43.5831 14.7436 43.8475 14.6296C44.1118 14.5156 44.3966 14.4565 44.6845 14.456ZM49.1121 16.7043C49.1026 15.7459 49.4693 14.822 50.1333 14.1309C50.7973 13.4398 51.7058 13.0365 52.6638 13.0077C53.0373 12.9993 53.4082 13.0706 53.7519 13.2169C54.0955 13.3632 54.4041 13.581 54.6569 13.856V13.2284H56.2018V19.8698C56.2018 22.4836 54.6983 23.7249 52.7535 23.7249C52.0453 23.7345 51.3503 23.5322 50.758 23.1438C50.1657 22.7555 49.703 22.1989 49.4293 21.5456L50.8224 20.9663C50.9714 21.3485 51.2306 21.6777 51.567 21.9122C51.9035 22.1468 52.302 22.276 52.7121 22.2836C52.9822 22.2985 53.2524 22.2542 53.5035 22.1537C53.7547 22.0532 53.9809 21.899 54.1662 21.7018C54.3515 21.5047 54.4914 21.2695 54.5762 21.0125C54.661 20.7556 54.6885 20.4833 54.6569 20.2146V19.5043C54.4126 19.8018 54.1019 20.038 53.7498 20.1937C53.3976 20.3494 53.0139 20.4203 52.6293 20.4008C51.6762 20.3666 50.7744 19.9606 50.117 19.2697C49.4596 18.5788 49.0989 17.6579 49.1121 16.7043ZM52.8087 14.456C53.0886 14.4679 53.3631 14.5365 53.6157 14.6577C53.8683 14.7789 54.0936 14.9501 54.278 15.161C54.4625 15.3719 54.6021 15.618 54.6886 15.8845C54.7751 16.1509 54.8065 16.4322 54.7811 16.7112C54.8036 16.9907 54.7691 17.272 54.6796 17.5378C54.5901 17.8036 54.4475 18.0485 54.2604 18.2575C54.0734 18.4665 53.8458 18.6352 53.5915 18.7535C53.3371 18.8718 53.0614 18.9372 52.7811 18.9456C52.4961 18.9464 52.2141 18.8883 51.9526 18.775C51.6912 18.6616 51.456 18.4955 51.2617 18.287C51.0675 18.0785 50.9184 17.8322 50.8238 17.5634C50.7292 17.2946 50.6912 17.0091 50.7121 16.7249C50.6934 16.4366 50.7335 16.1474 50.83 15.8751C50.9265 15.6027 51.0774 15.3528 51.2735 15.1406C51.4696 14.9283 51.7068 14.7582 51.9707 14.6405C52.2346 14.5228 52.5197 14.46 52.8087 14.456ZM59.9742 16.6905C59.9481 16.2193 60.0176 15.7478 60.1786 15.3043C60.3395 14.8607 60.5886 14.4544 60.9108 14.1096C61.233 13.7649 61.6216 13.4889 62.0532 13.2984C62.4849 13.1078 62.9506 13.0066 63.4225 13.0008C64.0922 13.0121 64.7431 13.2247 65.2904 13.6109C65.8378 13.9971 66.2562 14.5391 66.4914 15.1663L66.7466 15.7663L61.7949 17.8353C61.9503 18.1824 62.2061 18.4751 62.5294 18.6754C62.8527 18.8758 63.2286 18.9747 63.6087 18.9594C63.9744 18.9621 64.3343 18.8678 64.6517 18.686C64.9691 18.5043 65.2327 18.2417 65.4156 17.9249L66.6983 18.7801C66.352 19.2808 65.8893 19.69 65.3499 19.9723C64.8105 20.2546 64.2106 20.4016 63.6018 20.4008C63.1162 20.4087 62.6341 20.3174 62.1849 20.1327C61.7358 19.9479 61.329 19.6736 60.9895 19.3263C60.65 18.979 60.3848 18.5662 60.2103 18.113C60.0357 17.6598 59.9554 17.1758 59.9742 16.6905ZM63.4845 14.4215C63.7654 14.4075 64.0445 14.474 64.2889 14.6133C64.5333 14.7526 64.7327 14.9588 64.8638 15.2077L61.5535 16.587C61.5252 16.0415 61.7139 15.507 62.0782 15.1C62.4425 14.693 62.953 14.4466 63.4983 14.4146L63.4845 14.4215ZM59.0776 20.1801H57.4431V9.28357H59.0776V20.1801ZM79.2707 20.1801H80.8983V9.28357H79.2707V20.1801ZM72.2638 20.1801H70.6362V9.28357H74.5742C75.4951 9.28357 76.3783 9.64941 77.0295 10.3006C77.6807 10.9518 78.0466 11.835 78.0466 12.756C78.0466 13.6769 77.6807 14.5601 77.0295 15.2113C76.3783 15.8626 75.4951 16.2284 74.5742 16.2284H72.2638V20.1801ZM72.2638 14.6008V10.9112H74.5742C74.8259 10.8958 75.0782 10.932 75.3154 11.0178C75.5526 11.1035 75.7697 11.2369 75.9534 11.4097C76.1371 11.5826 76.2835 11.7912 76.3836 12.0227C76.4837 12.2542 76.5353 12.5038 76.5353 12.756C76.5353 13.0082 76.4837 13.2578 76.3836 13.4893C76.2835 13.7208 76.1371 13.9294 75.9534 14.1022C75.7697 14.275 75.5526 14.4084 75.3154 14.4942C75.0782 14.5799 74.8259 14.6162 74.5742 14.6008H72.2638ZM92.919 23.7249L97.6293 13.0008H95.85L93.719 17.8284L91.588 13.0008H89.8087L92.8293 19.8974L91.1397 23.7249H92.919ZM87.5604 20.1801H89.188V16.2629C89.4431 12.2215 84.319 11.2698 82.3811 14.1939L83.6914 15.0698C84.6362 13.4146 87.3466 13.7939 87.519 15.5663C86.7118 15.328 85.8697 15.23 85.0294 15.2767C84.4176 15.302 83.8337 15.5395 83.3781 15.9486C82.9225 16.3576 82.6236 16.9125 82.5328 17.518C82.4747 17.8882 82.4943 18.2665 82.5905 18.6286C82.6866 18.9908 82.8573 19.3289 83.0914 19.6215C83.4964 19.9925 83.9933 20.2482 84.5306 20.3623C85.0679 20.4763 85.6258 20.4443 86.1466 20.2698C86.7065 20.1097 87.2014 19.7766 87.5604 19.3181V20.1801ZM85.7604 18.8008C86.1969 18.6954 86.596 18.4715 86.9135 18.154C87.2311 17.8364 87.4549 17.4374 87.5604 17.0008C87.1117 16.85 86.6499 16.7414 86.1811 16.6767C83.4087 16.2836 83.8776 19.3456 85.7604 18.8284V18.8008ZM36.8362 5.40771H36.0914V0.449085H36.8362V5.40771ZM31.9466 5.40771H32.6845V1.19391H33.9052V0.449085H30.7259V1.19391H31.9466V5.40771ZM29.9466 5.40771H27.1052V0.449085H29.9466V1.19391H27.8776V2.57322H29.7259V3.31115H27.85V4.69046H29.919L29.9466 5.40771ZM39.3949 5.40771V1.19391H40.588V0.449085H37.4156V1.19391H38.6293V5.40771H39.3949ZM42.519 2.88357C42.5176 2.36222 42.671 1.8522 42.9596 1.41805C43.2483 0.983908 43.6593 0.645167 44.1405 0.444711C44.6218 0.244256 45.1517 0.1911 45.6632 0.291972C46.1747 0.392843 46.6448 0.643208 47.0139 1.01137C47.383 1.37953 47.6346 1.84894 47.7368 2.36017C47.839 2.87139 47.7873 3.40145 47.5881 3.88324C47.3889 4.36504 47.0512 4.77689 46.6178 5.06668C46.1845 5.35647 45.6748 5.51115 45.1535 5.51115C44.4576 5.50577 43.7917 5.22742 43.299 4.73601C42.8063 4.2446 42.5262 3.5794 42.519 2.88357ZM45.1535 4.79391C44.7748 4.80352 44.4019 4.69992 44.0824 4.49639C43.763 4.29285 43.5115 3.99863 43.3602 3.65137C43.2089 3.30411 43.1647 2.9196 43.2331 2.54705C43.3016 2.1745 43.4796 1.83084 43.7445 1.56006C44.0094 1.28928 44.349 1.10368 44.72 1.02702C45.0909 0.950356 45.4763 0.986115 45.8268 1.12972C46.1774 1.27332 46.477 1.51824 46.6876 1.83313C46.8981 2.14803 47.0099 2.51857 47.0087 2.89736C47.0123 3.14395 46.9671 3.38883 46.8757 3.61787C46.7843 3.84692 46.6484 4.0556 46.476 4.2319C46.3035 4.4082 46.0979 4.54862 45.8709 4.64508C45.6439 4.74154 45.4001 4.79212 45.1535 4.79391ZM49.2914 5.40771H48.5328V0.449085H49.2707L51.6225 4.06288V0.449085H52.3604V5.40771H51.6225L49.2707 1.79391L49.2914 5.40771ZM1.00176 6.48357L9.36728 14.8146L1.03625 23.2491C0.906379 23.1393 0.80477 23 0.739964 22.8427C0.675157 22.6855 0.649048 22.515 0.663833 22.3456L0.587971 7.36633C0.572419 7.1957 0.602547 7.02402 0.675266 6.86888C0.747984 6.71375 0.860672 6.58076 1.00176 6.48357ZM1.96728 6.48357L12.1259 12.0008L9.71211 14.4491L1.59487 6.35943C1.72553 6.37777 1.85174 6.41984 1.96728 6.48357ZM12.5811 17.3318L10.0638 14.8146L12.5811 12.2698L16.0293 14.1594C16.8845 14.6215 16.4431 15.2077 16.0293 15.4353L12.5811 17.3318ZM1.96728 23.1456C1.89349 23.1845 1.8175 23.2191 1.73969 23.2491L9.719 15.1663L12.1328 17.5732L1.96728 23.1456Z" fill="#F8F8F8"/>
</svg>
