<svg width="407" height="323" viewBox="0 0 407 323" fill="none" xmlns="http://www.w3.org/2000/svg">
<path d="M288.695 319.409H140.153C119.732 287.443 145.774 292.518 145.774 292.518C126.118 270.069 123.751 240.495 171.804 229.969C219.857 219.443 243.641 275.508 243.641 275.508C276.105 259.07 288.695 319.409 288.695 319.409Z" fill="#E4E4EF"/>
<path d="M205.743 319.376H203.849C199.357 303.946 187.655 270.476 167.017 253.918C166.848 253.768 166.741 253.561 166.716 253.337C166.692 253.112 166.751 252.887 166.883 252.704C167.035 252.519 167.253 252.4 167.491 252.373C167.729 252.346 167.968 252.412 168.158 252.558C189.391 269.542 201.288 303.958 205.743 319.376Z" fill="white"/>
<path d="M186.528 319.406H184.197C179.342 312.997 170.565 304.075 155.634 297.192C155.525 297.142 155.427 297.071 155.345 296.982C155.264 296.894 155.2 296.791 155.158 296.678C155.117 296.565 155.098 296.446 155.102 296.325C155.107 296.205 155.135 296.087 155.185 295.978C155.236 295.869 155.307 295.771 155.395 295.689C155.483 295.607 155.586 295.544 155.699 295.502C155.812 295.46 155.932 295.441 156.052 295.446C156.172 295.451 156.29 295.479 156.399 295.529C172.762 303.055 181.818 312.766 186.528 319.406Z" fill="white"/>
<path d="M169.336 293.144C169.096 293.141 168.866 293.044 168.696 292.874C168.526 292.704 168.429 292.474 168.426 292.234V282.098C168.426 281.856 168.522 281.625 168.692 281.454C168.863 281.283 169.095 281.188 169.336 281.188C169.578 281.188 169.809 281.283 169.98 281.454C170.151 281.625 170.247 281.856 170.247 282.098V292.234C170.243 292.474 170.147 292.704 169.976 292.874C169.806 293.044 169.577 293.141 169.336 293.144Z" fill="white"/>
<path d="M126.098 320.155C125.961 320.147 125.827 320.108 125.707 320.04C125.587 319.973 125.484 319.88 125.406 319.767L118.123 309.655C118.053 309.557 118.003 309.447 117.976 309.329C117.949 309.212 117.946 309.091 117.966 308.972C117.987 308.854 118.03 308.741 118.094 308.639C118.159 308.537 118.243 308.45 118.341 308.381C118.533 308.255 118.766 308.208 118.991 308.249C119.217 308.289 119.419 308.415 119.555 308.599L126.838 318.711C126.909 318.808 126.959 318.918 126.987 319.035C127.015 319.151 127.019 319.273 127 319.391C126.981 319.509 126.939 319.623 126.875 319.725C126.812 319.827 126.729 319.915 126.632 319.985C126.475 320.094 126.289 320.153 126.098 320.155Z" fill="#E4E4EF"/>
<path d="M117.066 320.317C116.842 320.317 116.626 320.235 116.459 320.086L112.21 316.287C112.032 316.124 111.925 315.899 111.912 315.658C111.898 315.418 111.979 315.182 112.137 315C112.217 314.911 112.313 314.838 112.421 314.786C112.529 314.734 112.646 314.704 112.765 314.697C112.885 314.69 113.005 314.707 113.118 314.746C113.231 314.786 113.335 314.847 113.424 314.927L117.672 318.727C117.762 318.806 117.835 318.903 117.887 319.011C117.939 319.118 117.969 319.235 117.976 319.355C117.983 319.474 117.966 319.594 117.926 319.707C117.887 319.82 117.825 319.924 117.745 320.013C117.661 320.11 117.556 320.188 117.439 320.24C117.321 320.292 117.194 320.319 117.066 320.317Z" fill="#E4E4EF"/>
<path d="M121.938 68.6345C119.075 68.4433 116.282 67.6666 113.732 66.3524C108.816 64.2281 104.167 62.2252 97.5994 67.3721C97.5053 67.4462 97.3976 67.5011 97.2824 67.5336C97.1671 67.5661 97.0466 67.5755 96.9277 67.5614C96.8087 67.5473 96.6938 67.51 96.5893 67.4514C96.4848 67.3929 96.3929 67.3144 96.3188 67.2203C96.2446 67.1263 96.1898 67.0186 96.1573 66.9033C96.1248 66.788 96.1153 66.6675 96.1294 66.5486C96.1435 66.4297 96.1809 66.3147 96.2394 66.2102C96.2979 66.1057 96.3764 66.0138 96.4705 65.9397C103.887 60.1251 109.496 62.5408 114.448 64.7258C118.976 66.6802 122.945 68.3675 128.068 64.7258C128.265 64.5986 128.503 64.5522 128.733 64.5962C128.963 64.6401 129.167 64.7711 129.303 64.9618C129.439 65.1525 129.497 65.3884 129.463 65.6202C129.43 65.8521 129.308 66.0622 129.124 66.2067C127.05 67.7628 124.531 68.6137 121.938 68.6345Z" fill="#E4E4EF"/>
<path d="M110.855 89.8122C110.735 89.815 110.615 89.7926 110.505 89.7466C110.394 89.7006 110.294 89.632 110.211 89.5452L96.385 75.7068C96.2242 75.5343 96.1366 75.306 96.1408 75.0701C96.1449 74.8343 96.2405 74.6092 96.4073 74.4424C96.5741 74.2756 96.7991 74.1801 97.035 74.1759C97.2709 74.1718 97.4991 74.2593 97.6717 74.4201L111.534 88.2706C111.705 88.4413 111.801 88.6727 111.801 88.914C111.801 89.1552 111.705 89.3866 111.534 89.5573C111.445 89.6448 111.338 89.7126 111.221 89.7565C111.104 89.8004 110.979 89.8194 110.855 89.8122Z" fill="#E4E4EF"/>
<path d="M97.0287 89.8127C96.9091 89.8132 96.7906 89.7899 96.6802 89.7441C96.5697 89.6982 96.4694 89.6307 96.3854 89.5456C96.2149 89.3749 96.1191 89.1435 96.1191 88.9023C96.1191 88.661 96.2149 88.4296 96.3854 88.2589L110.248 74.4084C110.421 74.2476 110.649 74.16 110.885 74.1642C111.121 74.1684 111.346 74.2639 111.512 74.4307C111.679 74.5975 111.775 74.8226 111.779 75.0584C111.783 75.2943 111.696 75.5226 111.535 75.6951L97.6721 89.5456C97.5894 89.6325 97.4894 89.7011 97.3786 89.7471C97.2679 89.793 97.1487 89.8154 97.0287 89.8127Z" fill="#E4E4EF"/>
<path d="M234.398 24.2573L251.539 14.3398L250.919 33.7621L234.398 24.2573Z" fill="#E4E4EF"/>
<path d="M407.001 17.2388L385.039 0L367.8 21.9618L389.762 39.2006L407.001 17.2388Z" fill="#E4E4EF"/>
<path d="M353.373 91.9883L319.383 146.312C319.383 146.312 348.517 157.238 362.174 133.869C375.831 110.501 353.373 91.9883 353.373 91.9883Z" fill="#E4E4EF"/>
<path d="M298.634 182.962C298.476 182.974 298.318 182.944 298.176 182.876C298.033 182.808 297.911 182.704 297.821 182.574C297.821 182.501 292.564 174.464 277.899 173.7C272.485 173.42 267.447 175.144 262.117 176.965C252.478 180.279 242.512 183.691 229.061 176.006C228.87 175.878 228.735 175.682 228.682 175.459C228.63 175.235 228.664 175 228.777 174.8C228.891 174.6 229.076 174.451 229.295 174.382C229.514 174.313 229.752 174.33 229.959 174.428C242.694 181.712 252.272 178.422 261.523 175.254C267.034 173.36 272.23 171.612 277.996 171.879C293.681 172.704 299.144 181.251 299.362 181.591C299.478 181.792 299.512 182.03 299.458 182.255C299.403 182.481 299.265 182.677 299.071 182.804C298.943 182.896 298.791 182.951 298.634 182.962Z" fill="#E4E4EF"/>
<path d="M298.635 193.069C298.481 193.068 298.329 193.028 298.193 192.954C298.058 192.88 297.943 192.773 297.858 192.644C297.858 192.559 292.602 184.534 277.937 183.757C272.547 183.478 267.484 185.202 262.155 187.035C252.516 190.337 242.537 193.748 229.098 186.064C228.894 185.947 228.743 185.754 228.68 185.527C228.616 185.299 228.644 185.056 228.758 184.85C228.878 184.648 229.071 184.499 229.297 184.436C229.523 184.373 229.765 184.399 229.972 184.51C242.707 191.794 252.285 188.504 261.536 185.336C267.047 183.442 272.267 181.694 278.01 181.961C293.694 182.786 299.157 191.345 299.376 191.673C299.488 191.875 299.52 192.111 299.466 192.336C299.413 192.561 299.276 192.757 299.084 192.887C298.953 192.985 298.798 193.047 298.635 193.069Z" fill="#E4E4EF"/>
<path d="M144.555 197.496C163.688 214.493 181.827 231.781 195.728 253.987C206.314 270.921 213.72 289.645 217.581 309.239L269.252 305.597C269.252 305.597 269.519 300.741 259.248 295.739C248.977 290.737 247.86 280.308 239.313 252.105C223.846 201.017 192.608 178.896 156.829 158.621L144.555 197.496Z" fill="#FF3E6C"/>
<path d="M245.681 282.656C234.622 285.084 223.539 287.439 212.492 289.939C214.536 296.265 216.222 302.701 217.542 309.217L269.207 305.575C269.207 305.575 269.475 300.719 259.205 295.718C253.96 293.156 251.096 289.162 248.413 282.109L245.681 282.656Z" fill="#030047"/>
<path d="M229.516 207.743C212.908 183.645 181.174 172.366 156.796 158.551L144.559 197.485C160.341 211.555 175.492 225.796 188.118 242.841C200.513 234.61 219.67 219.046 229.516 207.743Z" fill="#227FDA"/>
<path d="M187.033 236.897C186.846 236.898 186.664 236.841 186.511 236.735C186.358 236.629 186.241 236.478 186.176 236.304C186.111 236.129 186.102 235.939 186.148 235.758C186.195 235.578 186.296 235.416 186.438 235.295C206.455 218.3 218.412 207.594 221.981 203.612C222.143 203.435 222.369 203.328 222.609 203.314C222.85 203.3 223.086 203.381 223.267 203.54C223.357 203.619 223.429 203.716 223.481 203.823C223.534 203.931 223.564 204.048 223.571 204.168C223.577 204.287 223.56 204.407 223.521 204.52C223.481 204.633 223.42 204.737 223.34 204.826C219.698 208.868 207.693 219.587 187.627 236.679C187.461 236.82 187.251 236.897 187.033 236.897Z" fill="white"/>
<path d="M252.261 288.677C249.513 289.655 247.04 291.278 245.05 293.411C244.528 293.982 245.378 294.843 245.912 294.273C247.744 292.284 250.031 290.768 252.576 289.854C253.317 289.587 253.001 288.422 252.261 288.677Z" fill="white"/>
<path d="M256.725 292.288L251.869 295.153C251.748 295.241 251.663 295.372 251.632 295.519C251.601 295.666 251.626 295.819 251.701 295.949C251.777 296.079 251.898 296.176 252.041 296.222C252.184 296.268 252.339 296.259 252.476 296.197L257.332 293.332C257.453 293.244 257.538 293.113 257.568 292.966C257.599 292.819 257.575 292.666 257.499 292.536C257.424 292.406 257.303 292.309 257.16 292.263C257.017 292.217 256.862 292.226 256.725 292.288Z" fill="white"/>
<path d="M224.502 236.189C223.589 236.206 222.692 235.945 221.93 235.443C221.167 234.94 220.575 234.219 220.229 233.373C219.926 232.657 218.87 233.276 219.173 233.98C219.625 235.012 220.372 235.888 221.321 236.497C222.269 237.106 223.376 237.421 224.502 237.403C224.663 237.403 224.818 237.339 224.932 237.225C225.045 237.112 225.109 236.957 225.109 236.796C225.109 236.635 225.045 236.481 224.932 236.367C224.818 236.253 224.663 236.189 224.502 236.189Z" fill="#282828"/>
<path d="M219.447 322.159C221.277 322.159 222.761 320.675 222.761 318.845C222.761 317.015 221.277 315.531 219.447 315.531C217.617 315.531 216.133 317.015 216.133 318.845C216.133 320.675 217.617 322.159 219.447 322.159Z" fill="#030047"/>
<path d="M236.478 322.159C238.308 322.159 239.792 320.675 239.792 318.845C239.792 317.015 238.308 315.531 236.478 315.531C234.648 315.531 233.164 317.015 233.164 318.845C233.164 320.675 234.648 322.159 236.478 322.159Z" fill="#030047"/>
<path d="M253.517 322.159C255.347 322.159 256.831 320.675 256.831 318.845C256.831 317.015 255.347 315.531 253.517 315.531C251.687 315.531 250.203 317.015 250.203 318.845C250.203 320.675 251.687 322.159 253.517 322.159Z" fill="#030047"/>
<path d="M270.56 322.159C272.39 322.159 273.874 320.675 273.874 318.845C273.874 317.015 272.39 315.531 270.56 315.531C268.73 315.531 267.246 317.015 267.246 318.845C267.246 320.675 268.73 322.159 270.56 322.159Z" fill="#030047"/>
<path d="M120.071 156.965C104.106 176.985 87.8498 196.034 66.4335 211.113C50.1075 222.578 31.8283 230.971 12.4922 235.88L18.9632 287.271C18.9632 287.271 23.8195 287.271 28.2752 276.758C32.7308 266.244 43.0747 264.544 70.7678 254.491C120.945 236.28 141.342 203.913 159.674 167.078L120.071 156.965Z" fill="#FF3E6C"/>
<path d="M40.4697 262.515C37.4591 251.589 34.4971 240.664 31.4137 229.738C25.2024 232.112 18.8639 234.138 12.4277 235.808L18.898 287.194C18.898 287.194 23.7538 287.194 28.2089 276.681C30.479 271.291 34.2786 268.184 41.2102 265.161C40.9674 264.299 40.7246 263.401 40.4697 262.515Z" fill="#030047"/>
<path d="M114.488 242.346C137.555 224.464 152.973 192.973 165.477 167.891L120.109 156.965C106.913 173.512 93.5101 189.379 77.1816 202.903C86.0318 214.837 102.615 233.132 114.488 242.346Z" fill="#227FDA"/>
<path d="M148.85 199.256C148.701 199.256 148.555 199.218 148.425 199.147C148.214 199.036 148.055 198.846 147.983 198.619C147.91 198.392 147.929 198.146 148.036 197.933L152.528 189.351H153.074C156.443 189.123 159.738 188.258 162.785 186.802C163.005 186.709 163.252 186.707 163.473 186.794C163.694 186.882 163.873 187.053 163.97 187.271C164.066 187.488 164.074 187.735 163.991 187.958C163.908 188.181 163.741 188.363 163.526 188.465C160.399 189.934 157.038 190.842 153.596 191.147L149.699 198.771C149.619 198.924 149.496 199.051 149.345 199.137C149.195 199.223 149.023 199.264 148.85 199.256Z" fill="white"/>
<path d="M117.044 234.88C116.824 234.878 116.613 234.796 116.449 234.649C116.207 234.443 92.1716 213.709 83.1281 201.315C83.0163 201.118 82.9808 200.887 83.0285 200.666C83.0762 200.444 83.2037 200.248 83.3867 200.115C83.5697 199.981 83.7954 199.92 84.0208 199.942C84.2462 199.964 84.4556 200.068 84.609 200.235C93.5433 212.471 117.384 233.071 117.639 233.277C117.73 233.355 117.805 233.45 117.859 233.557C117.913 233.664 117.946 233.781 117.955 233.9C117.964 234.02 117.949 234.14 117.912 234.254C117.874 234.368 117.814 234.473 117.736 234.564C117.65 234.663 117.543 234.742 117.424 234.796C117.305 234.851 117.175 234.879 117.044 234.88Z" fill="white"/>
<path d="M36.1414 271.259C34.3261 269.454 32.3147 267.858 30.1448 266.5C29.4893 266.087 28.9309 267.144 29.5378 267.556C31.6148 268.856 33.5406 270.383 35.2795 272.108C35.3949 272.209 35.5439 272.262 35.6967 272.257C35.8496 272.252 35.995 272.19 36.1038 272.083C36.2127 271.975 36.2771 271.831 36.284 271.678C36.291 271.525 36.24 271.375 36.1414 271.259Z" fill="white"/>
<path d="M32.5613 275.219L26.4919 271.772C25.8121 271.396 25.193 272.44 25.8728 272.828L31.9422 276.275C32.622 276.652 33.2411 275.608 32.5613 275.219Z" fill="white"/>
<path d="M91.888 237.526C90.861 238.063 89.9997 238.871 89.3966 239.861C88.7935 240.851 88.4714 241.987 88.4648 243.146C88.4648 243.307 88.5288 243.461 88.6426 243.575C88.7564 243.689 88.9108 243.753 89.0718 243.753C89.2328 243.753 89.3871 243.689 89.501 243.575C89.6148 243.461 89.6787 243.307 89.6787 243.146C89.6808 242.196 89.9463 241.266 90.4456 240.458C90.9449 239.65 91.6586 238.996 92.5071 238.57C93.199 238.205 92.6406 237.198 91.888 237.526Z" fill="#282828"/>
<path d="M3.31392 243.015C5.14415 243.015 6.62784 241.531 6.62784 239.701C6.62784 237.87 5.14415 236.387 3.31392 236.387C1.48369 236.387 0 237.87 0 239.701C0 241.531 1.48369 243.015 3.31392 243.015Z" fill="#030047"/>
<path d="M5.81392 259.862C7.64415 259.862 9.12784 258.379 9.12784 256.548C9.12784 254.718 7.64415 253.234 5.81392 253.234C3.98369 253.234 2.5 254.718 2.5 256.548C2.5 258.379 3.98369 259.862 5.81392 259.862Z" fill="#030047"/>
<path d="M8.31197 276.726C10.1422 276.726 11.6259 275.242 11.6259 273.412C11.6259 271.581 10.1422 270.098 8.31197 270.098C6.48174 270.098 4.99805 271.581 4.99805 273.412C4.99805 275.242 6.48174 276.726 8.31197 276.726Z" fill="#030047"/>
<path d="M10.8081 293.573C12.6383 293.573 14.122 292.089 14.122 290.259C14.122 288.429 12.6383 286.945 10.8081 286.945C8.97783 286.945 7.49414 288.429 7.49414 290.259C7.49414 292.089 8.97783 293.573 10.8081 293.573Z" fill="#030047"/>
<path d="M303.867 19.6211L262.471 65.5216V84.5083L303.867 85.2124V19.6211Z" fill="#F2F2F9"/>
<path d="M391.669 19.6211H303.859V85.2265H391.669V19.6211Z" fill="#F2F2F9"/>
<path d="M329.71 33.1016H327.282C325.271 33.1016 323.641 34.732 323.641 36.7432C323.641 38.7545 325.271 40.3849 327.282 40.3849H329.71C331.721 40.3849 333.352 38.7545 333.352 36.7432C333.352 34.732 331.721 33.1016 329.71 33.1016Z" fill="#FF3E6C"/>
<path d="M350.36 33.1016H340.042C338.031 33.1016 336.4 34.732 336.4 36.7432C336.4 38.7545 338.031 40.3849 340.042 40.3849H350.36C352.371 40.3849 354.002 38.7545 354.002 36.7432C354.002 34.732 352.371 33.1016 350.36 33.1016Z" fill="#FF3E6C"/>
<path d="M358.239 49.1568H324.25C324.009 49.1568 323.777 49.0608 323.606 48.8901C323.436 48.7194 323.34 48.4878 323.34 48.2464C323.34 48.0049 323.436 47.7733 323.606 47.6026C323.777 47.4319 324.009 47.3359 324.25 47.3359H358.239C358.481 47.3359 358.712 47.4319 358.883 47.6026C359.054 47.7733 359.15 48.0049 359.15 48.2464C359.15 48.4878 359.054 48.7194 358.883 48.8901C358.712 49.0608 358.481 49.1568 358.239 49.1568Z" fill="#FF3E6C"/>
<path d="M358.239 56.4497H324.25C324.009 56.4497 323.777 56.3538 323.606 56.1831C323.436 56.0123 323.34 55.7808 323.34 55.5393C323.34 55.2979 323.436 55.0663 323.606 54.8956C323.777 54.7248 324.009 54.6289 324.25 54.6289H358.239C358.481 54.6289 358.712 54.7248 358.883 54.8956C359.054 55.0663 359.15 55.2979 359.15 55.5393C359.15 55.7808 359.054 56.0123 358.883 56.1831C358.712 56.3538 358.481 56.4497 358.239 56.4497Z" fill="#FF3E6C"/>
<path d="M358.239 63.7701H324.25C324.009 63.7701 323.777 63.6741 323.606 63.5034C323.436 63.3326 323.34 63.1011 323.34 62.8596C323.34 62.6182 323.436 62.3866 323.606 62.2159C323.777 62.0451 324.009 61.9492 324.25 61.9492H358.239C358.481 61.9492 358.712 62.0451 358.883 62.2159C359.054 62.3866 359.15 62.6182 359.15 62.8596C359.15 63.1011 359.054 63.3326 358.883 63.5034C358.712 63.6741 358.481 63.7701 358.239 63.7701Z" fill="#FF3E6C"/>
<path d="M368.367 65.3495V42.1642C368.367 42.1642 380.81 42.0063 380.81 53.7568C380.81 62.6182 375.347 65.046 368.367 65.3495Z" fill="white"/>
<path d="M277.974 63.9123C277.815 63.9107 277.659 63.8686 277.521 63.79C277.383 63.7114 277.268 63.5989 277.185 63.4632C277.073 63.2575 277.045 63.0166 277.106 62.7906C277.167 62.5645 277.313 62.3707 277.513 62.2493L305.432 45.7282C305.637 45.6132 305.879 45.5831 306.106 45.6443C306.333 45.7056 306.527 45.8534 306.646 46.056C306.759 46.2602 306.789 46.5001 306.731 46.726C306.672 46.9519 306.529 47.1466 306.331 47.2699L278.411 63.7788C278.279 63.8592 278.129 63.9052 277.974 63.9123Z" fill="#0F5294"/>
<path d="M283.239 70.3959C282.998 70.4072 282.762 70.3221 282.583 70.1593C282.404 69.9965 282.297 69.7695 282.286 69.528C282.275 69.2865 282.36 69.0505 282.523 68.8718C282.685 68.6931 282.913 68.5864 283.154 68.5751L305.866 66.3172C306.098 66.3073 306.325 66.3865 306.501 66.5386C306.677 66.6908 306.788 66.9044 306.811 67.1356C306.834 67.3669 306.768 67.5983 306.626 67.7824C306.484 67.9665 306.278 68.0894 306.048 68.126L283.239 70.3838V70.3959Z" fill="#0F5294"/>
<path d="M163.232 85.1836C125.597 112.122 116.031 135.03 80.8252 134.436C55.9746 134.011 65.7958 141.999 65.7958 141.999C65.7958 141.999 59.5802 145.884 64.3026 149.283C64.3026 149.283 59.7865 154.564 65.1524 156.858C70.5183 159.153 84.2608 161.216 101.427 158.218C118.593 155.219 137.046 148.142 156.372 121.871C175.699 95.5997 163.232 85.1836 163.232 85.1836Z" fill="#FF3E6C"/>
<path d="M139.848 140.212C146.005 134.721 151.545 128.574 156.369 121.881C175.695 95.6239 163.228 85.1719 163.228 85.1719C147.119 96.7164 136.145 107.521 126.094 116.055C130.488 124.196 135.073 132.248 139.848 140.212Z" fill="#0F5294"/>
<path d="M82.9886 155.719L80.4152 158.571C80.4152 158.571 73.326 160.016 74.1879 164.131C75.0498 168.246 91.1824 162.917 98.2351 156.945C105.288 150.972 83.8505 150.195 83.8505 150.195L82.9886 155.719Z" fill="#FF3E6C"/>
<path d="M90.0383 149.6C89.087 149.335 88.0834 149.321 87.1253 149.56C86.1671 149.798 85.287 150.281 84.5708 150.96C83.8545 151.64 83.3264 152.494 83.0379 153.438C82.7495 154.382 82.7106 155.385 82.9249 156.349L81.2376 157.357C81.1021 157.44 81.0049 157.573 80.9668 157.728C80.9288 157.883 80.9529 158.046 81.0341 158.183C81.1153 158.32 81.247 158.419 81.4009 158.46C81.5547 158.501 81.7184 158.479 81.8567 158.4L83.9203 157.187C84.0343 157.116 84.1228 157.011 84.173 156.886C84.2232 156.762 84.2325 156.625 84.1995 156.495C83.9519 155.72 83.9189 154.892 84.1039 154.1C84.2889 153.308 84.6851 152.58 85.2503 151.995C85.8155 151.41 86.5286 150.989 87.314 150.777C88.0993 150.564 88.9275 150.569 89.7105 150.789C89.8683 150.833 90.0368 150.812 90.1791 150.731C90.3214 150.65 90.4257 150.516 90.4692 150.358C90.5127 150.201 90.4917 150.032 90.4109 149.89C90.33 149.748 90.196 149.643 90.0383 149.6Z" fill="#030047"/>
<path d="M75.5135 149.808C71.8877 149.359 68.2226 149.322 64.5885 149.699C63.8116 149.784 63.8116 150.998 64.5885 150.913C68.2226 150.536 71.8877 150.573 75.5135 151.022C76.2783 151.107 76.2783 149.893 75.5135 149.808Z" fill="#030047"/>
<path d="M77.9074 142.261C74.2816 141.812 70.6165 141.775 66.9824 142.152C66.2177 142.237 66.2055 143.451 66.9824 143.366C70.6165 142.989 74.2816 143.026 77.9074 143.475C78.6843 143.572 78.6722 142.358 77.9074 142.261Z" fill="#030047"/>
<path d="M177.619 70.1452C176.82 71.172 175.816 72.022 174.672 72.6416C173.528 73.2613 172.268 73.6371 170.971 73.7454C169.674 73.8538 168.369 73.6923 167.138 73.2711C165.907 72.85 164.776 72.1783 163.817 71.2985C160.661 68.5065 161.39 63.5295 166.245 61.4781C168.209 60.6941 170.332 60.3943 172.436 60.6041C173.654 61.2088 174.802 61.9456 175.859 62.8012C177.996 64.5735 179.95 67.2319 177.619 70.1452Z" fill="#FF3E6C"/>
<path d="M199.995 56.8387C202.217 64.6804 198.781 75.7633 186.436 76.261C182.062 76.3573 177.81 74.8119 174.518 71.9292C171.227 69.0465 169.134 65.0356 168.653 60.6867C167.439 50.9756 173.508 42.357 182.212 41.2645C190.915 40.172 197.337 47.4917 199.995 56.8387Z" fill="#FF3E6C"/>
<path d="M187.548 59.6465C188.218 59.6465 188.762 59.1031 188.762 58.4326C188.762 57.7622 188.218 57.2188 187.548 57.2188C186.877 57.2188 186.334 57.7622 186.334 58.4326C186.334 59.1031 186.877 59.6465 187.548 59.6465Z" fill="#030047"/>
<path d="M196.906 62.4766C196.22 59.8508 195.161 57.3369 193.762 55.0111C193.362 54.3435 192.306 54.9383 192.706 55.6059C194.049 57.8416 195.067 60.2572 195.729 62.78C195.769 62.9362 195.87 63.0699 196.009 63.1519C196.148 63.2338 196.313 63.2573 196.469 63.217C196.626 63.1768 196.759 63.0762 196.841 62.9373C196.923 62.7984 196.947 62.6327 196.906 62.4766Z" fill="#030047"/>
<path d="M190.958 46.5782C187.535 48.5083 172.92 50.8633 175.712 58.62C176.416 60.5865 177.52 61.6183 175.784 62.8322C173.854 63.8155 172.361 60.6351 172.361 60.6351C170.257 60.4253 168.134 60.7251 166.17 61.5091C161.691 54.2257 163.743 48.2413 167.178 46.9424C167.178 46.9424 168.538 29.4866 177.63 34.0023C177.63 34.0023 185.265 20.1275 195.34 29.8144C205.415 39.5012 190.958 46.5782 190.958 46.5782Z" fill="#227FDA"/>
<path d="M173.478 66.368C172.452 65.4246 171.139 64.8541 169.749 64.7483C168.36 64.6426 166.975 65.0079 165.818 65.7854C165.175 66.2224 165.819 67.2906 166.413 66.8536C167.333 66.2005 168.447 65.8806 169.573 65.9468C170.698 66.013 171.768 66.4614 172.604 67.2178C173.187 67.7397 174.061 66.9021 173.478 66.368Z" fill="#030047"/>
<path d="M112.234 157.551C125.535 143.47 136.04 126.991 143.192 108.99C153.936 83.0952 183.448 68.3207 192.76 99.885C202.071 131.449 185.816 176.975 185.816 176.975C185.816 176.975 120.732 166.049 112.234 157.551Z" fill="#0F5294"/>
<path d="M135.714 125.814C135.578 125.812 135.445 125.779 135.325 125.717C135.108 125.612 134.941 125.426 134.859 125.199C134.778 124.972 134.788 124.723 134.888 124.503C141.419 110.774 144.818 103.43 144.854 103.357C144.902 103.246 144.973 103.147 145.061 103.064C145.149 102.981 145.253 102.918 145.367 102.877C145.481 102.836 145.601 102.818 145.722 102.826C145.843 102.833 145.96 102.866 146.068 102.92C146.178 102.97 146.276 103.041 146.358 103.129C146.44 103.217 146.504 103.321 146.546 103.433C146.588 103.546 146.607 103.666 146.602 103.787C146.597 103.907 146.568 104.025 146.517 104.134C146.517 104.207 143.07 111.563 136.551 125.304C136.474 125.459 136.354 125.59 136.206 125.68C136.058 125.77 135.887 125.817 135.714 125.814Z" fill="white"/>
<path d="M238.719 99.9056C247.726 76.2954 259.598 74.0133 264.332 72.3867L261.783 88.9442L238.719 99.9056Z" fill="#FF3E6C"/>
<path d="M266.905 100.232L255.312 92.0748C254.919 91.7987 254.608 91.4218 254.412 90.9839C254.215 90.546 254.14 90.0632 254.195 89.5863L257.63 59.8217C257.684 59.365 257.855 58.9299 258.127 58.5591C258.399 58.1882 258.762 57.8942 259.182 57.7059C259.601 57.5175 260.063 57.4412 260.52 57.4844C260.978 57.5276 261.417 57.6889 261.794 57.9524L273.423 66.1097C273.808 66.3789 274.114 66.7456 274.31 67.1723C274.507 67.5989 274.586 68.0701 274.54 68.5375L271.092 98.3506C271.043 98.8124 270.874 99.2532 270.601 99.6292C270.328 100.005 269.962 100.303 269.538 100.493C269.115 100.684 268.649 100.76 268.187 100.714C267.725 100.668 267.282 100.502 266.905 100.232Z" fill="#030047"/>
<path d="M265.9 89.6834L258.762 84.6822C258.521 84.5124 258.329 84.2809 258.207 84.0119C258.086 83.7429 258.038 83.4462 258.07 83.1527L260.279 64.0096C260.303 63.8186 260.376 63.6371 260.491 63.4825C260.606 63.328 260.758 63.2057 260.934 63.1275C261.11 63.0493 261.303 63.018 261.495 63.0364C261.686 63.0548 261.87 63.1225 262.027 63.2327L269.881 68.7438C270.122 68.9112 270.312 69.1409 270.432 69.4082C270.551 69.6755 270.596 69.9703 270.561 70.2611L268.461 88.5423C268.429 88.8238 268.324 89.0921 268.157 89.3206C267.99 89.5492 267.765 89.73 267.507 89.8453C267.248 89.9606 266.964 90.0063 266.682 89.9779C266.4 89.9495 266.13 89.848 265.9 89.6834Z" fill="#0F5294"/>
<path d="M171.944 95.4409C153.223 96.4607 149.011 161.728 206.884 161.813C250.214 161.813 251.67 117.707 264.212 110.823C278.501 102.992 273.924 97.4684 273.924 97.4684C273.924 97.4684 277.505 92.9521 274.701 88.97C274.701 88.97 281.269 81.3215 275.781 79.6947C273.475 79.0148 268.376 80.6417 262.427 82.05C254.269 83.9803 244.58 87.3068 238.668 99.9329C226.94 124.991 196.176 138.782 188.722 120.171C181.268 101.56 186.925 94.6396 171.944 95.4409Z" fill="#FF3E6C"/>
<path d="M190.775 147.214C193.506 141.084 195.631 134.626 198.277 128.434C196.119 127.991 194.111 127 192.446 125.557C190.782 124.113 189.516 122.266 188.772 120.192C181.258 101.569 186.927 94.6985 171.946 95.4997C155.922 96.3737 150.532 144.337 185.64 158.164C187.412 154.547 189.136 150.893 190.775 147.214Z" fill="#0F5294"/>
<path d="M181.25 157.905C181.036 157.903 180.829 157.826 180.667 157.686C164.048 143.762 157.299 127.338 160.03 107.442C160.047 107.323 160.087 107.209 160.148 107.106C160.209 107.002 160.29 106.912 160.385 106.84C160.481 106.768 160.59 106.715 160.706 106.685C160.823 106.655 160.943 106.648 161.062 106.665C161.181 106.682 161.295 106.722 161.399 106.783C161.502 106.844 161.592 106.924 161.664 107.02C161.736 107.116 161.789 107.225 161.819 107.341C161.849 107.457 161.856 107.578 161.839 107.697C159.217 126.901 165.76 142.803 181.857 156.254C181.997 156.374 182.098 156.535 182.145 156.714C182.193 156.893 182.184 157.083 182.121 157.257C182.057 157.431 181.942 157.582 181.791 157.689C181.64 157.796 181.459 157.854 181.274 157.856L181.25 157.905Z" fill="#030047"/>
<path d="M190.498 124.262C190.376 124.262 190.256 124.239 190.143 124.193C190.031 124.148 189.928 124.08 189.842 123.995C186.953 121.008 183.457 113.07 183.457 107.571C183.457 107.329 183.553 107.098 183.724 106.927C183.894 106.756 184.126 106.66 184.367 106.66C184.609 106.66 184.84 106.756 185.011 106.927C185.182 107.098 185.278 107.329 185.278 107.571C185.278 112.426 188.568 120.062 191.153 122.72C191.324 122.891 191.419 123.122 191.419 123.363C191.419 123.605 191.324 123.836 191.153 124.007C191.067 124.092 190.964 124.158 190.852 124.202C190.739 124.246 190.618 124.266 190.498 124.262Z" fill="white"/>
<path d="M273.875 88.5765C270.493 90.4829 266.79 91.7542 262.95 92.3274C262.186 92.4488 262.295 93.6506 263.072 93.5413C267.108 92.9149 270.998 91.5661 274.555 89.5598C275.271 89.1834 274.555 88.2002 273.875 88.5765Z" fill="#030047"/>
<path d="M272.306 97.0294C269.764 98.9888 266.696 100.147 263.493 100.355C262.716 100.355 262.716 101.569 263.493 101.569C266.911 101.363 270.193 100.151 272.925 98.0855C273.52 97.6607 272.937 96.5681 272.306 97.0294Z" fill="#030047"/>
</svg>
