<svg width="306" height="70" viewBox="0 0 306 70" fill="none" xmlns="http://www.w3.org/2000/svg">
<path d="M209.773 56.9523C208.624 52.9445 207.472 49.1435 206.323 45.5524H187.792C186.64 49.1435 185.492 52.9445 184.343 56.9523H177.441C182.935 38.6629 188.324 24.0473 193.607 13.1055H200.509C206.132 24.8807 211.521 39.4963 216.674 56.9523H209.773ZM197.059 19.9346C194.885 24.6548 192.397 31.3153 189.583 39.9161H204.535C201.722 31.3121 199.23 24.6516 197.059 19.9346Z" fill="#0054A5"/>
<path d="M260.317 13.1055H267.28V56.9523H261.018V31.5857C261.018 29.2065 261.125 26.7637 261.336 24.2572C257.672 32.4413 252.945 40.9594 247.15 49.8147H241.718C236.137 41.3379 231.344 32.7976 227.34 24.1968C227.596 26.4106 227.723 28.8757 227.723 31.5889V56.9555H221.525V13.1055H228.427C232.473 22.8768 237.821 32.9407 244.466 43.2973C250.858 33.2333 256.141 23.1694 260.317 13.1055Z" fill="#0054A5"/>
<path d="M294.757 57.7036C288.154 57.7036 283.072 55.7093 279.516 51.7206C275.96 47.7351 274.182 42.3151 274.182 35.4669C274.182 28.4947 275.94 22.8997 279.454 18.682C282.969 14.4643 288.069 12.3555 294.757 12.3555C298.378 12.3555 301.999 13.087 305.62 14.547L304.086 20.1833C300.338 18.8474 297.249 18.1794 294.822 18.1794C290.136 18.1794 286.674 19.7348 284.438 22.8456C282.203 25.9564 281.083 30.1423 281.083 35.4033C281.083 40.6229 282.235 44.672 284.533 47.5538C286.833 50.4356 290.324 51.8765 295.01 51.8765C298.206 51.8765 301.422 51.0844 304.66 49.4972L306 55.1972C302.677 56.8671 298.93 57.7036 294.757 57.7036Z" fill="#0054A5"/>
<path d="M151.093 57.2638C145.486 57.2638 140.23 57.1398 136.135 56.9203V13.153C137.559 13.0321 141.975 12.9367 148.218 12.7872C152.132 12.6918 155.876 12.8413 158.806 13.2961C165.438 14.3267 167.856 17.4311 168.897 19.1392C169.9 20.7837 170.565 22.6158 170.406 24.995C170.218 27.7845 169.3 30.0747 166.386 32.3266L165.873 32.7242L166.457 33.0137C168.472 34.0093 169.761 35.5901 170.643 37.1423C171.701 39.0126 172.24 41.1469 172.24 43.4816C172.24 48.2018 170.51 51.7706 166.996 54.1594C163.884 56.281 159.543 57.2638 151.093 57.2638ZM146.625 48.24C148.871 48.3768 151.294 48.4722 153.731 48.3863C155.623 48.3227 158.128 48.1764 159.903 46.3952C161.493 44.8016 161.782 42.416 160.594 40.4471C159.494 38.6214 157.297 37.7276 151.976 37.788C149.289 37.788 146.693 38.0679 146.599 38.0806L146.625 48.24ZM151.635 21.0604C150.668 21.0604 148.124 21.0254 146.615 21.2958V29.8806L146.998 29.9156C147.018 29.9188 149.091 30.0874 151.486 30.0874C155.363 30.0874 157.615 29.8011 158.978 28.6242C160.351 27.441 160.704 25.4912 159.851 23.8149C158.504 21.1844 154.312 21.0604 151.635 21.0604Z" fill="#0054A5"/>
<path d="M125.937 13.1309H115.57C114.638 15.0011 108.178 28.0804 105.222 35.5425L105.021 36.0546H104.674L104.469 35.5425C101.51 28.0836 95.0495 15.0043 94.1215 13.1309H83.7511C81.5122 28.9393 80.4025 53.3961 80.25 56.8982H90.5749C90.6723 53.9687 91.2888 35.5171 91.7171 31.3725L91.8242 30.3261H92.0773L92.4894 31.2485C95.9321 38.9491 100.368 49.5315 101.101 51.2809H108.587C109.32 49.5315 113.756 38.9491 117.198 31.2485L117.611 30.3261H117.864L117.971 31.3725C118.399 35.5171 119.019 53.9687 119.116 56.8982H129.438C129.289 53.3961 128.179 28.9424 125.937 13.1309Z" fill="#0054A5"/>
<path d="M15.1102 21.2838C15.1361 21.2965 27.9076 26.7324 27.9368 26.7419C28.6929 27.0664 29.53 27.2254 30.4029 27.0886C32.7099 26.7324 34.2837 24.6077 33.9202 22.3461C33.6412 20.6253 32.3238 19.3149 30.6917 18.9554C30.6625 18.9491 17.0051 15.9751 16.9759 15.9687C16.606 15.8765 16.2134 15.8542 15.8143 15.9146C14.2438 16.1595 13.173 17.6036 13.4229 19.1431C13.5786 20.126 14.2471 20.8893 15.1102 21.2838Z" fill="#EC1A3B"/>
<path d="M30.7866 12.3298C30.3032 13.1123 30.1182 14.0665 30.4265 15.0049C30.9716 16.6493 32.7757 17.5495 34.4565 17.0183C35.0113 16.8402 35.4818 16.5284 35.8453 16.1277C35.8647 16.1086 43.8437 7.03067 43.8631 7.00523C44.8463 5.8856 45.3136 4.36202 44.8204 2.86706C44.0968 0.688234 41.7118 -0.50455 39.4892 0.20476C38.4963 0.522836 37.6915 1.15899 37.1983 1.97645C37.0556 2.20228 30.8028 12.3044 30.7866 12.3298Z" fill="#EC1A3B"/>
<path d="M53.8117 27.3883C52.9032 27.1816 51.9168 27.3056 51.1088 27.8845C49.6811 28.9056 49.3696 30.8649 50.408 32.2645C50.7519 32.7257 51.2029 33.066 51.6994 33.2823C51.7253 33.295 63.0075 37.9071 63.0367 37.9198C64.4287 38.4892 66.0479 38.4542 67.3458 37.5254C69.2342 36.1768 69.6496 33.5813 68.2705 31.7301C67.654 30.9031 66.7877 30.3528 65.8402 30.1429C65.5806 30.0856 53.841 27.3947 53.8117 27.3883Z" fill="#EC1A3B"/>
<path d="M46.3427 53.4664C46.2615 52.5567 45.8397 51.6757 45.0285 51.0968C43.6008 50.0789 41.5988 50.3906 40.5604 51.7902C40.2165 52.2546 40.0283 52.7762 39.9699 53.3074C39.9634 53.336 38.9575 65.2798 38.9575 65.3084C38.831 66.7811 39.3664 68.2824 40.6643 69.208C42.556 70.5535 45.2005 70.1432 46.573 68.2888C47.1863 67.4586 47.4524 66.4821 47.3648 65.5343C47.3485 65.2734 46.3459 53.4951 46.3427 53.4664Z" fill="#EC1A3B"/>
<path d="M18.693 54.6093C19.5528 54.2531 20.2764 53.5883 20.5879 52.6563C21.1363 51.0119 20.218 49.2402 18.5405 48.7058C17.9856 48.5277 17.4145 48.5118 16.8824 48.6231C16.8532 48.6295 4.95453 51.3649 4.92208 51.3713C3.45543 51.7084 2.16076 52.669 1.66431 54.1672C0.94072 56.3428 2.15427 58.6839 4.37371 59.3964C5.36986 59.7112 6.4017 59.6604 7.29078 59.285C7.54062 59.1801 18.6638 54.622 18.693 54.6093Z" fill="#EC1A3B"/>
<path d="M9.07892 29.1599C9.68894 29.8501 10.5585 30.3209 11.5612 30.3177C13.3264 30.3177 14.7573 28.915 14.7573 27.1846C14.7573 26.6121 14.5983 26.0777 14.3225 25.6165C14.3095 25.5879 7.96272 15.349 7.94649 15.3236C7.1645 14.0608 5.83413 13.1543 4.22796 13.1543C1.88847 13.1575 0 15.0119 0 17.302C0 18.3262 0.369906 19.2709 1.00913 19.9866C1.18435 20.187 9.05946 29.1345 9.07892 29.1599Z" fill="#EC1A3B"/>
<path d="M40.297 15.5236C40.2938 15.5522 38.9602 29.1373 38.9569 29.1659C38.8758 29.9706 38.9829 30.8008 39.382 31.5737C40.443 33.6158 42.9902 34.4269 45.0733 33.3868C46.6568 32.5979 47.5232 30.963 47.3674 29.3313C47.3642 29.3027 46.0338 15.6508 46.0306 15.6222C46.0078 15.2501 45.9072 14.8747 45.7255 14.5217C45.0052 13.1317 43.2725 12.5782 41.8578 13.2875C40.946 13.736 40.4073 14.598 40.297 15.5236Z" fill="#EC1A3B"/>
<path d="M53.6598 37.2165C53.6306 37.2228 40.0414 40.1905 40.009 40.1969C39.2043 40.3718 38.432 40.728 37.809 41.3388C36.1574 42.9578 36.1574 45.5851 37.809 47.2041C39.068 48.435 40.9175 48.7372 42.4555 48.0852C42.4815 48.0724 55.3114 42.6015 55.3406 42.592C55.6943 42.452 56.0285 42.2453 56.314 41.9654C57.4367 40.8616 57.4367 39.0772 56.314 37.9767C55.5905 37.2674 54.5911 37.032 53.6598 37.2165Z" fill="#EC1A3B"/>
<path d="M36.7477 56.387C36.7315 56.3615 29.6644 44.6022 29.6481 44.5768C29.2328 43.877 28.6487 43.2663 27.8602 42.8751C25.7771 41.835 23.2332 42.6461 22.1689 44.6849C21.3609 46.2371 21.6432 48.0565 22.7465 49.2875C22.7659 49.3098 32.0298 59.5868 32.0493 59.6122C32.2926 59.9017 32.5976 60.1434 32.9578 60.3279C34.3725 61.034 36.1053 60.4838 36.8256 59.0938C37.2929 58.2064 37.2117 57.2012 36.7477 56.387Z" fill="#EC1A3B"/>
<path d="M12.9173 46.5449C12.94 46.5226 22.165 36.3028 22.1844 36.2806C22.7328 35.6762 23.1449 34.9447 23.2844 34.089C23.6511 31.8275 22.0806 29.7028 19.7735 29.3433C18.0181 29.0698 16.3373 29.8904 15.4839 31.3027C15.4677 31.3281 8.35512 43.1351 8.3389 43.1638C8.13447 43.4787 7.9917 43.8381 7.92681 44.2293C7.67696 45.7688 8.74774 47.216 10.315 47.4578C11.3209 47.6136 12.2716 47.2288 12.9173 46.5449Z" fill="#EC1A3B"/>
</svg>
