<svg width="249" height="220" viewBox="0 0 249 220" fill="none" xmlns="http://www.w3.org/2000/svg">
<g clip-path="url(#clip0_3985_104458)">
<g opacity="0.41">
<path opacity="0.41" d="M247.784 132.17C248.016 128.218 247.91 124.253 247.467 120.319C245.376 101.86 235.882 84.4533 221.966 72.169C216.99 67.7871 211.334 63.8636 208.095 58.0665C202.646 48.3256 203.059 37.1343 196.295 27.5143C189.444 17.8008 179.737 10.4632 168.523 6.52167C135.336 -4.97694 88.8786 13.7442 93.064 53.7249C93.064 53.8659 93.0942 54.0775 93.1093 54.3394C93.2363 56.3027 92.9638 58.2715 92.3083 60.1266C91.6528 61.9816 90.6279 63.6845 89.2955 65.1322C87.9632 66.5799 86.3511 67.7424 84.5566 68.5493C82.7623 69.3562 80.8229 69.7909 78.8557 69.827C48.2381 70.5522 21.8814 94.1589 16.2404 124.056C12.614 143.286 18.5522 164.349 32.6195 177.948C43.1209 188.102 57.2083 193.683 71.3058 197.515C99.5663 205.201 129.308 206.813 158.439 203.872C185.718 201.122 214.487 193.295 232.13 172.297C241.544 161.121 246.918 146.776 247.784 132.17Z" fill="#E1E2FE"/>
</g>
<g opacity="0.41">
<path opacity="0.41" d="M223.866 135.842C224.039 132.899 223.96 129.947 223.629 127.018C222.073 113.273 215.022 100.324 204.641 91.1669C200.939 87.9082 196.724 84.982 194.316 80.6757C190.257 73.4229 190.564 65.0621 185.527 57.9252C180.424 50.7006 173.198 45.2437 164.852 42.3117C140.142 33.7495 105.551 47.6908 108.669 77.4573C108.669 77.563 108.669 77.7192 108.704 77.9156C108.798 79.3776 108.595 80.8436 108.106 82.2248C107.618 83.606 106.854 84.8738 105.862 85.9515C104.869 87.0291 103.668 87.8943 102.332 88.4947C100.996 89.0951 99.5514 89.4182 98.0866 89.4444C75.2908 89.9884 55.6681 107.576 51.4726 129.823C48.768 144.142 53.1901 159.836 63.6663 169.965C71.4831 177.52 81.9744 181.68 92.4657 184.531C113.509 190.257 135.65 191.456 157.347 189.265C177.655 187.22 199.081 181.378 212.216 165.754C219.217 157.404 223.247 146.716 223.866 135.842Z" fill="#E1E2FE"/>
</g>
<g opacity="0.31">
<path opacity="0.31" d="M239.516 43.6829C243.396 39.8022 243.396 33.5103 239.516 29.6296C235.635 25.7488 229.343 25.7488 225.462 29.6295C221.582 33.5103 221.582 39.8022 225.462 43.683C229.343 47.5637 235.635 47.5637 239.516 43.6829Z" fill="#E1E2FE"/>
</g>
<g opacity="0.31">
<path opacity="0.31" d="M218.473 23.2637C218.473 23.9471 218.27 24.6151 217.89 25.1833C217.511 25.7515 216.971 26.1943 216.34 26.4558C215.709 26.7173 215.014 26.7858 214.344 26.6524C213.673 26.5191 213.058 26.1901 212.574 25.7069C212.091 25.2236 211.762 24.608 211.629 23.9378C211.496 23.2675 211.564 22.5728 211.825 21.9415C212.087 21.3102 212.53 20.7705 213.098 20.3909C213.666 20.0112 214.334 19.8086 215.018 19.8086C215.934 19.8086 216.813 20.1726 217.461 20.8206C218.109 21.4685 218.473 22.3474 218.473 23.2637Z" fill="#E1E2FE"/>
</g>
<g opacity="0.31">
<path opacity="0.31" d="M80.9801 27.1419C82.6773 25.2303 82.5035 22.3047 80.5918 20.6075C78.6802 18.9103 75.7547 19.0841 74.0575 20.9957C72.3602 22.9074 72.5341 25.8329 74.4457 27.5301C76.3573 29.2273 79.2828 29.0535 80.9801 27.1419Z" fill="#E1E2FE"/>
</g>
<g opacity="0.31">
<path opacity="0.31" d="M44.6452 219.79C50.4672 219.79 55.1868 215.071 55.1868 209.249C55.1868 203.427 50.4672 198.707 44.6452 198.707C38.8232 198.707 34.1035 203.427 34.1035 209.249C34.1035 215.071 38.8232 219.79 44.6452 219.79Z" fill="#E1E2FE"/>
</g>
<path opacity="0.47" d="M203.475 2.02587C202.202 2.98866 201.361 4.41623 201.136 5.99686C200.912 7.57749 201.322 9.18278 202.277 10.4622C204.291 13.1215 209.439 15.4988 212.103 13.4842C214.767 11.4695 211.776 7.20855 211.307 3.9146C210.658 -0.658651 206.125 0.0263292 203.475 2.02587Z" fill="#ECF1F7"/>
<path opacity="0.47" d="M54.8529 20.3517C54.0049 19.149 52.928 18.1254 51.684 17.3395C50.4399 16.5535 49.0531 16.0206 47.6028 15.7712C46.1526 15.5219 44.6674 15.561 43.2323 15.8863C41.7972 16.2116 40.4403 16.8168 39.2393 17.6671C34.2027 21.2331 29.4783 30.6969 33.0443 35.7436C36.6102 40.7903 44.7141 35.4766 50.8588 34.7967C59.4412 33.8297 58.4188 25.3883 54.8529 20.3517Z" fill="#E1E2FE"/>
<path opacity="0.47" d="M237.643 165.072C240.791 160.035 241.581 153.835 240.927 147.947C240.211 141.956 238.541 136.119 235.981 130.656C233.608 125.62 230.173 121.117 229.196 115.501C227.902 108.082 231.286 100.955 232.072 93.6774C233.639 79.187 223.847 66.4242 211.704 59.5291C201.837 53.9284 190.273 51.8281 178.931 51.9742C168.722 52.1102 158.532 53.9183 148.641 56.356C139.106 58.7031 129.788 61.7956 119.796 60.8185C111.485 60.0076 104.001 56.5575 96.2597 53.9838C77.7853 47.8391 55.4026 46.9678 38.5047 56.3258C28.184 61.9994 20.3953 71.3717 16.7062 82.5565C14.2383 90.2323 13.508 99.0615 15.3161 106.833C17.3308 115.562 21.0982 123.252 20.106 132.449C19.2951 140.004 16.5199 147.353 16.7667 155.008C16.9782 161.591 24.1403 171.045 31.529 173.493C31.9319 173.624 31.2319 174.173 31.529 174.475H226.864C231.11 172.188 235.074 169.151 237.643 165.072Z" fill="#E1E2FE"/>
<path opacity="0.81" d="M238.625 142.712C236.313 128.136 220.891 126.157 224.255 116.764C228.491 104.867 228.285 91.5403 223.142 79.946C220.664 74.3604 217.043 69.1676 212.097 65.5765C204.471 60.0362 194.469 58.8274 185.085 59.5326C171.099 60.5752 156.346 66.3924 142.274 64.8059C134.518 63.9295 132.146 55.8659 128.141 50.5422C123.529 44.5413 117.509 39.7687 110.614 36.6462C98.0476 30.854 82.9629 30.3051 70.1195 35.5583C56.4048 41.169 44.4327 54.8737 45.2386 70.3714C45.6012 77.5385 48.5879 84.6603 47.2079 91.7015C45.4552 100.541 38.5298 108.599 33.5032 115.802C27.5305 124.345 24.1735 134.441 23.8417 144.86C23.5099 155.278 26.2177 165.568 31.6347 174.473H230.239C232.777 170.046 242.171 165.07 238.625 142.712Z" fill="#E1E2FE"/>
<path opacity="0.58" d="M218.474 218.267C219.725 218.267 220.74 217.253 220.74 216.001C220.74 214.749 219.725 213.734 218.474 213.734C217.222 213.734 216.207 214.749 216.207 216.001C216.207 217.253 217.222 218.267 218.474 218.267Z" fill="#3E479B"/>
<path d="M199.534 211.014C200.508 211.014 201.297 210.225 201.297 209.251C201.297 208.278 200.508 207.488 199.534 207.488C198.561 207.488 197.771 208.278 197.771 209.251C197.771 210.225 198.561 211.014 199.534 211.014Z" fill="#F7A9B4"/>
<path d="M69.9269 212.78C70.9005 212.78 71.6897 211.99 71.6897 211.017C71.6897 210.043 70.9005 209.254 69.9269 209.254C68.9533 209.254 68.1641 210.043 68.1641 211.017C68.1641 211.99 68.9533 212.78 69.9269 212.78Z" fill="#F7A9B4"/>
<path d="M223.956 197.627C224.93 197.627 225.719 196.838 225.719 195.864C225.719 194.891 224.93 194.102 223.956 194.102C222.983 194.102 222.193 194.891 222.193 195.864C222.193 196.838 222.983 197.627 223.956 197.627Z" fill="#F7A9B4"/>
<path d="M227.726 9.45923C228.699 9.45923 229.489 8.66999 229.489 7.69641C229.489 6.72283 228.699 5.93359 227.726 5.93359C226.752 5.93359 225.963 6.72283 225.963 7.69641C225.963 8.66999 226.752 9.45923 227.726 9.45923Z" fill="#F7A9B4"/>
<path opacity="0.58" d="M34.6766 7.70093C35.9284 7.70093 36.9431 6.68619 36.9431 5.43445C36.9431 4.18271 35.9284 3.16797 34.6766 3.16797C33.4249 3.16797 32.4102 4.18271 32.4102 5.43445C32.4102 6.68619 33.4249 7.70093 34.6766 7.70093Z" fill="#EF929C"/>
<path opacity="0.58" d="M60.7101 4.92798C61.6837 4.92798 62.4729 4.13874 62.4729 3.16516C62.4729 2.19158 61.6837 1.40234 60.7101 1.40234C59.7365 1.40234 58.9473 2.19158 58.9473 3.16516C58.9473 4.13874 59.7365 4.92798 60.7101 4.92798Z" fill="#3E479B"/>
<path opacity="0.58" d="M23.8156 193.803C24.7891 193.803 25.5784 193.014 25.5784 192.04C25.5784 191.067 24.7891 190.277 23.8156 190.277C22.842 190.277 22.0527 191.067 22.0527 192.04C22.0527 193.014 22.842 193.803 23.8156 193.803Z" fill="#3E479B"/>
<path opacity="0.58" d="M2.32496 51.0065C3.6086 51.0791 4.70806 50.0974 4.78067 48.8137C4.85328 47.5301 3.87155 46.4306 2.58791 46.358C1.30427 46.2854 0.204809 47.2672 0.132197 48.5508C0.0595858 49.8344 1.04132 50.9339 2.32496 51.0065Z" fill="#3E479B"/>
<path opacity="0.58" d="M166.062 15.9371C165.949 16.4625 165.683 16.9427 165.297 17.3169C164.911 17.691 164.423 17.9425 163.894 18.0395C163.365 18.1364 162.82 18.0746 162.326 17.8617C161.833 17.6488 161.413 17.2944 161.121 16.8433C160.829 16.3922 160.677 15.8646 160.684 15.3271C160.691 14.7897 160.858 14.2664 161.162 13.8235C161.467 13.3806 161.896 13.0378 162.395 12.8384C162.894 12.6391 163.441 12.5922 163.967 12.7036C164.317 12.7771 164.65 12.9193 164.945 13.1219C165.241 13.3245 165.493 13.5836 165.688 13.8842C165.882 14.1847 166.016 14.5209 166.08 14.8732C166.144 15.2255 166.138 15.5871 166.062 15.9371Z" fill="#EF929C"/>
<path opacity="0.58" d="M144.354 24.8867C144.318 25.0635 144.231 25.2256 144.102 25.3524C143.974 25.4791 143.811 25.5647 143.633 25.5982C143.456 25.6317 143.273 25.6115 143.107 25.5403C142.942 25.4692 142.801 25.3501 142.703 25.1985C142.605 25.0469 142.555 24.8696 142.559 24.6893C142.562 24.509 142.62 24.3338 142.723 24.1862C142.827 24.0386 142.972 23.9253 143.141 23.8608C143.309 23.7963 143.493 23.7834 143.669 23.824C143.899 23.877 144.099 24.0177 144.227 24.2162C144.355 24.4147 144.401 24.6552 144.354 24.8867Z" fill="#3E479B"/>
<path d="M135.782 13.5938H95.0302C90.5629 13.5938 86.9414 17.2152 86.9414 21.6826V66.1559C86.9414 70.6233 90.5629 74.2447 95.0302 74.2447H135.782C140.249 74.2447 143.87 70.6233 143.87 66.1559V21.6826C143.87 17.2152 140.249 13.5938 135.782 13.5938Z" fill="white"/>
<path opacity="0.39" d="M135.782 13.5938H95.0302C90.5629 13.5938 86.9414 17.2152 86.9414 21.6826V66.1559C86.9414 70.6233 90.5629 74.2447 95.0302 74.2447H135.782C140.249 74.2447 143.87 70.6233 143.87 66.1559V21.6826C143.87 17.2152 140.249 13.5938 135.782 13.5938Z" fill="#F7A9B4"/>
<path d="M130.865 13.6094H85.1426C82.6179 13.6094 80.1963 14.6113 78.4097 16.3951C76.623 18.1789 75.6173 20.5988 75.6133 23.1236V26.7449H121.854V23.1236C121.855 20.6862 122.789 18.3416 124.465 16.5719C126.141 14.8023 128.431 13.7421 130.865 13.6094Z" fill="#F7A9B4"/>
<path d="M129.123 33.7026H97.8357C97.7021 33.7026 97.574 33.6496 97.4796 33.5551C97.3851 33.4607 97.332 33.3326 97.332 33.199C97.332 33.0654 97.3851 32.9373 97.4796 32.8428C97.574 32.7484 97.7021 32.6953 97.8357 32.6953H129.123C129.257 32.6953 129.385 32.7484 129.479 32.8428C129.574 32.9373 129.627 33.0654 129.627 33.199C129.627 33.3326 129.574 33.4607 129.479 33.5551C129.385 33.6496 129.257 33.7026 129.123 33.7026Z" fill="white"/>
<path d="M129.123 46.8706H97.8357C97.7021 46.8706 97.574 46.8175 97.4796 46.7231C97.3851 46.6286 97.332 46.5005 97.332 46.3669C97.332 46.2334 97.3851 46.1053 97.4796 46.0108C97.574 45.9163 97.7021 45.8633 97.8357 45.8633H129.123C129.257 45.8633 129.385 45.9163 129.479 46.0108C129.574 46.1053 129.627 46.2334 129.627 46.3669C129.627 46.5005 129.574 46.6286 129.479 46.7231C129.385 46.8175 129.257 46.8706 129.123 46.8706Z" fill="white"/>
<path d="M114.457 40.2964H97.8357C97.7021 40.2964 97.574 40.2433 97.4796 40.1489C97.3851 40.0544 97.332 39.9263 97.332 39.7927C97.332 39.6591 97.3851 39.531 97.4796 39.4366C97.574 39.3421 97.7021 39.2891 97.8357 39.2891H114.457C114.59 39.2891 114.718 39.3421 114.813 39.4366C114.907 39.531 114.96 39.6591 114.96 39.7927C114.96 39.9263 114.907 40.0544 114.813 40.1489C114.718 40.2433 114.59 40.2964 114.457 40.2964Z" fill="white"/>
<path d="M132.589 40.2964H118.486C118.353 40.2964 118.224 40.2433 118.13 40.1489C118.035 40.0544 117.982 39.9263 117.982 39.7927C117.982 39.6591 118.035 39.531 118.13 39.4366C118.224 39.3421 118.353 39.2891 118.486 39.2891H132.589C132.722 39.2891 132.85 39.3421 132.945 39.4366C133.039 39.531 133.092 39.6591 133.092 39.7927C133.092 39.9263 133.039 40.0544 132.945 40.1489C132.85 40.2433 132.722 40.2964 132.589 40.2964Z" fill="white"/>
<g opacity="0.81">
<path opacity="0.81" d="M127.58 159.46H115.97C115.837 159.46 115.709 159.407 115.614 159.313C115.52 159.218 115.467 159.09 115.467 158.957C115.467 158.823 115.52 158.695 115.614 158.601C115.709 158.506 115.837 158.453 115.97 158.453H127.595C127.729 158.453 127.857 158.506 127.951 158.601C128.046 158.695 128.099 158.823 128.099 158.957C128.099 159.09 128.046 159.218 127.951 159.313C127.857 159.407 127.729 159.46 127.595 159.46H127.58Z" fill="white"/>
<path opacity="0.81" d="M127.58 171.546H115.97C115.837 171.546 115.709 171.493 115.614 171.399C115.52 171.304 115.467 171.176 115.467 171.043C115.467 170.909 115.52 170.781 115.614 170.687C115.709 170.592 115.837 170.539 115.97 170.539H127.595C127.729 170.539 127.857 170.592 127.951 170.687C128.046 170.781 128.099 170.909 128.099 171.043C128.099 171.176 128.046 171.304 127.951 171.399C127.857 171.493 127.729 171.546 127.595 171.546H127.58Z" fill="white"/>
<path opacity="0.81" d="M136.463 183.754H64.4391C64.0771 183.754 63.73 183.61 63.474 183.354C63.218 183.098 63.0742 182.751 63.0742 182.389V144.896C63.0742 144.534 63.218 144.187 63.474 143.931C63.73 143.675 64.0771 143.531 64.4391 143.531H136.463C136.825 143.531 137.173 143.675 137.43 143.931C137.687 144.187 137.831 144.534 137.833 144.896V182.389C137.831 182.751 137.687 183.098 137.43 183.354C137.173 183.61 136.825 183.754 136.463 183.754ZM64.4391 144.539C64.3443 144.539 64.2533 144.576 64.1863 144.643C64.1192 144.71 64.0815 144.801 64.0815 144.896V182.389C64.0815 182.484 64.1192 182.575 64.1863 182.642C64.2533 182.709 64.3443 182.746 64.4391 182.746H136.463C136.51 182.747 136.557 182.738 136.601 182.721C136.645 182.703 136.685 182.677 136.719 182.643C136.753 182.61 136.78 182.571 136.798 182.527C136.816 182.483 136.825 182.436 136.825 182.389V144.896C136.825 144.849 136.816 144.802 136.798 144.758C136.78 144.714 136.753 144.675 136.719 144.642C136.685 144.608 136.645 144.582 136.601 144.564C136.557 144.547 136.51 144.538 136.463 144.539H64.4391Z" fill="white"/>
<path opacity="0.66" d="M136.463 183.754H64.4391C64.0771 183.754 63.73 183.61 63.474 183.354C63.218 183.098 63.0742 182.751 63.0742 182.389V144.896C63.0742 144.534 63.218 144.187 63.474 143.931C63.73 143.675 64.0771 143.531 64.4391 143.531H136.463C136.825 143.531 137.173 143.675 137.43 143.931C137.687 144.187 137.831 144.534 137.833 144.896V182.389C137.831 182.751 137.687 183.098 137.43 183.354C137.173 183.61 136.825 183.754 136.463 183.754ZM64.4391 144.539C64.3443 144.539 64.2533 144.576 64.1863 144.643C64.1192 144.71 64.0815 144.801 64.0815 144.896V182.389C64.0815 182.484 64.1192 182.575 64.1863 182.642C64.2533 182.709 64.3443 182.746 64.4391 182.746H136.463C136.51 182.747 136.557 182.738 136.601 182.721C136.645 182.703 136.685 182.677 136.719 182.643C136.753 182.61 136.78 182.571 136.798 182.527C136.816 182.483 136.825 182.436 136.825 182.389V144.896C136.825 144.849 136.816 144.802 136.798 144.758C136.78 144.714 136.753 144.675 136.719 144.642C136.685 144.608 136.645 144.582 136.601 144.564C136.557 144.547 136.51 144.538 136.463 144.539H64.4391Z" fill="white"/>
<path opacity="0.81" d="M90.1551 150.227H71.9125C71.5703 150.227 71.293 150.504 71.293 150.846V175.52C71.293 175.863 71.5703 176.14 71.9125 176.14H90.1551C90.4973 176.14 90.7746 175.863 90.7746 175.52V150.846C90.7746 150.504 90.4973 150.227 90.1551 150.227Z" fill="white"/>
<path opacity="0.81" d="M127.58 153.589H95.5974C95.4638 153.589 95.3357 153.536 95.2413 153.442C95.1468 153.347 95.0938 153.219 95.0938 153.086C95.0938 152.952 95.1468 152.824 95.2413 152.73C95.3357 152.635 95.4638 152.582 95.5974 152.582H127.58C127.714 152.582 127.842 152.635 127.936 152.73C128.031 152.824 128.084 152.952 128.084 153.086C128.084 153.219 128.031 153.347 127.936 153.442C127.842 153.536 127.714 153.589 127.58 153.589Z" fill="white"/>
<path opacity="0.81" d="M127.58 165.324H95.5974C95.4638 165.324 95.3357 165.271 95.2413 165.176C95.1468 165.082 95.0938 164.954 95.0938 164.82C95.0938 164.687 95.1468 164.558 95.2413 164.464C95.3357 164.369 95.4638 164.316 95.5974 164.316H127.58C127.714 164.316 127.842 164.369 127.936 164.464C128.031 164.558 128.084 164.687 128.084 164.82C128.084 164.954 128.031 165.082 127.936 165.176C127.842 165.271 127.714 165.324 127.58 165.324Z" fill="white"/>
<path opacity="0.81" d="M112.843 159.46H95.5974C95.4638 159.46 95.3357 159.407 95.2413 159.313C95.1468 159.218 95.0938 159.09 95.0938 158.957C95.0938 158.823 95.1468 158.695 95.2413 158.601C95.3357 158.506 95.4638 158.453 95.5974 158.453H112.843C112.976 158.453 113.104 158.506 113.199 158.601C113.293 158.695 113.346 158.823 113.346 158.957C113.346 159.09 113.293 159.218 113.199 159.313C113.104 159.407 112.976 159.46 112.843 159.46Z" fill="white"/>
<path opacity="0.81" d="M112.843 171.546H95.5974C95.4638 171.546 95.3357 171.493 95.2413 171.399C95.1468 171.304 95.0938 171.176 95.0938 171.043C95.0938 170.909 95.1468 170.781 95.2413 170.687C95.3357 170.592 95.4638 170.539 95.5974 170.539H112.843C112.976 170.539 113.104 170.592 113.199 170.687C113.293 170.781 113.346 170.909 113.346 171.043C113.346 171.176 113.293 171.304 113.199 171.399C113.104 171.493 112.976 171.546 112.843 171.546Z" fill="white"/>
<path opacity="0.81" d="M107.227 177.14H95.5974C95.4638 177.14 95.3357 177.087 95.2413 176.993C95.1468 176.898 95.0938 176.77 95.0938 176.636C95.0938 176.503 95.1468 176.375 95.2413 176.28C95.3357 176.186 95.4638 176.133 95.5974 176.133H107.227C107.361 176.133 107.489 176.186 107.583 176.28C107.678 176.375 107.731 176.503 107.731 176.636C107.731 176.77 107.678 176.898 107.583 176.993C107.489 177.087 107.361 177.14 107.227 177.14Z" fill="white"/>
</g>
<g opacity="0.81">
<path opacity="0.81" d="M227.723 94.9526H216.094C215.96 94.9526 215.832 94.8996 215.737 94.8051C215.643 94.7107 215.59 94.5826 215.59 94.449C215.59 94.3154 215.643 94.1873 215.737 94.0928C215.832 93.9984 215.96 93.9453 216.094 93.9453H227.723C227.857 93.9453 227.985 93.9984 228.079 94.0928C228.174 94.1873 228.227 94.3154 228.227 94.449C228.227 94.5826 228.174 94.7107 228.079 94.8051C227.985 94.8996 227.857 94.9526 227.723 94.9526Z" fill="white"/>
<path opacity="0.81" d="M227.723 107.039H216.094C215.96 107.039 215.832 106.986 215.737 106.891C215.643 106.797 215.59 106.668 215.59 106.535C215.59 106.401 215.643 106.273 215.737 106.179C215.832 106.084 215.96 106.031 216.094 106.031H227.723C227.857 106.031 227.985 106.084 228.079 106.179C228.174 106.273 228.227 106.401 228.227 106.535C228.227 106.668 228.174 106.797 228.079 106.891C227.985 106.986 227.857 107.039 227.723 107.039Z" fill="white"/>
<path opacity="0.81" d="M236.609 119.246H164.586C164.223 119.245 163.876 119.1 163.62 118.843C163.364 118.586 163.221 118.238 163.221 117.876V80.3884C163.222 80.0268 163.366 79.6804 163.622 79.4247C163.878 79.169 164.224 79.0248 164.586 79.0234H236.609C236.971 79.0234 237.319 79.1672 237.574 79.4232C237.83 79.6792 237.974 80.0264 237.974 80.3884V117.876C237.975 118.056 237.94 118.234 237.872 118.4C237.804 118.566 237.703 118.717 237.576 118.844C237.449 118.972 237.299 119.073 237.133 119.142C236.967 119.21 236.789 119.246 236.609 119.246ZM164.586 80.0308C164.491 80.0308 164.4 80.0684 164.333 80.1355C164.266 80.2026 164.228 80.2935 164.228 80.3884V117.876C164.227 117.923 164.236 117.97 164.254 118.014C164.271 118.058 164.298 118.098 164.331 118.132C164.364 118.166 164.404 118.193 164.448 118.211C164.491 118.229 164.538 118.239 164.586 118.239H236.609C236.657 118.239 236.704 118.229 236.747 118.211C236.791 118.193 236.831 118.166 236.864 118.132C236.897 118.098 236.923 118.058 236.941 118.014C236.959 117.97 236.968 117.923 236.967 117.876V80.3884C236.967 80.2935 236.929 80.2026 236.862 80.1355C236.795 80.0684 236.704 80.0308 236.609 80.0308H164.586Z" fill="white"/>
<path opacity="0.66" d="M236.609 119.246H164.586C164.223 119.245 163.876 119.1 163.62 118.843C163.364 118.586 163.221 118.238 163.221 117.876V80.3884C163.222 80.0268 163.366 79.6804 163.622 79.4247C163.878 79.169 164.224 79.0248 164.586 79.0234H236.609C236.971 79.0234 237.319 79.1672 237.574 79.4232C237.83 79.6792 237.974 80.0264 237.974 80.3884V117.876C237.975 118.056 237.94 118.234 237.872 118.4C237.804 118.566 237.703 118.717 237.576 118.844C237.449 118.972 237.299 119.073 237.133 119.142C236.967 119.21 236.789 119.246 236.609 119.246ZM164.586 80.0308C164.491 80.0308 164.4 80.0684 164.333 80.1355C164.266 80.2026 164.228 80.2935 164.228 80.3884V117.876C164.227 117.923 164.236 117.97 164.254 118.014C164.271 118.058 164.298 118.098 164.331 118.132C164.364 118.166 164.404 118.193 164.448 118.211C164.491 118.229 164.538 118.239 164.586 118.239H236.609C236.657 118.239 236.704 118.229 236.747 118.211C236.791 118.193 236.831 118.166 236.864 118.132C236.897 118.098 236.923 118.058 236.941 118.014C236.959 117.97 236.968 117.923 236.967 117.876V80.3884C236.967 80.2935 236.929 80.2026 236.862 80.1355C236.795 80.0684 236.704 80.0308 236.609 80.0308H164.586Z" fill="white"/>
<path opacity="0.81" d="M190.302 85.7188H172.059C171.717 85.7188 171.439 85.9961 171.439 86.3383V111.013C171.439 111.355 171.717 111.632 172.059 111.632H190.302C190.644 111.632 190.921 111.355 190.921 111.013V86.3383C190.921 85.9961 190.644 85.7188 190.302 85.7188Z" fill="white"/>
<path opacity="0.81" d="M227.726 89.0816H195.744C195.61 89.0816 195.482 89.0285 195.388 88.934C195.293 88.8396 195.24 88.7115 195.24 88.5779C195.24 88.4443 195.293 88.3162 195.388 88.2217C195.482 88.1273 195.61 88.0742 195.744 88.0742H227.726C227.86 88.0742 227.988 88.1273 228.083 88.2217C228.177 88.3162 228.23 88.4443 228.23 88.5779C228.23 88.7115 228.177 88.8396 228.083 88.934C227.988 89.0285 227.86 89.0816 227.726 89.0816Z" fill="white"/>
<path opacity="0.81" d="M227.726 100.816H195.744C195.61 100.816 195.482 100.763 195.388 100.668C195.293 100.574 195.24 100.446 195.24 100.312C195.24 100.179 195.293 100.051 195.388 99.9561C195.482 99.8617 195.61 99.8086 195.744 99.8086H227.726C227.86 99.8086 227.988 99.8617 228.083 99.9561C228.177 100.051 228.23 100.179 228.23 100.312C228.23 100.446 228.177 100.574 228.083 100.668C227.988 100.763 227.86 100.816 227.726 100.816Z" fill="white"/>
<path opacity="0.81" d="M212.984 94.9526H195.744C195.61 94.9526 195.482 94.8996 195.388 94.8051C195.293 94.7107 195.24 94.5826 195.24 94.449C195.24 94.3154 195.293 94.1873 195.388 94.0928C195.482 93.9984 195.61 93.9453 195.744 93.9453H212.984C213.118 93.9453 213.246 93.9984 213.34 94.0928C213.435 94.1873 213.488 94.3154 213.488 94.449C213.488 94.5826 213.435 94.7107 213.34 94.8051C213.246 94.8996 213.118 94.9526 212.984 94.9526Z" fill="white"/>
<path opacity="0.81" d="M212.984 107.039H195.744C195.61 107.039 195.482 106.986 195.388 106.891C195.293 106.797 195.24 106.668 195.24 106.535C195.24 106.401 195.293 106.273 195.388 106.179C195.482 106.084 195.61 106.031 195.744 106.031H212.984C213.118 106.031 213.246 106.084 213.34 106.179C213.435 106.273 213.488 106.401 213.488 106.535C213.488 106.668 213.435 106.797 213.34 106.891C213.246 106.986 213.118 107.039 212.984 107.039Z" fill="white"/>
<path opacity="0.81" d="M207.373 112.632H195.744C195.61 112.632 195.482 112.579 195.388 112.485C195.293 112.39 195.24 112.262 195.24 112.129C195.24 111.995 195.293 111.867 195.388 111.773C195.482 111.678 195.61 111.625 195.744 111.625H207.373C207.507 111.625 207.635 111.678 207.73 111.773C207.824 111.867 207.877 111.995 207.877 112.129C207.877 112.262 207.824 112.39 207.73 112.485C207.635 112.579 207.507 112.632 207.373 112.632Z" fill="white"/>
</g>
<path d="M207.216 126.98H164.783C163.856 126.98 163.105 127.731 163.105 128.658V144.009C163.105 144.936 163.856 145.686 164.783 145.686H207.216C208.143 145.686 208.893 144.936 208.893 144.009V128.658C208.893 127.731 208.143 126.98 207.216 126.98Z" fill="#F7A9B4"/>
<path d="M220.83 141.73H174.292C172.882 141.73 171.738 142.874 171.738 144.284V158.543C171.738 159.953 172.882 161.096 174.292 161.096H220.83C222.241 161.096 223.384 159.953 223.384 158.543V144.284C223.384 142.874 222.241 141.73 220.83 141.73Z" fill="white"/>
<path opacity="0.74" d="M220.83 141.73H174.292C172.882 141.73 171.738 142.874 171.738 144.284V158.543C171.738 159.953 172.882 161.096 174.292 161.096H220.83C222.241 161.096 223.384 159.953 223.384 158.543V144.284C223.384 142.874 222.241 141.73 220.83 141.73Z" fill="#6D6CD4"/>
<path d="M206.991 153.655C206.552 153.656 206.123 153.527 205.758 153.283C205.392 153.04 205.108 152.694 204.939 152.289C204.771 151.884 204.727 151.438 204.812 151.008C204.897 150.577 205.108 150.182 205.419 149.872C205.729 149.562 206.124 149.35 206.555 149.265C206.985 149.18 207.431 149.224 207.836 149.392C208.241 149.561 208.587 149.846 208.83 150.211C209.073 150.576 209.203 151.005 209.202 151.444C209.2 152.03 208.967 152.591 208.553 153.006C208.138 153.42 207.577 153.654 206.991 153.655ZM206.991 149.731C206.652 149.73 206.32 149.83 206.038 150.018C205.756 150.205 205.535 150.472 205.405 150.785C205.275 151.098 205.24 151.442 205.305 151.775C205.371 152.107 205.534 152.413 205.773 152.653C206.012 152.893 206.317 153.056 206.65 153.123C206.982 153.189 207.327 153.156 207.64 153.026C207.953 152.897 208.221 152.677 208.409 152.396C208.598 152.114 208.698 151.783 208.698 151.444C208.698 150.99 208.518 150.556 208.198 150.235C207.878 149.914 207.444 149.733 206.991 149.731Z" fill="white"/>
<path d="M197.734 153.655C197.295 153.655 196.866 153.525 196.502 153.281C196.137 153.037 195.853 152.691 195.686 152.286C195.518 151.88 195.475 151.435 195.561 151.005C195.646 150.575 195.858 150.18 196.168 149.87C196.479 149.56 196.874 149.35 197.304 149.265C197.735 149.18 198.18 149.224 198.585 149.393C198.99 149.561 199.336 149.846 199.579 150.211C199.822 150.576 199.951 151.005 199.95 151.444C199.948 152.031 199.714 152.593 199.299 153.008C198.883 153.422 198.321 153.655 197.734 153.655ZM197.734 149.731C197.395 149.731 197.064 149.832 196.782 150.02C196.501 150.208 196.281 150.476 196.152 150.788C196.022 151.101 195.988 151.446 196.054 151.778C196.12 152.11 196.283 152.415 196.523 152.655C196.762 152.894 197.067 153.057 197.4 153.123C197.732 153.189 198.076 153.156 198.389 153.026C198.702 152.896 198.969 152.677 199.158 152.395C199.346 152.114 199.446 151.782 199.446 151.444C199.446 150.99 199.266 150.554 198.945 150.233C198.623 149.912 198.188 149.731 197.734 149.731Z" fill="white"/>
<path d="M189.106 153.655C188.667 153.656 188.238 153.527 187.873 153.283C187.508 153.04 187.223 152.694 187.054 152.289C186.886 151.884 186.842 151.438 186.927 151.008C187.012 150.577 187.224 150.182 187.534 149.872C187.844 149.562 188.239 149.35 188.67 149.265C189.1 149.18 189.546 149.224 189.951 149.392C190.356 149.561 190.702 149.846 190.946 150.211C191.189 150.576 191.318 151.005 191.317 151.444C191.316 152.03 191.082 152.591 190.668 153.006C190.254 153.42 189.692 153.654 189.106 153.655ZM189.106 149.731C188.767 149.73 188.435 149.83 188.153 150.018C187.871 150.205 187.651 150.472 187.52 150.785C187.39 151.098 187.355 151.442 187.421 151.775C187.486 152.107 187.649 152.413 187.888 152.653C188.127 152.893 188.433 153.056 188.765 153.123C189.097 153.189 189.442 153.156 189.755 153.026C190.068 152.897 190.336 152.677 190.524 152.396C190.713 152.114 190.813 151.783 190.813 151.444C190.813 150.99 190.634 150.556 190.314 150.235C189.993 149.914 189.559 149.733 189.106 149.731Z" fill="white"/>
<path d="M42.6051 99.4763H42.1014C42.0347 99.4763 41.9706 99.4498 41.9234 99.4025C41.8761 99.3553 41.8496 99.2913 41.8496 99.2245C41.8496 99.1577 41.8761 99.0936 41.9234 99.0464C41.9706 98.9992 42.0347 98.9727 42.1014 98.9727H42.6051C42.6719 98.9727 42.736 98.9992 42.7832 99.0464C42.8304 99.0936 42.8569 99.1577 42.8569 99.2245C42.8569 99.2913 42.8304 99.3553 42.7832 99.4025C42.736 99.4498 42.6719 99.4763 42.6051 99.4763Z" fill="white"/>
<path d="M187.385 182.529H186.378C186.311 182.529 186.247 182.502 186.2 182.455C186.153 182.408 186.126 182.344 186.126 182.277C186.128 182.211 186.155 182.147 186.201 182.1C186.248 182.053 186.312 182.026 186.378 182.025H187.385C187.452 182.025 187.516 182.052 187.564 182.099C187.611 182.146 187.637 182.21 187.637 182.277C187.637 182.344 187.611 182.408 187.564 182.455C187.516 182.502 187.452 182.529 187.385 182.529ZM176.406 182.529H175.398C175.331 182.529 175.267 182.502 175.22 182.455C175.173 182.408 175.146 182.344 175.146 182.277C175.146 182.21 175.173 182.146 175.22 182.099C175.267 182.052 175.331 182.025 175.398 182.025H176.406C176.472 182.025 176.536 182.052 176.584 182.099C176.631 182.146 176.657 182.21 176.657 182.277C176.657 182.344 176.631 182.408 176.584 182.455C176.536 182.502 176.472 182.529 176.406 182.529ZM165.436 182.529H164.429C164.362 182.529 164.298 182.502 164.25 182.455C164.203 182.408 164.177 182.344 164.177 182.277C164.177 182.21 164.203 182.146 164.25 182.099C164.298 182.052 164.362 182.025 164.429 182.025H165.436C165.502 182.026 165.566 182.053 165.612 182.1C165.659 182.147 165.686 182.211 165.688 182.277C165.688 182.342 165.663 182.405 165.618 182.452C165.572 182.499 165.511 182.526 165.446 182.529H165.436ZM154.461 182.529H153.454C153.387 182.529 153.323 182.502 153.276 182.455C153.228 182.408 153.202 182.344 153.202 182.277C153.203 182.211 153.23 182.147 153.277 182.1C153.324 182.053 153.387 182.026 153.454 182.025H154.461C154.528 182.025 154.592 182.052 154.639 182.099C154.686 182.146 154.713 182.21 154.713 182.277C154.713 182.342 154.688 182.405 154.643 182.452C154.598 182.499 154.536 182.526 154.471 182.529H154.461ZM143.491 182.529H142.484C142.417 182.529 142.353 182.502 142.306 182.455C142.259 182.408 142.232 182.344 142.232 182.277C142.232 182.21 142.259 182.146 142.306 182.099C142.353 182.052 142.417 182.025 142.484 182.025H143.491C143.558 182.025 143.622 182.052 143.669 182.099C143.717 182.146 143.743 182.21 143.743 182.277C143.743 182.342 143.718 182.405 143.673 182.452C143.628 182.499 143.566 182.526 143.501 182.529H143.491ZM132.522 182.529H131.514C131.447 182.529 131.383 182.502 131.336 182.455C131.289 182.408 131.262 182.344 131.262 182.277C131.262 182.21 131.289 182.146 131.336 182.099C131.383 182.052 131.447 182.025 131.514 182.025H132.522C132.588 182.026 132.651 182.053 132.698 182.1C132.745 182.147 132.772 182.211 132.773 182.277C132.773 182.342 132.748 182.405 132.703 182.452C132.658 182.499 132.597 182.526 132.532 182.529H132.522ZM121.547 182.529H120.539C120.473 182.529 120.409 182.502 120.361 182.455C120.314 182.408 120.288 182.344 120.288 182.277C120.289 182.211 120.316 182.147 120.363 182.1C120.41 182.053 120.473 182.026 120.539 182.025H121.547C121.613 182.025 121.678 182.052 121.725 182.099C121.772 182.146 121.799 182.21 121.799 182.277C121.799 182.342 121.773 182.405 121.728 182.452C121.683 182.499 121.622 182.526 121.557 182.529H121.547ZM110.577 182.529H109.57C109.503 182.529 109.439 182.502 109.392 182.455C109.344 182.408 109.318 182.344 109.318 182.277C109.318 182.21 109.344 182.146 109.392 182.099C109.439 182.052 109.503 182.025 109.57 182.025H110.577C110.644 182.025 110.708 182.052 110.755 182.099C110.802 182.146 110.829 182.21 110.829 182.277C110.829 182.342 110.804 182.405 110.759 182.452C110.714 182.499 110.652 182.526 110.587 182.529H110.577ZM99.6072 182.529H99.2999C99.0582 182.529 98.7963 182.529 98.5847 182.499C98.5517 182.496 98.5195 182.486 98.4901 182.471C98.4607 182.455 98.4346 182.434 98.4133 182.409C98.392 182.383 98.376 182.354 98.3661 182.322C98.3562 182.291 98.3526 182.257 98.3556 182.224C98.3586 182.191 98.368 182.159 98.3834 182.129C98.3988 182.1 98.4199 182.074 98.4454 182.053C98.4709 182.031 98.5003 182.015 98.532 182.005C98.5637 181.996 98.597 181.992 98.6301 181.995C98.8517 181.995 99.0733 182.025 99.2999 182.025H99.6072C99.6736 182.026 99.7369 182.053 99.7838 182.1C99.8308 182.147 99.8577 182.211 99.859 182.277C99.8591 182.342 99.8339 182.405 99.7888 182.452C99.7438 182.499 99.6823 182.526 99.6172 182.529H99.6072ZM195.112 177.442H195.036C195.004 177.432 194.975 177.416 194.949 177.395C194.924 177.373 194.903 177.347 194.888 177.318C194.873 177.288 194.864 177.256 194.862 177.222C194.859 177.189 194.864 177.156 194.875 177.125C194.976 176.82 195.057 176.508 195.117 176.193C195.129 176.127 195.166 176.07 195.221 176.032C195.276 175.994 195.343 175.98 195.409 175.991C195.442 175.997 195.473 176.01 195.501 176.028C195.529 176.046 195.553 176.07 195.572 176.098C195.591 176.125 195.604 176.156 195.61 176.189C195.617 176.222 195.617 176.256 195.61 176.288C195.548 176.63 195.462 176.966 195.353 177.296C195.332 177.338 195.298 177.373 195.257 177.397C195.216 177.421 195.169 177.433 195.122 177.432L195.112 177.442ZM91.9414 176.102C91.8799 176.101 91.8206 176.079 91.7744 176.038C91.7281 175.997 91.6981 175.941 91.6896 175.88C91.6441 175.547 91.6205 175.21 91.6191 174.873C91.6184 174.84 91.6244 174.806 91.6368 174.775C91.6492 174.744 91.6676 174.716 91.691 174.692C91.7145 174.668 91.7425 174.649 91.7734 174.636C91.8043 174.623 91.8374 174.616 91.8709 174.616C91.9373 174.618 92.0006 174.645 92.0476 174.691C92.0945 174.738 92.1215 174.802 92.1228 174.868C92.1243 175.19 92.1462 175.511 92.1882 175.83C92.1932 175.863 92.1915 175.896 92.1832 175.929C92.1749 175.961 92.1602 175.991 92.1399 176.017C92.1197 176.044 92.0944 176.066 92.0655 176.082C92.0366 176.098 92.0047 176.108 91.9717 176.112L91.9414 176.102ZM91.8357 165.132C91.7727 165.134 91.7115 165.111 91.6647 165.069C91.6179 165.027 91.589 164.968 91.5838 164.906C91.553 164.587 91.4992 164.27 91.4227 163.959C91.4152 163.926 91.4143 163.893 91.4199 163.86C91.4255 163.827 91.4376 163.796 91.4554 163.768C91.4732 163.74 91.4964 163.715 91.5236 163.696C91.5508 163.677 91.5816 163.664 91.6141 163.657C91.6462 163.648 91.6796 163.647 91.7123 163.652C91.7451 163.657 91.7765 163.668 91.8047 163.686C91.8329 163.703 91.8573 163.726 91.8765 163.753C91.8956 163.78 91.9092 163.811 91.9163 163.843C91.9939 164.175 92.0494 164.511 92.0825 164.85C92.0895 164.916 92.0702 164.983 92.0287 165.034C91.9872 165.086 91.9269 165.12 91.8609 165.127L91.8357 165.132ZM84.4117 158.429H83.4044C83.3376 158.429 83.2735 158.402 83.2263 158.355C83.1791 158.308 83.1525 158.244 83.1525 158.177C83.1525 158.11 83.1791 158.046 83.2263 157.999C83.2735 157.951 83.3376 157.925 83.4044 157.925H84.4117C84.4785 157.925 84.5425 157.951 84.5898 157.999C84.637 158.046 84.6635 158.11 84.6635 158.177C84.6635 158.244 84.637 158.308 84.5898 158.355C84.5425 158.402 84.4785 158.429 84.4117 158.429ZM73.4419 158.429H72.4346C72.3678 158.429 72.3038 158.402 72.2565 158.355C72.2093 158.308 72.1828 158.244 72.1828 158.177C72.1828 158.11 72.2093 158.046 72.2565 157.999C72.3038 157.951 72.3678 157.925 72.4346 157.925H73.4419C73.5083 157.926 73.5716 157.953 73.6186 158C73.6655 158.047 73.6925 158.11 73.6938 158.177C73.6938 158.244 73.6672 158.308 73.62 158.355C73.5728 158.402 73.5087 158.429 73.4419 158.429ZM62.4671 158.429H61.4598C61.393 158.429 61.329 158.402 61.2817 158.355C61.2345 158.308 61.208 158.244 61.208 158.177C61.2093 158.11 61.2362 158.047 61.2832 158C61.3301 157.953 61.3934 157.926 61.4598 157.925H62.4671C62.5339 157.925 62.598 157.951 62.6452 157.999C62.6924 158.046 62.719 158.11 62.719 158.177C62.719 158.244 62.6924 158.308 62.6452 158.355C62.598 158.402 62.5339 158.429 62.4671 158.429ZM51.4974 158.429H50.49C50.4232 158.429 50.3592 158.402 50.312 158.355C50.2647 158.308 50.2382 158.244 50.2382 158.177C50.2382 158.11 50.2647 158.046 50.312 157.999C50.3592 157.951 50.4232 157.925 50.49 157.925H51.4974C51.5641 157.925 51.6282 157.951 51.6754 157.999C51.7227 158.046 51.7492 158.11 51.7492 158.177C51.7492 158.244 51.7227 158.308 51.6754 158.355C51.6282 158.402 51.5641 158.429 51.4974 158.429ZM40.5276 158.429H39.5203C39.4535 158.429 39.3894 158.402 39.3422 158.355C39.295 158.308 39.2684 158.244 39.2684 158.177C39.2684 158.11 39.295 158.046 39.3422 157.999C39.3894 157.951 39.4535 157.925 39.5203 157.925H40.5276C40.594 157.926 40.6573 157.953 40.7042 158C40.7512 158.047 40.7781 158.11 40.7794 158.177C40.7794 158.244 40.7529 158.308 40.7057 158.355C40.6584 158.402 40.5944 158.429 40.5276 158.429ZM30.5752 155.331C30.5362 155.331 30.4978 155.321 30.4629 155.304C30.428 155.287 30.3975 155.261 30.3738 155.23C30.1749 154.941 29.9966 154.638 29.8399 154.324C29.8092 154.264 29.8033 154.195 29.8236 154.131C29.8439 154.068 29.8887 154.015 29.9482 153.984C30.0076 153.953 30.0768 153.947 30.1406 153.968C30.2043 153.988 30.2574 154.033 30.2881 154.092C30.4356 154.376 30.6039 154.649 30.7918 154.908C30.8111 154.935 30.8249 154.966 30.8323 154.998C30.8397 155.031 30.8407 155.064 30.8351 155.097C30.8294 155.13 30.8174 155.161 30.7996 155.189C30.7818 155.217 30.7586 155.241 30.7314 155.261C30.6897 155.302 30.6341 155.327 30.5752 155.331ZM29.1952 144.653C29.1288 144.652 29.0655 144.625 29.0185 144.578C28.9716 144.531 28.9446 144.468 28.9434 144.402V143.394C28.9434 143.327 28.9699 143.263 29.0171 143.216C29.0643 143.169 29.1284 143.142 29.1952 143.142C29.262 143.142 29.326 143.169 29.3733 143.216C29.4205 143.263 29.447 143.327 29.447 143.394V144.402C29.4408 144.464 29.4115 144.522 29.3649 144.564C29.3184 144.606 29.2578 144.629 29.1952 144.628V144.653ZM29.1952 133.679C29.1284 133.679 29.0643 133.652 29.0171 133.605C28.9699 133.558 28.9434 133.494 28.9434 133.427V132.419C28.9446 132.353 28.9716 132.29 29.0185 132.243C29.0655 132.196 29.1288 132.169 29.1952 132.168C29.262 132.168 29.326 132.194 29.3733 132.241C29.4205 132.289 29.447 132.353 29.447 132.419V133.427C29.4457 133.493 29.4186 133.556 29.3715 133.602C29.3244 133.648 29.2611 133.674 29.1952 133.674V133.679ZM29.1952 122.709C29.1284 122.709 29.0643 122.682 29.0171 122.635C28.9699 122.588 28.9434 122.524 28.9434 122.457V121.45C28.9434 121.383 28.9699 121.319 29.0171 121.272C29.0643 121.224 29.1284 121.198 29.1952 121.198C29.262 121.198 29.326 121.224 29.3733 121.272C29.4205 121.319 29.447 121.383 29.447 121.45V122.457C29.4408 122.519 29.4115 122.577 29.3649 122.619C29.3184 122.661 29.2578 122.684 29.1952 122.684V122.709ZM29.1952 111.739C29.1288 111.738 29.0655 111.711 29.0185 111.664C28.9716 111.617 28.9446 111.554 28.9434 111.487V110.48C28.9434 110.413 28.9699 110.349 29.0171 110.302C29.0643 110.255 29.1284 110.228 29.1952 110.228C29.262 110.228 29.326 110.255 29.3733 110.302C29.4205 110.349 29.447 110.413 29.447 110.48V111.487C29.4408 111.55 29.4115 111.607 29.3649 111.649C29.3184 111.691 29.2578 111.714 29.1952 111.714V111.739ZM31.6128 101.439C31.5629 101.439 31.5143 101.423 31.4732 101.395C31.4321 101.366 31.4004 101.326 31.3821 101.28C31.3637 101.234 31.3596 101.183 31.3702 101.134C31.3807 101.085 31.4056 101.041 31.4415 101.006C31.6964 100.775 31.9655 100.559 32.2474 100.361C32.2744 100.34 32.3054 100.325 32.3385 100.317C32.3715 100.308 32.406 100.306 32.4398 100.311C32.4736 100.317 32.5059 100.329 32.5349 100.347C32.5639 100.365 32.5889 100.389 32.6085 100.417C32.628 100.445 32.6415 100.476 32.6484 100.51C32.6552 100.543 32.6552 100.578 32.6483 100.611C32.6414 100.645 32.6277 100.677 32.6081 100.705C32.5886 100.733 32.5635 100.756 32.5345 100.774C32.2711 100.957 32.0204 101.157 31.784 101.374C31.7372 101.416 31.676 101.44 31.6128 101.439Z" fill="white"/>
<path d="M195.506 166.472C195.439 166.472 195.375 166.446 195.328 166.398C195.28 166.351 195.254 166.287 195.254 166.22V165.717C195.254 165.65 195.28 165.586 195.328 165.539C195.375 165.491 195.439 165.465 195.506 165.465C195.573 165.465 195.637 165.491 195.684 165.539C195.731 165.586 195.758 165.65 195.758 165.717V166.22C195.758 166.287 195.731 166.351 195.684 166.398C195.637 166.446 195.573 166.472 195.506 166.472Z" fill="white"/>
<path d="M151.32 199.91H137.424C136.543 199.908 135.698 199.558 135.075 198.934C134.452 198.311 134.101 197.467 134.1 196.585V122.094H155.757V195.472C155.758 196.055 155.643 196.632 155.421 197.171C155.198 197.71 154.871 198.199 154.459 198.611C154.047 199.024 153.557 199.35 153.019 199.573C152.48 199.796 151.903 199.91 151.32 199.91Z" fill="#3E479B"/>
<path d="M152.561 199.91H143.666V122.094H155.754V196.716C155.754 197.563 155.417 198.375 154.819 198.974C154.22 199.573 153.408 199.91 152.561 199.91Z" fill="#4C65BA"/>
<path d="M106.56 50.5742H175.829C179.51 50.5736 183.155 51.2981 186.556 52.7064C189.956 54.1148 193.047 56.1793 195.649 58.7822C198.252 61.385 200.317 64.4752 201.725 67.8761C203.134 71.277 203.858 74.922 203.857 78.603V127.851C203.857 128.395 203.641 128.916 203.257 129.301C202.873 129.685 202.351 129.901 201.807 129.901H80.2083C80.1777 129.902 80.1473 129.896 80.1188 129.885C80.0904 129.873 80.0646 129.856 80.043 129.835C80.0213 129.813 80.0043 129.787 79.9929 129.759C79.9815 129.73 79.9759 129.7 79.9766 129.669V77.1776C79.9766 70.1255 82.7767 63.3618 87.7615 58.3733C92.7462 53.3848 99.5077 50.5796 106.56 50.5742Z" fill="#599AF2"/>
<g opacity="0.07">
<path opacity="0.07" d="M115.12 61.4062H167.501C174.935 61.4063 182.064 64.3593 187.321 69.6157C192.577 74.8721 195.53 82.0013 195.53 89.435V127.854C195.53 128.398 195.314 128.919 194.93 129.304C194.545 129.688 194.024 129.904 193.48 129.904H88.7689C88.7382 129.905 88.7078 129.899 88.6794 129.888C88.651 129.877 88.6252 129.86 88.6035 129.838C88.5818 129.816 88.5648 129.791 88.5534 129.762C88.542 129.734 88.5365 129.703 88.5372 129.673V88.0097C88.5372 80.9575 91.3373 74.1939 96.322 69.2053C101.307 64.2168 108.068 61.4116 115.12 61.4062Z" fill="#ECF1F7"/>
</g>
<g opacity="0.65">
<path opacity="0.65" d="M201.543 130.149H125.031V123.602H203.854V127.837C203.855 128.141 203.796 128.442 203.68 128.723C203.564 129.004 203.394 129.259 203.179 129.474C202.964 129.688 202.709 129.859 202.428 129.975C202.147 130.09 201.846 130.15 201.543 130.149Z" fill="#4C65BA"/>
</g>
<g opacity="0.65">
<path opacity="0.65" d="M201.543 130.149H125.031V123.602H203.854V127.837C203.855 128.141 203.796 128.442 203.68 128.723C203.564 129.004 203.394 129.259 203.179 129.474C202.964 129.688 202.709 129.859 202.428 129.975C202.147 130.09 201.846 130.15 201.543 130.149Z" fill="#4C65BA"/>
</g>
<path d="M202.092 129.901H167.279V123.797H203.855V128.138C203.857 128.371 203.813 128.601 203.725 128.815C203.637 129.03 203.508 129.225 203.343 129.389C203.179 129.554 202.984 129.683 202.769 129.771C202.555 129.859 202.325 129.903 202.092 129.901Z" fill="#3E479B"/>
<path opacity="0.07" d="M203.856 78.7773H128.811V123.603H203.856V78.7773Z" fill="#373449"/>
<path d="M125.788 128.135H82.9771C82.1756 128.135 81.4069 127.817 80.8402 127.25C80.2735 126.683 79.9551 125.915 79.9551 125.113V76.5096C79.9544 73.3016 80.5858 70.1248 81.8132 67.1608C83.0405 64.1968 84.8398 61.5037 87.1083 59.2352C89.3767 56.9668 92.0699 55.1675 95.0339 53.9401C97.9979 52.7128 101.175 52.0814 104.383 52.082C107.591 52.0814 110.768 52.7128 113.732 53.9401C116.696 55.1675 119.389 56.9668 121.657 59.2352C123.926 61.5037 125.725 64.1968 126.952 67.1608C128.18 70.1248 128.811 73.3016 128.81 76.5096V125.113C128.81 125.915 128.492 126.683 127.925 127.25C127.358 127.817 126.59 128.135 125.788 128.135Z" fill="#4C65BA"/>
<path d="M125.284 128.137H82.4727V77.015C82.4727 71.3379 84.7279 65.8933 88.7422 61.8789C92.7566 57.8646 98.2012 55.6094 103.878 55.6094C109.555 55.6094 115 57.8646 119.014 61.8789C123.029 65.8933 125.284 71.3379 125.284 77.015V128.137Z" fill="#373449"/>
<path d="M127.004 121.592H91.5406C91.2355 121.592 90.9333 121.533 90.6513 121.416C90.3693 121.3 90.1131 121.129 89.8973 120.913C89.6816 120.697 89.5106 120.441 89.3941 120.159C89.2777 119.877 89.2181 119.575 89.2188 119.27V97.9195C89.2188 97.1514 89.5239 96.4148 90.067 95.8717C90.6101 95.3286 91.3467 95.0234 92.1148 95.0234H125.815C126.75 95.0234 127.647 95.3949 128.308 96.0561C128.969 96.7173 129.34 97.614 129.34 98.5491V119.27C129.341 119.576 129.281 119.88 129.164 120.163C129.046 120.446 128.874 120.702 128.657 120.918C128.439 121.134 128.181 121.305 127.897 121.421C127.614 121.536 127.31 121.594 127.004 121.592Z" fill="#6D6CD4"/>
<path opacity="0.56" d="M127.502 121.593H91.042C90.5584 121.593 90.0947 121.401 89.7528 121.059C89.4108 120.717 89.2188 120.253 89.2188 119.77V97.6084C89.2192 97.3364 89.3176 97.0736 89.4958 96.8681C89.597 96.7525 89.739 96.6806 89.892 96.6674C90.0451 96.6543 90.1973 96.7009 90.3167 96.7975L104.258 108.336L107.139 110.724C107.737 111.217 108.49 111.484 109.265 111.479C110.04 111.473 110.789 111.195 111.38 110.694L128.504 96.168C128.805 96.4093 129.039 96.7232 129.184 97.0801C129.33 97.4371 129.382 97.8252 129.335 98.2078V119.79C129.33 120.272 129.134 120.732 128.791 121.069C128.447 121.407 127.984 121.596 127.502 121.593Z" fill="#3E479B"/>
<path d="M90.049 121.819C89.9463 121.82 89.8458 121.79 89.761 121.732C89.6762 121.674 89.611 121.592 89.5743 121.496C89.5376 121.4 89.5311 121.295 89.5556 121.195C89.5801 121.096 89.6345 121.006 89.7116 120.938L104.751 107.561C104.851 107.472 104.982 107.426 105.116 107.435C105.25 107.443 105.375 107.503 105.464 107.604C105.552 107.704 105.598 107.835 105.59 107.969C105.582 108.102 105.521 108.227 105.421 108.316L90.3814 121.693C90.2896 121.774 90.1714 121.819 90.049 121.819Z" fill="#6D6CD4"/>
<path d="M127.942 121.816C127.819 121.816 127.701 121.771 127.609 121.691L113.003 108.736C112.95 108.694 112.906 108.64 112.873 108.58C112.841 108.52 112.822 108.453 112.816 108.385C112.811 108.317 112.819 108.249 112.84 108.184C112.862 108.119 112.897 108.059 112.942 108.008C112.988 107.957 113.043 107.916 113.105 107.887C113.167 107.858 113.234 107.842 113.303 107.84C113.371 107.838 113.439 107.85 113.503 107.875C113.566 107.9 113.624 107.938 113.673 107.986L128.279 120.935C128.378 121.024 128.438 121.149 128.446 121.282C128.453 121.415 128.408 121.546 128.319 121.645C128.272 121.699 128.214 121.742 128.149 121.771C128.084 121.801 128.013 121.816 127.942 121.816Z" fill="#6D6CD4"/>
<path d="M125.539 128.141H85.75V125.683C85.7493 125.146 85.8547 124.614 86.06 124.118C86.2653 123.621 86.5665 123.17 86.9464 122.79C87.3263 122.41 87.7774 122.109 88.2739 121.904C88.7704 121.698 89.3025 121.593 89.8397 121.594H125.539V128.141Z" fill="#F28393"/>
<path d="M124.071 137.203H52.1225C51.4782 137.203 50.8403 137.076 50.2451 136.829C49.65 136.583 49.1092 136.221 48.6536 135.766C48.1981 135.31 47.8368 134.769 47.5902 134.174C47.3437 133.579 47.2168 132.941 47.2168 132.297V128.137H129.817V131.456C129.817 132.98 129.212 134.442 128.134 135.519C127.056 136.597 125.595 137.203 124.071 137.203Z" fill="#599AF2"/>
<path d="M124.069 137.203H101.48C100.836 137.203 100.198 137.076 99.6026 136.829C99.0074 136.583 98.4666 136.221 98.0111 135.766C97.5555 135.31 97.1942 134.769 96.9476 134.174C96.7011 133.579 96.5742 132.941 96.5742 132.297V128.137H129.816V131.456C129.816 132.98 129.21 134.442 128.133 135.519C127.055 136.597 125.593 137.203 124.069 137.203Z" fill="#4C65BA"/>
<path d="M148.454 87.3369C152.348 87.3369 155.505 84.1799 155.505 80.2856C155.505 76.3913 152.348 73.2344 148.454 73.2344C144.559 73.2344 141.402 76.3913 141.402 80.2856C141.402 84.1799 144.559 87.3369 148.454 87.3369Z" fill="#3E479B"/>
<path d="M148.454 82.5581C148.156 82.5588 147.861 82.5006 147.586 82.3869C147.311 82.2733 147.06 82.1064 146.85 81.8958C146.639 81.6852 146.472 81.435 146.359 81.1598C146.245 80.8845 146.187 80.5895 146.188 80.2916V35.4657C146.187 35.1679 146.245 34.8729 146.359 34.5976C146.472 34.3223 146.639 34.0722 146.85 33.8616C147.06 33.651 147.311 33.4841 147.586 33.3704C147.861 33.2567 148.156 33.1986 148.454 33.1992C148.752 33.1986 149.047 33.2567 149.322 33.3704C149.597 33.4841 149.848 33.651 150.058 33.8616C150.269 34.0722 150.436 34.3223 150.549 34.5976C150.663 34.8729 150.721 35.1679 150.72 35.4657V80.2916C150.721 80.5895 150.663 80.8845 150.549 81.1598C150.436 81.435 150.269 81.6852 150.058 81.8958C149.848 82.1064 149.597 82.2733 149.322 82.3869C149.047 82.5006 148.752 82.5588 148.454 82.5581Z" fill="#3E479B"/>
<path d="M149.462 86.334C152.8 86.334 155.506 83.628 155.506 80.29C155.506 76.9521 152.8 74.2461 149.462 74.2461C146.124 74.2461 143.418 76.9521 143.418 80.29C143.418 83.628 146.124 86.334 149.462 86.334Z" fill="#4C65BA"/>
<path d="M151.475 46.3652V35.4609H172.14L151.475 46.3652Z" fill="#6D6CD4"/>
<path d="M151.475 46.3652V35.4609H172.14L151.475 46.3652Z" fill="#6D6CD4"/>
<path d="M149.46 82.5581C149.162 82.5588 148.867 82.5006 148.592 82.3869C148.316 82.2733 148.066 82.1064 147.856 81.8958C147.645 81.6852 147.478 81.435 147.365 81.1598C147.251 80.8845 147.193 80.5895 147.193 80.2916V35.4657C147.193 35.1679 147.251 34.8729 147.365 34.5976C147.478 34.3223 147.645 34.0722 147.856 33.8616C148.066 33.651 148.316 33.4841 148.592 33.3704C148.867 33.2567 149.162 33.1986 149.46 33.1992C149.758 33.1986 150.053 33.2567 150.328 33.3704C150.603 33.4841 150.853 33.651 151.064 33.8616C151.275 34.0722 151.441 34.3223 151.555 34.5976C151.669 34.8729 151.727 35.1679 151.726 35.4657V80.2916C151.727 80.5895 151.669 80.8845 151.555 81.1598C151.441 81.435 151.275 81.6852 151.064 81.8958C150.853 82.1064 150.603 82.2733 150.328 82.3869C150.053 82.5006 149.758 82.5588 149.46 82.5581Z" fill="#4C65BA"/>
<path d="M149.46 83.8148C148.738 83.8148 148.032 83.6007 147.431 83.1994C146.831 82.7982 146.363 82.2279 146.087 81.5607C145.81 80.8934 145.738 80.1592 145.879 79.4509C146.02 78.7426 146.367 78.0919 146.878 77.5812C147.389 77.0706 148.039 76.7228 148.748 76.5819C149.456 76.441 150.19 76.5133 150.858 76.7897C151.525 77.0661 152.095 77.5341 152.496 78.1346C152.898 78.7351 153.112 79.4411 153.112 80.1633C153.11 81.1313 152.725 82.0593 152.041 82.7438C151.356 83.4283 150.428 83.8135 149.46 83.8148ZM149.46 77.0154C148.838 77.0154 148.229 77.2 147.711 77.5459C147.194 77.8918 146.79 78.3834 146.552 78.9586C146.314 79.5338 146.251 80.1668 146.373 80.7774C146.494 81.388 146.794 81.9489 147.234 82.3892C147.674 82.8294 148.235 83.1292 148.846 83.2507C149.457 83.3721 150.09 83.3098 150.665 83.0715C151.24 82.8333 151.732 82.4298 152.078 81.9121C152.423 81.3945 152.608 80.7859 152.608 80.1633C152.608 79.3284 152.276 78.5277 151.686 77.9374C151.096 77.347 150.295 77.0154 149.46 77.0154Z" fill="#3E479B"/>
<path d="M71.8167 81.4125H30.0934C29.7885 81.4125 29.4865 81.3525 29.2048 81.2358C28.9231 81.1191 28.6672 80.9481 28.4515 80.7325C28.2359 80.5169 28.0649 80.2609 27.9482 79.9792C27.8315 79.6975 27.7715 79.3956 27.7715 79.0906V53.5953C27.7715 52.8272 28.0766 52.0906 28.6197 51.5475C29.1628 51.0043 29.8995 50.6992 30.6675 50.6992H70.6382C71.5732 50.6992 72.47 51.0707 73.1312 51.7319C73.7924 52.393 74.1638 53.2898 74.1638 54.2249V79.0906C74.1632 79.3975 74.1018 79.7012 73.9833 79.9843C73.8648 80.2673 73.6915 80.5241 73.4734 80.7399C73.2552 80.9557 72.9966 81.1263 72.7122 81.2417C72.4279 81.3571 72.1236 81.4152 71.8167 81.4125Z" fill="#6D6CD4"/>
<path opacity="0.59" d="M72.0284 81.4111H29.8769C29.5985 81.4104 29.3229 81.3547 29.0662 81.2471C28.8094 81.1395 28.5764 80.9821 28.3807 80.7841C28.185 80.586 28.0305 80.3512 27.9259 80.0932C27.8214 79.8352 27.7689 79.559 27.7716 79.2806V53.6593C27.7726 53.3444 27.887 53.0404 28.0939 52.8031C28.21 52.6687 28.374 52.585 28.551 52.5699C28.7279 52.5548 28.9037 52.6096 29.0408 52.7225L45.158 66.0595L48.4771 68.8195C49.1677 69.3903 50.037 69.7001 50.9329 69.6945C51.8289 69.689 52.6943 69.3686 53.3778 68.7893L73.1566 51.9922C74.3956 53.1708 74.1186 54.3493 74.1186 54.3493V79.2806C74.1226 79.8399 73.905 80.378 73.5133 80.7773C73.1216 81.1766 72.5877 81.4044 72.0284 81.4111Z" fill="#3E479B"/>
<path d="M29.1983 81.1808C29.096 81.1807 28.9962 81.1494 28.9122 81.0912C28.8281 81.033 28.7638 80.9506 28.7277 80.8549C28.6916 80.7592 28.6855 80.6549 28.7102 80.5556C28.7349 80.4564 28.7892 80.367 28.8658 80.2994L45.7788 65.25C45.8783 65.1592 46.0099 65.1116 46.1445 65.1177C46.2791 65.1239 46.4057 65.1832 46.4965 65.2827C46.5874 65.3822 46.635 65.5138 46.6288 65.6484C46.6227 65.783 46.5633 65.9096 46.4638 66.0004L29.5357 81.0499C29.4433 81.1338 29.3231 81.1805 29.1983 81.1808Z" fill="#6D6CD4"/>
<path d="M72.5366 81.2966C72.4159 81.2952 72.2997 81.2506 72.2092 81.1707L55.3164 66.4839C55.2641 66.4413 55.2209 66.3887 55.1893 66.329C55.1578 66.2694 55.1385 66.2041 55.1327 66.1369C55.1269 66.0697 55.1347 66.002 55.1555 65.9379C55.1764 65.8737 55.2099 65.8144 55.2541 65.7634C55.2983 65.7125 55.3523 65.671 55.4128 65.6413C55.4734 65.6116 55.5393 65.5944 55.6066 65.5906C55.674 65.5869 55.7414 65.5967 55.8049 65.6195C55.8683 65.6423 55.9266 65.6777 55.9761 65.7234L72.869 80.4102C72.9196 80.4536 72.9612 80.5066 72.9911 80.5662C73.0211 80.6258 73.039 80.6907 73.0437 80.7573C73.0484 80.8238 73.0398 80.8906 73.0184 80.9538C72.9971 81.017 72.9634 81.0753 72.9194 81.1254C72.8716 81.1798 72.8127 81.2232 72.7466 81.2527C72.6806 81.2823 72.6089 81.2973 72.5366 81.2966Z" fill="#6D6CD4"/>
<path d="M73.8913 58.9231C78.353 58.9231 81.97 55.3061 81.97 50.8444C81.97 46.3826 78.353 42.7656 73.8913 42.7656C69.4295 42.7656 65.8125 46.3826 65.8125 50.8444C65.8125 55.3061 69.4295 58.9231 73.8913 58.9231Z" fill="#F28393"/>
<path d="M72.0994 53.9671H71.218V48.6182L70.3164 49.1723V48.2556L71.218 47.6562H72.0994V53.9671Z" fill="white"/>
<path d="M73.9921 53.5601C73.832 53.3816 73.709 53.1729 73.6303 52.9464C73.5517 52.7198 73.5188 52.4799 73.5338 52.2405V49.3747C73.5062 49.1317 73.534 48.8856 73.615 48.6548C73.6961 48.424 73.8282 48.2146 74.0017 48.0421C74.1751 47.8697 74.3853 47.7387 74.6165 47.6589C74.8477 47.5792 75.094 47.5528 75.3369 47.5817C75.5815 47.5638 75.8272 47.5967 76.0586 47.6781C76.29 47.7596 76.5021 47.8879 76.6816 48.0551C76.8426 48.2341 76.9661 48.4436 77.0448 48.6711C77.1235 48.8986 77.1559 49.1395 77.14 49.3798V52.2456C77.155 52.4857 77.1222 52.7265 77.0436 52.9538C76.9649 53.1812 76.8419 53.3907 76.6816 53.5702C76.5018 53.7351 76.2903 53.8617 76.0599 53.9422C75.8296 54.0227 75.5853 54.0555 75.3419 54.0386C75.096 54.0571 74.8489 54.0241 74.6165 53.9417C74.3841 53.8594 74.1714 53.7294 73.9921 53.5601ZM76.0067 52.9457C76.1673 52.7472 76.2465 52.4952 76.2283 52.2405V49.3747C76.2465 49.1201 76.1673 48.8681 76.0067 48.6696C75.8114 48.5096 75.5667 48.4222 75.3142 48.4222C75.0617 48.4222 74.817 48.5096 74.6217 48.6696C74.4611 48.8681 74.3819 49.1201 74.4 49.3747V52.2405C74.3819 52.4952 74.4611 52.7472 74.6217 52.9457C74.817 53.1057 75.0617 53.1931 75.3142 53.1931C75.5667 53.1931 75.8114 53.1057 76.0067 52.9457Z" fill="white"/>
<path d="M103.234 109.721H49.2469C48.8737 109.721 48.504 109.648 48.1591 109.506C47.8141 109.363 47.5007 109.154 47.2368 108.89C46.9729 108.626 46.7637 108.313 46.6211 107.968C46.4786 107.623 46.4056 107.253 46.4063 106.88V73.5627C46.4056 73.1418 46.488 72.725 46.6487 72.336C46.8095 71.9471 47.0454 71.5937 47.343 71.2961C47.6406 70.9985 47.994 70.7626 48.3829 70.6019C48.7719 70.4411 49.1887 70.3587 49.6095 70.3594H102.041C102.542 70.3587 103.038 70.4569 103.501 70.6482C103.965 70.8395 104.385 71.1202 104.74 71.4743C105.095 71.8284 105.376 72.249 105.568 72.7119C105.76 73.1748 105.859 73.671 105.859 74.1721V107.097C105.859 107.792 105.582 108.46 105.09 108.952C104.598 109.444 103.93 109.721 103.234 109.721Z" fill="#F7A9B4"/>
<path d="M103.159 109.72H49.1059C48.7514 109.72 48.4003 109.65 48.0728 109.514C47.7453 109.379 47.4476 109.18 47.197 108.929C46.9463 108.678 46.7474 108.381 46.6118 108.053C46.4761 107.726 46.4063 107.375 46.4063 107.02V74.1412C46.4047 73.7354 46.5516 73.3431 46.8193 73.0382C46.9692 72.8658 47.1805 72.7588 47.4082 72.74C47.6359 72.7212 47.8619 72.792 48.0381 72.9374L68.6883 90.0368L72.9644 93.5624C73.849 94.2951 74.9634 94.6926 76.112 94.6853C77.2606 94.6779 78.3699 94.2661 79.245 93.5221L104.62 71.9805C106.206 73.4915 105.848 75.0024 105.848 75.0024V107C105.851 107.355 105.784 107.708 105.65 108.037C105.516 108.366 105.318 108.666 105.068 108.919C104.819 109.171 104.521 109.372 104.194 109.51C103.866 109.647 103.514 109.719 103.159 109.72Z" fill="#F28393"/>
<path d="M47.9748 109.5C47.8721 109.501 47.7716 109.47 47.6868 109.412C47.6019 109.354 47.5368 109.272 47.5001 109.176C47.4634 109.08 47.4569 108.975 47.4814 108.876C47.5059 108.776 47.5603 108.686 47.6373 108.618L69.592 89.1265C69.6405 89.0784 69.6983 89.0406 69.762 89.0155C69.8256 88.9905 69.8936 88.9786 69.9619 88.9807C70.0303 88.9828 70.0975 88.9988 70.1594 89.0276C70.2214 89.0565 70.2768 89.0977 70.3223 89.1487C70.3679 89.1997 70.4025 89.2595 70.4242 89.3243C70.4459 89.3891 70.4542 89.4577 70.4485 89.5258C70.4429 89.594 70.4234 89.6602 70.3913 89.7206C70.3592 89.781 70.3152 89.8342 70.2618 89.8769L48.3072 109.349C48.2192 109.439 48.1006 109.493 47.9748 109.5Z" fill="#F7A9B4"/>
<path d="M103.879 109.501C103.757 109.502 103.639 109.459 103.546 109.38L81.8183 90.4879C81.766 90.4452 81.7228 90.3926 81.6913 90.3329C81.6597 90.2733 81.6405 90.208 81.6347 90.1408C81.6289 90.0736 81.6366 90.0059 81.6575 89.9418C81.6783 89.8776 81.7118 89.8183 81.756 89.7674C81.8002 89.7164 81.8542 89.6749 81.9148 89.6452C81.9753 89.6155 82.0412 89.5983 82.1086 89.5945C82.1759 89.5908 82.2433 89.6006 82.3068 89.6234C82.3703 89.6462 82.4285 89.6816 82.4781 89.7273L104.211 108.64C104.311 108.728 104.372 108.852 104.381 108.986C104.389 109.119 104.344 109.25 104.256 109.35C104.207 109.4 104.149 109.439 104.084 109.465C104.018 109.491 103.949 109.504 103.879 109.501Z" fill="#F7A9B4"/>
<path d="M208.62 76.4089C214.737 76.4089 219.696 71.4502 219.696 65.3333C219.696 59.2165 214.737 54.2578 208.62 54.2578C202.504 54.2578 197.545 59.2165 197.545 65.3333C197.545 71.4502 202.504 76.4089 208.62 76.4089Z" fill="#3E479B"/>
<path d="M211.162 53.534C213.267 43.7809 207.068 34.1678 197.314 32.0627C187.561 29.9575 177.948 36.1575 175.843 45.9106C173.738 55.6638 179.938 65.2769 189.691 67.382C199.444 69.4872 209.057 63.2872 211.162 53.534Z" fill="#F28393"/>
<path d="M193.497 61.7178C192.517 61.7198 191.57 61.3618 190.837 60.7119C190.103 60.062 189.634 59.1653 189.518 58.1922L189.482 57.9102H197.506L197.476 58.1922C197.353 59.1627 196.882 60.0556 196.15 60.7043C195.418 61.353 194.475 61.7133 193.497 61.7178ZM190.062 58.3987C190.241 59.1752 190.679 59.8679 191.302 60.3639C191.926 60.8599 192.7 61.13 193.497 61.13C194.294 61.13 195.067 60.8599 195.691 60.3639C196.315 59.8679 196.752 59.1752 196.932 58.3987H190.062Z" fill="white"/>
<path d="M200.911 54.2102H186.078V47.4309C186.081 45.5469 186.83 43.7408 188.163 42.4087C189.495 41.0765 191.301 40.3269 193.185 40.3242H193.804C195.688 40.3269 197.494 41.0765 198.827 42.4087C200.159 43.7408 200.908 45.5469 200.911 47.4309V54.2102ZM186.582 53.7065H200.407V47.4309C200.406 45.6801 199.71 44.0013 198.472 42.7633C197.234 41.5253 195.555 40.8292 193.804 40.8279H193.185C191.434 40.8292 189.755 41.5253 188.517 42.7633C187.279 44.0013 186.583 45.6801 186.582 47.4309V53.7065Z" fill="white"/>
<path d="M200.664 58.4012H186.33C185.731 58.4012 185.156 58.1636 184.733 57.7406C184.309 57.3176 184.07 56.7436 184.068 56.1448V55.9634C184.07 55.3645 184.309 54.7906 184.733 54.3676C185.156 53.9446 185.731 53.707 186.33 53.707H200.664C201.262 53.7084 201.835 53.9465 202.258 54.3694C202.681 54.7923 202.919 55.3654 202.92 55.9634V56.1448C202.919 56.7428 202.681 57.3159 202.258 57.7388C201.835 58.1617 201.262 58.3998 200.664 58.4012ZM186.33 54.2107C185.864 54.2107 185.418 54.3952 185.089 54.7238C184.759 55.0523 184.573 55.4981 184.572 55.9634V56.1448C184.573 56.6101 184.759 57.0559 185.089 57.3844C185.418 57.713 185.864 57.8975 186.33 57.8975H200.664C201.129 57.8975 201.575 57.7128 201.903 57.3841C202.232 57.0554 202.417 56.6096 202.417 56.1448V55.9634C202.417 55.4986 202.232 55.0528 201.903 54.7241C201.575 54.3954 201.129 54.2107 200.664 54.2107H186.33Z" fill="white"/>
<path d="M191.976 52.0857H186.33C186.263 52.0857 186.199 52.0592 186.152 52.0119C186.105 51.9647 186.078 51.9006 186.078 51.8339C186.079 51.7675 186.106 51.7042 186.153 51.6572C186.2 51.6103 186.264 51.5833 186.33 51.582H191.976C192.043 51.582 192.107 51.6086 192.154 51.6558C192.201 51.703 192.228 51.7671 192.228 51.8339C192.228 51.9006 192.201 51.9647 192.154 52.0119C192.107 52.0592 192.043 52.0857 191.976 52.0857Z" fill="white"/>
<path d="M192.821 52.0829C192.772 52.086 192.722 52.0729 192.68 52.0457C192.639 52.0185 192.607 51.9786 192.59 51.9318C192.583 51.9003 192.583 51.8677 192.59 51.8361C192.582 51.803 192.582 51.7685 192.59 51.7354C192.602 51.7058 192.619 51.6785 192.64 51.6548L192.726 51.5994C192.772 51.5816 192.822 51.5774 192.87 51.5872C192.918 51.597 192.962 51.6205 192.998 51.6548C193.022 51.677 193.041 51.7046 193.053 51.7354C193.061 51.7685 193.061 51.803 193.053 51.8361C193.06 51.8677 193.06 51.9003 193.053 51.9318C193.041 51.9626 193.022 51.9902 192.998 52.0124C192.974 52.0349 192.947 52.0535 192.917 52.0678C192.886 52.0777 192.854 52.0828 192.821 52.0829Z" fill="white"/>
<path d="M193.576 38.9545C193.509 38.9545 193.445 38.9279 193.398 38.8807C193.351 38.8335 193.324 38.7694 193.324 38.7026V35.0057C193.324 34.9389 193.351 34.8749 193.398 34.8277C193.445 34.7804 193.509 34.7539 193.576 34.7539C193.643 34.7539 193.707 34.7804 193.754 34.8277C193.801 34.8749 193.828 34.9389 193.828 35.0057V38.7026C193.828 38.7694 193.801 38.8335 193.754 38.8807C193.707 38.9279 193.643 38.9545 193.576 38.9545Z" fill="white"/>
<path d="M198.499 40.0225C198.448 40.0217 198.398 40.0078 198.353 39.9822C198.299 39.9428 198.263 39.8844 198.25 39.8189C198.238 39.7534 198.252 39.6857 198.288 39.6296L199.325 38.1187C199.365 38.065 199.423 38.0283 199.488 38.0161C199.554 38.004 199.622 38.0172 199.678 38.0532C199.705 38.0719 199.729 38.0959 199.747 38.1238C199.765 38.1517 199.778 38.183 199.784 38.2158C199.79 38.2486 199.79 38.2823 199.783 38.3149C199.776 38.3475 199.762 38.3784 199.743 38.4057L198.706 39.9167C198.682 39.9499 198.652 39.977 198.616 39.9954C198.58 40.0138 198.54 40.0231 198.499 40.0225Z" fill="white"/>
<path d="M188.495 40.0189C188.454 40.0199 188.413 40.0103 188.377 39.9908C188.341 39.9714 188.31 39.9429 188.288 39.9081L187.246 38.3971C187.208 38.3417 187.193 38.2734 187.205 38.2073C187.218 38.1411 187.256 38.0826 187.311 38.0445C187.367 38.0065 187.435 37.992 187.501 38.0043C187.567 38.0165 187.626 38.0546 187.664 38.11L188.706 39.621C188.743 39.6773 188.756 39.7458 188.743 39.8117C188.73 39.8776 188.691 39.9357 188.636 39.9736C188.594 40.0014 188.545 40.0171 188.495 40.0189Z" fill="white"/>
</g>
<defs>
<clipPath id="clip0_3985_104458">
<rect width="248.249" height="220" fill="white"/>
</clipPath>
</defs>
</svg>
