<svg width="317" height="278" viewBox="0 0 317 278" fill="none" xmlns="http://www.w3.org/2000/svg">
<path d="M54.0603 253.262H10.7344V253.448H54.0603V253.262Z" fill="#5357B4"/>
<path d="M148.747 249.207H129.008V249.393H148.747V249.207Z" fill="#5357B4"/>
<path d="M194.421 249.105H155.963V249.292H194.421V249.105Z" fill="#5357B4"/>
<path d="M267.623 251.344H258.256V251.53H267.623V251.344Z" fill="#5357B4"/>
<path d="M225.907 251.344H188.543V251.53H225.907V251.344Z" fill="#5357B4"/>
<path d="M68.7489 253.262H61.3242V253.448H68.7489V253.262Z" fill="#5357B4"/>
<path d="M306.182 251.344H273.746V251.53H306.182V251.344Z" fill="#5357B4"/>
<path d="M149.751 211.027H4.93321C3.79872 211.025 2.71137 210.576 1.90987 209.777C1.10836 208.978 0.658201 207.895 0.658203 206.767V4.22353C0.668079 3.10126 1.1226 2.02817 1.92304 1.23737C2.72347 0.446574 3.80518 0.00192252 4.93321 0H149.751C150.887 0 151.976 0.448909 152.779 1.24797C153.582 2.04703 154.033 3.1308 154.033 4.26084V206.767C154.033 207.897 153.582 208.98 152.779 209.779C151.976 210.578 150.887 211.027 149.751 211.027ZM4.93321 0.149242C3.84844 0.151219 2.80879 0.581344 2.04245 1.34521C1.27611 2.10907 0.845701 3.14425 0.845703 4.22353V206.767C0.845701 207.846 1.27611 208.881 2.04245 209.645C2.80879 210.409 3.84844 210.839 4.93321 210.841H149.751C150.836 210.839 151.877 210.409 152.644 209.645C153.412 208.882 153.844 207.846 153.846 206.767V4.22353C153.844 3.14357 153.412 2.1084 152.644 1.34475C151.877 0.581101 150.836 0.151215 149.751 0.149242H4.93321Z" fill="#5357B4"/>
<path d="M311.981 211.027H167.156C166.02 211.025 164.932 210.576 164.13 209.777C163.327 208.979 162.875 207.896 162.873 206.767V4.22353C162.885 3.10057 163.341 2.0275 164.143 1.23691C164.944 0.446313 166.027 0.00190155 167.156 0H311.981C313.107 0.00388363 314.187 0.449403 314.986 1.23999C315.785 2.03058 316.238 3.10254 316.248 4.22353V206.767C316.248 207.894 315.799 208.975 314.999 209.774C314.199 210.573 313.114 211.023 311.981 211.027ZM167.156 0.149242C166.07 0.151215 165.03 0.581101 164.262 1.34475C163.495 2.1084 163.063 3.14357 163.061 4.22353V206.767C163.063 207.846 163.495 208.882 164.262 209.645C165.03 210.409 166.07 210.839 167.156 210.841H311.981C313.066 210.839 314.107 210.409 314.874 209.645C315.642 208.882 316.074 207.846 316.076 206.767V4.22353C316.074 3.14357 315.642 2.1084 314.874 1.34475C314.107 0.581101 313.066 0.151215 311.981 0.149242H167.156Z" fill="#5357B4"/>
<path d="M29.4674 61.0404C26.1975 54.0112 28.7924 49.0117 36.7798 49.0117C41.7973 49.0117 48.0297 50.9817 54.0297 54.1829C54.7197 52.3547 56.6396 51.2652 59.7371 51.2652C65.1895 51.2652 72.712 54.6455 78.6069 59.4212C80.4246 58.2154 82.5647 57.581 84.7493 57.6005C89.9993 57.3841 96.2842 59.3316 101.782 62.4955C102.105 62.1916 102.485 61.9545 102.901 61.7982C103.317 61.6419 103.76 61.5695 104.204 61.5852C107.204 61.4658 111.277 63.4283 113.302 65.9654C113.429 66.1295 113.534 66.2787 113.647 66.4354H27.8774C27.7078 65.4751 27.7631 64.4888 28.0388 63.5531C28.3146 62.6174 28.8034 61.7576 29.4674 61.0404Z" fill="#F7A9B4"/>
<path d="M126.741 27.5996C127.005 27.5696 127.27 27.5547 127.536 27.5548C127.289 24.8089 128.721 23.0777 131.773 23.0777C133.978 23.0777 136.678 23.9955 139.438 25.5476C138.651 20.2198 141.171 16.75 146.893 16.75C151.505 16.75 157.34 18.9886 163.108 22.7195C163.61 20.6302 165.313 19.3766 168.17 19.3766C173.18 19.3766 180.312 23.2419 186.027 28.704C187.544 27.3476 189.515 26.6027 191.555 26.6146C196.332 26.3684 202.257 28.592 207.514 32.2185C207.765 31.8825 208.094 31.6119 208.472 31.43C208.851 31.248 209.269 31.1601 209.689 31.1739C212.299 31.047 215.899 33.0393 217.984 35.7181H122.541C120.299 31.6216 122.084 28.0697 126.741 27.5996Z" fill="#F7A9B4"/>
<path d="M254.747 15.973C252.647 11.4959 254.32 8.25 259.442 8.25C262.659 8.25 266.649 9.51105 270.534 11.5705C270.969 10.399 272.206 9.69013 274.194 9.69013C277.696 9.69013 282.519 11.869 286.298 14.9134C287.467 14.1416 288.841 13.7361 290.243 13.7493C293.588 13.6076 297.646 14.8537 301.17 16.8908C301.377 16.6944 301.62 16.541 301.887 16.4398C302.153 16.3385 302.438 16.2914 302.723 16.3013C303.84 16.3413 304.936 16.6121 305.941 17.0964C306.947 17.5807 307.841 18.2679 308.565 19.1144L308.79 19.4128H252.13C250.337 17.8309 252.317 16.0476 254.747 15.973Z" fill="#F7A9B4"/>
<path d="M64.4077 163.055H38.8633V244.3H64.4077V163.055Z" fill="#3E479B"/>
<path d="M56.0627 244.312H97.9492L97.9492 134.794H56.0627L56.0627 244.312Z" fill="#E1E2FE"/>
<path d="M119.691 134.785H97.9492V244.303H119.691V134.785Z" fill="#3E479B"/>
<path d="M61.6956 134.785H97.9492V123.898H61.6956V134.785Z" fill="#E1E2FE"/>
<path d="M61.6956 134.785H97.9492V132.338H61.6956V134.785Z" fill="#F7A9B4"/>
<path d="M114.051 123.895H97.9492V134.781H114.051V123.895Z" fill="#F7A9B4"/>
<path d="M67.3237 123.895H97.9375V113.008H67.3237V123.895Z" fill="#E1E2FE"/>
<path d="M67.3237 123.895H97.9375V121.447H67.3237V123.895Z" fill="#F7A9B4"/>
<path d="M108.419 113.012H97.9492V123.898H108.419V113.012Z" fill="#F7A9B4"/>
<path d="M88.8859 97.8008H86.8535V113.015H88.8859V97.8008Z" fill="#F7A9B4"/>
<path d="M112.744 244.312H143.336V153.837H112.744L112.744 244.312Z" fill="#E1E2FE"/>
<path d="M159.213 153.824H143.336V244.3H159.213V153.824Z" fill="#3E479B"/>
<path d="M151.273 179.688L174.47 199.476V244.314H151.273V179.688Z" fill="#E1E2FE"/>
<path d="M186.519 199.461H174.482V244.299H186.519V199.461Z" fill="#3E479B"/>
<path d="M186.515 199.476H174.47L151.273 179.688H163.318L186.515 199.476Z" fill="#F7A9B4"/>
<path d="M295.248 244.312C295.57 242.519 296.336 240.835 297.476 239.411C298.617 237.987 300.096 236.868 301.78 236.156C300.302 238.609 299.63 241.461 299.86 244.312H295.248Z" fill="#00B69B" fill-opacity="0.2"/>
<path d="M78.8955 244.312C78.5738 242.519 77.808 240.835 76.6675 239.411C75.527 237.987 74.0476 236.868 72.3633 236.156C73.842 238.609 74.5132 241.461 74.2832 244.312H78.8955Z" fill="#00B69B" fill-opacity="0.2"/>
<path d="M25.3291 244.311C25.3291 244.311 24.9616 234.76 20.9492 231.984C22.5917 235.887 22.2467 244.311 22.2467 244.311H25.3291Z" fill="#00B69B" fill-opacity="0.2"/>
<path d="M23.8242 244.32C23.8242 244.32 24.1917 238.835 28.2041 237.246C26.5616 239.485 26.9216 244.32 26.9216 244.32H23.8242Z" fill="#00B69B" fill-opacity="0.2"/>
<path d="M82.334 244.311C82.334 244.311 81.929 235.268 74.6543 231.984C77.9092 236.626 77.7217 244.311 77.7217 244.311H82.334Z" fill="#00B69B" fill-opacity="0.2"/>
<path d="M261.714 232.067H243.332C243.133 232.067 242.942 231.989 242.802 231.849C242.661 231.709 242.582 231.519 242.582 231.321V213.055C242.582 212.857 242.661 212.667 242.802 212.527C242.942 212.387 243.133 212.309 243.332 212.309H261.714C261.913 212.309 262.103 212.387 262.244 212.527C262.385 212.667 262.464 212.857 262.464 213.055V231.321C262.464 231.519 262.385 231.709 262.244 231.849C262.103 231.989 261.913 232.067 261.714 232.067ZM244.082 230.575H260.964V213.801H244.082V230.575Z" fill="#5357B4"/>
<path d="M261.714 213.804H243.332C243.133 213.804 242.942 213.726 242.802 213.586C242.661 213.446 242.582 213.256 242.582 213.058V194.762C242.582 194.564 242.661 194.374 242.802 194.234C242.942 194.094 243.133 194.016 243.332 194.016H261.714C261.913 194.016 262.103 194.094 262.244 194.234C262.385 194.374 262.464 194.564 262.464 194.762V213.058C262.464 213.256 262.385 213.446 262.244 213.586C262.103 213.726 261.913 213.804 261.714 213.804ZM244.082 212.312H260.964V195.508H244.082V212.312Z" fill="#5357B4"/>
<path d="M261.717 232.069C261.519 232.066 261.33 231.986 261.192 231.845L242.803 213.556C242.661 213.416 242.582 213.225 242.582 213.027C242.582 212.828 242.661 212.637 242.803 212.497C242.944 212.356 243.135 212.277 243.335 212.277C243.535 212.277 243.726 212.356 243.868 212.497L262.249 230.823C262.389 230.963 262.467 231.152 262.467 231.349C262.467 231.546 262.389 231.735 262.249 231.875C262.104 232.007 261.913 232.076 261.717 232.069Z" fill="#5357B4"/>
<path d="M261.714 213.801C261.518 213.8 261.329 213.723 261.189 213.585L242.8 195.288C242.66 195.149 242.582 194.96 242.582 194.762C242.582 194.565 242.66 194.376 242.8 194.236C242.87 194.166 242.953 194.111 243.044 194.073C243.136 194.035 243.234 194.016 243.333 194.016C243.432 194.016 243.53 194.035 243.621 194.073C243.712 194.111 243.795 194.166 243.865 194.236L262.247 212.525C262.353 212.63 262.425 212.763 262.454 212.908C262.483 213.054 262.469 213.204 262.411 213.341C262.354 213.478 262.257 213.595 262.133 213.677C262.009 213.759 261.863 213.802 261.714 213.801Z" fill="#5357B4"/>
<path d="M261.714 195.512H243.332C243.133 195.512 242.942 195.433 242.802 195.293C242.661 195.153 242.582 194.963 242.582 194.765V176.477C242.582 176.279 242.661 176.089 242.802 175.949C242.942 175.809 243.133 175.73 243.332 175.73H261.714C261.913 175.73 262.103 175.809 262.244 175.949C262.385 176.089 262.464 176.279 262.464 176.477V194.765C262.464 194.963 262.385 195.153 262.244 195.293C262.103 195.433 261.913 195.512 261.714 195.512ZM244.082 194.019H260.964V177.223H244.082V194.019Z" fill="#5357B4"/>
<path d="M261.714 177.208H243.332C243.133 177.208 242.942 177.129 242.802 176.989C242.661 176.849 242.582 176.659 242.582 176.461V158.188C242.582 157.99 242.661 157.8 242.802 157.66C242.942 157.52 243.133 157.441 243.332 157.441H261.714C261.913 157.441 262.103 157.52 262.244 157.66C262.385 157.8 262.464 157.99 262.464 158.188V176.484C262.458 176.678 262.376 176.862 262.236 176.997C262.096 177.132 261.909 177.208 261.714 177.208ZM244.082 175.715H260.964V158.934H244.082V175.715Z" fill="#5357B4"/>
<path d="M261.714 195.5C261.518 195.5 261.329 195.422 261.189 195.284L242.8 176.988C242.66 176.848 242.582 176.659 242.582 176.462C242.582 176.264 242.66 176.075 242.8 175.936C242.87 175.866 242.953 175.81 243.044 175.772C243.136 175.734 243.234 175.715 243.333 175.715C243.432 175.715 243.53 175.734 243.621 175.772C243.712 175.81 243.795 175.866 243.865 175.936L262.247 194.232C262.387 194.372 262.465 194.561 262.465 194.758C262.465 194.955 262.387 195.144 262.247 195.284C262.177 195.353 262.094 195.408 262.002 195.445C261.911 195.482 261.813 195.501 261.714 195.5Z" fill="#5357B4"/>
<path d="M261.717 177.217C261.519 177.215 261.33 177.134 261.192 176.994L242.803 158.705C242.661 158.564 242.582 158.374 242.582 158.175C242.582 157.976 242.661 157.786 242.803 157.645C242.944 157.505 243.135 157.426 243.335 157.426C243.535 157.426 243.726 157.505 243.868 157.645L262.249 175.942C262.389 176.081 262.467 176.27 262.467 176.468C262.467 176.665 262.389 176.854 262.249 176.994C262.18 177.064 262.097 177.12 262.006 177.159C261.914 177.197 261.816 177.217 261.717 177.217Z" fill="#5357B4"/>
<path d="M261.714 158.936H243.332C243.133 158.936 242.942 158.857 242.802 158.717C242.661 158.578 242.582 158.388 242.582 158.19V139.871C242.582 139.673 242.661 139.483 242.802 139.344C242.942 139.204 243.133 139.125 243.332 139.125H261.714C261.913 139.125 262.103 139.204 262.244 139.344C262.385 139.483 262.464 139.673 262.464 139.871V158.19C262.464 158.388 262.385 158.578 262.244 158.717C262.103 158.857 261.913 158.936 261.714 158.936ZM244.082 157.444H260.964V140.617H244.082V157.444Z" fill="#5357B4"/>
<path d="M261.714 140.609H243.332C243.133 140.609 242.942 140.531 242.802 140.391C242.661 140.251 242.582 140.061 242.582 139.863V121.574C242.582 121.376 242.661 121.187 242.802 121.047C242.942 120.907 243.133 120.828 243.332 120.828H261.714C261.913 120.828 262.103 120.907 262.244 121.047C262.385 121.187 262.464 121.376 262.464 121.574V139.863C262.464 140.061 262.385 140.251 262.244 140.391C262.103 140.531 261.913 140.609 261.714 140.609ZM244.082 139.117H260.964V122.32H244.082V139.117Z" fill="#5357B4"/>
<path d="M261.714 158.926C261.518 158.925 261.329 158.848 261.189 158.71L242.8 140.413C242.66 140.274 242.582 140.085 242.582 139.887C242.582 139.69 242.66 139.501 242.8 139.361C242.87 139.291 242.953 139.236 243.044 139.198C243.136 139.16 243.234 139.141 243.333 139.141C243.432 139.141 243.53 139.16 243.621 139.198C243.712 139.236 243.795 139.291 243.865 139.361L262.247 157.628C262.353 157.732 262.425 157.866 262.454 158.011C262.483 158.156 262.469 158.307 262.411 158.444C262.354 158.581 262.257 158.697 262.133 158.779C262.009 158.861 261.863 158.905 261.714 158.904V158.926Z" fill="#5357B4"/>
<path d="M243.338 79.5103H224.949C224.75 79.5103 224.56 79.4317 224.419 79.2917C224.278 79.1518 224.199 78.962 224.199 78.7641V60.4454C224.199 60.2475 224.278 60.0577 224.419 59.9178C224.56 59.7778 224.75 59.6992 224.949 59.6992H243.338C243.537 59.6992 243.728 59.7778 243.869 59.9178C244.009 60.0577 244.088 60.2475 244.088 60.4454V78.7342C244.093 78.8347 244.076 78.935 244.04 79.029C244.004 79.123 243.95 79.2088 243.88 79.2813C243.81 79.3537 243.726 79.4114 243.633 79.4508C243.54 79.4901 243.44 79.5103 243.338 79.5103ZM225.699 78.0179H242.589V61.1916H225.699V78.0179Z" fill="#5357B4"/>
<path d="M261.714 79.5004H243.332C243.133 79.5004 242.942 79.4218 242.802 79.2819C242.661 79.1419 242.582 78.9521 242.582 78.7542C242.582 78.5563 242.661 78.3666 242.802 78.2266C242.942 78.0867 243.133 78.0081 243.332 78.0081H260.964V42.1915C260.964 41.9936 261.043 41.8038 261.183 41.6639C261.324 41.5239 261.515 41.4453 261.714 41.4453C261.913 41.4453 262.103 41.5239 262.244 41.6639C262.385 41.8038 262.464 41.9936 262.464 42.1915V78.7542C262.464 78.9521 262.385 79.1419 262.244 79.2819C262.103 79.4218 261.913 79.5004 261.714 79.5004Z" fill="#5357B4"/>
<path d="M243.337 79.5016C243.209 79.5025 243.082 79.4706 242.97 79.4088C242.857 79.347 242.763 79.2576 242.695 79.149C242.627 79.0404 242.588 78.9163 242.583 78.7885C242.577 78.6608 242.604 78.5338 242.662 78.4197L261.052 41.8569C261.141 41.6812 261.298 41.548 261.486 41.4865C261.674 41.4249 261.879 41.4401 262.057 41.5286C262.234 41.6167 262.37 41.7715 262.433 41.959C262.497 42.1465 262.482 42.3513 262.394 42.5285L244.005 79.0912C243.942 79.2143 243.847 79.3178 243.729 79.3902C243.611 79.4626 243.476 79.5012 243.337 79.5016Z" fill="#5357B4"/>
<path d="M224.946 79.5103H206.564C206.366 79.5103 206.175 79.4317 206.034 79.2917C205.893 79.1518 205.814 78.962 205.814 78.7641V60.4454C205.814 60.2475 205.893 60.0577 206.034 59.9178C206.175 59.7778 206.366 59.6992 206.564 59.6992H224.946C225.145 59.6992 225.336 59.7778 225.477 59.9178C225.617 60.0577 225.696 60.2475 225.696 60.4454V78.7342C225.7 78.8347 225.684 78.935 225.648 79.029C225.612 79.123 225.557 79.2088 225.487 79.2813C225.417 79.3537 225.333 79.4114 225.24 79.4508C225.147 79.4901 225.047 79.5103 224.946 79.5103ZM207.314 78.0179H224.196V61.1916H207.314V78.0179Z" fill="#5357B4"/>
<path d="M224.945 79.5043C224.798 79.5022 224.655 79.4574 224.533 79.3752C224.412 79.2931 224.317 79.1773 224.262 79.0423C224.206 78.9072 224.191 78.7588 224.219 78.6154C224.247 78.4721 224.317 78.3401 224.42 78.2358L242.801 59.9395C242.871 59.8695 242.954 59.814 243.045 59.7761C243.137 59.7383 243.235 59.7188 243.334 59.7188C243.433 59.7188 243.531 59.7383 243.622 59.7761C243.714 59.814 243.797 59.8695 243.866 59.9395C244.006 60.0793 244.084 60.2684 244.084 60.4655C244.084 60.6627 244.006 60.8518 243.866 60.9916L225.499 79.2879C225.427 79.3598 225.34 79.4161 225.245 79.4533C225.149 79.4905 225.047 79.5079 224.945 79.5043Z" fill="#5357B4"/>
<path d="M280.098 79.5103H261.709C261.51 79.5103 261.319 79.4317 261.179 79.2917C261.038 79.1518 260.959 78.962 260.959 78.7641V60.4454C260.959 60.2475 261.038 60.0577 261.179 59.9178C261.319 59.7778 261.51 59.6992 261.709 59.6992H280.098C280.297 59.6992 280.488 59.7778 280.629 59.9178C280.769 60.0577 280.848 60.2475 280.848 60.4454V78.7342C280.852 78.8347 280.836 78.935 280.8 79.029C280.764 79.123 280.71 79.2088 280.639 79.2813C280.569 79.3537 280.485 79.4114 280.392 79.4508C280.299 79.4901 280.199 79.5103 280.098 79.5103ZM262.459 78.0179H279.348V61.1916H262.459V78.0179Z" fill="#5357B4"/>
<path d="M261.71 79.5043C261.563 79.5022 261.42 79.4574 261.299 79.3752C261.178 79.2931 261.083 79.1773 261.027 79.0423C260.971 78.9072 260.956 78.7588 260.985 78.6155C261.013 78.4721 261.082 78.3401 261.185 78.2358L279.567 59.9395C279.637 59.8695 279.72 59.814 279.811 59.7761C279.902 59.7383 280 59.7188 280.099 59.7188C280.198 59.7188 280.296 59.7383 280.388 59.7761C280.479 59.814 280.562 59.8695 280.632 59.9395C280.772 60.0793 280.85 60.2684 280.85 60.4655C280.85 60.6627 280.772 60.8518 280.632 60.9916L262.243 79.2879C262.173 79.357 262.089 79.4118 261.998 79.4489C261.907 79.486 261.809 79.5049 261.71 79.5043Z" fill="#5357B4"/>
<path d="M151.399 79.5117C151.3 79.5122 151.202 79.4934 151.111 79.4563C151.02 79.4191 150.937 79.3644 150.867 79.2952C150.727 79.1554 150.648 78.9663 150.648 78.7692C150.648 78.572 150.727 78.3829 150.867 78.2431L169.249 59.9464C169.351 59.8397 169.485 59.769 169.631 59.7449L261.573 41.4481C261.693 41.4241 261.818 41.4299 261.935 41.4651C262.053 41.5002 262.16 41.5636 262.248 41.6496L298.997 78.2133C299.076 78.2802 299.139 78.3625 299.184 78.4551C299.229 78.5476 299.255 78.6485 299.259 78.7512C299.263 78.854 299.245 78.9565 299.208 79.0522C299.17 79.148 299.113 79.235 299.04 79.3077C298.967 79.3804 298.879 79.4373 298.783 79.4748C298.687 79.5123 298.584 79.5296 298.48 79.5257C298.377 79.5217 298.276 79.4965 298.183 79.4517C298.09 79.407 298.007 79.3435 297.94 79.2654L261.498 42.9927L170.156 61.1925L151.924 79.3251C151.78 79.4521 151.592 79.5189 151.399 79.5117Z" fill="#5357B4"/>
<path d="M206.563 79.506C206.464 79.5065 206.367 79.4877 206.275 79.4506C206.184 79.4134 206.101 79.3587 206.031 79.2896C205.891 79.1498 205.812 78.9606 205.812 78.7635C205.812 78.5664 205.891 78.3773 206.031 78.2375L224.42 59.9411C224.563 59.8189 224.748 59.755 224.937 59.7623C225.125 59.7695 225.304 59.8474 225.438 59.9803C225.572 60.1132 225.65 60.2913 225.657 60.4791C225.664 60.6669 225.6 60.8505 225.477 60.9933L207.088 79.2896C206.948 79.4274 206.76 79.5051 206.563 79.506Z" fill="#5357B4"/>
<path d="M206.559 79.5103H188.17C187.971 79.5103 187.78 79.4317 187.64 79.2917C187.499 79.1518 187.42 78.962 187.42 78.7641V60.4454C187.42 60.2475 187.499 60.0577 187.64 59.9178C187.78 59.7778 187.971 59.6992 188.17 59.6992H206.559C206.758 59.6992 206.949 59.7778 207.089 59.9178C207.23 60.0577 207.309 60.2475 207.309 60.4454V78.7342C207.313 78.8347 207.297 78.935 207.261 79.029C207.225 79.123 207.17 79.2088 207.1 79.2813C207.03 79.3537 206.946 79.4114 206.853 79.4508C206.76 79.4901 206.66 79.5103 206.559 79.5103ZM188.92 78.0179H205.809V61.1916H188.92V78.0179Z" fill="#5357B4"/>
<path d="M188.171 79.5103H169.781C169.582 79.5103 169.392 79.4317 169.251 79.2917C169.11 79.1518 169.031 78.962 169.031 78.7641V60.4454C169.031 60.2475 169.11 60.0577 169.251 59.9178C169.392 59.7778 169.582 59.6992 169.781 59.6992H188.171C188.369 59.6992 188.56 59.7778 188.701 59.9178C188.841 60.0577 188.921 60.2475 188.921 60.4454V78.7342C188.925 78.8347 188.908 78.935 188.872 79.029C188.836 79.123 188.782 79.2088 188.712 79.2813C188.642 79.3537 188.558 79.4114 188.465 79.4508C188.372 79.4901 188.272 79.5103 188.171 79.5103ZM170.531 78.0179H187.421V61.1916H170.531V78.0179Z" fill="#5357B4"/>
<path d="M188.17 79.506C188.072 79.5065 187.974 79.4877 187.883 79.4506C187.791 79.4134 187.708 79.3587 187.638 79.2896C187.498 79.1498 187.42 78.9606 187.42 78.7635C187.42 78.5664 187.498 78.3773 187.638 78.2375L205.997 59.9411C206.141 59.8189 206.325 59.755 206.514 59.7623C206.703 59.7695 206.882 59.8474 207.015 59.9803C207.149 60.1132 207.227 60.2913 207.235 60.4791C207.242 60.6669 207.178 60.8505 207.055 60.9933L188.673 79.2896C188.539 79.4221 188.359 79.4994 188.17 79.506Z" fill="#5357B4"/>
<path d="M169.78 79.5043C169.634 79.5022 169.491 79.4574 169.369 79.3752C169.248 79.2931 169.153 79.1773 169.098 79.0423C169.042 78.9072 169.027 78.7588 169.055 78.6155C169.083 78.4721 169.153 78.3401 169.255 78.2358L187.637 59.9395C187.707 59.8695 187.79 59.814 187.881 59.7761C187.973 59.7383 188.071 59.7188 188.17 59.7188C188.269 59.7188 188.367 59.7383 188.458 59.7761C188.55 59.814 188.633 59.8695 188.702 59.9395C188.842 60.0793 188.92 60.2684 188.92 60.4655C188.92 60.6627 188.842 60.8518 188.702 60.9916L170.313 79.2879C170.243 79.357 170.16 79.4118 170.068 79.4489C169.977 79.486 169.879 79.5049 169.78 79.5043Z" fill="#5357B4"/>
<path d="M169.78 79.5103H151.398C151.2 79.5103 151.009 79.4317 150.868 79.2917C150.727 79.1518 150.648 78.962 150.648 78.7641C150.648 78.5662 150.727 78.3764 150.868 78.2365C151.009 78.0965 151.2 78.0179 151.398 78.0179H169.03V60.4454C169.03 60.2475 169.109 60.0577 169.25 59.9178C169.391 59.7778 169.581 59.6992 169.78 59.6992C169.979 59.6992 170.17 59.7778 170.311 59.9178C170.451 60.0577 170.53 60.2475 170.53 60.4454V78.7342C170.534 78.8347 170.518 78.935 170.482 79.029C170.446 79.123 170.391 79.2088 170.321 79.2813C170.251 79.3537 170.167 79.4114 170.074 79.4508C169.981 79.4901 169.881 79.5103 169.78 79.5103Z" fill="#5357B4"/>
<path d="M261.717 140.612C261.52 140.612 261.332 140.534 261.192 140.396L242.803 122.107C242.733 122.038 242.677 121.955 242.639 121.864C242.601 121.773 242.582 121.676 242.582 121.577C242.582 121.479 242.601 121.382 242.639 121.291C242.677 121.2 242.733 121.117 242.803 121.048C242.873 120.978 242.956 120.923 243.047 120.885C243.138 120.848 243.236 120.828 243.335 120.828C243.434 120.828 243.532 120.848 243.623 120.885C243.715 120.923 243.798 120.978 243.868 121.048L262.249 139.344C262.389 139.484 262.467 139.673 262.467 139.87C262.467 140.067 262.389 140.256 262.249 140.396C262.179 140.465 262.096 140.52 262.005 140.557C261.913 140.594 261.816 140.613 261.717 140.612Z" fill="#5357B4"/>
<path d="M261.714 122.312H243.332C243.133 122.312 242.942 122.233 242.802 122.094C242.661 121.954 242.582 121.764 242.582 121.566V103.27C242.582 103.072 242.661 102.882 242.802 102.742C242.942 102.602 243.133 102.523 243.332 102.523H261.714C261.913 102.523 262.103 102.602 262.244 102.742C262.385 102.882 262.464 103.072 262.464 103.27V121.566C262.464 121.764 262.385 121.954 262.244 122.094C262.103 122.233 261.913 122.312 261.714 122.312ZM244.082 120.82H260.964V104.016H244.082V120.82Z" fill="#5357B4"/>
<path d="M261.714 104.035H243.332C243.133 104.035 242.942 103.956 242.802 103.817C242.661 103.677 242.582 103.487 242.582 103.289V85.0001C242.582 84.8022 242.661 84.6124 242.802 84.4725C242.942 84.3325 243.133 84.2539 243.332 84.2539H261.714C261.913 84.2539 262.103 84.3325 262.244 84.4725C262.385 84.6124 262.464 84.8022 262.464 85.0001V103.289C262.464 103.487 262.385 103.677 262.244 103.817C262.103 103.956 261.913 104.035 261.714 104.035ZM244.082 102.543H260.964V85.7463H244.082V102.543Z" fill="#5357B4"/>
<path d="M261.717 122.311C261.52 122.31 261.332 122.233 261.192 122.095L242.803 103.799C242.733 103.729 242.677 103.646 242.639 103.555C242.601 103.465 242.582 103.367 242.582 103.269C242.582 103.17 242.601 103.073 242.639 102.982C242.677 102.891 242.733 102.809 242.803 102.739C242.873 102.669 242.956 102.614 243.047 102.577C243.138 102.539 243.236 102.52 243.335 102.52C243.434 102.52 243.532 102.539 243.623 102.577C243.715 102.614 243.798 102.669 243.868 102.739L262.249 121.035C262.355 121.14 262.427 121.273 262.457 121.418C262.486 121.564 262.471 121.714 262.414 121.851C262.357 121.988 262.26 122.105 262.136 122.187C262.012 122.269 261.866 122.312 261.717 122.311Z" fill="#5357B4"/>
<path d="M261.714 104.036C261.518 104.035 261.329 103.957 261.189 103.819L242.8 85.5228C242.66 85.383 242.582 85.1939 242.582 84.9968C242.582 84.7996 242.66 84.6105 242.8 84.4707C242.87 84.4008 242.953 84.3453 243.044 84.3074C243.136 84.2695 243.234 84.25 243.333 84.25C243.432 84.25 243.53 84.2695 243.621 84.3074C243.712 84.3453 243.795 84.4008 243.865 84.4707L262.247 102.76C262.353 102.864 262.425 102.997 262.454 103.143C262.483 103.288 262.469 103.439 262.411 103.575C262.354 103.712 262.257 103.829 262.133 103.911C262.009 103.993 261.863 104.036 261.714 104.036Z" fill="#5357B4"/>
<path d="M298.494 78.75H151.398L169.781 84.9882H298.494V78.75Z" fill="#5357B4"/>
<path d="M298.5 85.7425H169.787C169.705 85.742 169.623 85.7268 169.547 85.6977L151.157 79.4669C150.986 79.4112 150.841 79.2965 150.749 79.1435C150.656 78.9906 150.621 78.8096 150.651 78.6334C150.681 78.4573 150.774 78.2976 150.912 78.1836C151.05 78.0695 151.225 78.0086 151.404 78.0118H298.5C298.699 78.0118 298.89 78.0905 299.03 78.2304C299.171 78.3703 299.25 78.5601 299.25 78.758V84.9963C299.25 85.1942 299.171 85.384 299.03 85.5239C298.89 85.6638 298.699 85.7425 298.5 85.7425ZM169.914 84.2501H297.75V79.5042H155.927L169.914 84.2501Z" fill="#5357B4"/>
<path d="M229.724 110.656H243.336V81.8761H229.724V110.656Z" fill="#5357B4"/>
<path d="M229.715 81.875H223.385V110.655H229.715V81.875Z" fill="#E1E2FE"/>
<path d="M245.356 244.301H272.16V231.347H245.356V244.301Z" fill="#5357B4"/>
<path d="M245.357 231.348H232.885V244.301H245.357V231.348Z" fill="#E1E2FE"/>
<path d="M280.103 110.917C279.905 110.917 279.714 110.838 279.573 110.698C279.433 110.558 279.354 110.368 279.354 110.171V81.8829C279.354 81.685 279.433 81.4952 279.573 81.3553C279.714 81.2153 279.905 81.1367 280.103 81.1367C280.302 81.1367 280.493 81.2153 280.634 81.3553C280.774 81.4952 280.853 81.685 280.853 81.8829V110.171C280.853 110.368 280.774 110.558 280.634 110.698C280.493 110.838 280.302 110.917 280.103 110.917Z" fill="#5357B4"/>
<path d="M280.108 114.351C279.618 114.351 279.14 114.206 278.733 113.936C278.326 113.665 278.009 113.28 277.821 112.83C277.634 112.381 277.585 111.885 277.68 111.408C277.776 110.93 278.012 110.491 278.358 110.147C278.704 109.803 279.145 109.568 279.625 109.473C280.105 109.378 280.603 109.427 281.055 109.613C281.507 109.8 281.894 110.115 282.166 110.52C282.437 110.925 282.583 111.401 282.583 111.888C282.583 112.212 282.519 112.532 282.394 112.83C282.27 113.129 282.088 113.401 281.858 113.629C281.628 113.858 281.355 114.039 281.055 114.163C280.755 114.287 280.433 114.351 280.108 114.351ZM280.108 110.918C279.915 110.918 279.726 110.975 279.566 111.082C279.406 111.188 279.281 111.34 279.207 111.517C279.133 111.694 279.114 111.889 279.151 112.077C279.189 112.266 279.282 112.438 279.418 112.574C279.555 112.71 279.728 112.802 279.918 112.84C280.107 112.877 280.303 112.858 280.481 112.784C280.659 112.711 280.811 112.587 280.918 112.427C281.026 112.268 281.083 112.08 281.083 111.888C281.083 111.761 281.057 111.635 281.008 111.517C280.959 111.399 280.888 111.292 280.797 111.202C280.707 111.112 280.599 111.041 280.481 110.992C280.363 110.943 280.236 110.918 280.108 110.918Z" fill="#5357B4"/>
<path d="M172.098 125.766C171.899 125.766 171.708 125.687 171.567 125.547C171.427 125.407 171.348 125.217 171.348 125.019V81.8829C171.348 81.685 171.427 81.4952 171.567 81.3553C171.708 81.2153 171.899 81.1367 172.098 81.1367C172.297 81.1367 172.487 81.2153 172.628 81.3553C172.769 81.4952 172.848 81.685 172.848 81.8829V125.019C172.848 125.217 172.769 125.407 172.628 125.547C172.487 125.687 172.297 125.766 172.098 125.766Z" fill="#5357B4"/>
<path d="M179.131 130.231C178.952 130.234 178.779 130.173 178.641 130.059C178.504 129.946 178.412 129.787 178.381 129.612C177.826 128.746 172.944 125.881 172.051 125.762C171.211 125.873 166.329 128.746 165.774 129.612C165.757 129.81 165.662 129.993 165.509 130.121C165.357 130.249 165.159 130.311 164.96 130.295C164.762 130.278 164.577 130.183 164.449 130.031C164.32 129.879 164.257 129.683 164.274 129.485C164.274 127.806 171.076 124.262 172.059 124.262C173.041 124.262 179.851 127.799 179.851 129.485C179.851 129.678 179.776 129.863 179.642 130.002C179.508 130.141 179.325 130.223 179.131 130.231Z" fill="#5357B4"/>
<path d="M187.248 184.156L198.251 173.21L195.903 168.733C196.106 168.285 196.293 167.837 196.466 167.375L201.288 165.882V150.422L196.466 148.929C196.286 148.474 196.106 148.019 195.903 147.571L198.243 143.094L187.248 132.17L182.749 134.498C182.299 134.297 181.849 134.11 181.391 133.939L179.891 129.141H164.314L162.814 133.939C162.357 134.11 161.907 134.297 161.457 134.498L156.957 132.17L146 143.109L148.347 147.586C148.137 148.034 147.957 148.489 147.777 148.944L142.955 150.437V165.912L147.777 167.405C147.957 167.867 148.137 168.315 148.34 168.763L146 173.24L157.002 184.186L161.502 181.851C161.952 182.052 162.409 182.239 162.867 182.41L164.367 187.208H179.929L181.429 182.41C181.886 182.239 182.336 182.052 182.786 181.851L187.248 184.156ZM180.311 166.3C178.692 167.912 176.629 169.01 174.382 169.455C172.136 169.9 169.807 169.672 167.691 168.8C165.575 167.929 163.766 166.452 162.493 164.557C161.221 162.662 160.542 160.435 160.542 158.156C160.542 155.877 161.221 153.649 162.493 151.754C163.766 149.86 165.575 148.383 167.691 147.511C169.807 146.639 172.136 146.412 174.382 146.857C176.629 147.302 178.692 148.399 180.311 150.011C181.386 151.082 182.237 152.353 182.817 153.752C183.398 155.15 183.695 156.649 183.692 158.162C183.689 159.675 183.386 161.173 182.801 162.569C182.216 163.966 181.36 165.234 180.281 166.3H180.311Z" fill="#5357B4"/>
<path d="M159.499 278C239.811 278 304.917 274.218 304.917 269.553C304.917 264.887 239.811 261.105 159.499 261.105C79.1876 261.105 14.082 264.887 14.082 269.553C14.082 274.218 79.1876 278 159.499 278Z" fill="#F2F9FF"/>
<path d="M103.92 80.6914H94.5606C94.1327 80.6918 93.7124 80.8036 93.3414 81.0157C92.9704 81.2277 92.6616 81.5327 92.4457 81.9002L87.7659 89.9664C87.552 90.3365 87.4395 90.7558 87.4395 91.1827C87.4395 91.6095 87.552 92.0289 87.7659 92.399L92.4457 100.458C92.6595 100.828 92.9676 101.135 93.3389 101.348C93.7103 101.562 94.1317 101.674 94.5606 101.674H103.92C104.349 101.674 104.771 101.562 105.142 101.348C105.513 101.135 105.821 100.828 106.035 100.458L110.715 92.399C110.929 92.0289 111.041 91.6095 111.041 91.1827C111.041 90.7558 110.929 90.3365 110.715 89.9664L106.035 81.9002C105.819 81.5327 105.51 81.2277 105.139 81.0157C104.768 80.8036 104.348 80.6918 103.92 80.6914Z" fill="#407BFF"/>
<path opacity="0.5" d="M103.92 80.6914H94.5606C94.1327 80.6918 93.7124 80.8036 93.3414 81.0157C92.9704 81.2277 92.6616 81.5327 92.4457 81.9002L87.7659 89.9664C87.552 90.3365 87.4395 90.7558 87.4395 91.1827C87.4395 91.6095 87.552 92.0289 87.7659 92.399L92.4457 100.458C92.6595 100.828 92.9676 101.135 93.3389 101.348C93.7103 101.562 94.1317 101.674 94.5606 101.674H103.92C104.349 101.674 104.771 101.562 105.142 101.348C105.513 101.135 105.821 100.828 106.035 100.458L110.715 92.399C110.929 92.0289 111.041 91.6095 111.041 91.1827C111.041 90.7558 110.929 90.3365 110.715 89.9664L106.035 81.9002C105.819 81.5327 105.51 81.2277 105.139 81.0157C104.768 80.8036 104.348 80.6918 103.92 80.6914Z" fill="white"/>
<path d="M44.0012 53.9582L43.4688 53.4284L47.9686 48.9513L48.5011 49.4811L44.0012 53.9582ZM51.7484 46.2501L51.216 45.7204L60.6206 36.3633L61.1531 36.8856L51.7484 46.2501Z" fill="#407BFF"/>
<path opacity="0.5" d="M44.0012 53.9582L43.4688 53.4284L47.9686 48.9513L48.5011 49.4811L44.0012 53.9582ZM51.7484 46.2501L51.216 45.7204L60.6206 36.3633L61.1531 36.8856L51.7484 46.2501Z" fill="white"/>
<path d="M162.882 108.069V74.2959L152.382 71.0201C152.007 70.0202 151.594 69.0352 151.159 68.0353L156.267 58.3347L132.267 34.4562L122.517 39.5453C121.534 39.105 120.552 38.6946 119.517 38.314L116.225 27.8672H82.2572L78.9722 38.314C77.9597 38.6946 76.9772 39.105 75.9722 39.5453L66.2223 34.4562L42.2224 58.3347L47.3374 68.0353C46.8949 69.0128 46.4824 69.9904 46.1074 71.0201L35.6074 74.2959V108.069L46.1074 111.337C46.4899 112.337 46.9024 113.322 47.3374 114.322L42.2224 124.023L66.2223 147.901L75.9722 142.812C76.9472 143.253 77.9297 143.663 78.9722 144.044L82.2572 154.49H116.202L119.494 144.044C120.499 143.663 121.482 143.253 122.494 142.812L132.244 147.901L156.244 124.023L151.129 114.322C151.564 113.352 151.984 112.367 152.359 111.337L162.882 108.069ZM124.504 91.1751C124.504 96.1457 123.023 101.005 120.247 105.138C117.472 109.271 113.527 112.492 108.911 114.394C104.295 116.296 99.2166 116.794 94.3166 115.824C89.4167 114.855 84.9158 112.461 81.3832 108.946C77.8505 105.431 75.4448 100.953 74.4701 96.0781C73.4954 91.2029 73.9957 86.1497 75.9075 81.5574C77.8194 76.9651 81.057 73.04 85.211 70.2785C89.3649 67.5169 94.2487 66.0429 99.2446 66.0429C105.943 66.0449 112.367 68.6934 117.104 73.4062C121.841 78.1189 124.502 84.5102 124.504 91.1751Z" fill="#407BFF"/>
<path opacity="0.5" d="M162.882 108.069V74.2959L152.382 71.0201C152.007 70.0202 151.594 69.0352 151.159 68.0353L156.267 58.3347L132.267 34.4562L122.517 39.5453C121.534 39.105 120.552 38.6946 119.517 38.314L116.225 27.8672H82.2572L78.9722 38.314C77.9597 38.6946 76.9772 39.105 75.9722 39.5453L66.2223 34.4562L42.2224 58.3347L47.3374 68.0353C46.8949 69.0128 46.4824 69.9904 46.1074 71.0201L35.6074 74.2959V108.069L46.1074 111.337C46.4899 112.337 46.9024 113.322 47.3374 114.322L42.2224 124.023L66.2223 147.901L75.9722 142.812C76.9472 143.253 77.9297 143.663 78.9722 144.044L82.2572 154.49H116.202L119.494 144.044C120.499 143.663 121.482 143.253 122.494 142.812L132.244 147.901L156.244 124.023L151.129 114.322C151.564 113.352 151.984 112.367 152.359 111.337L162.882 108.069ZM124.504 91.1751C124.504 96.1457 123.023 101.005 120.247 105.138C117.472 109.271 113.527 112.492 108.911 114.394C104.295 116.296 99.2166 116.794 94.3166 115.824C89.4167 114.855 84.9158 112.461 81.3832 108.946C77.8505 105.431 75.4448 100.953 74.4701 96.0781C73.4954 91.2029 73.9957 86.1497 75.9075 81.5574C77.8194 76.9651 81.057 73.04 85.211 70.2785C89.3649 67.5169 94.2487 66.0429 99.2446 66.0429C105.943 66.0449 112.367 68.6934 117.104 73.4062C121.841 78.1189 124.502 84.5102 124.504 91.1751Z" fill="white"/>
<path d="M114.566 152.445H83.9287C83.8881 152.445 83.8486 152.431 83.8162 152.407C83.7837 152.383 83.76 152.349 83.7487 152.31L80.7487 142.893C80.7338 142.846 80.7384 142.794 80.7616 142.75C80.7849 142.706 80.8247 142.673 80.8724 142.658C80.9202 142.643 80.9719 142.648 81.0162 142.671C81.0605 142.694 81.0938 142.734 81.1087 142.781L84.0262 152.071H114.386L117.506 142.266C117.515 142.239 117.53 142.215 117.549 142.194C117.568 142.174 117.592 142.157 117.619 142.147L118.646 141.766C119.516 141.438 120.439 141.057 121.481 140.595L122.478 140.147C122.524 140.127 122.576 140.126 122.622 140.145C122.669 140.163 122.706 140.199 122.726 140.244C122.746 140.29 122.747 140.341 122.729 140.387C122.71 140.434 122.674 140.471 122.628 140.49L121.631 140.931C120.589 141.401 119.651 141.781 118.781 142.11L117.836 142.468L114.746 152.31C114.734 152.348 114.71 152.382 114.677 152.406C114.645 152.43 114.606 152.443 114.566 152.445ZM131.816 145.333C131.766 145.332 131.719 145.313 131.681 145.281C131.663 145.264 131.648 145.243 131.639 145.22C131.629 145.197 131.624 145.172 131.624 145.147C131.624 145.122 131.629 145.097 131.639 145.074C131.648 145.051 131.663 145.03 131.681 145.012L153.251 123.559L148.458 114.455C148.445 114.43 148.438 114.402 148.438 114.373C148.438 114.345 148.445 114.317 148.458 114.291L148.908 113.299C149.358 112.291 149.741 111.366 150.078 110.486L150.461 109.463C150.471 109.437 150.488 109.413 150.508 109.394C150.529 109.375 150.554 109.36 150.581 109.351L160.443 106.284V76.1005L150.693 73.0709C150.666 73.067 150.641 73.0573 150.618 73.0425C150.595 73.0276 150.576 73.0081 150.562 72.9851C150.547 72.9622 150.538 72.9364 150.535 72.9095C150.531 72.8827 150.534 72.8554 150.542 72.8296C150.55 72.8038 150.564 72.7802 150.582 72.7602C150.601 72.7403 150.623 72.7245 150.648 72.7141C150.674 72.7037 150.701 72.6989 150.728 72.6999C150.755 72.701 150.782 72.7079 150.806 72.7202L160.661 75.7796C160.698 75.7932 160.73 75.8175 160.752 75.8495C160.775 75.8815 160.788 75.9195 160.788 75.9587V106.441C160.789 106.481 160.777 106.519 160.754 106.551C160.731 106.583 160.698 106.608 160.661 106.62L150.783 109.68L150.431 110.62C150.093 111.508 149.681 112.433 149.246 113.455L148.841 114.366L153.648 123.507C153.672 123.538 153.685 123.576 153.685 123.615C153.685 123.654 153.672 123.692 153.648 123.723L131.988 145.281C131.942 145.319 131.883 145.338 131.823 145.333H131.816ZM66.6638 145.333C66.6141 145.332 66.5665 145.313 66.5288 145.281L44.8689 123.723C44.8473 123.691 44.8357 123.654 44.8357 123.615C44.8357 123.576 44.8473 123.539 44.8689 123.507L49.7214 114.284C49.7453 114.24 49.785 114.207 49.8324 114.192C49.8799 114.177 49.9314 114.18 49.9764 114.202C49.9981 114.213 50.0172 114.229 50.0328 114.248C50.0483 114.267 50.0599 114.289 50.0668 114.313C50.0738 114.337 50.076 114.361 50.0734 114.386C50.0707 114.41 50.0632 114.434 50.0514 114.455L45.2664 123.559L66.8288 145.012C66.8469 145.03 66.8614 145.051 66.8712 145.074C66.8811 145.097 66.8862 145.122 66.8862 145.147C66.8862 145.172 66.8811 145.197 66.8712 145.22C66.8614 145.243 66.8469 145.264 66.8288 145.281C66.8075 145.3 66.7825 145.314 66.7554 145.323C66.7284 145.332 66.6997 145.336 66.6713 145.333H66.6638ZM79.4137 141.983H79.3462C78.5962 141.692 77.7787 141.348 76.8712 140.946C76.8447 140.939 76.8199 140.927 76.7986 140.91C76.7773 140.892 76.7601 140.871 76.7481 140.846C76.736 140.822 76.7296 140.795 76.7291 140.768C76.7286 140.741 76.7341 140.714 76.7452 140.689C76.7563 140.664 76.7728 140.642 76.7934 140.624C76.8141 140.606 76.8384 140.593 76.8647 140.585C76.891 140.578 76.9187 140.576 76.9457 140.58C76.9727 140.584 76.9985 140.595 77.0212 140.61C77.9212 141.005 78.7237 141.356 79.4812 141.632C79.5046 141.641 79.5259 141.655 79.5439 141.672C79.5619 141.689 79.5762 141.71 79.586 141.733C79.5958 141.756 79.6008 141.781 79.6009 141.806C79.6009 141.831 79.5959 141.855 79.5862 141.878C79.5704 141.913 79.5436 141.943 79.5098 141.961C79.4761 141.98 79.4371 141.988 79.3987 141.983H79.4137ZM99.2586 118.746C91.908 118.732 84.8632 115.817 79.6704 110.641C74.4777 105.465 71.5612 98.4499 71.5613 91.1365C71.5613 91.087 71.581 91.0396 71.6162 91.0046C71.6513 90.9696 71.699 90.9499 71.7487 90.9499C71.7985 90.9499 71.8462 90.9696 71.8813 91.0046C71.9165 91.0396 71.9362 91.087 71.9362 91.1365C71.9362 96.513 73.5387 101.769 76.5409 106.239C79.5431 110.71 83.8103 114.194 88.8028 116.251C93.7953 118.309 99.2889 118.847 104.589 117.798C109.889 116.749 114.757 114.16 118.578 110.359C122.4 106.557 125.002 101.713 126.056 96.4399C127.11 91.1666 126.569 85.7008 124.501 80.7336C122.433 75.7663 118.931 71.5207 114.438 68.5337C109.945 65.5466 104.662 63.9523 99.2586 63.9523C99.2089 63.9523 99.1612 63.9327 99.126 63.8977C99.0909 63.8627 99.0711 63.8152 99.0711 63.7658C99.0711 63.7163 99.0909 63.6688 99.126 63.6339C99.1612 63.5989 99.2089 63.5792 99.2586 63.5792C106.606 63.5792 113.653 66.4833 118.849 71.6527C124.045 76.8221 126.963 83.8333 126.963 91.144C126.963 98.4546 124.045 105.466 118.849 110.635C113.653 115.805 106.606 118.709 99.2586 118.709V118.746ZM48.2589 110.739C48.2197 110.738 48.1819 110.725 48.15 110.702C48.118 110.68 48.0933 110.649 48.0789 110.612L47.7264 109.68L37.8189 106.598C37.7814 106.585 37.7488 106.561 37.7259 106.529C37.703 106.497 37.6909 106.458 37.6914 106.419V75.9363C37.692 75.8972 37.7045 75.8591 37.7273 75.8271C37.75 75.7952 37.782 75.7708 37.8189 75.7572L47.2914 72.8172C47.3391 72.8028 47.3906 72.8071 47.4353 72.8293C47.4799 72.8515 47.5143 72.8899 47.5314 72.9366C47.5437 72.985 47.5374 73.0363 47.5139 73.0804C47.4903 73.1246 47.4511 73.1584 47.4039 73.1754L38.0439 76.1005V106.307L47.9064 109.374C47.9328 109.382 47.9568 109.396 47.9764 109.416C47.9959 109.435 48.0105 109.459 48.0189 109.486L48.4089 110.508C48.4262 110.553 48.4248 110.604 48.4052 110.649C48.3856 110.693 48.3492 110.728 48.3039 110.747L48.2589 110.739ZM48.2589 71.9367H48.1914C48.1455 71.9169 48.1089 71.8803 48.0894 71.8344C48.0699 71.7886 48.0688 71.737 48.0864 71.6904C48.4464 70.7353 48.8364 69.8249 49.2489 68.8996C49.27 68.8553 49.3078 68.8211 49.3542 68.8043C49.4005 68.7876 49.4516 68.7896 49.4964 68.8101C49.5191 68.8198 49.5396 68.8339 49.5568 68.8516C49.574 68.8693 49.5875 68.8901 49.5966 68.913C49.6057 68.9359 49.6101 68.9604 49.6096 68.985C49.6091 69.0095 49.6038 69.0338 49.5939 69.0563C49.1739 69.9667 48.7989 70.8771 48.4389 71.8248C48.4257 71.8654 48.3995 71.9005 48.3642 71.9248C48.329 71.9491 48.2867 71.9611 48.2439 71.9591L48.2589 71.9367ZM148.901 67.6759H148.811C148.789 67.6642 148.77 67.6483 148.754 67.6292C148.739 67.6101 148.727 67.5881 148.72 67.5645C148.713 67.5409 148.711 67.5162 148.714 67.4918C148.716 67.4674 148.724 67.4437 148.736 67.4221L153.236 58.8035L149.636 55.2068C149.614 55.1908 149.597 55.1703 149.584 55.1469C149.571 55.1234 149.563 55.0974 149.561 55.0708C149.559 55.0441 149.563 55.0174 149.573 54.9923C149.582 54.9673 149.597 54.9446 149.616 54.9257C149.635 54.9068 149.658 54.8921 149.683 54.8828C149.708 54.8734 149.735 54.8696 149.762 54.8715C149.788 54.8734 149.815 54.881 149.838 54.8938C149.862 54.9066 149.882 54.9242 149.898 54.9456L153.648 58.6766C153.672 58.7078 153.685 58.7458 153.685 58.7848C153.685 58.8239 153.672 58.8619 153.648 58.8931L149.051 67.6311C149.031 67.655 149.006 67.6737 148.977 67.6854C148.948 67.6972 148.917 67.7016 148.886 67.6982L148.901 67.6759ZM45.0039 58.9378C44.9538 58.9383 44.9055 58.9196 44.8689 58.8856C44.8362 58.8499 44.8181 58.8033 44.8181 58.755C44.8181 58.7067 44.8362 58.6601 44.8689 58.6244L66.5063 37.0815C66.537 37.0567 66.5754 37.0431 66.615 37.0431C66.6546 37.0431 66.693 37.0567 66.7238 37.0815L75.9112 41.8647L76.8262 41.4617C77.7112 41.0663 78.5212 40.7155 79.3012 40.4245C79.3243 40.4149 79.3491 40.4099 79.3742 40.4099C79.3993 40.41 79.4241 40.415 79.4471 40.4247C79.4702 40.4345 79.4911 40.4487 79.5085 40.4666C79.526 40.4845 79.5396 40.5057 79.5487 40.529C79.5656 40.5755 79.5632 40.6268 79.5421 40.6716C79.521 40.7163 79.4829 40.7509 79.4362 40.7678C78.6862 41.0737 77.8612 41.4095 76.9837 41.7975L75.9862 42.2453C75.9601 42.2563 75.9321 42.2621 75.9037 42.2621C75.8754 42.2621 75.8473 42.2563 75.8212 42.2453L66.6713 37.477L45.1389 58.9378C45.0956 58.9552 45.0472 58.9552 45.0039 58.9378ZM146.643 52.1324C146.593 52.1329 146.545 52.1142 146.508 52.0802L131.756 37.4397L122.606 42.2079C122.582 42.221 122.555 42.2279 122.527 42.2279C122.5 42.2279 122.473 42.221 122.448 42.2079L121.451 41.7602C120.424 41.305 119.493 40.9245 118.616 40.5887L117.589 40.2081C117.562 40.1976 117.538 40.1814 117.519 40.1608C117.5 40.1402 117.485 40.1156 117.476 40.0887L114.394 30.2836H84.0637L81.4087 38.7232C81.4019 38.7466 81.3904 38.7684 81.3749 38.7872C81.3593 38.8061 81.3401 38.8215 81.3183 38.8327C81.2965 38.8439 81.2727 38.8505 81.2483 38.8522C81.2238 38.8539 81.1993 38.8506 81.1762 38.8426C81.1298 38.8272 81.0914 38.7944 81.0689 38.7512C81.0465 38.708 81.042 38.6578 81.0562 38.6113L83.7562 30.0448C83.7689 30.0075 83.7931 29.9751 83.8255 29.9523C83.8578 29.9295 83.8966 29.9175 83.9362 29.918H114.574C114.613 29.9186 114.651 29.931 114.683 29.9537C114.715 29.9763 114.74 30.0081 114.754 30.0448L117.844 39.8947L118.789 40.2529C119.674 40.5812 120.603 40.9991 121.638 41.4319L122.553 41.8348L131.756 37.0517C131.787 37.0281 131.825 37.0153 131.865 37.0153C131.904 37.0153 131.942 37.0281 131.973 37.0517L146.756 51.8265C146.774 51.8439 146.788 51.8648 146.798 51.8878C146.808 51.9109 146.813 51.9357 146.813 51.9608C146.813 51.9859 146.808 52.0107 146.798 52.0338C146.788 52.0569 146.774 52.0777 146.756 52.0951C146.725 52.1243 146.686 52.1426 146.643 52.1474V52.1324Z" fill="#FAFAFA"/>
<path d="M207.003 97.2812C209.351 100.266 211.548 103.251 213.693 106.332C215.838 109.414 217.878 112.563 219.805 115.846C220.293 116.66 220.758 117.51 221.23 118.346C221.912 119.612 222.313 121.009 222.408 122.442C222.53 124.618 222.318 126.8 221.778 128.912C220.844 132.709 219.428 136.373 217.563 139.813L213.7 138.321C214.467 134.876 215.021 131.387 215.358 127.875C215.507 126.357 215.457 124.827 215.208 123.323C215.146 122.905 214.99 122.507 214.75 122.159C214.255 121.413 213.775 120.666 213.25 119.92C211.218 116.936 209.066 114.018 206.898 111.086L200.381 102.296L207.003 97.2812Z" fill="#FF8B7B"/>
<path d="M213.434 137.888L211.439 141.44L218.399 142.462C218.399 142.462 219.149 139.477 217.402 137.418L213.434 137.888Z" fill="#FF8B7B"/>
<path d="M210.385 146.173L216.182 146.755L218.394 142.471L211.435 141.449L210.385 146.173Z" fill="#FF8B7B"/>
<path d="M229.25 167.358L231.32 156.396C231.56 155.125 232.298 154 233.37 153.268C234.443 152.537 235.763 152.258 237.042 152.494L254.42 155.732C253.383 152.278 251.539 149.117 249.039 146.507C246.539 143.897 243.455 141.913 240.036 140.717C236.618 139.521 232.964 139.146 229.373 139.623C225.782 140.101 222.355 141.417 219.372 143.465L140.533 97.036C140.942 92.1273 139.747 87.2182 137.124 83.0407C134.501 78.8631 130.592 75.6406 125.978 73.8536C121.365 72.0666 116.295 71.8107 111.523 73.1241C106.752 74.4375 102.535 77.2498 99.5005 81.1419L116.878 84.3804C118.154 84.6248 119.282 85.3611 120.015 86.4289C120.748 87.4967 121.028 88.8095 120.793 90.0814L118.723 101.051C118.481 102.321 117.743 103.445 116.671 104.176C115.599 104.907 114.279 105.187 113 104.953L95.623 101.707C96.6643 105.183 98.522 108.361 101.043 110.981C103.563 113.6 106.674 115.585 110.119 116.772C113.563 117.958 117.242 118.312 120.851 117.803C124.459 117.295 127.895 115.939 130.873 113.848L209.555 160.187C209.101 165.106 210.262 170.039 212.863 174.247C215.464 178.454 219.366 181.71 223.984 183.525C228.601 185.341 233.686 185.618 238.475 184.317C243.265 183.015 247.501 180.204 250.55 176.305L233.172 173.059C231.895 172.816 230.765 172.081 230.03 171.013C229.295 169.945 229.015 168.631 229.25 167.358Z" fill="#407BFF"/>
<path d="M209.613 143.189L145.692 105.548C144.53 104.863 143.03 105.246 142.343 106.402L139.737 110.781C139.05 111.938 139.434 113.43 140.596 114.114L204.517 151.755C205.679 152.44 207.179 152.057 207.867 150.901L210.472 146.522C211.16 145.366 210.775 143.874 209.613 143.189Z" fill="#407BFF"/>
<path opacity="0.2" d="M209.613 143.189L145.692 105.548C144.53 104.863 143.03 105.246 142.343 106.402L139.737 110.781C139.05 111.938 139.434 113.43 140.596 114.114L204.517 151.755C205.679 152.44 207.179 152.057 207.867 150.901L210.472 146.522C211.16 145.366 210.775 143.874 209.613 143.189Z" fill="white"/>
<path d="M180.312 74.0887C180.238 74.529 179.953 74.8349 179.668 74.8349C179.383 74.8349 179.203 74.3947 179.27 73.9619C179.338 73.5291 179.63 73.2157 179.915 73.253C180.2 73.2903 180.38 73.6559 180.312 74.0887Z" fill="#263238"/>
<path d="M179.976 74.8555C179.242 76.1092 178.339 77.2566 177.291 78.2655C177.556 78.53 177.876 78.7339 178.228 78.8628C178.58 78.9916 178.957 79.0424 179.331 79.0117L179.976 74.8555Z" fill="#FF5652"/>
<path d="M182.281 71.9197C182.247 71.92 182.214 71.9136 182.183 71.9008C182.152 71.8879 182.124 71.869 182.101 71.8451C181.875 71.609 181.596 71.4298 181.287 71.3221C180.978 71.2145 180.648 71.1816 180.323 71.2262C180.289 71.2338 180.254 71.2347 180.22 71.2287C180.185 71.2227 180.153 71.2099 180.123 71.1912C180.094 71.1724 180.069 71.1481 180.049 71.1195C180.029 71.091 180.015 71.0588 180.008 71.0248C180.001 70.9915 180 70.957 180.006 70.9233C180.012 70.8897 180.025 70.8576 180.044 70.829C180.063 70.8004 180.087 70.776 180.116 70.7571C180.145 70.7382 180.177 70.7253 180.211 70.7191C180.619 70.6548 181.036 70.689 181.427 70.8188C181.819 70.9485 182.173 71.1701 182.461 71.4648C182.508 71.5157 182.534 71.5822 182.534 71.6512C182.534 71.7202 182.508 71.7868 182.461 71.8376C182.412 71.885 182.349 71.914 182.281 71.9197Z" fill="#263238"/>
<path d="M194.955 78.9062C194.205 82.9207 193.38 90.2706 196.2 92.9419C196.2 92.9419 195.097 97.0086 187.605 97.0086C179.355 97.0086 183.668 92.9419 183.668 92.9419C188.167 91.8748 188.047 88.5543 187.267 85.4801L194.955 78.9062Z" fill="#FF8B7B"/>
<path d="M199.997 95.9626C199.906 95.8306 199.837 95.6843 199.794 95.5298C199.164 93.1495 196.517 91.2915 193.082 91.1945C189.46 91.105 185.372 91.5378 182.958 93.5226C181.893 94.3956 183.07 95.6716 183.07 95.6716L199.997 95.9626Z" fill="#407BFF"/>
<path opacity="0.5" d="M199.997 95.9626C199.906 95.8306 199.837 95.6843 199.794 95.5298C199.164 93.1495 196.517 91.2915 193.082 91.1945C189.46 91.105 185.372 91.5378 182.958 93.5226C181.893 94.3956 183.07 95.6716 183.07 95.6716L199.997 95.9626Z" fill="white"/>
<path d="M226.485 246.114H226.433C226.322 246.099 226.22 246.05 226.139 245.974C226.058 245.897 226.003 245.798 225.983 245.689C225.956 245.604 225.949 245.515 225.96 245.428C225.972 245.34 226.003 245.256 226.05 245.181C226.47 244.473 228.3 244.1 228.352 244.085C228.378 244.08 228.404 244.082 228.428 244.091C228.451 244.1 228.472 244.116 228.487 244.137C228.5 244.158 228.507 244.183 228.507 244.208C228.507 244.233 228.5 244.257 228.487 244.279C228.21 244.749 227.182 246.114 226.485 246.114ZM228.097 244.405C227.497 244.562 226.523 244.883 226.275 245.308C226.251 245.353 226.239 245.403 226.239 245.454C226.239 245.505 226.251 245.554 226.275 245.599C226.343 245.831 226.463 245.846 226.493 245.853C226.83 245.898 227.625 245.092 228.097 244.405Z" fill="#407BFF"/>
<path d="M227.476 244.425C226.793 244.425 226.028 244.299 225.796 243.971C225.741 243.889 225.716 243.792 225.724 243.694C225.732 243.597 225.774 243.505 225.841 243.434C225.902 243.356 225.977 243.291 226.064 243.242C226.15 243.193 226.245 243.162 226.343 243.15C227.168 243.061 228.406 244.053 228.458 244.097C228.477 244.112 228.492 244.131 228.501 244.153C228.509 244.176 228.511 244.2 228.506 244.223C228.502 244.247 228.49 244.268 228.474 244.285C228.458 244.303 228.437 244.315 228.413 244.321C228.107 244.398 227.792 244.433 227.476 244.425ZM226.471 243.404H226.373C226.31 243.408 226.248 243.426 226.192 243.457C226.136 243.488 226.088 243.531 226.051 243.583C225.946 243.717 225.991 243.784 226.014 243.806C226.223 244.112 227.371 244.232 228.068 244.12C227.606 243.749 227.056 243.503 226.471 243.404Z" fill="#407BFF"/>
<path d="M172.009 264.225C171.304 264.225 170.622 264.128 170.389 263.815C170.33 263.732 170.299 263.633 170.299 263.531C170.299 263.43 170.33 263.331 170.389 263.248C170.435 263.172 170.496 263.105 170.568 263.053C170.64 263 170.722 262.963 170.809 262.942C171.724 262.696 173.651 263.785 173.734 263.837C173.757 263.851 173.775 263.871 173.786 263.895C173.796 263.919 173.799 263.946 173.794 263.971C173.789 263.997 173.776 264.021 173.757 264.039C173.739 264.058 173.715 264.071 173.689 264.076C173.134 264.173 172.572 264.223 172.009 264.225ZM171.132 263.166C171.05 263.154 170.966 263.154 170.884 263.166C170.831 263.176 170.781 263.198 170.737 263.229C170.693 263.259 170.657 263.299 170.629 263.345C170.532 263.509 170.569 263.591 170.629 263.636C170.884 263.986 172.279 263.994 173.306 263.852C172.633 263.485 171.895 263.252 171.132 263.166Z" fill="#407BFF"/>
<path d="M173.677 264.079H173.625C172.957 263.78 171.637 262.586 171.742 261.974C171.742 261.825 171.87 261.646 172.23 261.609C172.363 261.592 172.499 261.604 172.628 261.642C172.757 261.681 172.877 261.746 172.98 261.833C173.685 262.407 173.827 263.885 173.835 263.944C173.838 263.967 173.834 263.99 173.825 264.011C173.816 264.032 173.801 264.05 173.782 264.064C173.75 264.082 173.713 264.087 173.677 264.079ZM172.335 261.84H172.252C172.02 261.84 172.005 261.952 171.997 261.982C171.937 262.355 172.837 263.288 173.497 263.691C173.428 263.065 173.166 262.476 172.747 262.004C172.63 261.911 172.485 261.859 172.335 261.855V261.84Z" fill="#407BFF"/>
<path d="M179.734 263.946H174.221L173.674 251.254H179.186L179.734 263.946Z" fill="#FF8B7B"/>
<path d="M233.313 240.308L228.843 243.516L218.299 235.428L222.769 232.227L233.313 240.308Z" fill="#FF8B7B"/>
<path d="M228.2 243.471L232.49 238.994C232.565 238.915 232.664 238.865 232.772 238.851C232.88 238.838 232.99 238.862 233.082 238.919L237.372 241.508C237.475 241.573 237.562 241.659 237.626 241.762C237.691 241.864 237.732 241.979 237.747 242.1C237.761 242.22 237.748 242.341 237.709 242.456C237.671 242.571 237.606 242.675 237.522 242.762C236.022 244.291 235.174 244.956 233.292 246.911C232.13 248.112 228.98 252.335 227.375 253.999C225.77 255.663 223.917 254.298 224.42 253.477C226.67 249.791 227.765 246.135 227.825 244.314C227.846 243.998 227.979 243.699 228.2 243.471Z" fill="#263238"/>
<path d="M174.259 263.309H180.259C180.369 263.308 180.476 263.344 180.562 263.412C180.648 263.48 180.708 263.575 180.732 263.682L181.819 268.554C181.845 268.672 181.844 268.794 181.816 268.911C181.788 269.028 181.734 269.137 181.657 269.23C181.581 269.324 181.484 269.399 181.375 269.45C181.265 269.5 181.145 269.526 181.024 269.524C178.857 269.524 175.722 269.368 172.992 269.368C169.797 269.368 167.045 269.539 163.302 269.539C161.052 269.539 160.415 267.263 161.36 267.054C165.672 266.122 169.19 266.017 172.917 263.734C173.316 263.47 173.781 263.323 174.259 263.309Z" fill="#263238"/>
<path d="M199.294 104.518C200.044 105.898 200.891 107.234 201.708 108.48C203.118 110.636 204.483 112.502 205.458 113.785C206.336 114.942 206.898 115.621 206.898 115.621L217.998 108.092C217.998 108.092 211.248 95.0189 206.051 94.1832C200.704 93.34 195.806 98.3245 199.294 104.518Z" fill="#407BFF"/>
<path opacity="0.5" d="M199.294 104.518C200.044 105.898 200.891 107.234 201.708 108.48C203.118 110.636 204.483 112.502 205.458 113.785C206.336 114.942 206.898 115.621 206.898 115.621L217.998 108.092C217.998 108.092 211.248 95.0189 206.051 94.1832C200.704 93.34 195.806 98.3245 199.294 104.518Z" fill="black"/>
<path d="M201.705 108.469C203.115 110.625 204.48 112.491 205.455 113.774C205.342 111.207 204.81 107.058 202.808 103.895C202.08 104.611 201.788 106.461 201.705 108.469Z" fill="#407BFF"/>
<path opacity="0.6" d="M201.705 108.469C203.115 110.625 204.48 112.491 205.455 113.774C205.342 111.207 204.81 107.058 202.808 103.895C202.08 104.611 201.788 106.461 201.705 108.469Z" fill="black"/>
<path d="M172.48 112.33C172.48 114.196 172.525 116.248 172.63 118.509C172.9 124.657 173.575 132.32 174.88 141.842H204.347C204.549 137.364 201.707 115.382 206.072 94.1757C202.812 93.5519 199.515 93.1382 196.202 92.937C192.031 92.6981 187.849 92.6981 183.678 92.937C180.818 93.2182 177.985 93.7171 175.203 94.4294C175.203 94.4294 172.473 97.5111 172.48 112.33Z" fill="#407BFF"/>
<path opacity="0.5" d="M172.48 112.33C172.48 114.196 172.525 116.248 172.63 118.509C172.9 124.657 173.575 132.32 174.88 141.842H204.347C204.549 137.364 201.707 115.382 206.072 94.1757C202.812 93.5519 199.515 93.1382 196.202 92.937C192.031 92.6981 187.849 92.6981 183.678 92.937C180.818 93.2182 177.985 93.7171 175.203 94.4294C175.203 94.4294 172.473 97.5111 172.48 112.33Z" fill="black"/>
<path d="M172.48 112.334C172.48 114.199 172.525 116.251 172.63 118.512C176.088 115.154 176.32 108.297 176.32 108.297L172.48 112.334Z" fill="#407BFF"/>
<path opacity="0.6" d="M172.48 112.334C172.48 114.199 172.525 116.251 172.63 118.512C176.088 115.154 176.32 108.297 176.32 108.297L172.48 112.334Z" fill="black"/>
<path d="M178.619 103.82C178.052 104.763 177.426 105.671 176.744 106.536C176.121 107.342 175.499 108.103 174.861 108.856C173.594 110.349 172.236 111.789 170.857 113.184C168.029 116.04 164.898 118.582 161.519 120.765C160.61 121.331 159.671 121.85 158.707 122.317L158.325 122.496L158.137 122.586L157.905 122.683C157.534 122.839 157.153 122.969 156.765 123.071L156.217 123.213L155.692 123.302C155.357 123.36 155.019 123.397 154.68 123.414C152.422 123.488 150.169 123.173 148.02 122.482C144.221 121.306 140.601 119.621 137.258 117.475L139.035 113.744C142.446 114.76 145.921 115.547 149.437 116.102C150.925 116.35 152.443 116.37 153.937 116.161C154.065 116.141 154.19 116.108 154.312 116.064L154.477 116.02L154.597 115.967C154.695 115.967 154.717 115.893 154.777 115.87L155.227 115.609C155.918 115.21 156.586 114.774 157.23 114.303C159.997 112.232 162.57 109.914 164.917 107.379C166.139 106.103 167.317 104.767 168.464 103.439C169.034 102.768 169.589 102.096 170.107 101.417C170.624 100.738 171.157 100.044 171.464 99.5664L178.619 103.82Z" fill="#FF8B7B"/>
<path d="M139.849 114.75L136.189 110.422L133.699 116.749C133.699 116.749 136.857 118.242 139.317 117.376L139.849 114.75Z" fill="#FF8B7B"/>
<path d="M130.819 109.488L129.799 114.54L133.699 116.756L136.189 110.428L130.819 109.488Z" fill="#FF8B7B"/>
<path d="M183.039 100.852C182.386 106.075 170.477 117.081 170.477 117.081L159.752 108.62C162.448 104.655 165.599 101.016 169.142 97.7776C176.911 91.0769 183.826 94.6138 183.039 100.852Z" fill="#407BFF"/>
<path opacity="0.5" d="M183.039 100.852C182.386 106.075 170.477 117.081 170.477 117.081L159.752 108.62C162.448 104.655 165.599 101.016 169.142 97.7776C176.911 91.0769 183.826 94.6138 183.039 100.852Z" fill="black"/>
<path d="M173.746 136.104C184.448 136.104 186.893 124.061 187.456 118.89C186.104 110.144 182.973 101.765 178.253 94.2657C178.195 94.174 178.161 94.0695 178.152 93.9614C178.144 93.8532 178.163 93.7447 178.206 93.6453C178.25 93.546 178.317 93.4587 178.403 93.3913C178.488 93.3238 178.589 93.2782 178.696 93.2584L181.043 92.8256C181.177 92.8038 181.314 92.8211 181.438 92.8754C181.562 92.9297 181.667 93.0187 181.741 93.1315C188.183 103.391 190.29 112.092 190.973 116.569H192.893C194.858 112.316 199.185 102.623 198.833 93.5419C198.826 93.4445 198.842 93.3469 198.878 93.2562C198.914 93.1655 198.97 93.0839 199.042 93.0174C199.114 92.951 199.199 92.9013 199.293 92.872C199.387 92.8426 199.485 92.8344 199.583 92.848L202.103 93.0942C202.265 93.1051 202.417 93.175 202.53 93.2907C202.644 93.4063 202.71 93.5595 202.718 93.721C203.085 102.474 198.113 114.614 196.2 118.472C196.853 132.754 204.84 135.223 204.84 135.223C205.037 138.775 204.878 142.336 204.367 145.857C187.456 148.588 179.026 146.924 174.204 144.939C174.579 141.35 173.904 138.835 173.746 136.104Z" fill="#407BFF"/>
<path opacity="0.3" d="M173.746 136.104C184.448 136.104 186.893 124.061 187.456 118.89C186.104 110.144 182.973 101.765 178.253 94.2657C178.195 94.174 178.161 94.0695 178.152 93.9614C178.144 93.8532 178.163 93.7447 178.206 93.6453C178.25 93.546 178.317 93.4587 178.403 93.3913C178.488 93.3238 178.589 93.2782 178.696 93.2584L181.043 92.8256C181.177 92.8038 181.314 92.8211 181.438 92.8754C181.562 92.9297 181.667 93.0187 181.741 93.1315C188.183 103.391 190.29 112.092 190.973 116.569H192.893C194.858 112.316 199.185 102.623 198.833 93.5419C198.826 93.4445 198.842 93.3469 198.878 93.2562C198.914 93.1655 198.97 93.0839 199.042 93.0174C199.114 92.951 199.199 92.9013 199.293 92.872C199.387 92.8426 199.485 92.8344 199.583 92.848L202.103 93.0942C202.265 93.1051 202.417 93.175 202.53 93.2907C202.644 93.4063 202.71 93.5595 202.718 93.721C203.085 102.474 198.113 114.614 196.2 118.472C196.853 132.754 204.84 135.223 204.84 135.223C205.037 138.775 204.878 142.336 204.367 145.857C187.456 148.588 179.026 146.924 174.204 144.939C174.579 141.35 173.904 138.835 173.746 136.104Z" fill="black"/>
<path d="M173.674 251.254L173.959 257.798H179.471L179.186 251.254H173.674Z" fill="#FF5652"/>
<path d="M222.776 232.227L218.307 235.435L223.744 239.599L228.214 236.39L222.776 232.227Z" fill="#FF5652"/>
<path d="M195.095 75.4491C193.918 80.7619 193.498 83.9332 190.341 86.2612C185.593 89.7683 179.324 86.2612 178.881 80.7171C178.484 75.7177 180.471 67.8679 186.088 66.5397C187.325 66.2551 188.613 66.2873 189.834 66.6332C191.054 66.9791 192.167 67.6276 193.067 68.5178C193.967 69.408 194.625 70.5108 194.98 71.7231C195.334 72.9353 195.374 74.2174 195.095 75.4491Z" fill="#FF8B7B"/>
<path d="M199.857 67.2104C204.544 67.3372 202.617 69.7921 200.269 71.1427C200.269 71.1427 202.977 72.4336 201.582 75.5153C199.467 80.1939 195.417 85.335 191.285 85.0515C186.14 84.7008 184.677 79.1343 184.865 73.6424C182.15 71.0979 181.693 69.6951 181.273 66.6358C180.425 60.5694 184.25 57.234 199.857 67.2104Z" fill="#263238"/>
<path d="M193.818 56.9828C197.027 57.8018 199.778 59.8551 201.466 62.6915C203.153 65.5278 203.64 68.9148 202.818 72.1079L178.602 65.9594C179.007 64.3754 179.723 62.8865 180.708 61.5779C181.693 60.2694 182.927 59.1667 184.34 58.333C185.753 57.4993 187.318 56.951 188.944 56.7193C190.571 56.4876 192.227 56.5772 193.818 56.9828Z" fill="#407BFF"/>
<path opacity="0.5" d="M193.818 56.9828C197.027 57.8018 199.778 59.8551 201.466 62.6915C203.153 65.5278 203.64 68.9148 202.818 72.1079L178.602 65.9594C179.007 64.3754 179.723 62.8865 180.708 61.5779C181.693 60.2694 182.927 59.1667 184.34 58.333C185.753 57.4993 187.318 56.951 188.944 56.7193C190.571 56.4876 192.227 56.5772 193.818 56.9828Z" fill="white"/>
<path d="M198.606 72.1261C198.438 72.1285 198.272 72.0922 198.121 72.0199C197.97 71.9477 197.839 71.8415 197.736 71.7098C197.633 71.5781 197.563 71.4244 197.53 71.261C197.498 71.0975 197.504 70.9288 197.548 70.7681C197.885 69.4129 197.931 68.0024 197.685 66.6281C197.438 65.2539 196.903 63.9467 196.116 62.7914C194.431 60.2686 191.852 58.4702 188.893 57.7547C188.612 57.6835 188.37 57.5039 188.222 57.2555C188.074 57.0071 188.031 56.7103 188.102 56.4302C188.174 56.1502 188.354 55.9099 188.604 55.7623C188.854 55.6147 189.152 55.5718 189.433 55.643C192.925 56.4964 195.964 58.628 197.946 61.6124C198.9 63.019 199.546 64.6093 199.843 66.2803C200.141 67.9514 200.082 69.6658 199.67 71.3128C199.609 71.5467 199.471 71.7536 199.278 71.9009C199.085 72.0481 198.849 72.1274 198.606 72.1261Z" fill="#407BFF"/>
<path opacity="0.3" d="M198.606 72.1261C198.438 72.1285 198.272 72.0922 198.121 72.0199C197.97 71.9477 197.839 71.8415 197.736 71.7098C197.633 71.5781 197.563 71.4244 197.53 71.261C197.498 71.0975 197.504 70.9288 197.548 70.7681C197.885 69.4129 197.931 68.0024 197.685 66.6281C197.438 65.2539 196.903 63.9467 196.116 62.7914C194.431 60.2686 191.852 58.4702 188.893 57.7547C188.612 57.6835 188.37 57.5039 188.222 57.2555C188.074 57.0071 188.031 56.7103 188.102 56.4302C188.174 56.1502 188.354 55.9099 188.604 55.7623C188.854 55.6147 189.152 55.5718 189.433 55.643C192.925 56.4964 195.964 58.628 197.946 61.6124C198.9 63.019 199.546 64.6093 199.843 66.2803C200.141 67.9514 200.082 69.6658 199.67 71.3128C199.609 71.5467 199.471 71.7536 199.278 71.9009C199.085 72.0481 198.849 72.1274 198.606 72.1261Z" fill="white"/>
<path d="M175.244 66.2816L203.743 73.5196C204.039 73.5943 204.353 73.5491 204.616 73.3938C204.879 73.2386 205.069 72.9859 205.145 72.6913C205.221 72.3955 205.175 72.0821 205.02 71.8193C204.864 71.5566 204.61 71.3658 204.313 71.2885L175.814 64.0506C175.516 63.9759 175.2 64.0219 174.936 64.1786C174.671 64.3352 174.48 64.5897 174.404 64.8863C174.367 65.0328 174.359 65.1851 174.382 65.3346C174.404 65.484 174.455 65.6277 174.533 65.7573C174.611 65.8869 174.714 65.9999 174.836 66.0899C174.958 66.1798 175.097 66.245 175.244 66.2816Z" fill="#407BFF"/>
<path opacity="0.3" d="M175.244 66.2816L203.743 73.5196C204.039 73.5943 204.353 73.5491 204.616 73.3938C204.879 73.2386 205.069 72.9859 205.145 72.6913C205.221 72.3955 205.175 72.0821 205.02 71.8193C204.864 71.5566 204.61 71.3658 204.313 71.2885L175.814 64.0506C175.516 63.9759 175.2 64.0219 174.936 64.1786C174.671 64.3352 174.48 64.5897 174.404 64.8863C174.367 65.0328 174.359 65.1851 174.382 65.3346C174.404 65.484 174.455 65.6277 174.533 65.7573C174.611 65.8869 174.714 65.9999 174.836 66.0899C174.958 66.1798 175.097 66.245 175.244 66.2816Z" fill="white"/>
<path d="M187.677 74.9573C187.537 76.302 186.951 77.562 186.012 78.5389C184.767 79.8149 183.537 78.9568 183.379 77.3451C183.237 75.8975 183.717 73.4873 185.209 72.8157C186.702 72.1442 187.834 73.3381 187.677 74.9573Z" fill="#FF8B7B"/>
<path d="M185.326 141.84C185.326 141.84 184.688 180.851 189.616 196.148C197.423 220.376 221.002 240.001 221.002 240.001L229.432 233.949C229.432 233.949 209.798 217.369 206.198 196.976C202.965 178.642 204.338 156.831 204.338 141.855L185.326 141.84Z" fill="#407BFF"/>
<path opacity="0.3" d="M185.326 141.84C185.326 141.84 184.688 180.851 189.616 196.148C197.423 220.376 221.002 240.001 221.002 240.001L229.432 233.949C229.432 233.949 209.798 217.369 206.198 196.976C202.965 178.642 204.338 156.831 204.338 141.855L185.326 141.84Z" fill="black"/>
<path d="M190.823 148.543C191.865 155.572 188.183 175.144 186.908 181.554C185.573 169.571 185.325 155.356 185.303 147.596C188.003 145.775 190.343 145.305 190.823 148.543Z" fill="#407BFF"/>
<path opacity="0.4" d="M190.823 148.543C191.865 155.572 188.183 175.144 186.908 181.554C185.573 169.571 185.325 155.356 185.303 147.596C188.003 145.775 190.343 145.305 190.823 148.543Z" fill="black"/>
<path d="M217.401 238.246C217.363 238.246 220.866 240.298 220.866 240.298L230.068 233.687L227.008 231.352L217.401 238.246Z" fill="#407BFF"/>
<path opacity="0.4" d="M217.401 238.246C217.363 238.246 220.866 240.298 220.866 240.298L230.068 233.687L227.008 231.352L217.401 238.246Z" fill="white"/>
<path d="M174.862 141.84C174.862 141.84 166.56 176.836 165.975 193.551C165.323 212.303 171.9 256.522 171.9 256.522H181.245C181.245 256.522 182.4 211.959 182.812 194.879C183.262 176.262 194.25 141.84 194.25 141.84H174.862Z" fill="#407BFF"/>
<path opacity="0.3" d="M174.862 141.84C174.862 141.84 166.56 176.836 165.975 193.551C165.323 212.303 171.9 256.522 171.9 256.522H181.245C181.245 256.522 182.4 211.959 182.812 194.879C183.262 176.262 194.25 141.84 194.25 141.84H174.862Z" fill="black"/>
<path d="M170.105 252.84C170.068 252.84 170.638 256.698 170.638 256.698H182L182.307 253.258L170.105 252.84Z" fill="#407BFF"/>
<path opacity="0.4" d="M170.105 252.84C170.068 252.84 170.638 256.698 170.638 256.698H182L182.307 253.258L170.105 252.84Z" fill="white"/>
</svg>
