<svg width="105" height="105" viewBox="0 0 105 105" fill="none" xmlns="http://www.w3.org/2000/svg">
<g clip-path="url(#clip0_3649_100396)">
<rect x="13.1877" y="3.75998" width="24.1674" height="24.1674" rx="3.33663" stroke="#0054A5" stroke-width="3.62847"/>
<rect x="76.094" y="39.4123" width="24.1674" height="24.1674" rx="3.33663" stroke="#0054A5" stroke-width="3.62847"/>
<rect x="4.74365" y="76.3315" width="22.9071" height="22.9071" rx="2.70648" stroke="#0054A5" stroke-width="2.36817"/>
<path d="M18.127 16.1175L22.7052 20.6957L32.4165 10.9844" stroke="#0054A5" stroke-width="3.0511" stroke-linecap="round"/>
<path d="M81.0312 51.7738L85.6095 56.352L95.3208 46.6406" stroke="#0054A5" stroke-width="3.0511" stroke-linecap="round"/>
<path d="M9.05078 88.0667L13.629 92.645L23.3404 82.9336" stroke="#0054A5" stroke-width="3.0511" stroke-linecap="round"/>
<path d="M87.782 32.5438C84.064 24.5128 70.1672 8.32077 44.3809 10.5988M44.3809 10.5988L52.5622 5.23047M44.3809 10.5988L52.5622 16.6885" stroke="#0054A5" stroke-width="3.0511" stroke-linecap="round"/>
<path d="M36.0714 88.9478C42.385 92.3384 71.7314 97.9504 87.8578 70.5261M87.8578 70.5261L89.0352 81.1142M87.8578 70.5261L76.291 73.2806" stroke="#0054A5" stroke-width="3.0511" stroke-linecap="round"/>
<path d="M14.7251 35.3555C9.13756 48.2688 10.8642 59.1657 15.9675 70.0411M15.9675 70.0411L6.03335 64.2863M15.9675 70.0411L18.406 58.8643" stroke="#0054A5" stroke-width="3.0511" stroke-linecap="round"/>
<path d="M48.992 60.9215C54.2343 60.9215 58.484 56.6718 58.484 51.4295C58.484 46.1872 54.2343 41.9375 48.992 41.9375C43.7497 41.9375 39.5 46.1872 39.5 51.4295C39.5 56.6718 43.7497 60.9215 48.992 60.9215Z" stroke="#0054A5" stroke-width="3.62847" stroke-linecap="round" stroke-linejoin="round"/>
<path d="M59.993 38.9843C60.4996 39.4329 60.9785 39.9118 61.4271 40.4184L66.8301 41.19C67.7063 42.7157 68.3818 44.3482 68.84 46.0469L65.5663 50.4116C65.5663 50.4116 65.6075 51.7641 65.5665 52.4395L68.8414 56.8055C68.3821 58.5039 67.7055 60.1359 66.8282 61.6611L61.4271 62.4326C61.4271 62.4326 60.4999 63.418 59.9933 63.8666L59.2218 69.2696C57.696 70.1457 56.0636 70.8213 54.3648 71.2794L50.0004 68.0059C49.325 68.047 48.6477 68.047 47.9723 68.0059L43.6062 71.2809C41.9078 70.8216 40.2758 70.1449 38.7507 69.2677L37.9793 63.8668C37.4727 63.4183 36.9937 62.9394 36.5452 62.4327L31.1422 61.6612C30.266 60.1355 29.5904 58.503 29.1323 56.8043L32.4059 52.4396C32.4059 52.4396 32.3648 51.0871 32.4058 50.4117L29.1309 46.0457C29.5902 44.3473 30.2668 42.7152 31.144 41.1901L36.5449 40.4187C36.9934 39.9121 37.4724 39.4332 37.979 38.9846L38.7505 33.5816C40.2762 32.7054 41.9087 32.0299 43.6074 31.5717L47.9719 34.8453C48.6473 34.8042 49.3246 34.8042 50 34.8453L54.3661 31.5703C56.0645 32.0296 57.6965 32.7063 59.2216 33.5835L59.993 38.9843Z" stroke="#0054A5" stroke-width="3.62847" stroke-linecap="round" stroke-linejoin="round"/>
</g>
<defs>
<clipPath id="clip0_3649_100396">
<rect width="104.5" height="104.5" fill="white" transform="translate(0 0.289062)"/>
</clipPath>
</defs>
</svg>
