<svg width="56" height="56" viewBox="0 0 56 56" fill="none" xmlns="http://www.w3.org/2000/svg">
<path fill-rule="evenodd" clip-rule="evenodd" d="M28.0006 9.33203C26.712 9.33203 25.6673 10.3767 25.6673 11.6654V25.5496C25.6673 26.589 24.4107 27.1095 23.6757 26.3746L18.9264 21.6253C18.4708 21.1697 17.7321 21.1697 17.2765 21.6253L15.6266 23.2752C15.1709 23.7308 15.1709 24.4695 15.6265 24.9251L27.1759 36.4746C27.6315 36.9302 28.3702 36.9302 28.8258 36.4746L40.3754 24.9251C40.831 24.4695 40.831 23.7308 40.3753 23.2752L38.7255 21.6253C38.2699 21.1697 37.5312 21.1697 37.0756 21.6253L32.3256 26.3753C31.5906 27.1102 30.334 26.5897 30.334 25.5503V11.6654C30.334 10.3767 29.2893 9.33203 28.0006 9.33203ZM11.6673 32.6654C10.3787 32.6654 9.33398 33.71 9.33398 34.9987V41.9987C9.33398 44.5761 11.4233 46.6654 14.0007 46.6654H42.0006C44.578 46.6654 46.6673 44.5761 46.6673 41.9987V34.9987C46.6673 33.71 45.6226 32.6654 44.334 32.6654C43.0453 32.6654 42.0006 33.71 42.0006 34.9987V39.6654C42.0006 40.954 40.956 41.9987 39.6673 41.9987H16.334C15.0453 41.9987 14.0007 40.954 14.0007 39.6654V34.9987C14.0007 33.71 12.956 32.6654 11.6673 32.6654Z" fill="#0054A5"/>
</svg>
