<svg width="19" height="19" viewBox="0 0 19 19" fill="none" xmlns="http://www.w3.org/2000/svg">
<path fill-rule="evenodd" clip-rule="evenodd" d="M1.4781 8.88701C1.4781 13.205 4.60876 16.147 8.12527 16.7555C8.22093 16.7721 8.31238 16.8074 8.39441 16.8593C8.47644 16.9112 8.54744 16.9788 8.60335 17.0581C8.65927 17.1375 8.69901 17.2271 8.7203 17.3218C8.74158 17.4165 8.74401 17.5145 8.72743 17.6102C8.71085 17.7058 8.67559 17.7973 8.62367 17.8793C8.57175 17.9614 8.50417 18.0324 8.42481 18.0883C8.34545 18.1442 8.25585 18.1839 8.16113 18.2052C8.06641 18.2265 7.96843 18.2289 7.87277 18.2123C3.74347 17.4974 0 14.0164 0 8.88701C0 6.70675 0.991544 4.99318 2.14905 3.69098C2.97889 2.7576 3.92788 1.99869 4.69104 1.41852H2.37034C2.18224 1.41852 2.00183 1.34379 1.86882 1.21078C1.73581 1.07777 1.66108 0.897366 1.66108 0.709259C1.66108 0.521152 1.73581 0.340749 1.86882 0.207737C2.00183 0.0747254 2.18224 0 2.37034 0H6.6259C6.814 0 6.99441 0.0747254 7.12742 0.207737C7.26043 0.340749 7.33515 0.521152 7.33515 0.709259V4.96481C7.33515 5.15292 7.26043 5.33332 7.12742 5.46633C6.99441 5.59934 6.814 5.67407 6.6259 5.67407C6.43779 5.67407 6.25739 5.59934 6.12437 5.46633C5.99136 5.33332 5.91664 5.15292 5.91664 4.96481V2.34623L5.91522 2.34907C5.10383 2.95903 4.1137 3.70659 3.2555 4.6726C2.24126 5.81309 1.4781 7.19188 1.4781 8.88559V8.88701ZM17.235 9.46293C17.235 5.19036 14.171 2.26679 10.6999 1.61427C10.6031 1.59786 10.5106 1.56234 10.4278 1.50979C10.3449 1.45725 10.2733 1.38872 10.2172 1.30822C10.1611 1.22772 10.1216 1.13685 10.101 1.04091C10.0803 0.94497 10.079 0.845888 10.0971 0.749441C10.1152 0.652995 10.1523 0.561115 10.2063 0.479162C10.2603 0.39721 10.33 0.326825 10.4115 0.272116C10.4929 0.217407 10.5845 0.179467 10.6807 0.160512C10.777 0.141556 10.8761 0.141964 10.9722 0.161711C15.0491 0.927711 18.7131 4.38889 18.7131 9.46293C18.7131 11.6432 17.7215 13.3553 16.564 14.659C15.7342 15.5923 14.7852 16.3513 14.022 16.9314H16.3427C16.5308 16.9314 16.7113 17.0062 16.8443 17.1392C16.9773 17.2722 17.052 17.4526 17.052 17.6407C17.052 17.8288 16.9773 18.0092 16.8443 18.1422C16.7113 18.2752 16.5308 18.3499 16.3427 18.3499H12.0872C11.8991 18.3499 11.7187 18.2752 11.5857 18.1422C11.4527 18.0092 11.3779 17.8288 11.3779 17.6407V13.3851C11.3779 13.197 11.4527 13.0166 11.5857 12.8836C11.7187 12.7506 11.8991 12.6759 12.0872 12.6759C12.2753 12.6759 12.4557 12.7506 12.5887 12.8836C12.7217 13.0166 12.7964 13.197 12.7964 13.3851V16.0023H12.7993C13.6093 15.3895 14.6008 14.6434 15.4576 13.6759C16.4718 12.5369 17.235 11.1581 17.235 9.46293Z" fill="black"/>
</svg>
