<svg width="110" height="111" viewBox="0 0 110 111" fill="none" xmlns="http://www.w3.org/2000/svg">
<path d="M79.017 82.7891H29.1786L24.4453 90.428H84.0286" stroke="#0054A5" stroke-width="2.87582" stroke-linecap="round"/>
<path d="M79.4342 60.8693L74.7469 55.9062L69.2324 61.6964L73.9197 66.3837L79.4342 60.8693Z" stroke="#0054A5" stroke-width="2.15686" stroke-linecap="round"/>
<circle cx="55.442" cy="42.112" r="23.3772" stroke="#0054A5" stroke-width="2.87582"/>
<path fill-rule="evenodd" clip-rule="evenodd" d="M47.7147 18.5243H63.1804C60.7469 17.7269 58.1476 17.2957 55.4475 17.2957C52.7475 17.2957 50.1482 17.7269 47.7147 18.5243ZM40.1241 18.5243H13.6629V62.9197C13.6629 63.7138 13.0192 64.3576 12.225 64.3576C11.4309 64.3576 10.7871 63.7138 10.7871 62.9197V17.0863V15.6484H12.225H45.9018C43.8552 16.3868 41.9189 17.3559 40.1241 18.5243ZM64.9933 15.6484C67.0399 16.3868 68.9762 17.3559 70.7709 18.5243H87.0861C87.8803 18.5243 88.524 17.8805 88.524 17.0863C88.524 16.2922 87.8803 15.6484 87.0861 15.6484H64.9933Z" fill="#0054A5"/>
<path fill-rule="evenodd" clip-rule="evenodd" d="M53.791 25.9169C53.791 26.6303 54.4023 27.1866 55.1158 27.1866C63.554 27.1866 70.3945 34.0272 70.3945 42.4654C70.3945 43.4537 71.1536 44.3197 72.1419 44.3197H72.4116C73.3834 44.3197 74.2063 43.5808 74.2134 42.6091C74.2138 42.5612 74.2139 42.5133 74.2139 42.4654C74.2139 31.9177 65.6634 23.3672 55.1158 23.3672C54.3693 23.3672 53.791 23.9918 53.791 24.7382V25.9169Z" fill="#0054A5"/>
<path d="M92.0968 26.3503C91.9524 25.906 91.5383 25.6052 91.0711 25.6052C90.6039 25.6052 90.1898 25.906 90.0455 26.3503L89.0495 29.4156L85.8265 29.4156C85.3593 29.4156 84.9453 29.7164 84.8009 30.1607C84.6565 30.6051 84.8147 31.0918 85.1927 31.3665L87.8001 33.2609L86.8041 36.3261C86.6598 36.7704 86.8179 37.2572 87.1959 37.5318C87.5739 37.8064 88.0857 37.8064 88.4637 37.5318L91.0711 35.6374L93.6785 37.5318C94.0565 37.8064 94.5683 37.8064 94.9463 37.5318C95.3243 37.2572 95.4824 36.7704 95.3381 36.3261L94.3421 33.2609L96.9496 31.3665C97.3275 31.0918 97.4857 30.6051 97.3413 30.1607C97.1969 29.7164 96.7829 29.4156 96.3157 29.4156L93.0927 29.4156L92.0968 26.3503Z" stroke="#0054A5" stroke-width="2.15686" stroke-linejoin="round"/>
<rect x="48.4398" y="77.7542" width="13.1209" height="3.95425" stroke="#0054A5" stroke-width="2.15686"/>
<path d="M104.247 79.6161L80.8108 59.4883L72.5391 67.76L104.247 101.122" stroke="#0054A5" stroke-width="2.87582" stroke-linecap="round"/>
<path fill-rule="evenodd" clip-rule="evenodd" d="M9.1206 10.8055H100.878C102.64 10.8055 104.068 12.2338 104.068 13.9956V72.1416C104.068 73.9034 102.64 75.3316 100.878 75.3316H98.619L101.873 78.1262C104.75 77.6514 106.944 75.1527 106.944 72.1416V13.9956C106.944 10.6455 104.228 7.92969 100.878 7.92969H9.1206C5.77049 7.92969 3.05469 10.6455 3.05469 13.9956V72.1416C3.05469 75.4917 5.77048 78.2075 9.12059 78.2075H82.5203L79.8123 75.3316H9.12059C7.35876 75.3316 5.9305 73.9034 5.9305 72.1416V13.9956C5.9305 12.2338 7.35876 10.8055 9.1206 10.8055Z" fill="#0054A5"/>
</svg>
