<svg width="17" height="16" viewBox="0 0 17 16" fill="none" xmlns="http://www.w3.org/2000/svg">
<path d="M14.1597 16H14.0551C1.96278 15.3046 0.245861 5.10154 0.00586143 1.98769C-0.0134769 1.74559 0.0151468 1.50205 0.0900921 1.27102C0.165038 1.04 0.284832 0.826033 0.442611 0.641386C0.60039 0.456739 0.793053 0.305039 1.00956 0.194978C1.22607 0.0849176 1.46216 0.0186596 1.70432 5.76979e-07H5.09509C5.34159 -0.000238047 5.58248 0.073545 5.78656 0.211792C5.99064 0.35004 6.1485 0.546382 6.23971 0.775385L7.17509 3.07692C7.26515 3.30064 7.2875 3.5459 7.23937 3.78221C7.19123 4.01853 7.07472 4.23549 6.90432 4.40615L5.59355 5.72923C5.7983 6.89277 6.35551 7.96533 7.1898 8.80182C8.02408 9.63831 9.09517 10.1983 10.2582 10.4062L11.5936 9.08308C11.7668 8.91456 11.9858 8.80077 12.2233 8.7559C12.4607 8.71103 12.7062 8.73707 12.9289 8.83077L15.2489 9.76C15.4745 9.85408 15.6669 10.0132 15.8017 10.217C15.9365 10.4209 16.0076 10.6602 16.0059 10.9046V14.1538C16.0059 14.6435 15.8114 15.1131 15.4651 15.4593C15.1189 15.8055 14.6493 16 14.1597 16ZM1.85202 1.23077C1.6888 1.23077 1.53228 1.2956 1.41687 1.41101C1.30147 1.52642 1.23663 1.68294 1.23663 1.84615V1.89539C1.51971 5.53846 3.33509 14.1538 14.1228 14.7692C14.2036 14.7742 14.2847 14.7632 14.3612 14.7368C14.4378 14.7104 14.5084 14.6692 14.569 14.6154C14.6296 14.5617 14.679 14.4965 14.7144 14.4236C14.7498 14.3508 14.7704 14.2716 14.7751 14.1908V10.9046L12.4551 9.97538L10.6889 11.7292L10.3936 11.6923C5.03971 11.0215 4.31355 5.66769 4.31355 5.61231L4.27663 5.31692L6.02432 3.55077L5.10125 1.23077H1.85202Z" fill="#B7B7B7"/>
</svg>
