<svg width="17" height="20" viewBox="0 0 20 20" fill="none" xmlns="http://www.w3.org/2000/svg">
<g clip-path="url(#clip0_3680_1030)">
<path d="M18.3019 11.9756C18.1402 11.5756 17.6848 11.3823 17.2848 11.5441C16.8848 11.7058 16.6916 12.1611 16.8533 12.5612L17.7734 14.8372L15.0407 13.6326C14.8428 13.5454 14.6177 13.544 14.4189 13.6288C13.485 14.0273 12.4845 14.2293 11.4453 14.2293C7.26278 14.2293 4.45314 10.9545 4.45314 7.89592C4.45314 4.40366 7.58982 1.5625 11.4453 1.5625C15.3008 1.5625 18.4375 4.40366 18.4375 7.89592C18.4375 8.16838 18.4121 8.49463 18.3679 8.79096C18.3042 9.21772 18.5986 9.61525 19.0253 9.67893C19.4521 9.74275 19.8497 9.44826 19.9133 9.02151C19.9692 8.6469 20 8.24713 20 7.89592C20 5.77366 19.1013 3.78234 17.4694 2.28878C15.8568 0.81285 13.7174 0 11.4453 0C9.17321 0 7.03384 0.81285 5.42123 2.28875C3.96295 3.62343 3.09076 5.35577 2.92158 7.2237C1.08733 8.43838 2.60507e-05 10.3848 2.60507e-05 12.4814C2.60507e-05 13.7911 0.412642 15.0338 1.19807 16.1032L0.0569791 18.9259C-0.0622004 19.2207 0.00916666 19.5583 0.237486 19.7796C0.386275 19.9239 0.58233 20 0.781431 20C0.887798 20 0.995063 19.9783 1.09639 19.9336L4.38658 18.4832C5.21423 18.7913 6.08912 18.9473 6.99216 18.9473C7.01169 18.9473 7.03087 18.9457 7.05005 18.9443C8.35618 18.9345 9.62598 18.5909 10.7257 17.948C11.7108 17.372 12.5211 16.5809 13.0892 15.6465C13.6439 15.5469 14.186 15.3965 14.7121 15.1953L18.9036 17.043C19.0049 17.0876 19.1122 17.1094 19.2185 17.1094C19.4176 17.1093 19.6137 17.0332 19.7625 16.889C19.9908 16.6677 20.0622 16.3301 19.943 16.0353L18.3019 11.9756ZM6.99224 17.3828C6.98157 17.3828 6.97118 17.3839 6.9606 17.3844C6.16287 17.3803 5.39505 17.2235 4.67799 16.9176C4.4792 16.8327 4.25408 16.8341 4.05627 16.9213L2.2267 17.7278L2.8169 16.2678C2.926 15.9979 2.87596 15.6897 2.68713 15.4682C1.95139 14.605 1.56252 13.5723 1.56252 12.4814C1.56252 11.2329 2.08772 10.05 3.00662 9.15307C3.29271 10.7126 4.09994 12.2045 5.31763 13.3765C6.8329 14.8348 8.8372 15.6796 11.0014 15.7813C9.98536 16.7815 8.5313 17.3828 6.99224 17.3828Z" fill="#0054A5"/>
<path d="M11.4062 8.71094C11.8377 8.71094 12.1875 8.36116 12.1875 7.92969C12.1875 7.49822 11.8377 7.14844 11.4062 7.14844C10.9748 7.14844 10.625 7.49822 10.625 7.92969C10.625 8.36116 10.9748 8.71094 11.4062 8.71094Z" fill="#EC1A3B"/>
<path d="M14.5312 8.71094C14.9627 8.71094 15.3125 8.36116 15.3125 7.92969C15.3125 7.49822 14.9627 7.14844 14.5312 7.14844C14.0998 7.14844 13.75 7.49822 13.75 7.92969C13.75 8.36116 14.0998 8.71094 14.5312 8.71094Z" fill="#EC1A3B"/>
<path d="M8.28125 8.71094C8.71272 8.71094 9.0625 8.36116 9.0625 7.92969C9.0625 7.49822 8.71272 7.14844 8.28125 7.14844C7.84978 7.14844 7.5 7.49822 7.5 7.92969C7.5 8.36116 7.84978 8.71094 8.28125 8.71094Z" fill="#EC1A3B"/>
</g>
<defs>
<clipPath id="clip0_3680_1030">
<rect width="20" height="20" fill="white"/>
</clipPath>
</defs>
</svg>
