<svg width="17" height="20" viewBox="0 0 17 20" fill="none" xmlns="http://www.w3.org/2000/svg">
<path fill-rule="evenodd" clip-rule="evenodd" d="M3.6727 3.50781C3.11637 3.50781 2.66992 3.95456 2.66992 4.50998V16.9992C2.66992 17.5546 3.11636 18.0013 3.6727 18.0013H13.6671C14.2235 18.0013 14.6699 17.5546 14.6699 16.9992V4.50998C14.6699 3.95456 14.2235 3.50781 13.6671 3.50781H11.7672C11.2149 3.50781 10.7672 3.0601 10.7672 2.50781C10.7672 1.95553 11.2149 1.50781 11.7672 1.50781H13.6671C15.3275 1.50781 16.6699 2.84943 16.6699 4.50998V16.9992C16.6699 18.6597 15.3275 20.0013 13.6671 20.0013H3.6727C2.01237 20.0013 0.669922 18.6597 0.669922 16.9992V4.50998C0.669922 2.84943 2.01236 1.50781 3.6727 1.50781H5.67547C6.22776 1.50781 6.67547 1.95553 6.67547 2.50781C6.67547 3.0601 6.22776 3.50781 5.67547 3.50781H3.6727Z" fill="#0054A5"/>
<path fill-rule="evenodd" clip-rule="evenodd" d="M6.6758 2.00004C6.67579 2.00033 6.67578 2.00067 6.67578 2.00108V3.00216C6.67578 3.00256 6.67579 3.00291 6.6758 3.0032C6.67616 3.00322 6.67661 3.00323 6.67717 3.00323H10.6672C10.6672 3.00323 10.6672 3.00323 10.6672 3.00323C10.6694 3.00107 10.6713 2.99831 10.6725 2.99546C10.6733 2.99366 10.6741 2.99128 10.6744 2.98759V2.00108C10.6744 2.00067 10.6744 2.00033 10.6744 2.00004C10.674 2.00002 10.6736 2 10.673 2H6.67717C6.67661 2 6.67616 2.00002 6.6758 2.00004ZM6.67482 2.00013C6.67477 2.00014 6.67477 2.00014 6.67482 2.00013L6.67482 2.00013ZM4.67578 2.00108C4.67578 0.894506 5.57101 0 6.67717 0H10.673C11.7792 0 12.6744 0.894506 12.6744 2.00108V3.00216L12.6742 3.0197C12.6552 4.10288 11.7789 5.00323 10.673 5.00323H6.67717C5.57101 5.00323 4.67578 4.10873 4.67578 3.00216V2.00108Z" fill="#0054A5"/>
<path fill-rule="evenodd" clip-rule="evenodd" d="M3.67383 7.00781C3.67383 6.45553 4.12154 6.00781 4.67383 6.00781H5.67522C6.2275 6.00781 6.67522 6.45553 6.67522 7.00781C6.67522 7.5601 6.2275 8.00781 5.67522 8.00781H4.67383C4.12154 8.00781 3.67383 7.5601 3.67383 7.00781Z" fill="#0054A5"/>
<path fill-rule="evenodd" clip-rule="evenodd" d="M3.67383 11C3.67383 10.4477 4.12154 10 4.67383 10H12.6655C13.2178 10 13.6655 10.4477 13.6655 11C13.6655 11.5523 13.2178 12 12.6655 12H4.67383C4.12154 12 3.67383 11.5523 3.67383 11Z" fill="#0054A5"/>
<path fill-rule="evenodd" clip-rule="evenodd" d="M3.67383 14.9961C3.67383 14.4438 4.12154 13.9961 4.67383 13.9961H9.38802C9.9403 13.9961 10.388 14.4438 10.388 14.9961C10.388 15.5484 9.9403 15.9961 9.38802 15.9961H4.67383C4.12154 15.9961 3.67383 15.5484 3.67383 14.9961Z" fill="#EC1A3B"/>
</svg>
